<?xml version="1.0" encoding="UTF-8" standalone="no"?>
<!-- Created with Inkscape (http://www.inkscape.org/) -->

<svg
   width="5.2973313mm"
   height="6.3144121mm"
   viewBox="0 0 5.2973313 6.3144121"
   version="1.1"
   id="svg13318"
   xml:space="preserve"
   xmlns="http://www.w3.org/2000/svg"
   xmlns:svg="http://www.w3.org/2000/svg"><defs
     id="defs13315" /><g
     id="layer1"
     transform="translate(-91.729305,-112.74086)"><path
       id="tooth24"
       style="fill:#000000;stroke-width:0.264583"
       d="m 94.358582,112.74092 c -0.112273,0.002 -0.223243,0.0204 -0.308509,0.0548 -0.181901,0.0734 -0.03304,0.13384 0.330729,0.13384 0.3638,0 0.512604,-0.0605 0.33073,-0.13384 -0.09095,-0.0367 -0.21084,-0.0548 -0.33073,-0.0548 -0.0075,0 -0.01474,-1.4e-4 -0.02222,0 z m -0.144694,0.493 c -2.527867,0 -2.944765,0.65515 -2.06344,3.24166 0.401147,1.17738 1.435608,2.57969 1.903243,2.57969 0.125002,0 0.501288,-0.25448 0.835608,-0.56586 0.680018,-0.63356 2.137014,-3.54389 2.137337,-4.26899 2.65e-4,-0.6246 -1.030235,-0.9865 -2.812748,-0.9865 z" /></g></svg>
