<?xml version="1.0" encoding="UTF-8" standalone="no"?>
<!-- Created with Inkscape (http://www.inkscape.org/) -->

<svg
   width="8.7338781mm"
   height="9.5494518mm"
   viewBox="0 0 8.7338781 9.5494518"
   version="1.1"
   id="svg13318"
   xml:space="preserve"
   xmlns="http://www.w3.org/2000/svg"
   xmlns:svg="http://www.w3.org/2000/svg"><defs
     id="defs13315" /><g
     id="layer1"
     transform="translate(-29.797376,-90.160009)"><path
       style="fill:#000000;stroke-width:0.264583"
       d="m 33.255334,90.161948 c 1.920493,0.0385 4.377875,0.64608 4.789889,1.415935 0.163732,0.305905 0.36201,1.726129 0.4408,3.155879 0.163271,2.962935 -0.08554,3.878587 -1.240751,4.560962 -0.815966,0.48202 -1.685342,0.545055 -2.528011,0.182935 -0.291042,-0.12506 -0.886354,-0.23653 -1.322917,-0.24753 -1.38138,-0.03493 -2.768757,-0.551531 -3.183785,-1.184941 -0.281408,-0.429455 -0.404895,-1.329602 -0.412895,-3.017387 -0.01246,-2.628915 0.377715,-3.878287 1.413868,-4.527372 0.408585,-0.255975 1.170865,-0.355979 2.043802,-0.338481 z"
       id="tooth02" /></g></svg>
