<?xml version="1.0" encoding="UTF-8" standalone="no"?>
<!-- Created with Inkscape (http://www.inkscape.org/) -->

<svg
   width="8.7179728mm"
   height="8.664135mm"
   viewBox="0 0 8.7179728 8.664135"
   version="1.1"
   id="svg13318"
   xml:space="preserve"
   xmlns="http://www.w3.org/2000/svg"
   xmlns:svg="http://www.w3.org/2000/svg"><defs
     id="defs13315" /><g
     id="layer1"
     transform="translate(-91.73429,-91.310184)"><path
       id="tooth09"
       style="fill:#000000;stroke-width:0.264583"
       d="m 95.970369,91.310189 c -0.246671,-8e-4 -0.492038,0.100674 -0.919323,0.304374 -0.984384,0.46943 -1.810062,1.619094 -2.736267,3.81062 -0.779535,1.844246 -0.773529,3.192444 0.0155,3.530534 0.829444,0.35543 6.802215,0.172813 7.540625,-0.230477 v 5.17e-4 c 0.432976,-0.23648 0.591646,-0.557036 0.580846,-1.175639 -0.0333,-1.913246 -1.99489,-5.185981 -3.553792,-5.929354 -0.433005,-0.2065 -0.680894,-0.309775 -0.927592,-0.310575 z m 3.305225,7.924581 -0.79375,0.1757 c -0.436533,0.0966 -1.71648,0.179368 -2.844271,0.183968 -1.127788,0.005 -1.84219,0.09087 -1.5875,0.191719 0.812876,0.321813 3.610078,0.21001 4.431771,-0.17725 z" /></g></svg>
