<?xml version="1.0" encoding="UTF-8" standalone="no"?>
<!-- Created with Inkscape (http://www.inkscape.org/) -->

<svg
   width="6.7904692mm"
   height="7.6210465mm"
   viewBox="0 0 6.7904692 7.6210465"
   version="1.1"
   id="svg13318"
   xml:space="preserve"
   xmlns="http://www.w3.org/2000/svg"
   xmlns:svg="http://www.w3.org/2000/svg"><defs
     id="defs13315" /><g
     id="layer1"
     transform="translate(-101.57614,-92.598482)"><path
       id="tooth10"
       style="fill:#000000;stroke-width:0.264583"
       d="m 104.47683,92.598482 c -1.46443,0 -2.50667,1.673622 -2.84737,4.572331 -0.1853,1.576606 0.0619,1.948154 1.55029,2.329574 1.06574,0.273073 3.97993,0.09494 4.69325,-0.286805 0.74751,-0.400023 0.66488,-1.121555 -0.37724,-3.288171 -1.15117,-2.393886 -1.9982,-3.326929 -3.01893,-3.326929 z m 0.93069,7.441928 c -0.12757,0.002 -0.25945,0.0177 -0.37207,0.047 -0.25744,0.0671 -0.111,0.12678 0.32556,0.13178 0.43659,0.005 0.64732,-0.0495 0.46819,-0.12196 v 5.2e-4 c -0.0896,-0.0363 -0.22355,-0.0554 -0.36742,-0.0574 -0.018,-2.3e-4 -0.036,-3.2e-4 -0.0543,0 z" /></g></svg>
