<?xml version="1.0" encoding="UTF-8" standalone="no"?>
<!-- Created with Inkscape (http://www.inkscape.org/) -->

<svg
   width="5.9999404mm"
   height="6.5940499mm"
   viewBox="0 0 5.9999404 6.5940499"
   version="1.1"
   id="svg13318"
   xml:space="preserve"
   xmlns="http://www.w3.org/2000/svg"
   xmlns:svg="http://www.w3.org/2000/svg"><defs
     id="defs13315" /><g
     id="layer1"
     transform="translate(-97.820386,-112.73054)"><path
       id="tooth23"
       style="fill:#000000;stroke-width:0.264583"
       d="m 101.5261,112.73059 c -0.0294,1.3e-4 -0.0589,3.8e-4 -0.0889,10e-4 -0.47967,0.0103 -1.02547,0.0867 -1.36788,0.22376 -0.348595,0.13953 -0.0191,0.20083 0.96635,0.17983 0.82251,-0.0175 1.44066,-0.12133 1.37356,-0.23047 -0.0738,-0.11993 -0.44217,-0.17615 -0.88315,-0.17415 z m -0.004,0.76791 c -2.238126,0 -3.701584,0.52128 -3.701584,1.31826 0,0.53112 0.980561,2.67367 1.788004,3.90726 0.56457,0.86251 1.70867,0.78653 2.51096,-0.16692 0.35284,-0.41927 0.91517,-1.4373 1.25005,-2.26239 0.49606,-1.22215 0.55416,-1.62039 0.31368,-2.14819 -0.27258,-0.59822 -0.43767,-0.64802 -2.16111,-0.64802 z" /></g></svg>
