<?xml version="1.0" encoding="UTF-8" standalone="no"?>
<!-- Created with Inkscape (http://www.inkscape.org/) -->

<svg
   width="5.0245323mm"
   height="6.2756548mm"
   viewBox="0 0 5.0245323 6.2756548"
   version="1.1"
   id="svg13318"
   xml:space="preserve"
   xmlns="http://www.w3.org/2000/svg"
   xmlns:svg="http://www.w3.org/2000/svg"><defs
     id="defs13315" /><g
     id="layer1"
     transform="translate(-85.649552,-112.74086)"><path
       id="tooth25"
       style="fill:#000000;stroke-width:0.264583"
       d="m 88.008582,112.74092 c -0.112273,0.002 -0.223243,0.0204 -0.308509,0.0548 -0.181901,0.0734 -0.03304,0.13384 0.330729,0.13384 0.3638,0 0.512605,-0.0605 0.33073,-0.13384 -0.09095,-0.0367 -0.21084,-0.0548 -0.33073,-0.0548 -0.0075,0 -0.01474,-1.4e-4 -0.02222,0 z m 0.368453,0.50281 c -0.67379,-2.1e-4 -1.380434,0.0518 -1.90066,0.15607 -0.732341,0.14647 -0.826823,0.26892 -0.826823,1.06918 0,1.05166 0.823364,2.81832 1.79834,3.85868 0.783883,0.83652 0.717521,0.81561 1.415934,0.44183 0.747789,-0.40011 1.807126,-2.80866 1.810226,-4.11551 0.0021,-0.91156 -0.09651,-1.12017 -0.592729,-1.25315 -0.389534,-0.1044 -1.030525,-0.15689 -1.704288,-0.1571 z" /></g></svg>
