<?xml version="1.0" encoding="UTF-8" standalone="no"?>
<!-- Created with Inkscape (http://www.inkscape.org/) -->

<svg
   width="5.7405739mm"
   height="6.5832963mm"
   viewBox="0 0 5.7405739 6.5832963"
   version="1.1"
   id="svg13318"
   xml:space="preserve"
   xmlns="http://www.w3.org/2000/svg"
   xmlns:svg="http://www.w3.org/2000/svg"><defs
     id="defs13315" /><g
     id="layer1"
     transform="translate(-78.812035,-112.73603)"><path
       id="tooth26"
       style="fill:#000000;stroke-width:0.264583"
       d="m 81.037948,112.73627 c -0.361848,0.005 -0.685576,0.0654 -0.872299,0.18397 -0.179036,0.11376 0.355015,0.21783 1.190625,0.23203 1.023836,0.0174 1.343492,-0.0448 0.985987,-0.19172 -0.343239,-0.14106 -0.784263,-0.21576 -1.191142,-0.22376 -0.03815,-7.1e-4 -0.07574,-0.001 -0.113171,-5.2e-4 z m 0.04909,0.80409 c -0.177718,1.1e-4 -0.357917,0.005 -0.538985,0.0134 l -1.645378,0.0775 -0.08165,0.98857 c -0.05535,0.66813 0.144154,1.43999 0.615983,2.38125 0.929352,1.85408 1.386624,2.3182 2.281514,2.3182 0.590685,0 0.895815,-0.23218 1.440222,-1.0945 0.914441,-1.44861 1.557783,-3.22544 1.357023,-3.74861 -0.199895,-0.52098 -1.609071,-0.90835 -3.251997,-0.93535 v 0.001 c -0.05868,-9.5e-4 -0.117494,-0.002 -0.176734,-0.002 z" /></g></svg>
