<?xml version="1.0" encoding="UTF-8" standalone="no"?>
<!-- Created with Inkscape (http://www.inkscape.org/) -->

<svg
   width="8.8505726mm"
   height="8.6954041mm"
   viewBox="0 0 8.8505726 8.6954041"
   version="1.1"
   id="svg13318"
   xml:space="preserve"
   xmlns="http://www.w3.org/2000/svg"
   xmlns:svg="http://www.w3.org/2000/svg"><defs
     id="defs13315" /><g
     id="layer1"
     transform="translate(-81.997148,-91.275566)"><path
       id="tooth08"
       style="fill:#000000;stroke-width:0.264583"
       d="m 86.550273,91.275566 c -1.367423,0 -3.086093,1.924841 -4.111894,4.605403 -0.784217,2.049308 -0.570806,2.674262 1.026294,3.007052 1.474791,0.30731 4.799897,0.389882 6.223909,0.154512 1.30451,-0.215584 1.452603,-0.83732 0.720887,-3.026688 -0.98986,-2.961712 -2.437957,-4.740279 -3.859196,-4.740279 z m -2.78691,8.048604 c -0.09671,4.66e-4 0.04537,0.09076 0.430981,0.276469 0.850832,0.409821 3.363729,0.503891 4.233333,0.158646 0.329645,-0.130864 -0.287032,-0.214825 -1.636075,-0.222725 -1.191085,-0.007 -2.441294,-0.08128 -2.778125,-0.165365 -0.105794,-0.02641 -0.181687,-0.04189 -0.227377,-0.04599 -0.0086,-7.66e-4 -0.01629,-0.0011 -0.02274,-10e-4 z" /></g></svg>
