<?xml version="1.0" encoding="UTF-8" standalone="no"?>
<!-- Created with Inkscape (http://www.inkscape.org/) -->

<svg
   width="6.975749mm"
   height="9.8997355mm"
   viewBox="0 0 6.975749 9.8997355"
   version="1.1"
   id="svg13318"
   xml:space="preserve"
   xmlns="http://www.w3.org/2000/svg"
   xmlns:svg="http://www.w3.org/2000/svg"><defs
     id="defs13315" /><g
     id="layer1"
     transform="translate(-58.27672,-89.969106)"><path
       style="fill:#000000;stroke-width:0.264583"
       d="m 61.841183,89.971778 c 0.956462,-0.04863 1.544335,0.562537 2.342492,2.151807 0.490093,0.975815 0.952151,2.316324 1.026811,2.978629 0.114927,1.019615 0.02023,1.370775 -0.617017,2.2903 -0.413918,0.597295 -1.114153,1.354736 -1.555977,1.683101 -1.561768,1.160735 -2.614971,1.059515 -3.978569,-0.382405 -0.743366,-0.78607 -0.79268,-0.96822 -0.78083,-2.87166 0.0099,-1.58337 0.164117,-2.383179 0.698665,-3.619934 0.602051,-1.39296 0.817985,-1.634916 1.7632,-1.973006 0.422154,-0.151005 0.782396,-0.240621 1.101225,-0.256832 z"
       id="tooth05" /></g></svg>
