<?xml version="1.0" encoding="UTF-8" standalone="no"?>
<!-- Created with Inkscape (http://www.inkscape.org/) -->

<svg
   width="10.285657mm"
   height="10.774057mm"
   viewBox="0 0 10.285657 10.774057"
   version="1.1"
   id="svg13318"
   xml:space="preserve"
   xmlns="http://www.w3.org/2000/svg"
   xmlns:svg="http://www.w3.org/2000/svg"><defs
     id="defs13315" /><g
     id="layer1"
     transform="translate(-39.267068,-89.188192)"><path
       style="fill:#000000;stroke-width:0.264583"
       d="m 45.224113,89.188872 c 0.84729,-0.01155 1.172677,0.122235 1.78232,0.538985 1.155821,0.79015 1.735193,1.786363 2.283582,3.926893 0.578955,2.259895 0.193861,4.205899 -1.084689,5.484419 -0.546766,0.54679 -1.096897,0.850439 -1.488798,0.821139 -0.341949,-0.02553 -1.699604,-0.114838 -3.01687,-0.198438 -2.900227,-0.18408 -3.668998,-0.595572 -4.113444,-2.201932 -0.171219,-0.61885 -0.314543,-2.171581 -0.318843,-3.450436 -0.0064,-1.90807 0.08609,-2.453963 0.516247,-3.042708 0.776741,-1.063145 2.229753,-1.666695 4.389396,-1.823145 0.428335,-0.03103 0.768661,-0.05092 1.051099,-0.05478 z"
       id="tooth03" /></g></svg>
