<?xml version="1.0" encoding="UTF-8" standalone="no"?>
<!-- Created with Inkscape (http://www.inkscape.org/) -->

<svg
   width="8.0743542mm"
   height="8.644269mm"
   viewBox="0 0 8.0743542 8.644269"
   version="1.1"
   id="svg13318"
   xml:space="preserve"
   xmlns="http://www.w3.org/2000/svg"
   xmlns:svg="http://www.w3.org/2000/svg"><defs
     id="defs13315" /><g
     id="layer1"
     transform="translate(-20.929111,-91.316426)"><path
       style="fill:#000000;stroke-width:0.264583"
       d="m 26.58029,91.319973 c 0.765478,-0.02823 1.008411,0.107677 1.540474,0.56534 0.712447,0.61284 0.776812,0.821847 0.867647,2.822567 0.110173,2.426 -0.38844,4.219247 -1.363224,4.902027 -0.311292,0.218015 -0.867265,0.374682 -1.235067,0.347782 -0.367779,-0.02692 -1.323562,-0.08768 -2.123901,-0.134876 -2.199679,-0.129655 -2.599292,-0.281767 -3.054594,-1.162202 -0.505673,-0.977885 -0.319823,-3.091027 0.455786,-5.186247 0.579449,-1.565265 0.992949,-1.783163 3.942912,-2.077393 0.401289,-0.04002 0.714799,-0.06759 0.969967,-0.077 z"
       id="tooth01" /></g></svg>
