<?xml version="1.0" encoding="UTF-8" standalone="no"?>
<!-- Created with Inkscape (http://www.inkscape.org/) -->

<svg
   width="9.68752mm"
   height="9.2714996mm"
   viewBox="0 0 9.68752 9.2714996"
   version="1.1"
   id="svg13318"
   xml:space="preserve"
   xmlns="http://www.w3.org/2000/svg"
   xmlns:svg="http://www.w3.org/2000/svg"><defs
     id="defs13315" /><g
     id="layer1"
     transform="translate(-137.15881,-112.76777)"><path
       style="fill:#000000;stroke-width:0.264583"
       d="m 143.32045,112.77064 c 0.73132,-0.0204 1.13889,0.0676 1.64745,0.28009 1.32827,0.55509 1.87843,1.70094 1.87843,3.91346 0,2.01 -0.58725,3.47161 -1.73012,4.30671 -0.53093,0.388 -1.31294,0.57029 -2.91042,0.67851 -3.01468,0.20421 -3.73828,0.0939 -4.46639,-0.68161 -0.58256,-0.62051 -0.62318,-0.85116 -0.55708,-3.18172 0.0774,-2.73137 0.49219,-4.11041 1.37821,-4.58473 0.3125,-0.16725 1.66346,-0.42829 3.00189,-0.58033 0.76401,-0.0868 1.31924,-0.13812 1.75803,-0.15038 z"
       id="tooth18" /></g></svg>
