<?xml version="1.0" encoding="UTF-8" standalone="no"?>
<!-- Created with Inkscape (http://www.inkscape.org/) -->

<svg
   width="8.8790779mm"
   height="9.4528189mm"
   viewBox="0 0 8.8790779 9.4528189"
   version="1.1"
   id="svg13318"
   xml:space="preserve"
   xmlns="http://www.w3.org/2000/svg"
   xmlns:svg="http://www.w3.org/2000/svg"><defs
     id="defs13315" /><g
     id="layer1"
     transform="translate(-143.93523,-90.246245)"><path
       style="fill:#000000;stroke-width:0.264583"
       d="m 149.51491,90.246698 c 0.82585,0.0075 1.52638,0.108997 1.84744,0.31936 1.06485,0.697695 1.59033,2.502944 1.42058,4.880839 -0.0803,1.125485 -0.21887,2.227551 -0.30747,2.448946 -0.26643,0.66564 -1.22402,1.109816 -2.91507,1.351856 -0.88062,0.12605 -2.09007,0.302207 -2.68769,0.391707 -0.94773,0.14201 -1.19684,0.06449 -1.94975,-0.608231 -0.78842,-0.70445 -0.8725,-0.930997 -0.971,-2.610177 -0.0593,-1.011165 0.0442,-2.552526 0.22996,-3.425631 0.30741,-1.44462 0.4278,-1.631739 1.3379,-2.076359 0.8946,-0.437025 2.61893,-0.684829 3.9951,-0.67231 z"
       id="tooth15" /></g></svg>
