<?xml version="1.0" encoding="UTF-8" standalone="no"?>
<!-- Created with Inkscape (http://www.inkscape.org/) -->

<svg
   width="9.2422485mm"
   height="8.8257189mm"
   viewBox="0 0 9.2422485 8.8257189"
   version="1.1"
   id="svg13318"
   xml:space="preserve"
   xmlns="http://www.w3.org/2000/svg"
   xmlns:svg="http://www.w3.org/2000/svg"><defs
     id="defs13315" /><g
     id="layer1"
     transform="translate(-25.315563,-112.74174)"><path
       style="fill:#000000;stroke-width:0.264583"
       d="m 30.095837,112.74174 c 1.007782,0.0223 2.064754,-0.04 3.011352,0.36218 0.806533,0.38251 1.155795,1.30621 1.332095,2.12271 0.249338,1.4693 0.0962,3.0023 -0.373864,4.41286 -0.229994,0.65668 -0.590876,1.35793 -1.286155,1.61309 -1.122839,0.46417 -2.369852,0.30129 -3.547458,0.21834 -0.844839,-0.0799 -1.784215,-0.15063 -2.408708,-0.80064 -1.04398,-0.94918 -1.41335,-2.41634 -1.499783,-3.777 -0.05528,-1.20117 0.172679,-2.54599 1.085527,-3.40459 0.809343,-0.67838 1.934925,-0.68449 2.935898,-0.73665 0.250295,-0.007 0.500702,-0.01 0.751096,-0.0103 z"
       id="tooth32" /></g></svg>
