<?xml version="1.0" encoding="UTF-8" standalone="no"?>
<!-- Created with Inkscape (http://www.inkscape.org/) -->

<svg
   width="8.6816349mm"
   height="9.359045mm"
   viewBox="0 0 8.6816349 9.359045"
   version="1.1"
   id="svg13318"
   xml:space="preserve"
   xmlns="http://www.w3.org/2000/svg"
   xmlns:svg="http://www.w3.org/2000/svg"><defs
     id="defs13315" /><g
     id="layer1"
     transform="translate(-153.1622,-91.04346)"><path
       id="tooth16"
       style="fill:#000000;stroke-width:0.264583"
       d="m 155.60652,91.044562 c -0.60403,0.01466 -0.84899,0.179509 -1.37511,0.622184 -0.42247,0.35549 -0.77921,0.861711 -0.85111,1.188041 0.0143,0.0057 0.0266,0.02307 0.0274,0.05219 9e-4,0.03406 -0.008,0.0675 -0.016,0.100252 -0.0144,0.04944 -0.0298,0.09868 -0.0388,0.149345 -0.008,0.03869 -0.005,0.07771 0.001,0.116272 0.007,0.0374 0.0157,0.07423 0.0227,0.111621 0.0133,0.06472 0.0161,0.13058 0.0181,0.19637 0.001,0.07756 -0.003,0.155127 -0.0134,0.232027 -0.0101,0.06454 -0.0254,0.128227 -0.0383,0.192237 -0.0111,0.056 -0.0159,0.113085 -0.0202,0.170015 -0.002,0.05289 -4e-4,0.105717 -0.001,0.158647 -0.001,0.0646 -0.007,0.12912 -0.014,0.19327 -0.008,0.06764 -0.0173,0.134585 -0.0264,0.202055 -0.0111,0.07591 -0.0172,0.152436 -0.0232,0.228926 -0.005,0.07869 -0.007,0.157828 -0.009,0.236678 -0.002,0.07541 -0.002,0.150416 -0.003,0.225826 -0.002,0.07429 -0.004,0.148942 -0.005,0.223242 -0.001,0.08556 -0.002,0.170746 -0.002,0.256316 4e-4,0.09653 -0.005,0.193048 -0.0103,0.289388 -0.005,0.09044 -0.009,0.180931 -0.015,0.271301 -0.006,0.0815 -0.0206,0.161962 -0.0346,0.242362 -0.008,0.04621 -0.013,0.09277 -0.0171,0.139527 0.12471,0.04976 0.22066,0.304395 0.22066,0.611332 0,0.807155 1.02621,2.320788 1.86035,2.744544 0.35943,0.18228 0.83178,0.25653 1.05006,0.16433 0.21828,-0.0922 1.18522,-0.19728 2.14767,-0.23358 1.8925,-0.0713 2.71471,-0.377498 3.13831,-1.169443 0.60171,-1.124285 0.11175,-5.087684 -0.81183,-6.566524 -0.45331,-0.725845 -1.40631,-1.04148 -3.82406,-1.26659 -0.44032,-0.04099 -0.78002,-0.06982 -1.0542,-0.07958 -0.10281,-0.0037 -0.19638,-0.0047 -0.28267,-0.0026 z m 0.54674,0.359131 c 0.46404,0.0096 1.00431,0.07127 1.63194,0.176734 1.19824,0.201315 2.26158,0.537644 2.52181,0.797884 0.61521,0.615175 1.02956,2.113913 1.19476,4.321183 0.12729,1.70071 0.0878,1.897924 -0.48421,2.413289 -0.50662,0.45646 -1.09754,0.592758 -3.16415,0.730188 -2.49145,0.165699 -2.55414,0.155213 -3.23442,-0.525032 -0.82461,-0.824585 -1.11096,-1.986886 -1.08366,-4.402316 0.0296,-2.614688 0.60709,-3.553459 2.61793,-3.51193 z m 2.16266,1.511562 c -0.0629,0.0029 -0.0547,0.396206 0.0336,1.179256 0.13525,1.199905 0.12242,1.22661 -0.49558,1.04128 -0.34889,-0.10463 -1.17037,-0.259148 -1.82521,-0.343648 -0.65485,-0.0845 -1.27801,-0.285098 -1.38493,-0.445968 -0.11571,-0.17415 -0.1954,-0.07838 -0.1974,0.236678 -0.003,0.45983 0.17289,0.529751 1.34203,0.531751 1.60093,0.0031 2.07699,0.473033 2.12339,2.098063 v 5.17e-4 c 0.0169,0.590605 0.0878,0.851439 0.15761,0.579809 0.0698,-0.271615 0.0781,-0.910693 0.0186,-1.420068 l -0.108,-0.926042 1.27331,0.150895 c 0.93666,0.11093 1.27331,0.06095 1.27331,-0.188102 0,-0.2216 -0.26031,-0.300176 -0.75603,-0.227376 -0.70497,0.10347 -0.77669,0.02854 -1.06195,-1.104325 -0.19591,-0.77814 -0.32987,-1.165611 -0.39274,-1.16272 z" /></g></svg>
