<?xml version="1.0" encoding="UTF-8" standalone="no"?>
<!-- Created with Inkscape (http://www.inkscape.org/) -->

<svg
   width="6.9981599mm"
   height="7.6729598mm"
   viewBox="0 0 6.9981599 7.6729598"
   version="1.1"
   id="svg13318"
   xml:space="preserve"
   xmlns="http://www.w3.org/2000/svg"
   xmlns:svg="http://www.w3.org/2000/svg"><defs
     id="defs13315" /><g
     id="layer1"
     transform="translate(-104.06397,-112.44216)"><path
       id="tooth22"
       style="fill:#000000;stroke-width:0.264583"
       d="m 107.87404,112.44219 c -0.98013,1.3e-4 -1.7192,0.34679 -2.71147,1.27228 -1.23746,1.15388 -0.8005,1.21685 0.50023,0.0729 1.27582,-1.12301 2.07874,-1.31965 3.37499,-0.82682 0.99115,0.37683 1.74718,1.24497 1.74718,2.00556 0,1.28417 -1.95806,4.44978 -2.94659,4.76353 -1.13797,0.36118 -2.84906,-1.77337 -3.40289,-4.2447 -0.0568,-0.25325 -0.11189,-0.47169 -0.16692,-0.67438 -0.009,0.0672 -0.0192,0.13456 -0.0294,0.20154 -0.0165,0.10927 -0.0338,0.21856 -0.0517,0.32763 -0.012,0.074 -0.0263,0.14762 -0.0475,0.21962 -0.0174,0.0592 -0.0377,0.11734 -0.0543,0.17674 -0.007,0.027 -0.0145,0.0541 -0.0217,0.0811 l 0.67903,1.43557 c 0.87151,1.84281 1.82299,2.86236 2.67116,2.86236 0.67655,0 1.93577,-1.17657 2.78897,-2.60604 l 0.4377,-0.73381 c 0.009,-0.0361 0.0191,-0.072 0.0289,-0.108 0.0218,-0.0811 0.048,-0.16058 0.076,-0.23978 0.0326,-0.0832 0.0608,-0.16805 0.0842,-0.25425 0.0237,-0.092 0.0375,-0.18623 0.0522,-0.28009 0.0112,-0.0836 0.0229,-0.16711 0.0382,-0.25011 0.007,-0.0374 0.0147,-0.0746 0.0233,-0.11162 0.005,-0.0265 0.011,-0.0526 0.016,-0.0791 v -5.1e-4 c -0.006,-0.007 -0.009,-0.02 -0.004,-0.0367 0.0116,-0.0391 0.023,-0.0783 0.0351,-0.11731 0.009,-0.0425 0.0167,-0.0853 0.0264,-0.12764 0.0138,-0.0619 0.0289,-0.12366 0.045,-0.185 -0.005,-0.0626 -0.0129,-0.11272 -0.0129,-0.20826 0,-1.09504 -1.68532,-2.33445 -3.17449,-2.33474 z m -0.13178,1.89602 v 5.2e-4 l -1.32292,0.0372 1.32292,0.18087 c 2.16864,0.29745 2.18006,0.29745 1.71979,0 -0.21828,-0.14106 -0.99219,-0.23919 -1.71979,-0.21859 z" /></g></svg>
