<?xml version="1.0" encoding="UTF-8" standalone="no"?>
<!-- Created with Inkscape (http://www.inkscape.org/) -->

<svg
   width="7.3489294mm"
   height="9.5240479mm"
   viewBox="0 0 7.3489294 9.5240479"
   version="1.1"
   id="svg13318"
   xml:space="preserve"
   xmlns="http://www.w3.org/2000/svg"
   xmlns:svg="http://www.w3.org/2000/svg"><defs
     id="defs13315" /><g
     id="layer1"
     transform="translate(-57.222829,-112.45471)"><path
       id="tooth29"
       style="fill:#000000;stroke-width:0.264583"
       d="m 60.72911,112.45471 c -1.399479,0.0211 -2.782385,1.08731 -3.396692,3.12074 l -0.09715,0.32091 c 6.45e-4,0.009 7.6e-4,0.0181 -5.17e-4,0.0284 -0.0056,0.046 -0.0072,0.0922 -0.0088,0.13849 -0.002,0.0651 -0.0027,0.13024 -0.0031,0.19534 -6e-4,0.0637 0.01105,0.12633 0.02015,0.18913 0.008,0.0548 0.01387,0.11007 0.01757,0.16537 0.006,0.0582 0.01075,0.11626 0.01395,0.17466 0.0011,0.0543 0.0046,0.10878 0.0093,0.16278 0.0012,0.0533 0.01553,0.10458 0.02584,0.15658 0.01725,0.0699 0.02522,0.14079 0.03152,0.21239 0.0062,0.0694 0.01094,0.13916 0.01964,0.20826 0.01519,0.0871 0.0316,0.17398 0.04444,0.26148 0.0076,0.0688 0.02179,0.13697 0.03049,0.20567 0.0085,0.0715 0.01187,0.14308 0.01447,0.21498 0.0024,0.0795 -0.0024,0.15934 -0.0052,0.23874 -0.0024,0.0667 -0.0033,0.13329 -0.0041,0.19999 3.3e-4,0.0485 0.0065,0.0967 0.01292,0.1447 0.0065,0.0487 0.0093,0.0977 0.01137,0.14676 0.0025,0.0434 0.01363,0.0855 0.02377,0.12764 0.0085,0.0364 0.0045,0.0181 0.0124,0.0543 0.0092,0.042 -0.001,0.0719 -0.0186,0.0868 l 0.344165,0.68523 c 0.952789,1.89647 3.659164,2.70966 5.140255,1.54461 0.691691,-0.5441 1.499917,-2.4827 1.536857,-3.68608 0.0075,-0.24557 0.02554,-0.36424 0.0677,-0.35708 -3.2e-4,-0.002 -0.001,-0.003 -0.001,-0.005 -0.0033,-0.017 -0.0072,-0.0323 -0.01137,-0.0491 -0.0035,-0.0132 -0.0058,-0.0268 -0.0078,-0.0403 -0.0018,-0.016 -0.0044,-0.0332 -0.0067,-0.0491 -0.0025,-0.0188 -0.0045,-0.0369 -0.0062,-0.0558 -0.0012,-0.0156 -0.0025,-0.0305 -0.0041,-0.046 -0.0012,-0.013 -0.003,-0.0243 -0.0047,-0.0372 -0.0017,-0.0102 -0.0037,-0.021 -0.0062,-0.031 -0.0024,-0.01 -0.0058,-0.0184 -0.0088,-0.0274 -0.0031,-0.01 -0.0058,-0.0179 -0.0088,-0.0279 -0.0031,-0.01 -0.007,-0.0189 -0.01085,-0.0279 -0.0041,-0.01 -0.0085,-0.0174 -0.01292,-0.0274 -0.0056,-0.0121 -0.01007,-0.0246 -0.01447,-0.0372 -0.0053,-0.0146 -0.0086,-0.0307 -0.01137,-0.046 -0.0025,-0.0141 -0.0058,-0.0294 -0.0088,-0.0434 -0.0035,-0.0161 -0.0061,-0.0327 -0.0078,-0.0491 -0.0014,-0.0145 -0.0017,-0.0288 -0.0021,-0.0434 -3.24e-4,-0.0133 -4.54e-4,-0.0265 -5.17e-4,-0.0398 -5.4e-5,-0.0144 10e-6,-0.029 0,-0.0434 3e-4,-0.0124 1.64e-4,-0.0244 0.0021,-0.0367 9e-4,-0.01 0.0022,-0.0209 0.0031,-0.031 0.001,-0.0104 0.0021,-0.0206 0.0031,-0.031 0.001,-0.0107 0.0019,-0.0203 0.0031,-0.031 0.0015,-0.01 0.0028,-0.0174 0.0036,-0.0274 7.15e-4,-0.009 0.001,-0.0189 0.001,-0.0279 1.57e-4,-0.0105 4.89e-4,-0.0205 5.17e-4,-0.031 -7.8e-5,-0.0116 -9.6e-5,-0.022 -5.17e-4,-0.0336 -0.0011,-0.0129 -0.0033,-0.0245 -0.0057,-0.0372 -0.0031,-0.0168 -0.005,-0.0352 -0.0072,-0.0522 -0.002,-0.0172 -0.0038,-0.035 -0.0057,-0.0522 -0.0016,-0.0172 -0.0034,-0.0357 -0.0062,-0.0527 -0.003,-0.0174 -0.0057,-0.0347 -0.0078,-0.0522 -0.002,-0.0192 -0.0054,-0.0397 -0.0083,-0.0589 -0.0026,-0.0186 -0.0048,-0.0365 -0.0062,-0.0553 -0.0022,-0.0256 -0.0023,-0.0513 -0.0031,-0.077 -7.16e-4,-0.0253 -10e-4,-0.0517 -10e-4,-0.077 -5.8e-5,-0.003 -3.63e-4,-0.007 -5.17e-4,-0.01 l -0.445968,-0.99683 c -0.743758,-1.662 -1.991867,-2.45672 -3.226676,-2.4381 z m 0.04961,0.25173 c 3.10522,0 4.586728,5.77282 2.115633,8.24394 -1.370928,1.37098 -3.770103,0.69204 -4.844149,-1.37046 -0.623733,-1.19775 -0.502573,-4.28618 0.21084,-5.37486 0.536879,-0.81938 1.678022,-1.49862 2.517676,-1.49862 z m -1.635043,3.57102 -0.264067,0.91984 c -0.238236,0.83064 -0.195833,0.97824 0.436149,1.52187 0.427993,0.36808 0.622672,0.73013 0.501778,0.93224 -0.151091,0.25166 -0.108188,0.25941 0.182935,0.0336 0.209836,-0.16293 0.842113,-0.44432 1.405082,-0.6258 0.844562,-0.27221 1.063611,-0.26686 1.252637,0.031 0.144874,0.22869 0.217624,-0.12407 0.197404,-0.96067 -0.01759,-0.72756 -0.08404,-1.02577 -0.147278,-0.66197 -0.1553,0.89334 -0.780747,1.32343 -1.927014,1.32343 -1.194756,0 -1.583495,-0.37938 -1.613855,-1.57458 z" /></g></svg>
