<?xml version="1.0" encoding="UTF-8" standalone="no"?>
<!-- Created with Inkscape (http://www.inkscape.org/) -->

<svg
   width="144.49777mm"
   height="144.49777mm"
   viewBox="0 0 144.49777 144.49777"
   version="1.1"
   id="svg5"
   xml:space="preserve"
   inkscape:version="1.2.2 (732a01da63, 2022-12-09)"
   sodipodi:docname="calendar.svg"
   xmlns:inkscape="http://www.inkscape.org/namespaces/inkscape"
   xmlns:sodipodi="http://sodipodi.sourceforge.net/DTD/sodipodi-0.dtd"
   xmlns="http://www.w3.org/2000/svg"
   xmlns:svg="http://www.w3.org/2000/svg"><sodipodi:namedview
     id="namedview7"
     pagecolor="#ffffff"
     bordercolor="#000000"
     borderopacity="0.25"
     inkscape:showpageshadow="2"
     inkscape:pageopacity="0.0"
     inkscape:pagecheckerboard="0"
     inkscape:deskcolor="#d1d1d1"
     inkscape:document-units="mm"
     showgrid="false"
     inkscape:zoom="0.89263468"
     inkscape:cx="306.39634"
     inkscape:cy="218.45443"
     inkscape:window-width="2560"
     inkscape:window-height="1377"
     inkscape:window-x="1358"
     inkscape:window-y="-8"
     inkscape:window-maximized="1"
     inkscape:current-layer="layer1" /><defs
     id="defs2" /><g
     inkscape:label="Layer 1"
     inkscape:groupmode="layer"
     id="layer1"
     transform="translate(32.613529,-90.691864)"><path
       style="fill:#000000;stroke-width:0.282222"
       d="m -20.336863,234.66199 c -5.629716,-1.62055 -10.384875,-6.47327 -11.829292,-12.07198 -0.400499,-1.55238 -0.447374,-7.21095 -0.447374,-54.00482 0,-58.12329 -0.146095,-53.74229 1.924624,-57.71444 1.36574,-2.61982 4.345549,-5.59963 6.965376,-6.96537 3.080637,-1.60597 4.757885,-1.92463 10.130181,-1.92463 h 4.6864844 v -5.644442 -5.644444 h 5.6444441 5.6444442 v 5.644444 5.644442 H 39.635356 76.888687 v -5.644442 -5.644444 h 5.644444 5.644445 v 5.644444 5.644442 h 4.686486 c 5.372294,0 7.049541,0.31866 10.130178,1.92463 2.61983,1.36574 5.59964,4.34555 6.96538,6.96537 2.07072,3.97215 1.92462,-0.40885 1.92462,57.71444 0,58.1233 0.1461,53.74229 -1.92462,57.71444 -1.36574,2.61983 -4.34555,5.59964 -6.96538,6.96538 -3.987245,2.07859 1.07424,1.92688 -63.540731,1.90452 -54.160001,-0.0188 -58.21179,-0.0531 -59.790372,-0.50754 z m 117.68666,-11.50732 c 1.291082,-0.69189 1.830488,-1.24471 2.576523,-2.64059 0.5071,-0.94881 0.53094,-2.48232 0.60442,-38.87611 l 0.0765,-37.88833 H 39.635356 -21.336535 l 0.0765,37.88833 c 0.07348,36.39379 0.09733,37.9273 0.604424,38.87611 0.988938,1.85037 2.13565,2.71817 4.128745,3.12451 0.543278,0.11076 26.1337762,0.18331 56.867775,0.16122 l 55.879997,-0.0402 z m -108.514438,-16.7517 v -5.64445 h 5.6444439 5.64444412 v 5.64445 5.64444 H -5.5201971 -11.164641 Z m 22.577776,0 v -5.64445 h 5.644444 5.644445 v 5.64445 5.64444 h -5.644445 -5.644444 z m 22.577777,0 v -5.64445 h 5.644444 5.644444 v 5.64445 5.64444 h -5.644444 -5.644444 z m 22.577776,0 v -5.64445 h 5.644445 5.644444 v 5.64445 5.64444 h -5.644444 -5.644445 z m -67.733329,-22.57778 v -5.64444 h 5.6444439 5.64444412 v 5.64444 5.64445 H -5.5201971 -11.164641 Z m 22.577776,0 v -5.64444 h 5.644444 5.644445 v 5.64444 5.64445 h -5.644445 -5.644444 z m 22.577777,0 v -5.64444 h 5.644444 5.644444 v 5.64444 5.64445 h -5.644444 -5.644444 z m 22.577776,0 v -5.64444 h 5.644445 5.644444 v 5.64444 5.64445 h -5.644444 -5.644445 z m 22.577777,0 v -5.64444 h 5.644444 5.644444 v 5.64444 5.64445 h -5.644444 -5.644444 z m -90.311106,-22.57777 v -5.64445 h 5.6444439 5.64444412 v 5.64445 5.64444 H -5.5201971 -11.164641 Z m 22.577776,0 v -5.64445 h 5.644444 5.644445 v 5.64445 5.64444 h -5.644445 -5.644444 z m 22.577777,0 v -5.64445 h 5.644444 5.644444 v 5.64445 5.64444 h -5.644444 -5.644444 z m 22.577776,0 v -5.64445 h 5.644445 5.644444 v 5.64445 5.64444 h -5.644444 -5.644445 z m 22.577777,0 v -5.64445 h 5.644444 5.644444 v 5.64445 5.64444 h -5.644444 -5.644444 z m 21.400465,-36.195 c -0.0859,-6.56951 -0.1564,-7.52018 -0.622696,-8.39611 -1.419623,-2.66675 -2.582201,-3.16799 -7.724992,-3.3306 l -4.021666,-0.12716 v 5.67999 5.67999 h -5.644445 -5.644444 v -5.64445 -5.64444 H 39.635356 2.3820247 v 5.64444 5.64445 h -5.6444442 -5.6444441 v -5.67999 -5.67999 l -4.0216664,0.12716 c -5.142793,0.16261 -6.30537,0.66385 -7.724991,3.3306 -0.466296,0.87593 -0.536803,1.8266 -0.622702,8.39611 l -0.09687,7.40833 H 39.635356 100.6438 Z"
       id="path885" /></g></svg>
