<?xml version="1.0" encoding="UTF-8" standalone="no"?>
<!-- Created with Inkscape (http://www.inkscape.org/) -->

<svg
   width="86.124496mm"
   height="86.124496mm"
   viewBox="0 0 86.124496 86.124496"
   version="1.1"
   id="svg5"
   xml:space="preserve"
   inkscape:version="1.2.2 (732a01da63, 2022-12-09)"
   sodipodi:docname="checkMark.svg"
   xmlns:inkscape="http://www.inkscape.org/namespaces/inkscape"
   xmlns:sodipodi="http://sodipodi.sourceforge.net/DTD/sodipodi-0.dtd"
   xmlns="http://www.w3.org/2000/svg"
   xmlns:svg="http://www.w3.org/2000/svg"><sodipodi:namedview
     id="namedview7"
     pagecolor="#ffffff"
     bordercolor="#000000"
     borderopacity="0.25"
     inkscape:showpageshadow="2"
     inkscape:pageopacity="0.0"
     inkscape:pagecheckerboard="0"
     inkscape:deskcolor="#d1d1d1"
     inkscape:document-units="mm"
     showgrid="false"
     inkscape:zoom="0.89263468"
     inkscape:cx="160.76005"
     inkscape:cy="185.96634"
     inkscape:window-width="2560"
     inkscape:window-height="1377"
     inkscape:window-x="1358"
     inkscape:window-y="-8"
     inkscape:window-maximized="1"
     inkscape:current-layer="layer1" /><defs
     id="defs2" /><g
     inkscape:label="Layer 1"
     inkscape:groupmode="layer"
     id="layer1"
     transform="translate(-5.8449373,-99.213203)"><path
       style="fill:#000000;stroke-width:0.168212"
       d="m 43.524404,185.07332 c -6.088546,-0.78096 -11.88828,-2.82605 -17.220897,-6.07242 -5.390665,-3.2817 -10.840074,-8.73111 -14.121776,-14.12177 -4.2833516,-7.03602 -6.3367937,-14.36076 -6.3367937,-22.60368 0,-8.24292 2.0534421,-15.56766 6.3367937,-22.60368 3.281702,-5.39066 8.731111,-10.84007 14.121776,-14.12177 7.036018,-4.28335 14.360755,-6.336797 22.603678,-6.336797 8.242924,0 15.567661,2.053447 22.603679,6.336797 5.390665,3.2817 10.840073,8.73111 14.121774,14.12177 4.283354,7.03602 6.336795,14.36076 6.336795,22.60368 0,8.24292 -2.053441,15.56766 -6.336795,22.60368 -3.281701,5.39066 -8.731109,10.84007 -14.121774,14.12177 -5.425283,3.30278 -11.159644,5.30651 -17.395958,6.07858 -2.559729,0.3169 -8.096938,0.31368 -10.590502,-0.006 z m 10.252518,-7.24243 c 6.038121,-0.7897 11.898841,-3.25312 17.055239,-7.1688 1.762961,-1.33876 5.122903,-4.6987 6.461665,-6.46166 3.902188,-5.13864 6.313427,-10.85928 7.185937,-17.04856 0.35945,-2.54983 0.35945,-7.20301 0,-9.75284 -0.87251,-6.18928 -3.283749,-11.90991 -7.185937,-17.04855 -1.338762,-1.76297 -4.698704,-5.12291 -6.461665,-6.46167 -5.13864,-3.90219 -10.859277,-6.31343 -17.04856,-7.18594 -2.536255,-0.35753 -7.203717,-0.35936 -9.725553,-0.004 -6.207488,0.87521 -11.937604,3.28786 -17.075838,7.18974 -1.762962,1.33876 -5.122904,4.6987 -6.461665,6.46167 -3.902189,5.13864 -6.313427,10.85927 -7.185937,17.04855 -0.359451,2.54983 -0.359451,7.20301 0,9.75284 0.87251,6.18928 3.283748,11.90992 7.185937,17.04856 1.338761,1.76296 4.698703,5.1229 6.461665,6.46166 7.872702,5.97839 17.073954,8.44014 26.794712,7.1688 z M 40.803649,159.71127 c -0.33996,-0.12641 -0.907675,-0.46212 -1.261589,-0.74602 -0.353916,-0.28391 -3.799349,-3.68216 -7.656518,-7.55167 -7.412342,-7.43607 -7.694148,-7.77524 -7.701813,-9.26969 -0.01319,-2.57209 2.785339,-4.34409 5.126769,-3.24622 0.441849,0.20717 2.722385,2.37125 6.642683,6.30345 l 5.969836,5.98796 13.03811,-13.01488 c 14.272356,-14.24693 13.68947,-13.73648 15.415736,-13.49987 2.315853,0.31742 3.690213,2.38176 3.095013,4.6488 -0.182447,0.69493 -1.393403,1.95275 -14.777727,15.34965 -8.569824,8.57788 -14.822076,14.70825 -15.16874,14.87304 -0.789717,0.37539 -1.96503,0.44684 -2.72176,0.16545 z"
       id="path307" /></g></svg>
