<?xml version="1.0" encoding="UTF-8" standalone="no"?>
<!-- Created with Inkscape (http://www.inkscape.org/) -->

<svg
   width="135.93518mm"
   height="144.40013mm"
   viewBox="0 0 135.93518 144.40013"
   version="1.1"
   id="svg5"
   xml:space="preserve"
   inkscape:version="1.2.2 (732a01da63, 2022-12-09)"
   sodipodi:docname="drawing.svg"
   xmlns:inkscape="http://www.inkscape.org/namespaces/inkscape"
   xmlns:sodipodi="http://sodipodi.sourceforge.net/DTD/sodipodi-0.dtd"
   xmlns="http://www.w3.org/2000/svg"
   xmlns:svg="http://www.w3.org/2000/svg"><sodipodi:namedview
     id="namedview7"
     pagecolor="#ffffff"
     bordercolor="#000000"
     borderopacity="0.25"
     inkscape:showpageshadow="2"
     inkscape:pageopacity="0.0"
     inkscape:pagecheckerboard="0"
     inkscape:deskcolor="#d1d1d1"
     inkscape:document-units="mm"
     showgrid="false"
     inkscape:zoom="0.89263468"
     inkscape:cx="39.769909"
     inkscape:cy="418.98439"
     inkscape:window-width="2560"
     inkscape:window-height="1377"
     inkscape:window-x="1358"
     inkscape:window-y="-8"
     inkscape:window-maximized="1"
     inkscape:current-layer="layer1" /><defs
     id="defs2" /><g
     inkscape:label="Layer 1"
     inkscape:groupmode="layer"
     id="layer1"
     transform="translate(-43.779409,-37.718178)"><path
       style="fill:#000000;stroke-width:0.282222"
       d="m 117.74423,181.7901 c -5.36344,-1.22714 -10.82235,-4.95216 -13.7481,-9.38137 l -0.7923,-1.19945 H 79.444784 c -25.90518,0 -24.91653,0.0567 -28.228,-1.62018 -1.84445,-0.93403 -4.67862,-3.79597 -5.64219,-5.69748 -1.79692,-3.54606 -1.67866,-1.35418 -1.77512,-32.899 -0.0586,-19.16513 0.0112,-29.4294 0.2088,-30.70967 0.16326,-1.05765 0.6536,-2.70865 1.08965,-3.66889 0.47615,-1.04855 3.74302,-5.68347 8.17909,-11.6042 l 7.38628,-9.85832 v -3.99826 -3.998267 l -1.13882,-0.513535 c -1.39493,-0.629025 -2.95572,-2.310942 -3.76132,-4.0532 -0.57442,-1.242302 -0.6032,-1.715246 -0.6032,-9.912323 0,-8.15697 0.0311,-8.675041 0.59426,-9.892116 0.87961,-1.901037 2.19335,-3.240462 4.12512,-4.205778 l 1.72078,-0.859883 h 27.31989 c 26.585106,0 27.360266,0.01511 28.821276,0.561745 1.72118,0.643974 3.50009,2.321024 4.49331,4.236033 0.63982,1.233616 0.66106,1.507266 0.74141,9.552047 0.0676,6.766806 0.004,8.552679 -0.3473,9.761268 -0.50811,1.747844 -2.19193,3.790316 -3.99666,4.847962 l -1.24209,0.72791 v 3.787439 3.787438 l 7.2532,9.66186 c 3.98926,5.31401 7.61265,10.36035 8.05199,11.21407 1.58093,3.07205 1.62115,3.51111 1.62479,17.73639 l 0.003,13.07972 1.48167,-0.84317 c 0.81491,-0.46374 3.79795,-2.17496 6.62896,-3.80271 3.35795,-1.93072 6.00688,-3.24124 7.62,-3.76989 2.30629,-0.7558 2.77661,-0.81026 6.98826,-0.80923 4.34924,0.001 4.61064,0.0343 7.0973,0.90219 8.69978,3.03639 14.37533,10.16116 15.39189,19.32213 0.27517,2.47975 0.25297,3.33318 -0.14815,5.69574 -1.04521,6.15616 -4.55177,11.87946 -9.21771,15.04485 -1.47465,1.0004 -35.36884,20.58991 -37.42467,21.62998 -2.92932,1.48198 -5.06727,1.95565 -9.2831,2.05668 -2.72466,0.0653 -4.49817,-0.0305 -5.7135,-0.30853 z m 10.44371,-6.28383 c 0.89418,-0.32312 5.3127,-2.71378 9.81895,-5.3126 6.33057,-3.65093 8.15458,-4.82568 8.02341,-5.16749 -0.54189,-1.41215 -16.41656,-28.51957 -16.6671,-28.46057 -0.16687,0.0393 -3.84987,2.10345 -8.18444,4.58701 -7.18146,4.11472 -8.08252,4.71597 -10.15091,6.77333 -2.44492,2.43188 -3.69069,4.5451 -4.4912,7.61848 -0.55236,2.12064 -0.56001,6.03746 -0.0159,8.12651 1.50205,5.76677 6.23867,10.56948 12.01828,12.18596 2.22733,0.62296 7.48317,0.43196 9.64889,-0.35063 z m -27.64798,-11.28199 c -0.28073,-1.32367 -0.29495,-7.79786 -0.0198,-9.03111 l 0.20461,-0.91722 H 75.150934 49.577104 l 0.14569,2.33531 c 0.19045,3.05258 0.98548,4.90916 2.80136,6.54179 2.43852,2.19244 1.07962,2.08231 26.00252,2.10728 l 22.237786,0.0223 -0.22446,-1.05833 z m 58.83554,-6.35 c 6.19831,-3.56667 7.80059,-4.62109 9.35407,-6.15572 2.03316,-2.00849 3.58509,-4.62329 4.42851,-7.4615 0.67568,-2.27372 0.67568,-6.47516 0,-8.74889 -1.73981,-5.85463 -6.32555,-10.37748 -12.02369,-11.85881 -2.77011,-0.72013 -7.43877,-0.47853 -9.85941,0.51022 -2.57732,1.05275 -16.40691,9.02625 -16.31912,9.40885 0.15783,0.68779 16.43762,28.60974 16.68081,28.60974 0.14264,0 3.62511,-1.93675 7.73883,-4.30389 z m -55.4914,-10.86555 c 1.4903,-2.18439 4.19604,-4.86156 6.31725,-6.25055 1.09099,-0.71439 5.62891,-3.3944 10.08427,-5.95556 l 8.10066,-4.65667 0.005,-11.50055 0.005,-11.50056 h -39.369656 -39.37 v 20.60222 20.60222 h 26.65644 26.656436 z m -16.655996,-4.61321 c -1.02007,-0.95034 -1.16482,-1.73834 -1.16482,-6.34128 v -4.35607 h -4.75929 c -4.71895,0 -4.76536,-0.006 -5.47538,-0.71609 -0.91221,-0.91221 -1.16128,-1.91436 -0.77024,-3.09921 0.57167,-1.73218 1.27587,-1.95874 6.4188,-2.06509 l 4.58611,-0.0948 V 121.556 c 0,-2.29181 0.13651,-4.5585 0.30334,-5.03709 0.39803,-1.14177 1.37993,-1.75407 2.81289,-1.75407 0.90639,0 1.34118,0.18065 1.98548,0.82496 l 0.82496,0.82495 v 4.67838 4.67838 l 4.02167,0.002 c 2.21191,8.5e-4 4.492136,0.13224 5.067156,0.29194 2.22642,0.61835 2.96887,3.21443 1.3751,4.80819 l -0.82496,0.82484 h -4.819476 -4.81949 v 4.81949 4.81949 l -0.82496,0.82495 c -1.04995,1.04996 -2.94014,1.16203 -3.93689,0.23342 z m 40.995216,-41.67123 c -0.4154,-1.75167 -1.18315,-2.90129 -8.11289,-12.1481 l -7.23459,-9.65357 H 98.943604 85.011374 l -0.72614,-0.72614 c -1.30064,-1.30063 -1.25191,-3.04802 0.12065,-4.32676 0.6259,-0.58311 0.82329,-0.59154 13.84617,-0.59154 H 111.46328 V 70.455954 67.633732 H 89.026624 66.589954 V 72.421 77.20827 l -7.99852,10.68559 c -7.48829,10.00395 -8.65259,11.76458 -8.65259,13.08421 0,0.50578 1.2426,0.52233 39.23426,0.52233 H 128.40737 Z M 72.996344,78.19648 c -1.93161,-1.9316 -0.72067,-4.9183 1.99409,-4.9183 0.99257,0 1.40231,0.16381 2.06345,0.82495 1.85217,1.85217 0.57265,4.81949 -2.07818,4.81949 -0.96995,0 -1.41736,-0.16414 -1.97936,-0.72614 z m 43.287956,-17.269978 0.82343,-0.921675 v -7.328872 -7.328872 l -0.82343,-0.921675 -0.82343,-0.921675 -25.661386,-0.07771 c -20.20723,-0.06119 -25.8957,-0.0012 -26.76379,0.282223 -1.94008,0.633427 -2.08931,1.273953 -2.08931,8.967708 0,7.579757 0.16427,8.324145 1.97468,8.948349 0.74819,0.257965 7.23983,0.326419 26.76379,0.282222 l 25.776006,-0.05835 z"
       id="path250" /></g></svg>
