<?xml version="1.0" encoding="UTF-8" standalone="no"?>
<!-- Created with Inkscape (http://www.inkscape.org/) -->

<svg
   width="151.2458mm"
   height="151.23219mm"
   viewBox="0 0 151.2458 151.23219"
   version="1.1"
   id="svg5"
   xml:space="preserve"
   inkscape:version="1.2.2 (732a01da63, 2022-12-09)"
   sodipodi:docname="plus.svg"
   xmlns:inkscape="http://www.inkscape.org/namespaces/inkscape"
   xmlns:sodipodi="http://sodipodi.sourceforge.net/DTD/sodipodi-0.dtd"
   xmlns="http://www.w3.org/2000/svg"
   xmlns:svg="http://www.w3.org/2000/svg"><sodipodi:namedview
     id="namedview7"
     pagecolor="#ffffff"
     bordercolor="#000000"
     borderopacity="0.25"
     inkscape:showpageshadow="2"
     inkscape:pageopacity="0.0"
     inkscape:pagecheckerboard="0"
     inkscape:deskcolor="#d1d1d1"
     inkscape:document-units="mm"
     showgrid="false"
     inkscape:zoom="0.89263468"
     inkscape:cx="98.024424"
     inkscape:cy="276.70894"
     inkscape:window-width="2560"
     inkscape:window-height="1377"
     inkscape:window-x="1358"
     inkscape:window-y="-8"
     inkscape:window-maximized="1"
     inkscape:current-layer="layer1" /><defs
     id="defs2" /><g
     inkscape:label="Layer 1"
     inkscape:groupmode="layer"
     id="layer1"
     transform="translate(-28.119615,-75.248357)"><path
       style="fill:#000000;stroke-width:0.295349"
       d="m 100.25586,225.71553 c -0.844362,-0.42076 -1.930005,-1.24399 -2.412543,-1.82939 -1.860842,-2.25752 -1.77987,-0.68685 -1.77987,-34.52448 V 158.55032 H 65.252109 c -26.863161,0 -30.981048,-0.0578 -32.135727,-0.45126 -6.662356,-2.27009 -6.662356,-12.18552 0,-14.45561 1.154679,-0.39343 5.272566,-0.45126 32.135727,-0.45126 h 30.811338 v -30.81134 c 0,-26.86316 0.05783,-30.981047 0.451264,-32.135726 2.270092,-6.662356 12.185519,-6.662356 14.455609,0 0.39344,1.154679 0.45127,5.272566 0.45127,32.135726 v 30.81134 h 30.81134 c 26.86316,0 30.98104,0.0578 32.13572,0.45126 6.66235,2.27009 6.66235,12.18552 0,14.45561 -1.15468,0.39344 -5.27256,0.45126 -32.13572,0.45126 h -30.81134 v 30.81134 c 0,26.86316 -0.0578,30.98105 -0.45127,32.13573 -1.04576,3.06915 -3.82194,4.98316 -7.2278,4.98316 -1.50766,0 -2.3006,-0.17398 -3.48666,-0.76502 z"
       id="path248" /></g></svg>
