<?xml version="1.0" encoding="UTF-8" standalone="no"?>
<!-- Created with Inkscape (http://www.inkscape.org/) -->

<svg
   width="7.6181612mm"
   height="10.566503mm"
   viewBox="0 0 7.6181612 10.566503"
   version="1.1"
   id="svg13318"
   xml:space="preserve"
   xmlns="http://www.w3.org/2000/svg"
   xmlns:svg="http://www.w3.org/2000/svg"><defs
     id="defs13315" /><g
     id="layer1"
     transform="translate(-57.888813,-89.70387)"><path
       id="tooth05"
       style="fill:#000000;stroke-width:0.264583"
       d="m 61.876843,89.704087 c -0.562402,0.0061 -1.160917,0.139834 -1.662947,0.399459 -1.851889,0.957655 -3.046358,6.328653 -1.83503,8.251693 0.298716,0.474255 0.931326,1.098859 1.405599,1.388029 0.474249,0.289162 1.089618,0.526552 1.367875,0.527102 0.925527,0.002 2.733472,-1.294397 3.588411,-2.572972 0.730038,-1.091865 0.829603,-1.441187 0.737423,-2.585372 -0.125971,-1.563595 -1.381254,-4.49981 -2.155424,-5.04207 -0.357403,-0.25031 -0.883481,-0.371946 -1.445907,-0.365869 z m -0.03566,0.267691 c 0.956462,-0.04863 1.544335,0.562537 2.342492,2.151807 0.490093,0.975815 0.952151,2.316324 1.026811,2.978629 0.114927,1.019615 0.02023,1.370775 -0.617017,2.2903 -0.413918,0.597295 -1.114153,1.354736 -1.555977,1.683101 -1.561768,1.160735 -2.614971,1.059515 -3.978569,-0.382405 -0.743366,-0.78607 -0.79268,-0.96822 -0.78083,-2.87166 0.0099,-1.58337 0.164117,-2.383179 0.698665,-3.619934 0.602051,-1.39296 0.817985,-1.634916 1.7632,-1.973006 0.422154,-0.151005 0.782396,-0.240621 1.101225,-0.256832 z m 1.119832,2.905237 c -0.01567,0.0019 -0.02629,0.05823 -0.03101,0.175183 -0.03783,0.937325 -0.613609,1.398365 -1.74563,1.398365 -0.465525,0 -0.764518,-0.192123 -0.926558,-0.595313 -0.229056,-0.569835 -0.239739,-0.564045 -0.255799,0.14056 -0.0092,0.40485 -0.195615,1.163702 -0.413928,1.686202 -0.326061,0.780345 -0.330526,0.894731 -0.02584,0.641821 0.204034,-0.16933 0.44344,-0.595349 0.53175,-0.947229 0.124933,-0.497745 0.32145,-0.630363 0.885734,-0.596863 0.398904,0.0237 0.978951,-0.04459 1.289327,-0.151411 0.4919,-0.16929 0.587509,-0.0708 0.744658,0.766878 0.305177,1.62681 0.418696,0.845384 0.178283,-1.228866 -0.09394,-0.810477 -0.183994,-1.295008 -0.230993,-1.289327 z" /></g></svg>
