<?xml version="1.0" encoding="UTF-8" standalone="no"?>
<!-- Created with Inkscape (http://www.inkscape.org/) -->

<svg
   width="7.4273052mm"
   height="10.689271mm"
   viewBox="0 0 7.4273052 10.689271"
   version="1.1"
   id="svg13318"
   xml:space="preserve"
   xmlns="http://www.w3.org/2000/svg"
   xmlns:svg="http://www.w3.org/2000/svg"><defs
     id="defs13315" /><g
     id="layer1"
     transform="translate(-50.085762,-89.582129)"><path
       id="tooth04"
       style="fill:#000000;stroke-width:0.264583"
       d="m 53.755892,89.58213 c -1.779571,0 -3.171266,1.756979 -3.484025,4.397664 l -0.131258,1.104326 c 0.01008,1.68e-4 0.01988,0.01 0.01964,0.02997 -2e-4,0.02144 -0.0017,0.04282 -0.0047,0.06408 -0.0046,0.03418 -0.01037,0.06858 -0.01757,0.102319 -0.0065,0.03373 -0.01275,0.06719 -0.01705,0.101286 -0.0044,0.03841 -0.0078,0.07721 -0.01085,0.115755 -0.003,0.0381 -0.0057,0.07597 -0.0062,0.114205 -3.46e-4,0.04056 -7.4e-5,0.0814 0,0.121956 1.53e-4,0.03888 4.87e-4,0.07739 10e-4,0.116272 5.6e-4,0.03746 0.0011,0.0752 -5.17e-4,0.112655 -0.0022,0.04589 -0.0058,0.09152 -0.0067,0.137459 -0.0012,0.04983 -0.0012,0.100092 -0.0041,0.149862 -0.0026,0.05024 -0.0055,0.100174 -0.0078,0.150378 0.06589,0.03342 0.109554,0.169178 0.109554,0.428915 0,1.41568 1.858024,3.442168 3.155879,3.442168 1.965762,0 4.489026,-3.373 4.12688,-5.51646 -0.229858,-1.360635 -1.495215,-4.001775 -2.231388,-4.65708 -0.336409,-0.29945 -0.962025,-0.515731 -1.490865,-0.515731 z m 0.03462,0.373108 c 0.357065,-0.0101 0.714007,0.0428 1.042831,0.168982 0.246265,0.09451 0.851427,1.014141 1.34462,2.043286 1.203451,2.511145 1.23033,4.124332 0.09509,5.691642 -0.440966,0.608705 -1.185106,1.340602 -1.653646,1.626257 -0.468518,0.28568 -1.030738,0.516085 -1.249019,0.51108 -0.749393,-0.01584 -1.662419,-0.711027 -2.284615,-1.738912 -0.950189,-1.56972 -0.872896,-3.878029 0.227893,-6.796484 0.331626,-0.87926 1.405682,-1.475563 2.476851,-1.505851 z m 0.840262,2.775533 -0.167948,0.79375 c -0.13975,0.659105 -0.314254,0.807632 -1.027328,0.876432 -0.710522,0.0686 -0.858862,-0.0087 -0.858862,-0.447518 0,-0.291645 -0.111387,-0.599062 -0.24753,-0.683162 -0.150279,-0.09288 -0.162693,0.142868 -0.03152,0.599963 0.135829,0.47361 0.0923,1.11378 -0.117822,1.72496 -0.426556,1.2407 -0.227638,1.26515 0.286287,0.03514 0.21526,-0.51519 0.496897,-0.871383 0.625802,-0.791683 0.128905,0.07967 0.541786,0.02772 0.917773,-0.115239 0.515173,-0.19589 0.683679,-0.17639 0.683679,0.07958 0,0.18687 0.178241,0.571225 0.395842,0.853695 0.351126,0.455785 0.351126,0.402739 0,-0.470256 C 54.871546,94.645428 54.67952,93.871501 54.6623,93.466641 Z" /></g></svg>
