<?xml version="1.0" encoding="UTF-8" standalone="no"?>
<!-- Created with Inkscape (http://www.inkscape.org/) -->

<svg
   width="7.1882362mm"
   height="7.6648202mm"
   viewBox="0 0 7.1882362 7.6648202"
   version="1.1"
   id="svg13318"
   xml:space="preserve"
   xmlns="http://www.w3.org/2000/svg"
   xmlns:svg="http://www.w3.org/2000/svg"><defs
     id="defs13315" /><g
     id="layer1"
     transform="translate(-71.201339,-112.44871)"><path
       id="tooth27"
       style="fill:#000000;stroke-width:0.264583"
       d="m 74.66366,112.44871 v 5.2e-4 5.1e-4 c -1.350492,0.006 -2.787783,0.84333 -3.186886,2.06499 l -0.275435,0.84336 c 0.0012,0.003 0.0023,0.006 0.0036,0.009 0.0065,0.015 0.0135,0.0298 0.0217,0.0439 0.0074,0.0134 0.01514,0.027 0.02274,0.0403 0.0071,0.013 0.0134,0.026 0.0186,0.0398 0.0048,0.0124 0.0095,0.0251 0.01344,0.0377 0.0035,0.0123 0.0063,0.0244 0.0098,0.0367 0.0035,0.0125 0.0073,0.0253 0.01137,0.0377 0.0044,0.0133 0.0086,0.0265 0.01292,0.0398 0.0048,0.0141 0.01019,0.0283 0.01499,0.0424 0.0054,0.015 0.01042,0.0301 0.01602,0.045 0.0051,0.0134 0.0099,0.0266 0.01654,0.0393 0.0063,0.0122 0.01315,0.0244 0.02015,0.0362 0.0072,0.0124 0.01385,0.0249 0.02015,0.0377 0.0061,0.0121 0.01234,0.0242 0.01654,0.0372 0.004,0.0117 0.0075,0.0231 0.01189,0.0346 0.0039,0.0101 0.0084,0.02 0.01292,0.03 0.0043,0.0101 0.0089,0.0204 0.01344,0.0305 0.0047,0.011 0.0092,0.0216 0.01447,0.0326 0.0051,0.0106 0.01017,0.0211 0.01447,0.032 0.0042,0.0104 0.0081,0.021 0.01189,0.0315 0.003,0.009 0.0062,0.0178 0.0098,0.0258 0.0039,0.009 0.0069,0.0184 0.0098,0.0284 0.0029,0.009 0.0059,0.0174 0.0088,0.0264 0.0027,0.008 0.0051,0.0168 0.0078,0.0248 0.0028,0.008 0.0054,0.0173 0.0083,0.0253 0.0026,0.008 0.0057,0.0158 0.0083,0.0238 0.0025,0.008 0.0046,0.0163 0.0067,0.0243 0.002,0.008 0.0037,0.0163 0.0062,0.0243 0.0025,0.008 0.0052,0.0157 0.0083,0.0227 0.0032,0.008 0.0063,0.0168 0.0098,0.0248 0.0035,0.008 0.0075,0.0147 0.01137,0.0227 0.004,0.008 0.0084,0.0147 0.0124,0.0227 0.0047,0.009 0.0091,0.0184 0.01395,0.0274 0.0045,0.009 0.0091,0.0179 0.01292,0.0269 0.0033,0.008 0.0062,0.0157 0.01033,0.0227 0.0046,0.008 0.0099,0.0152 0.0155,0.0222 0.0059,0.007 0.0122,0.0147 0.0186,0.0217 0.0057,0.006 0.01067,0.0127 0.01447,0.0207 0.0032,0.006 0.006,0.0121 0.0083,0.0191 0.0022,0.006 0.0045,0.0111 0.0067,0.0171 0.0018,0.004 0.0039,0.008 0.0062,0.0119 0.0031,0.005 0.0061,0.01 0.0078,0.016 0.0022,0.007 0.0036,0.0137 0.0046,0.0217 0.0012,0.009 0.0028,0.0184 0.0041,0.0274 0.0013,0.008 0.0027,0.0168 0.0052,0.0248 0.0014,0.005 0.0025,0.0105 0.0036,0.0155 l 0.557072,0.92191 c 0.914584,1.51544 2.005422,2.52853 2.722831,2.52853 0.881043,0 2.271528,-1.52881 2.884061,-3.17087 l 0.486792,-1.30586 c -0.0045,-0.0582 -0.0098,-0.11675 -0.02532,-0.17312 -0.01496,-0.0508 -0.03556,-0.0994 -0.04961,-0.15038 -0.01092,-0.0502 -0.0161,-0.10144 -0.0217,-0.15244 -0.0047,-0.0381 -0.01,-0.0761 -0.01809,-0.11369 -0.0041,-0.0198 -0.0081,-0.039 -0.01189,-0.0589 -0.0033,-0.0175 -0.0062,-0.035 -0.0078,-0.0527 -0.0016,-0.0154 -0.0025,-0.031 -0.0036,-0.0465 -0.0015,-0.0146 -0.0034,-0.0292 -0.0072,-0.0434 -0.0046,-0.0184 -0.009,-0.0367 -0.0124,-0.0553 -0.0038,-0.0214 -0.0072,-0.043 -0.0088,-0.0646 -0.0015,-0.0219 -0.0017,-0.0437 -0.0031,-0.0656 -3.64e-4,-0.007 -0.001,-0.0134 -0.001,-0.0202 l -0.846977,-0.8015 c -0.467621,-0.44252 -1.110481,-0.93773 -1.428336,-1.10071 -0.389186,-0.19955 -0.829877,-0.29074 -1.280025,-0.28887 z m -0.0062,0.25773 c 1.370519,0 3.2943,1.65877 3.31091,2.8546 0.01035,0.74489 -0.789187,2.35068 -1.722376,3.45974 -0.383693,0.45599 -0.93173,0.82941 -1.218013,0.82941 -1.246972,0 -3.694153,-3.95636 -3.24218,-5.24154 0.320233,-0.91058 1.817794,-1.90221 2.871659,-1.90221 z m 0.144176,1.61057 c -0.654844,-0.009 -1.355486,0.0878 -1.557011,0.21549 -0.225705,0.14293 0.129905,0.18334 0.926042,0.10594 1.79192,-0.1743 2.041701,-0.30153 0.630969,-0.32143 z" /></g></svg>
