<?xml version="1.0" encoding="UTF-8" standalone="no"?>
<!-- Created with Inkscape (http://www.inkscape.org/) -->

<svg
   width="7.7477183mm"
   height="10.562761mm"
   viewBox="0 0 7.7477183 10.562761"
   version="1.1"
   id="svg13318"
   xml:space="preserve"
   xmlns="http://www.w3.org/2000/svg"
   xmlns:svg="http://www.w3.org/2000/svg"><defs
     id="defs13315" /><g
     id="layer1"
     transform="translate(-116.94697,-89.707589)"><path
       id="tooth12"
       style="fill:#000000;stroke-width:0.264583"
       d="m 120.64225,89.707687 c -0.50119,-0.0042 -0.95357,0.126901 -1.33532,0.394291 -1.14322,0.800715 -2.59987,4.58366 -2.32647,6.040975 0.18604,0.991655 1.72106,2.903151 2.91661,3.632336 0.44547,0.271651 1.0936,0.494511 1.44023,0.495061 0.79264,0.001 2.23187,-0.874995 2.759,-1.679485 1.37674,-2.10112 0.21441,-7.491477 -1.82521,-8.464082 -0.57742,-0.275345 -1.12765,-0.414935 -1.62884,-0.419096 z m -0.0506,0.277011 c 0.26254,-0.0083 0.5683,0.05942 1.03404,0.198955 0.98432,0.294885 1.19052,0.503775 1.80919,1.83658 0.51219,1.103395 0.72514,2.051022 0.79944,3.557922 0.11436,2.32071 -0.18049,3.031238 -1.62316,3.910873 -0.46504,0.283525 -1.02454,0.513562 -1.24282,0.510563 -1.18113,-0.01499 -2.99759,-1.570342 -3.94653,-3.379122 -0.67094,-1.278895 0.93906,-5.566327 2.39572,-6.379972 0.29261,-0.16344 0.51157,-0.247524 0.77412,-0.255799 z m -1.14416,2.637552 c -0.0726,-0.01672 -0.11896,0.443348 -0.20361,1.563729 -0.17121,2.2663 -0.12337,2.546425 0.21911,1.28571 0.15272,-0.56218 0.37698,-0.852399 0.6103,-0.789099 0.20291,0.05507 0.77258,0.129464 1.26556,0.165364 0.73483,0.05346 0.96208,0.221588 1.2609,0.932243 0.50234,1.194715 0.68078,0.873507 0.22996,-0.413928 -0.20185,-0.576485 -0.31808,-1.345681 -0.25838,-1.709456 0.10412,-0.63428 0.0956,-0.63136 -0.20154,0.06614 -0.24243,0.56923 -0.48602,0.72647 -1.11879,0.72347 -1.08837,-0.0055 -1.36332,-0.227877 -1.63039,-1.318782 -0.0768,-0.313714 -0.12958,-0.495361 -0.17312,-0.505396 z" /></g></svg>
