<?xml version="1.0" encoding="UTF-8" standalone="no"?>
<!-- Created with Inkscape (http://www.inkscape.org/) -->

<svg
   width="9.7732105mm"
   height="9.4069595mm"
   viewBox="0 0 9.7732105 9.4069595"
   version="1.1"
   id="svg13318"
   xml:space="preserve"
   xmlns="http://www.w3.org/2000/svg"
   xmlns:svg="http://www.w3.org/2000/svg"><defs
     id="defs13315" /><g
     id="layer1"
     transform="translate(-25.063748,-112.44219)"><path
       id="tooth32"
       style="fill:#000000;stroke-width:0.264583"
       d="m 29.871562,112.44219 c -1.061444,0.0237 -2.182393,-0.0347 -3.165637,0.42909 -0.709658,0.3735 -1.153565,1.11113 -1.415718,1.84466 -0.336884,1.29564 -0.269001,2.67558 0.01405,3.97491 0.261319,1.14861 0.991763,2.27267 2.143249,2.6782 1.131516,0.41098 2.356535,0.45052 3.547879,0.4801 0.879429,-0.0217 1.856619,-0.0667 2.564765,-0.65383 0.681943,-0.74358 0.914326,-1.77058 1.104672,-2.73305 0.212406,-1.33801 0.289386,-2.74985 -0.13188,-4.05608 -0.260612,-0.76015 -0.81817,-1.46527 -1.62241,-1.67916 -0.982084,-0.29007 -2.024395,-0.2713 -3.038974,-0.28484 z m 0.224275,0.29955 c 1.007782,0.0223 2.064754,-0.04 3.011352,0.36218 0.806533,0.38251 1.155795,1.30621 1.332095,2.12271 0.249338,1.4693 0.0962,3.0023 -0.373864,4.41286 -0.229994,0.65668 -0.590876,1.35793 -1.286155,1.61309 -1.122839,0.46417 -2.369852,0.30129 -3.547458,0.21834 -0.844839,-0.0799 -1.784215,-0.15063 -2.408708,-0.80064 -1.04398,-0.94918 -1.41335,-2.41634 -1.499783,-3.777 -0.05528,-1.20117 0.172679,-2.54599 1.085527,-3.40459 0.809343,-0.67838 1.934925,-0.68449 2.935898,-0.73665 0.250295,-0.007 0.500702,-0.01 0.751096,-0.0103 z m -0.0057,2.21245 c 0.09267,0.77013 0.185171,1.54029 0.277502,2.31046 -0.745899,-0.24188 -1.514752,-0.41843 -2.301947,-0.43981 -0.577991,-0.0223 -1.19127,-0.005 -1.718027,-0.27324 -0.277175,0.28959 0.168679,0.88753 0.592305,0.75531 0.772546,0.0203 1.610129,-0.26665 2.330933,0.1286 0.574785,0.40488 0.536946,1.19451 0.55258,1.82144 -0.04158,0.21849 0.109359,1.13199 0.291781,0.51841 0.170664,-0.62401 0.03464,-1.28088 0.17161,-1.90658 0.320242,-0.45858 1.008027,0.002 1.479279,-0.0562 0.516076,0.0234 1.134274,0.15604 1.564649,-0.20584 0.26756,-0.19771 0.28185,-1.2204 -0.108988,-0.6154 -0.42531,0.58453 -1.304623,0.64948 -1.92839,0.37837 -0.520988,-0.26515 -0.684064,-0.89212 -0.890011,-1.39325 -0.106509,-0.3401 -0.208603,-0.68159 -0.313276,-1.02226 z" /></g></svg>
