<?xml version="1.0" encoding="UTF-8" standalone="no"?>
<!-- Created with Inkscape (http://www.inkscape.org/) -->

<svg
   width="11.718002mm"
   height="10.85876mm"
   viewBox="0 0 11.718002 10.85876"
   version="1.1"
   id="svg13318"
   xml:space="preserve"
   xmlns="http://www.w3.org/2000/svg"
   xmlns:svg="http://www.w3.org/2000/svg"><defs
     id="defs13315" /><g
     id="layer1"
     transform="translate(-125.14683,-112.22157)"><path
       id="tooth19"
       style="fill:#000000;stroke-width:0.264583"
       d="m 131.05453,112.22157 c -0.63705,0.003 -1.33811,0.17324 -2.36833,0.49145 -2.08923,0.64529 -3.33567,1.74881 -3.37757,2.99051 -0.006,0.1742 -0.0122,0.29444 -0.0201,0.38499 0.006,0.0639 0.0146,0.12758 0.0243,0.1912 0.006,0.0569 0.0113,0.11457 0.003,0.17157 -0.006,0.048 -0.0152,0.0953 -0.0253,0.14263 -0.009,0.0439 -0.0186,0.0881 -0.0289,0.13177 -0.009,0.0404 -0.0161,0.0813 -0.0202,0.12247 -0.004,0.0361 -0.005,0.0722 -0.0109,0.10801 -0.006,0.0358 -0.0115,0.0717 -0.0165,0.10749 -0.004,0.031 -0.008,0.0617 -0.0103,0.093 -0.003,0.0437 -0.005,0.0877 -0.009,0.13126 -0.005,0.0583 -0.0106,0.11677 -0.0186,0.17467 -0.008,0.0634 -0.0125,0.12698 -0.0165,0.19068 -0.004,0.0763 -0.005,0.15263 -0.007,0.22893 -0.003,0.10729 -0.007,0.2146 -0.005,0.32194 0.003,0.0899 0.007,0.17944 0.0119,0.26924 0.004,0.092 0.01,0.18395 0.0129,0.27595 10e-4,0.068 0.002,0.13652 -0.007,0.20412 -0.007,0.054 -0.0136,0.10766 -0.0186,0.16175 0.12701,0.0461 0.18966,0.38703 0.18966,1.02681 0,0.88715 0.16916,1.25334 0.92707,2.01125 l 0.92656,0.92707 3.2892,-0.0935 c 3.23778,-0.0919 3.30271,-0.10545 4.12482,-0.88677 0.89471,-0.85031 1.82638,-2.45712 1.87378,-3.23081 0.004,-0.0664 0.0147,-0.093 0.0305,-0.0879 -4e-4,-0.009 -9.8e-4,-0.0186 -0.001,-0.0279 0,-0.0346 0.002,-0.0689 0.005,-0.10335 0.003,-0.035 0.006,-0.0699 0.007,-0.1049 0.002,-0.034 0.004,-0.0679 0.007,-0.1018 0.002,-0.029 0.006,-0.0581 0.006,-0.0873 0.002,-0.0266 0.003,-0.0531 0.006,-0.0796 0.004,-0.0298 0.009,-0.0596 0.015,-0.0889 0.007,-0.0355 0.0148,-0.0707 0.0238,-0.10594 0.0106,-0.0412 0.0226,-0.0819 0.0351,-0.12247 0.0104,-0.0347 0.021,-0.0699 0.03,-0.1049 0.008,-0.0295 0.0147,-0.0587 0.0217,-0.0884 0.006,-0.0283 0.0121,-0.0573 0.0171,-0.0858 0.006,-0.0302 0.0105,-0.0602 0.0165,-0.0904 0.006,-0.0334 0.0126,-0.067 0.0196,-0.10025 0.009,-0.0384 0.018,-0.0762 0.03,-0.11369 0.0131,-0.0426 0.0278,-0.0849 0.0439,-0.12661 0.0139,-0.0364 0.0274,-0.0731 0.0382,-0.11058 0.006,-0.0218 0.0111,-0.0441 0.0165,-0.0661 v -5.2e-4 c -0.001,-0.007 -5.9e-4,-0.0144 0.002,-0.0238 0.002,-0.006 0.004,-0.0131 0.005,-0.0191 h -5.2e-4 c 10e-4,-0.006 0.003,-0.0108 0.006,-0.015 v -5.2e-4 c 0.004,-0.0272 0.008,-0.0546 0.006,-0.0822 -0.002,-0.0262 -0.008,-0.0517 -0.016,-0.0765 -0.005,-0.0134 -0.009,-0.027 -0.0103,-0.0413 l -5.2e-4,5.2e-4 c -7.4e-4,-0.008 -1.6e-4,-0.0149 0.002,-0.0207 l -0.2744,-0.87333 c -0.48742,-1.55176 -0.72132,-1.78901 -2.80448,-2.83807 -1.17219,-0.59037 -1.88619,-0.86308 -2.70526,-0.85938 z m 0.20929,0.30286 c 0.67959,0.009 1.20342,0.23639 2.5399,0.94154 1.8211,0.96081 2.01292,1.1411 2.32699,2.19418 0.62477,2.09492 -0.40505,5.46421 -1.98644,6.50038 -0.55234,0.3619 -1.37428,0.48335 -3.63596,0.53795 -3.42913,0.0828 -4.15552,-0.18461 -4.6638,-1.7203 -0.51314,-1.55121 -0.43187,-5.42956 0.1323,-6.29058 0.57488,-0.87738 2.76359,-1.89932 4.51962,-2.10995 0.29699,-0.0356 0.54086,-0.0564 0.76739,-0.0532 z m -1.77715,3.11894 c -0.0582,0.007 -0.16148,0.29666 -0.32504,0.894 -0.39019,1.42285 -0.92869,1.98903 -1.89085,1.98903 -0.45017,0 -0.61081,-0.15066 -0.61081,-0.5731 0,-0.84284 -0.16689,-0.50418 -0.34778,0.70539 -0.11686,0.78143 -0.0886,0.93719 0.108,0.59531 0.14644,-0.25466 0.56559,-0.46302 0.93173,-0.46302 0.36613,0 0.8703,-0.1092 1.11982,-0.24288 0.31645,-0.16936 0.6294,-0.1092 1.03147,0.19844 0.49918,0.38193 0.54632,0.5753 0.35036,1.43195 -0.13198,0.57794 -0.1324,0.92959 0.01,0.84439 0.12997,-0.0803 0.2383,-0.40722 0.2403,-0.72605 0.006,-0.80877 0.23152,-1.05993 1.51412,-1.68413 0.93761,-0.45638 1.16984,-0.48621 1.4211,-0.18346 0.16523,0.19909 0.46831,0.36174 0.67334,0.36174 0.20503,0 0.44123,0.17859 0.52503,0.39687 0.26821,0.69894 0.6257,0.425 0.6041,-0.46302 -0.0115,-0.47297 -0.0811,-0.71106 -0.15451,-0.52916 -0.18158,0.44999 -1.01043,0.41819 -1.4025,-0.0548 -0.25347,-0.30542 -0.23191,-0.51008 0.0997,-0.98495 0.68348,-0.9758 0.47764,-1.1919 -0.22635,-0.23772 -0.88763,1.20305 -1.60843,1.65694 -2.67839,1.68724 -1.2015,0.0341 -1.5358,-0.31704 -1.18339,-1.24385 0.15095,-0.39697 0.26415,-1.04125 0.25115,-1.43196 -0.006,-0.19314 -0.0255,-0.29055 -0.0605,-0.28628 z" /></g></svg>
