<?xml version="1.0" encoding="UTF-8" standalone="no"?>
<!-- Created with Inkscape (http://www.inkscape.org/) -->

<svg
   width="8.9662714mm"
   height="9.1429596mm"
   viewBox="0 0 8.9662714 9.1429596"
   version="1.1"
   id="svg13318"
   xml:space="preserve"
   xmlns="http://www.w3.org/2000/svg"
   xmlns:svg="http://www.w3.org/2000/svg"><defs
     id="defs13315" /><g
     id="layer1"
     transform="translate(-20.586246,-91.080176)"><path
       id="tooth01"
       style="fill:#000000;stroke-width:0.264583"
       d="m 26.731185,91.080732 c -0.462967,-0.0059 -1.018509,0.03541 -1.696021,0.113172 -1.572151,0.18045 -2.535068,0.425775 -2.873726,0.732255 -0.687903,0.622545 -1.307126,2.53471 -1.502751,4.63951 -0.149941,1.61326 -0.111412,1.795032 0.54622,2.576587 0.644529,0.765955 0.865609,0.849156 2.479952,0.933284 0.974756,0.0508 2.202657,0.11516 2.728516,0.14366 1.464305,0.0794 2.407928,-1.040704 2.964677,-3.519689 0.02163,-0.0963 0.04103,-0.15526 0.05839,-0.183968 1.85e-4,-0.01636 6.21e-4,-0.03272 0.001,-0.04909 8.38e-4,-0.03054 0.0024,-0.06091 0.0021,-0.09147 8.1e-5,-0.03052 1.66e-4,-0.06095 5.16e-4,-0.09147 4e-4,-0.0313 6.84e-4,-0.0628 0.0026,-0.09405 0.0022,-0.03537 0.0054,-0.07062 0.0083,-0.105937 0.003,-0.03612 0.0057,-0.07225 0.0062,-0.108521 0.0017,-0.04028 0.0039,-0.08063 0.0052,-0.120923 7e-4,-0.03954 0.0018,-0.0788 0.0026,-0.118339 2e-6,-0.03162 -10e-6,-0.06346 0,-0.09508 1.3e-5,-0.03142 -6.4e-5,-0.06264 0,-0.09405 7.2e-5,-0.02904 6.3e-4,-0.0583 0.001,-0.08733 5e-4,-0.03108 0.0011,-0.06198 0.0026,-0.09302 0.0018,-0.03407 0.004,-0.06834 0.0072,-0.102319 0.0044,-0.03954 0.01079,-0.07872 0.01809,-0.117823 0.0071,-0.04051 0.0146,-0.08094 0.0217,-0.121439 0.0072,-0.04343 0.01397,-0.08671 0.02067,-0.130225 0.0059,-0.04061 0.01137,-0.08153 0.01447,-0.122473 0.002,-0.03169 0.0024,-0.06336 10e-4,-0.09508 -9e-4,-0.02657 -0.0019,-0.05323 -0.0057,-0.07958 -0.004,-0.02522 -0.0096,-0.05034 -0.01654,-0.07493 -0.0071,-0.02623 -0.01379,-0.0524 -0.02119,-0.07855 -0.007,-0.02622 -0.01414,-0.05249 -0.01964,-0.07906 -0.0051,-0.02562 -0.01,-0.05118 -0.01395,-0.077 -0.0026,-0.02205 -0.0031,-0.04396 -0.0026,-0.06615 5.5e-5,-0.02657 2.92e-4,-0.05353 5.17e-4,-0.0801 3e-4,-0.02742 3.5e-4,-0.05477 0.0016,-0.08217 0.0014,-0.02805 0.0037,-0.05579 0.0067,-0.08372 0.002,-0.02074 0.003,-0.04169 0.0026,-0.06253 10e-7,-0.01818 -6e-6,-0.0366 0,-0.05478 8e-6,-0.02214 -4.1e-5,-0.04401 0,-0.06615 4.3e-5,-0.01849 2.74e-4,-0.03681 5.16e-4,-0.05529 3e-4,-0.01995 3.43e-4,-0.04 0.001,-0.05994 8.49e-4,-0.0243 0.002,-0.04855 0.0015,-0.07286 -1.32e-4,-0.02132 -3.39e-4,-0.04277 -0.001,-0.06408 -8e-4,-0.02251 -0.0018,-0.04483 -0.0047,-0.06718 -0.0031,-0.02146 -0.0076,-0.0426 -0.01499,-0.06305 -0.0067,-0.02263 -0.0127,-0.04574 -0.0155,-0.06925 -0.0034,-0.02709 -0.0059,-0.05404 -0.0093,-0.08113 -2.24e-4,-0.0015 -2.93e-4,-0.0031 -5.17e-4,-0.0047 -0.05478,-0.08415 -0.13854,-0.271239 -0.268717,-0.570508 -0.498069,-1.145018 -1.051779,-1.585919 -2.440678,-1.60352 z m -0.150895,0.239241 c 0.765478,-0.02823 1.008411,0.107677 1.540474,0.56534 0.712447,0.61284 0.776812,0.821847 0.867647,2.822567 0.110173,2.426 -0.38844,4.219247 -1.363224,4.902027 -0.311292,0.218015 -0.867265,0.374682 -1.235067,0.347782 -0.367779,-0.02692 -1.323562,-0.08768 -2.123901,-0.134876 -2.199679,-0.129655 -2.599292,-0.281767 -3.054594,-1.162202 -0.505673,-0.977885 -0.319823,-3.091027 0.455786,-5.186247 0.579449,-1.565265 0.992949,-1.783163 3.942912,-2.077393 0.401289,-0.04002 0.714799,-0.06759 0.969967,-0.077 z m -2.498039,1.992678 c -0.02372,-7.4e-5 -0.05514,0.03069 -0.09457,0.09302 -0.13331,0.21072 -0.244296,0.723907 -0.246496,1.139982 -0.0038,0.70099 -0.06854,0.74859 -0.885735,0.65319 -0.571343,-0.0667 -0.882116,0.01017 -0.882116,0.218075 0,0.22759 0.367601,0.277666 1.263489,0.171566 l 1.262972,-0.149862 -0.107487,1.556494 -0.108004,1.556494 0.261999,-1.44849 c 0.144028,-0.796555 0.384065,-1.570492 0.533301,-1.719792 0.149236,-0.1493 0.904847,-0.271301 1.678967,-0.271301 0.955767,0 1.369988,-0.09822 1.290878,-0.305925 -0.130575,-0.342805 -2.002478,-0.213102 -2.757972,0.191203 -0.25356,0.13571 -0.663038,0.247014 -0.910021,0.247014 -0.374757,0 -0.424532,-0.184219 -0.300241,-1.111044 0.07271,-0.541925 0.07292,-0.820401 0.001,-0.820621 z" /></g></svg>
