<?xml version="1.0" encoding="UTF-8" standalone="no"?>
<!-- Created with Inkscape (http://www.inkscape.org/) -->

<svg
   width="11.408441mm"
   height="11.204825mm"
   viewBox="0 0 11.408441 11.204825"
   version="1.1"
   id="svg13318"
   xml:space="preserve"
   xmlns="http://www.w3.org/2000/svg"
   xmlns:svg="http://www.w3.org/2000/svg"><defs
     id="defs13315" /><g
     id="layer1"
     transform="translate(-38.693224,-88.907733)"><path
       id="tooth03"
       style="fill:#000000;stroke-width:0.264583"
       d="m 44.730086,88.908786 c -1.847146,-0.02831 -3.985026,0.516272 -4.822444,1.407666 -0.329642,0.35088 -0.760814,1.156603 -0.958598,1.790588 -0.109272,0.350274 -0.183301,0.577907 -0.237195,0.713652 -0.0013,0.02566 -0.0031,0.05139 -0.0057,0.077 -0.0069,0.08541 -0.01228,0.171122 -0.01292,0.256832 -1e-4,0.08052 0.0012,0.160859 0.0041,0.241329 0.0035,0.08262 0.0087,0.16539 0.0186,0.24753 0.0096,0.08295 0.02004,0.16554 0.02274,0.24908 0.0027,0.07633 0.003,0.153146 0.0067,0.229443 0.0042,0.07398 0.01009,0.147649 0.02325,0.220659 0.01393,0.07557 0.03025,0.150919 0.04961,0.225309 0.01701,0.06794 0.03463,0.135545 0.05116,0.203605 0.01354,0.05908 0.02504,0.118561 0.03204,0.178801 0.0082,0.06926 0.01462,0.139005 0.01602,0.208772 0.002,0.0844 0.0034,0.168795 0.0036,0.253215 2.2e-4,0.09472 3.45e-4,0.1895 0,0.28422 -7.7e-4,0.09287 -0.0031,0.18543 -0.01085,0.27802 -0.007,0.08282 -0.01639,0.165721 -0.02325,0.248563 l 0.236678,1.054716 c 0.166418,0.741795 0.553483,1.375624 1.171505,1.918229 0.863064,0.7578 1.072486,0.814275 3.228743,0.868675 4.32154,0.10899 4.31897,0.10966 5.133537,-0.866091 0.407357,-0.487925 0.814589,-1.280901 0.904854,-1.762166 0.118545,-0.631884 0.337028,-1.034782 0.483692,-1.044381 0.0022,-0.0481 0.0048,-0.09608 0.0072,-0.144177 0.0028,-0.04941 0.0029,-0.09938 0.0041,-0.148828 9e-4,-0.04626 0.0045,-0.09229 0.0067,-0.138493 0.0016,-0.03661 5.47e-4,-0.07293 0,-0.109554 -5.84e-4,-0.03902 -3.35e-4,-0.07829 -5.17e-4,-0.117306 -8e-5,-0.04074 -8.6e-4,-0.08122 -5.17e-4,-0.121956 5e-4,-0.03916 0.0032,-0.07828 0.0062,-0.117305 0.0032,-0.03907 0.0069,-0.07838 0.01137,-0.117306 0.0044,-0.03511 0.01087,-0.06966 0.01757,-0.104386 0.0012,-0.0055 0.0025,-0.01101 0.0036,-0.01654 L 49.54943,93.341589 C 48.879601,91.019244 48.15289,89.908962 46.919617,89.323747 46.34942,89.053169 45.569696,88.921654 44.730086,88.908785 Z m 0.494027,0.280086 c 0.84729,-0.01155 1.172677,0.122235 1.78232,0.538985 1.155821,0.79015 1.735193,1.786363 2.283582,3.926893 0.578955,2.259895 0.193861,4.205899 -1.084689,5.484419 -0.546766,0.54679 -1.096897,0.850439 -1.488798,0.821139 -0.341949,-0.02553 -1.699604,-0.114838 -3.01687,-0.198438 -2.900227,-0.18408 -3.668998,-0.595572 -4.113444,-2.201932 -0.171219,-0.61885 -0.314543,-2.171581 -0.318843,-3.450436 -0.0064,-1.90807 0.08609,-2.453963 0.516247,-3.042708 0.776741,-1.063145 2.229753,-1.666695 4.389396,-1.823145 0.428335,-0.03103 0.768661,-0.05092 1.051099,-0.05478 z m -2.399337,1.557531 c -0.295742,0 -0.56689,0.64561 -0.56689,1.350305 0,0.28239 -0.48526,1.040033 -1.078487,1.683618 -0.781282,0.847565 -1.046621,1.338558 -0.962216,1.780253 0.106028,0.55468 0.120193,0.54561 0.152963,-0.0987 0.02314,-0.454905 0.337448,-0.944552 0.879016,-1.368392 l 0.843359,-0.660424 0.999422,0.575158 0.999939,0.574642 -0.109554,1.984375 c -0.107011,1.944 -0.0099,1.782369 0.280087,-0.466121 0.127459,-0.988395 0.2748,-1.193922 1.191141,-1.661397 1.101533,-0.56197 1.5957,-0.473018 2.691309,0.482657 0.417126,0.36387 0.463021,0.36049 0.463021,-0.03411 0,-0.24083 -0.0893,-0.412789 -0.198438,-0.381889 -0.25703,0.07267 -1.389062,-0.656736 -1.389062,-0.895036 0,-0.1004 0.267915,-0.234039 0.595312,-0.297139 0.536093,-0.10329 0.526338,-0.118495 -0.09663,-0.150895 -0.380533,-0.01982 -0.975895,0.181789 -1.322916,0.448034 -1.053532,0.80835 -1.530211,0.863557 -2.630331,0.302307 -0.869478,-0.443565 -1.043347,-0.666217 -1.043347,-1.337902 0,-0.44318 0.123245,-1.036304 0.273885,-1.317749 0.157591,-0.29446 0.169771,-0.511597 0.02842,-0.511597 z" /></g></svg>
