<?xml version="1.0" encoding="UTF-8" standalone="no"?>
<!-- Created with Inkscape (http://www.inkscape.org/) -->

<svg
   width="6.6445212mm"
   height="7.3739462mm"
   viewBox="0 0 6.6445212 7.3739462"
   version="1.1"
   id="svg13318"
   xml:space="preserve"
   xmlns="http://www.w3.org/2000/svg"
   xmlns:svg="http://www.w3.org/2000/svg"><defs
     id="defs13315" /><g
     id="layer1"
     transform="translate(-97.588189,-112.47599)"><path
       id="tooth23"
       style="fill:#000000;stroke-width:0.264583"
       d="m 101.28116,112.47623 c -0.90359,0.0102 -1.860649,0.3406 -2.620515,0.95395 -0.53483,0.4317 -1.012318,1.05345 -1.060918,1.38182 -0.197822,1.33749 2.199205,5.03794 3.263363,5.03794 0.66362,0 1.66525,-1.08159 2.39727,-2.58847 l 0.75345,-1.55133 0.016,0.0341 c 0.002,-0.007 0.004,-0.0148 0.006,-0.0222 0.0165,-0.0597 0.0374,-0.11837 0.0548,-0.17777 0.0206,-0.07 0.0343,-0.14153 0.046,-0.21343 0.0178,-0.10888 0.0352,-0.2175 0.0517,-0.32659 0.0162,-0.1057 0.0312,-0.21161 0.0444,-0.31781 -0.30551,-1.06515 -0.64014,-1.46269 -1.43712,-1.87482 -0.44962,-0.23251 -0.97248,-0.34153 -1.51463,-0.33538 z m 0.15606,0.25551 c 0.47967,-0.0104 0.89336,0.0452 0.97203,0.17312 0.0671,0.10914 -0.55105,0.21297 -1.37356,0.23047 -0.98541,0.021 -1.314953,-0.0403 -0.96635,-0.17983 0.34241,-0.13702 0.88821,-0.21341 1.36788,-0.22376 z m 0.0847,0.76669 c 1.72344,0 1.88853,0.0498 2.16111,0.64802 0.24048,0.5278 0.18238,0.92604 -0.31368,2.14819 -0.33488,0.82509 -0.89721,1.84312 -1.25005,2.26239 -0.80229,0.95345 -1.94639,1.02943 -2.51096,0.16692 -0.807445,-1.23359 -1.788004,-3.37614 -1.788004,-3.90726 0,-0.797 1.463456,-1.31826 3.701584,-1.31826 z m -0.25988,0.59947 c -0.30611,-5e-5 -0.62699,0.0448 -0.971,0.1359 -0.956158,0.25327 -0.907778,0.26949 0.83664,0.26976 1.62786,2.9e-4 1.75109,-0.032 1.01544,-0.26872 -0.28365,-0.0912 -0.57498,-0.1369 -0.88108,-0.13694 z" /></g></svg>
