<?xml version="1.0" encoding="UTF-8" standalone="no"?>
<!-- Created with Inkscape (http://www.inkscape.org/) -->

<svg
   width="9.3566914mm"
   height="10.19003mm"
   viewBox="0 0 9.3566914 10.19003"
   version="1.1"
   id="svg13318"
   xml:space="preserve"
   xmlns="http://www.w3.org/2000/svg"
   xmlns:svg="http://www.w3.org/2000/svg"><defs
     id="defs13315" /><g
     id="layer1"
     transform="translate(-29.508664,-89.763582)"><path
       id="tooth02"
       style="fill:#000000;stroke-width:0.264583"
       d="m 32.675008,89.765567 c -0.499306,0.01493 -0.869857,0.114871 -1.257287,0.315226 -0.956073,0.49441 -1.852787,1.829135 -1.869137,2.78226 -0.0039,0.229016 -0.0098,0.370849 -0.03204,0.421679 0.0018,0.01548 0.0037,0.03094 0.0057,0.04651 0.0023,0.0196 0.0073,0.03903 0.01292,0.05788 0.0085,0.02379 0.01335,0.04795 0.01705,0.07286 0.0033,0.02492 0.0048,0.05034 0.0057,0.07545 6.91e-4,0.02204 8.96e-4,0.04411 0.001,0.06615 5e-4,0.02527 -7.06e-4,0.05021 -0.0015,0.07545 -7.06e-4,0.01949 -7.55e-4,0.03942 -0.001,0.05891 -2.38e-4,0.01819 -4.74e-4,0.03607 -5.16e-4,0.05426 -4.1e-5,0.0221 8e-6,0.04406 0,0.06615 -6e-6,0.01817 1e-6,0.03661 0,0.05478 5e-4,0.02309 -10e-4,0.04627 -0.0031,0.06925 -0.0028,0.02688 -0.0049,0.05361 -0.0062,0.08061 -0.0012,0.02643 -0.0013,0.05312 -0.0016,0.07958 -2.23e-4,0.02638 -4.63e-4,0.05268 -5.17e-4,0.07906 -3e-4,0.01923 -3.33e-4,0.03827 0.0021,0.05736 0.0039,0.02398 0.0081,0.04802 0.01292,0.07183 0.0053,0.02505 0.012,0.04969 0.0186,0.07441 0.0074,0.02613 0.01409,0.05234 0.02119,0.07855 0.0076,0.02704 0.01369,0.05445 0.01809,0.08217 0.0043,0.02929 0.0057,0.05881 0.0067,0.08837 0.0015,0.03407 0.0011,0.0683 -0.001,0.102319 -0.0032,0.04288 -0.0088,0.08561 -0.01499,0.128157 -0.0067,0.044 -0.01337,0.08786 -0.02067,0.131775 -0.0071,0.0407 -0.01512,0.08125 -0.02222,0.121957 -0.007,0.03766 -0.01337,0.07561 -0.01757,0.113688 -0.003,0.03258 -0.0055,0.065 -0.0072,0.09767 -0.0015,0.03015 -0.0021,0.06026 -0.0026,0.09043 -3.99e-4,0.02872 -4.47e-4,0.05758 -5.17e-4,0.0863 -6.4e-5,0.03137 1.3e-5,0.06268 0,0.09405 -1.1e-5,0.03162 2e-6,0.06347 0,0.09508 -7e-4,0.03997 -0.0019,0.07992 -0.0026,0.11989 -0.0013,0.04087 -0.0035,0.08162 -0.0052,0.122473 -5e-4,0.03729 -0.0031,0.07448 -0.0062,0.111621 -0.0028,0.03481 -0.0061,0.06954 -0.0083,0.104386 -0.0018,0.03008 -0.0022,0.0603 -0.0026,0.09043 -3.46e-4,0.03026 -4.36e-4,0.06017 -5.16e-4,0.09043 4e-4,0.03117 -0.0012,0.06238 -0.0021,0.09353 -6.14e-4,0.02925 -0.0019,0.05861 -5.17e-4,0.08785 0.0013,0.02342 0.0052,0.04652 0.0083,0.06976 0.0035,0.02483 0.0052,0.04992 0.0067,0.07493 8.24e-4,0.01453 0.0011,0.02887 0.0016,0.04341 l 5.17e-4,0.0036 c 5.58e-4,0.01875 -0.0043,0.03272 -0.01137,0.04186 0.0044,0.06007 0.0094,0.110067 0.0124,0.189652 0.0553,1.458235 1.020697,2.205328 3.266984,2.528528 4.406547,0.634042 4.06502,0.658742 5.091679,-0.367936 0.724753,-0.724755 0.938644,-1.159687 0.960664,-1.951302 l 0.0186,-0.665076 c -0.0157,-0.0058 -0.03126,-0.02135 -0.04082,-0.04909 -0.009,-0.0261 -0.01666,-0.05228 -0.02325,-0.07906 -0.0131,-0.05702 -0.0101,-0.115773 -0.0062,-0.173633 0.0069,-0.0851 0.01657,-0.170212 0.02377,-0.255282 0.0076,-0.09026 0.01011,-0.180771 0.01085,-0.271301 3.4e-4,-0.0944 -2.98e-4,-0.188787 -5.17e-4,-0.283187 -3e-4,-0.08376 -0.0016,-0.16742 -0.0036,-0.251147 -0.0014,-0.06689 -0.0071,-0.133588 -0.01499,-0.199988 -0.0067,-0.05697 -0.01763,-0.113112 -0.03049,-0.168982 -0.01642,-0.06747 -0.03377,-0.134695 -0.05064,-0.202055 -0.01983,-0.07625 -0.03634,-0.153534 -0.05064,-0.230994 -0.01388,-0.07678 -0.02031,-0.154217 -0.02481,-0.232027 -0.0038,-0.07693 -0.0044,-0.154024 -0.0072,-0.230994 -0.0026,-0.0811 -0.01282,-0.161832 -0.02222,-0.242362 -0.01013,-0.08437 -0.015,-0.168871 -0.0186,-0.253731 -0.003,-0.08181 -0.0043,-0.16411 -0.0041,-0.24598 4.78e-4,-0.06678 0.0037,-0.133483 0.0083,-0.199988 -0.02469,-0.05012 -0.03207,-0.224263 -0.03824,-0.507979 -0.03249,-1.493695 -1.376078,-2.222502 -4.827612,-2.618962 -0.42355,-0.04865 -0.769601,-0.07045 -1.069186,-0.06149 z m 0.580326,0.396381 c 1.920493,0.0385 4.377875,0.64608 4.789889,1.415935 0.163732,0.305905 0.36201,1.726129 0.4408,3.155879 0.163271,2.962935 -0.08554,3.878587 -1.240751,4.560962 -0.815966,0.48202 -1.685342,0.545055 -2.528011,0.182935 -0.291042,-0.12506 -0.886354,-0.23653 -1.322917,-0.24753 -1.38138,-0.03493 -2.768757,-0.551531 -3.183785,-1.184941 -0.281408,-0.429455 -0.404895,-1.329602 -0.412895,-3.017387 -0.01246,-2.628915 0.377715,-3.878287 1.413868,-4.527372 0.408585,-0.255975 1.170865,-0.355979 2.043802,-0.338481 z m -0.632002,2.211742 c -0.08,0.005 -0.31048,0.329073 -0.740007,1.018542 -0.498572,0.800335 -1.047144,1.425463 -1.219047,1.389063 -0.171903,-0.03638 -0.312642,0.191666 -0.312642,0.506946 0,0.498825 0.114111,0.441017 0.879533,-0.444418 l 0.880049,-1.017509 0.658875,0.497128 c 0.580746,0.438045 0.651756,0.672006 0.596346,1.965771 -0.03459,0.807615 -0.0096,1.111454 0.05529,0.674894 0.248942,-1.67377 0.400727,-1.987079 1.153934,-2.376599 0.999662,-0.516915 1.978726,-0.511515 2.50424,0.01395 0.377974,0.377915 0.415479,0.37045 0.415479,-0.08061 0,-0.64806 -1.698188,-0.781507 -3.003435,-0.236162 -0.864984,0.36143 -0.949443,0.349004 -1.484147,-0.220141 -0.428656,-0.45631 -0.524153,-0.789513 -0.392224,-1.365808 0.0496,-0.216656 0.05455,-0.328061 0.0078,-0.325045 z" /></g></svg>
