<?xml version="1.0" encoding="UTF-8" standalone="no"?>
<!-- Created with Inkscape (http://www.inkscape.org/) -->

<svg
   width="5.7915025mm"
   height="6.8160119mm"
   viewBox="0 0 5.7915025 6.8160119"
   version="1.1"
   id="svg13318"
   xml:space="preserve"
   xmlns="http://www.w3.org/2000/svg"
   xmlns:svg="http://www.w3.org/2000/svg"><defs
     id="defs13315" /><g
     id="layer1"
     transform="translate(-91.499717,-112.47096)"><path
       id="tooth24"
       style="fill:#000000;stroke-width:0.264583"
       d="m 94.099166,112.47571 v 5.2e-4 c -0.727996,0.0327 -1.458311,0.23591 -2.042253,0.64492 -1.094559,0.76668 -0.490702,3.95024 1.063501,5.60586 0.695766,0.74114 0.999561,0.74476 1.918746,0.0217 0.805123,-0.63334 2.251795,-3.45157 2.252059,-4.38733 4.22e-4,-1.20406 -1.590458,-1.95771 -3.192053,-1.88567 z m 0.281636,0.26503 c 0.11989,0 0.239779,0.0181 0.33073,0.0548 0.181876,0.0733 0.03307,0.13384 -0.33073,0.13384 -0.363774,0 -0.51263,-0.0604 -0.330729,-0.13384 0.09095,-0.0367 0.210864,-0.0548 0.330729,-0.0548 z m -0.166914,0.49292 c 1.782517,0 2.813013,0.3619 2.812748,0.9865 -3.23e-4,0.7251 -1.457317,3.63543 -2.137337,4.26899 -0.33432,0.31138 -0.710604,0.56586 -0.835608,0.56586 -0.467635,0 -1.502094,-1.40231 -1.903243,-2.57969 -0.881325,-2.58651 -0.464431,-3.24166 2.06344,-3.24166 z m 0.134875,0.82394 c -0.287734,-5.3e-4 -0.585431,0.0135 -0.823206,0.0429 v 5.2e-4 c -0.475524,0.0589 -0.150146,0.10755 0.722954,0.10955 0.87311,10e-4 1.262122,-0.0466 0.864546,-0.10697 -0.198763,-0.0303 -0.47656,-0.0455 -0.764294,-0.046 z" /></g></svg>
