<?xml version="1.0" encoding="UTF-8" standalone="no"?>
<!-- Created with Inkscape (http://www.inkscape.org/) -->

<svg
   width="9.4802999mm"
   height="9.2582445mm"
   viewBox="0 0 9.4802999 9.2582445"
   version="1.1"
   id="svg13318"
   xml:space="preserve"
   xmlns="http://www.w3.org/2000/svg"
   xmlns:svg="http://www.w3.org/2000/svg"><defs
     id="defs13315" /><g
     id="layer1"
     transform="translate(-81.680802,-91.018047)"><path
       id="tooth08"
       style="fill:#000000;stroke-width:0.264583"
       d="m 86.53787,91.021312 c -0.637719,0.0354 -1.300318,0.362566 -1.986959,0.981852 -1.26327,1.139375 -2.870109,4.238112 -2.870109,5.535062 0,0.89203 0.954423,1.865886 2.389519,2.438611 1.711301,0.682993 5.377225,0.134043 6.699849,-1.003039 0.683502,-0.58764 0.469223,-2.114659 -0.630969,-4.501534 -1.017283,-2.207025 -2.128348,-3.356958 -3.329513,-3.448369 -0.09009,-0.0069 -0.180712,-0.0076 -0.271818,-0.0026 z m 0.0124,0.254241 c 1.421241,0 2.869335,1.778564 3.859196,4.740279 0.731717,2.18937 0.583624,2.811103 -0.720887,3.026688 -1.424014,0.23537 -4.749116,0.152798 -6.223909,-0.154512 -1.597101,-0.33279 -1.810512,-0.957742 -1.026294,-3.007052 1.025802,-2.680565 2.74447,-4.605403 4.111894,-4.605403 z m -2.764173,8.04965 c 0.04569,0.0041 0.121583,0.01958 0.227377,0.04599 0.336832,0.08408 1.587039,0.158365 2.778125,0.165365 1.349045,0.0079 1.96572,0.09186 1.636075,0.222725 -0.869605,0.345247 -3.3825,0.251177 -4.233333,-0.158646 C 83.783021,99.40255 83.649039,99.31294 83.7861,99.325203 Z m 2.795698,-1.30278 c -1.50711,0 -2.713346,0.02653 -2.680456,0.05943 0.03289,0.03289 0.529328,0.174373 1.102775,0.314193 0.573422,0.13978 1.564253,0.192706 2.201933,0.117306 2.325967,-0.2749 2.051103,-0.490926 -0.624252,-0.490926 z" /></g></svg>
