<?xml version="1.0" encoding="UTF-8" standalone="no"?>
<!-- Created with Inkscape (http://www.inkscape.org/) -->

<svg
   width="7.5608644mm"
   height="8.4209204mm"
   viewBox="0 0 7.5608644 8.4209204"
   version="1.1"
   id="svg13318"
   xml:space="preserve"
   xmlns="http://www.w3.org/2000/svg"
   xmlns:svg="http://www.w3.org/2000/svg"><defs
     id="defs13315" /><g
     id="layer1"
     transform="translate(-73.799697,-92.069286)"><path
       id="tooth07"
       style="fill:#000000;stroke-width:0.264583"
       d="m 78.038647,92.069286 c -1.27203,0 -3.673819,3.437121 -4.18269,5.985681 -0.143454,0.718455 -0.0497,0.91311 0.720886,1.493965 0.487439,0.36744 1.124376,0.726148 1.415418,0.796848 1.165091,0.28305 2.179017,0.1557 3.439583,-0.432012 1.836835,-0.856365 2.085619,-1.222726 1.858285,-2.738851 -0.456017,-3.040865 -1.771113,-5.105631 -3.251482,-5.105631 z m 0.08268,0.454264 c 0.718267,-0.01071 1.431377,0.444407 1.786971,1.217497 0.766322,1.666125 1.104423,3.242847 1.007173,4.701522 -0.01542,0.2313 -0.307484,0.548203 -0.649056,0.703833 -1.564839,0.712985 -5.079223,0.565385 -5.892146,-0.24753 -0.3458,-0.3458 -0.326203,-0.56699 0.167948,-1.88774 0.705272,-1.88503 2.053403,-3.910906 2.872176,-4.316016 0.227513,-0.112565 0.467503,-0.167994 0.706934,-0.171566 z m -0.532265,6.02289 c -0.921711,0.0027 -1.539373,0.09256 -1.372009,0.199471 0.397928,0.253985 2.332765,0.2512 2.734717,-0.0052 0.172289,-0.10959 -0.440973,-0.197303 -1.362708,-0.194303 z" /></g></svg>
