<?xml version="1.0" encoding="UTF-8" standalone="no"?>
<!-- Created with Inkscape (http://www.inkscape.org/) -->

<svg
   width="9.9076843mm"
   height="19.495426mm"
   viewBox="0 0 9.9076843 19.495426"
   version="1.1"
   id="svg5"
   xml:space="preserve"
   xmlns="http://www.w3.org/2000/svg"
   xmlns:svg="http://www.w3.org/2000/svg"><defs
     id="defs2" /><g
     id="layer1"
     transform="translate(-184.30975,-49.854241)"><path
       style="fill:#000000;stroke-width:0.139449"
       d="m 185.87525,69.207629 c -0.53239,-0.15403 -1.25209,-0.98312 -1.44018,-1.65909 -0.19842,-0.71312 -0.15678,-1.80172 0.0934,-2.44036 0.12017,-0.30678 0.32934,-1.71871 0.46483,-3.1376 0.4788,-5.01396 1.0774,-7.02875 2.67653,-9.00878 1.11411,-1.37948 1.76158,-1.74065 2.07397,-1.15694 0.15053,0.28129 0.17102,0.27156 0.51359,-0.24403 1.08535,-1.63352 2.54676,-2.27514 2.54676,-1.11813 0,0.45679 0.0184,0.47293 0.52154,0.45758 0.48835,-0.0149 0.52963,0.0165 0.64862,0.49271 0.0999,0.39989 0.0459,0.82639 -0.25242,1.99518 -0.50153,1.96466 -0.68422,3.80506 -0.58893,5.93288 0.0918,2.05089 0.37341,3.72753 0.77285,4.60182 0.65066,1.42412 0.24773,3.44253 -0.88588,4.43786 -1.01132,0.88796 -1.72901,0.95002 -2.59728,0.2246 -0.67578,-0.5646 -0.97405,-0.55977 -1.74502,0.0283 -0.48582,0.37054 -1.57073,0.75657 -2.06626,0.73519 -0.16038,-0.007 -0.49162,-0.0704 -0.73608,-0.14117 z m 1.5044,-0.42455 c 0.2607,-0.088 0.7564,-0.35089 1.10154,-0.58425 0.85864,-0.58055 1.47305,-0.57618 2.14666,0.0153 0.59336,0.52096 0.87135,0.55228 1.60046,0.18032 1.00112,-0.51073 1.55194,-1.56273 1.55194,-2.96398 0,-1.43837 -0.6411,-2.27635 -2.37063,-3.09864 -0.76298,-0.36275 -1.07192,-0.43095 -1.95229,-0.43095 -0.88521,0 -1.17299,0.0643 -1.87341,0.41835 -1.66398,0.84119 -2.6749,2.21669 -2.82911,3.84938 -0.0839,0.88825 0.0971,1.5684 0.55367,2.08127 0.57948,0.65089 1.22784,0.81781 2.07117,0.53323 z m 0.0308,-6.86348 c 1.51585,-0.76695 3.18263,-0.63426 4.87833,0.38836 0.60919,0.36738 0.79177,0.42915 0.73793,0.2497 -0.0393,-0.13115 -0.14502,-0.92873 -0.23482,-1.7724 -0.27451,-2.57873 -0.0147,-5.81308 0.64204,-7.99327 0.26944,-0.89446 0.22946,-1.46937 -0.1066,-1.5331 -0.14726,-0.0279 -0.58078,0.2752 -1.09519,0.76578 -1.38508,1.32088 -2.45893,3.83261 -2.71703,6.35509 -0.0638,0.6235 -0.15678,0.94129 -0.27541,0.94129 -0.60879,0 -0.74587,-3.52464 -0.20336,-5.22934 0.36293,-1.14047 0.51011,-2.16147 0.31155,-2.16147 -0.29665,0 -1.87189,1.87746 -2.31664,2.76112 -0.81882,1.62686 -1.35804,3.95156 -1.54287,6.6517 -0.0472,0.69027 -0.11958,1.46905 -0.16074,1.73063 l -0.0748,0.47559 0.68425,-0.61521 c 0.37633,-0.33836 1.03937,-0.79487 1.47339,-1.01447 z m 2.97601,-8.01754 c 0.39878,-0.79738 0.91473,-1.57419 1.32604,-1.99645 0.53975,-0.55415 0.67324,-0.78613 0.67324,-1.16998 0,-0.27962 -0.0696,-0.47878 -0.16746,-0.47878 -0.0921,0 -0.5368,0.37978 -0.98818,0.84394 -1.2982,1.33495 -2.00953,3.10652 -2.12483,5.29183 l -0.0699,1.32476 0.34915,-1.25504 c 0.19204,-0.69027 0.6429,-1.8424 1.00193,-2.56028 z"
       id="tooth16" /></g></svg>
