<?xml version="1.0" encoding="UTF-8" standalone="no"?>
<!-- Created with Inkscape (http://www.inkscape.org/) -->

<svg
   width="7.7697911mm"
   height="23.68257mm"
   viewBox="0 0 7.7697911 23.68257"
   version="1.1"
   id="svg5"
   xml:space="preserve"
   xmlns="http://www.w3.org/2000/svg"
   xmlns:svg="http://www.w3.org/2000/svg"><defs
     id="defs2" /><g
     id="layer1"
     transform="translate(-73.089239,-45.536373)"><path
       style="fill:#000000;stroke-width:0.139449"
       d="m 75.564162,68.814279 c -1.107312,-0.61051 -1.827913,-1.23563 -2.160569,-1.87429 -0.425121,-0.81618 -0.417969,-2.72687 0.01486,-3.97108 0.424158,-1.21927 0.635438,-5.91451 0.525118,-11.66961 -0.07928,-4.13594 -0.07086,-4.34619 0.191375,-4.77741 0.534258,-0.87851 1.540275,-1.22682 2.340656,-0.81038 0.907779,0.47232 1.408193,1.40231 1.977385,3.67486 0.824549,3.29208 1.202697,6.37165 1.451067,11.81724 0.03722,0.81613 0.173202,1.45248 0.506563,2.37063 0.795036,2.1897 0.541966,3.58796 -0.83191,4.59647 -1.563254,1.14754 -2.754208,1.33846 -4.014549,0.64357 z m 2.604757,-0.29786 c 0.817835,-0.37101 1.770186,-1.16265 2.050279,-1.70429 0.659573,-1.27547 -0.250007,-4.33266 -1.681701,-5.65235 -0.726838,-0.66997 -1.139415,-0.86259 -1.847646,-0.86259 -1.247079,0 -2.284034,1.02998 -2.878059,2.85871 -0.342196,1.05346 -0.423704,2.02754 -0.242639,2.89972 0.140997,0.67919 0.260266,0.8731 0.879363,1.42972 1.422118,1.27861 2.5101,1.58013 3.720403,1.03108 z m -2.57159,-8.41915 c 0.589536,-0.27976 1.640918,-0.27991 2.230096,-2.8e-4 0.252788,0.11995 0.717223,0.4386 1.032081,0.70811 l 0.572468,0.49001 -0.0013,-0.95215 c -0.0025,-1.9636 -0.439966,-6.66192 -0.762208,-8.18647 -0.441282,-2.08773 -1.123572,-4.59392 -1.370214,-5.03307 -0.355307,-0.63274 -1.09828,-1.18949 -1.587253,-1.18949 -0.41053,0 -0.978807,0.35926 -1.189297,0.75186 -0.110048,0.20526 -0.164601,2.33565 -0.180715,7.05729 -0.01269,3.71981 -0.07354,6.95154 -0.13522,7.18163 l -0.112138,0.41835 0.521681,-0.51369 c 0.286924,-0.28252 0.728812,-0.61197 0.981974,-0.7321 z"
       id="tooth05" /></g></svg>
