<?xml version="1.0" encoding="UTF-8" standalone="no"?>
<!-- Created with Inkscape (http://www.inkscape.org/) -->

<svg
   width="5.4328208mm"
   height="23.198891mm"
   viewBox="0 0 5.4328208 23.198891"
   version="1.1"
   id="svg5"
   xml:space="preserve"
   xmlns="http://www.w3.org/2000/svg"
   xmlns:svg="http://www.w3.org/2000/svg"><defs
     id="defs2" /><g
     id="layer1"
     transform="translate(-109.83584,-72.220089)"><path
       style="fill:#000000;stroke-width:0.139449"
       d="m 112.28561,95.090991 c -1.01128,-1.091192 -1.61659,-5.467822 -1.8324,-13.248912 -0.0545,-1.9663 -0.15936,-3.36832 -0.29195,-3.90458 -0.11377,-0.46018 -0.24278,-1.8418 -0.28667,-3.07027 -0.0726,-2.0324 -0.0574,-2.25221 0.16935,-2.44036 0.19646,-0.16305 0.70433,-0.20678 2.40126,-0.20678 h 2.1521 l 0.35624,0.41415 c 0.35322,0.41065 0.35547,0.42896 0.26541,2.16146 -0.05,0.96102 -0.18444,2.21795 -0.29886,2.79318 -0.43794,2.20174 -1.11905,9.81821 -1.26963,14.19758 -0.0814,2.36628 -0.1372,2.87913 -0.35193,3.232222 -0.31055,0.51067 -0.58829,0.5305 -1.01292,0.0723 z m 0.92515,-3.107382 c 0.0911,-2.29934 0.35546,-5.95698 0.76714,-10.61419 l 0.0788,-0.891 -0.42925,0.31736 c -0.63448,0.46909 -1.42981,0.42784 -2.19858,-0.11404 l -0.61203,-0.4314 0.0686,2.19036 c 0.17496,5.58964 0.59424,9.62798 1.1696,11.26498 0.32704,0.93047 0.68201,1.393472 0.90068,1.174792 0.0839,-0.0839 0.19254,-1.317162 0.25513,-2.896862 z m 0.20903,-11.55186 c 0.17097,-0.10778 0.40172,-0.37167 0.51278,-0.58643 0.32781,-0.63393 0.79423,-3.31769 0.87951,-5.06067 0.0746,-1.52414 0.0617,-1.63639 -0.21931,-1.91743 -0.27513,-0.27512 -0.44383,-0.29851 -2.15319,-0.29851 -1.25659,0 -1.90864,0.054 -2.02201,0.16734 -0.21171,0.21171 -0.22275,2.47189 -0.0194,3.97118 0.19996,1.47425 0.65069,2.97149 1.01592,3.37465 0.61646,0.68048 1.29382,0.79864 2.00569,0.34987 z"
       id="tooth24" /></g></svg>
