<?xml version="1.0" encoding="UTF-8" standalone="no"?>
<!-- Created with Inkscape (http://www.inkscape.org/) -->

<svg
   width="5.4380445mm"
   height="23.262823mm"
   viewBox="0 0 5.4380445 23.262823"
   version="1.1"
   id="svg5"
   xml:space="preserve"
   xmlns="http://www.w3.org/2000/svg"
   xmlns:svg="http://www.w3.org/2000/svg"><defs
     id="defs2" /><g
     id="layer1"
     transform="translate(-102.71983,-72.154576)"><path
       style="fill:#000000;stroke-width:0.139449"
       d="m 104.6912,95.017631 c -0.21561,-0.354552 -0.27109,-0.864542 -0.35269,-3.242192 -0.15131,-4.40925 -0.76874,-11.41224 -1.2139,-13.76821 -0.15216,-0.80532 -0.31431,-2.25051 -0.36034,-3.21153 -0.0827,-1.7276 -0.0797,-1.75198 0.27223,-2.16146 l 0.35591,-0.41415 2.09425,-0.0448 c 2.84803,-0.0609 2.73955,-0.17142 2.62838,2.6788 -0.0452,1.15897 -0.17517,2.52616 -0.28882,3.03819 -0.12345,0.55614 -0.24073,2.10013 -0.29132,3.83485 -0.23471,8.04906 -0.8303,12.33807 -1.8557,13.363472 -0.45506,0.45506 -0.67683,0.43867 -0.988,-0.073 z m 1.22198,-1.256012 c 0.52326,-1.50316 0.92362,-4.69331 1.05838,-8.43332 0.0442,-1.22715 0.10524,-2.86993 0.13561,-3.65063 l 0.0552,-1.41944 -0.60644,0.42745 c -0.76361,0.53825 -1.56028,0.57788 -2.19425,0.10916 l -0.43052,-0.31829 0.0968,1.03138 c 0.3445,3.66886 0.64091,7.82598 0.72481,10.16531 0.0537,1.49559 0.15431,2.87168 0.22369,3.057972 0.12515,0.33599 0.12835,0.33653 0.3985,0.0664 0.14979,-0.149792 0.39197,-0.615972 0.53816,-1.035962 z m 0.47699,-13.51979 c 0.78336,-0.68779 1.34172,-3.14839 1.34721,-5.93698 0.002,-0.90752 -0.0562,-1.46044 -0.16457,-1.5688 -0.11338,-0.11338 -0.76543,-0.16734 -2.02202,-0.16734 -1.71062,0 -1.87791,0.0232 -2.15384,0.29917 -0.28229,0.28229 -0.29449,0.39043 -0.21619,1.91742 0.0897,1.74966 0.55385,4.43503 0.87335,5.05287 0.4742,0.91701 1.54138,1.10141 2.33606,0.40366 z"
       id="tooth25" /></g></svg>
