<?xml version="1.0" encoding="UTF-8" standalone="no"?>
<!-- Created with Inkscape (http://www.inkscape.org/) -->

<svg
   width="14.495653mm"
   height="19.629633mm"
   viewBox="0 0 14.495653 19.629633"
   version="1.1"
   id="svg5"
   xml:space="preserve"
   xmlns="http://www.w3.org/2000/svg"
   xmlns:svg="http://www.w3.org/2000/svg"><defs
     id="defs2" /><g
     id="layer1"
     transform="translate(-19.025525,-73.696843)"><path
       style="fill:#000000;stroke-width:0.139449"
       d="m 24.499015,93.024259 c -0.176882,-0.46523 -4.74e-4,-1.06446 0.601711,-2.04393 0.622255,-1.01211 1.118362,-2.21303 1.472045,-3.56335 0.400696,-1.52982 0.360722,-1.64244 -0.200676,-0.56539 -1.090373,2.0919 -2.997354,4.25768 -4.440537,5.04315 -0.813824,0.44294 -2.236438,0.55814 -2.650404,0.21463 -0.484216,-0.40181 -0.289479,-0.95902 0.660786,-1.89076 1.778545,-1.74387 2.435973,-3.3651 2.674771,-6.59603 0.11433,-1.54689 -0.136198,-4.07078 -0.498801,-5.02507 -0.480564,-1.26475 -0.335942,-2.89418 0.330386,-3.7224 0.296022,-0.36795 0.421296,-0.41473 1.151583,-0.43009 0.450685,-0.009 1.094013,-0.12176 1.429618,-0.24952 0.763485,-0.29066 1.906107,-0.2979 2.732534,-0.0173 0.604757,0.20532 0.683635,0.19906 1.755186,-0.13945 2.002924,-0.63272 3.19835,-0.39244 3.80073,0.76395 0.350033,0.67195 0.243468,1.97283 -0.285349,3.48344 -0.281852,0.80513 -0.447312,1.61024 -0.515861,2.51009 -0.289744,3.80356 -1.424952,7.11159 -3.200576,9.32657 -1.122716,1.40051 -3.211184,2.96341 -4.23305,3.16778 -0.391951,0.0784 -0.465857,0.0447 -0.584096,-0.2663 z m 1.656076,-0.69541 c 1.127993,-0.66292 2.851615,-2.36523 3.583017,-3.53872 1.281964,-2.05683 2.102447,-4.85492 2.362152,-8.05564 l 0.09683,-1.19332 h -1.4253 c -1.283702,0 -1.531512,0.044 -2.494399,0.44277 -0.980924,0.40625 -1.201362,0.44363 -2.672763,0.45321 -1.423749,0.009 -1.663228,-0.0248 -2.13457,-0.30333 -0.291998,-0.17256 -0.546742,-0.31376 -0.566097,-0.31376 -0.01936,0 0.02055,0.48633 0.08869,1.08073 0.253972,2.21568 -0.128008,5.41785 -0.82954,6.95412 -0.410365,0.89864 -1.230021,2.0359 -1.982821,2.75112 -0.793189,0.75359 -0.89843,1.12949 -0.354448,1.26602 1.010845,0.2537 2.172787,-0.31944 3.619599,-1.78541 1.194434,-1.21024 2.092868,-2.47612 2.91243,-4.10355 0.466972,-0.92729 0.532022,-0.99705 0.797294,-0.85508 0.2412,0.12909 0.274099,0.23885 0.199476,0.66551 -0.360411,2.06066 -1.079377,4.12328 -1.904906,5.46494 -0.448393,0.72873 -0.709378,1.45631 -0.571752,1.59394 0.11361,0.1136 0.37599,0.006 1.277115,-0.52355 z m 1.820167,-12.72236 c 0.781345,-0.33458 1.14026,-0.39665 2.601059,-0.44987 l 1.694639,-0.0617 0.21996,-0.57869 c 0.910825,-2.39631 0.843823,-3.66835 -0.22226,-4.21964 -0.569322,-0.29441 -1.813498,-0.1935 -2.94284,0.23867 -0.786274,0.30089 -0.832074,0.30321 -1.545885,0.0782 -0.992704,-0.31292 -2.012112,-0.2922 -2.902253,0.059 -0.505563,0.19947 -0.898471,0.2652 -1.250196,0.20913 -0.378609,-0.0604 -0.575394,-0.0193 -0.751479,0.15678 -0.845613,0.84562 -0.829457,3.06216 0.02976,4.08328 0.662748,0.78763 1.303949,0.98567 2.977756,0.9197 0.913896,-0.036 1.392875,-0.13559 2.091736,-0.43484 z"
       id="tooth32" /></g></svg>
