<?xml version="1.0" encoding="UTF-8" standalone="no"?>
<!-- Created with Inkscape (http://www.inkscape.org/) -->

<svg
   width="7.4583468mm"
   height="24.208689mm"
   viewBox="0 0 7.4583468 24.208689"
   version="1.1"
   id="svg5"
   xml:space="preserve"
   xmlns="http://www.w3.org/2000/svg"
   xmlns:svg="http://www.w3.org/2000/svg"><defs
     id="defs2" /><g
     id="layer1"
     transform="translate(-74.276016,-73.264931)"><path
       style="fill:#000000;stroke-width:0.139449"
       d="m 75.783248,97.293961 c -0.643238,-0.73655 -0.738348,-1.52022 -0.453686,-3.738162 0.528129,-4.11492 0.160492,-11.13061 -0.773929,-14.76905 -0.568986,-2.21551 -0.35767,-2.83778 1.459833,-4.29882 1.925273,-1.54767 2.084865,-1.56505 3.65572,-0.398 2.0394,1.51515 2.343286,2.16392 1.866145,3.98408 -0.161267,0.61519 -0.44722,2.37357 -0.635451,3.90751 -0.947423,7.72079 -2.52001,13.830872 -3.888373,15.107772 -0.451092,0.42094 -0.96651,0.50669 -1.230259,0.20467 z m 1.042442,-0.6635 c 1.2538,-1.41896 2.814902,-7.572762 3.566105,-14.057432 l 0.238409,-2.05804 -0.564256,0.55318 c -0.598543,0.5868 -1.500871,0.98507 -2.220314,0.98002 -0.546881,-0.004 -1.408926,-0.39147 -2.022669,-0.9095 -0.391503,-0.33045 -0.457381,-0.35183 -0.388694,-0.12615 0.04549,0.14946 0.187698,1.2444 0.31602,2.4332 0.292421,2.70904 0.313618,7.7321 0.0409,9.69171 -0.443104,3.183912 -0.0036,4.667872 1.034499,3.493012 z m 1.808258,-15.145392 c 0.731296,-0.20308 1.372273,-0.8099 1.898636,-1.79746 0.472629,-0.88674 0.907436,-2.60069 0.768541,-3.02948 -0.04535,-0.14001 -0.147261,-0.4279 -0.226461,-0.63976 -0.188256,-0.50356 -2.476746,-2.33424 -2.917112,-2.33354 -0.394249,5.5e-4 -0.884443,0.29677 -1.999478,1.20798 -1.495772,1.22235 -1.665066,1.70211 -1.247876,3.53635 0.304514,1.33884 1.026806,2.40771 1.931765,2.85867 0.768779,0.38309 1.022255,0.41099 1.791985,0.19724 z"
       id="tooth28" /></g></svg>
