<?xml version="1.0" encoding="UTF-8" standalone="no"?>
<!-- Created with Inkscape (http://www.inkscape.org/) -->

<svg
   width="7.7195625mm"
   height="28.033047mm"
   viewBox="0 0 7.7195625 28.033047"
   version="1.1"
   id="svg5"
   xml:space="preserve"
   xmlns="http://www.w3.org/2000/svg"
   xmlns:svg="http://www.w3.org/2000/svg"><defs
     id="defs2" /><g
     id="layer1"
     transform="translate(-84.62027,-72.708159)"><path
       style="fill:#000000;stroke-width:0.139449"
       d="m 85.795789,100.52716 c -0.04438,-0.11565 0.02455,-0.947109 0.153167,-1.847699 0.285941,-2.00214 0.320627,-8.061312 0.06006,-10.492452 -0.09453,-0.88202 -0.297324,-2.83924 -0.450649,-4.34939 -0.172327,-1.69729 -0.38393,-3.05136 -0.554164,-3.54616 -0.353365,-1.02707 -0.49687,-2.86186 -0.28481,-3.64147 0.338828,-1.24565 3.043491,-3.94183 3.954232,-3.94183 0.893019,0 2.82783,1.56595 3.311626,2.68029 0.503961,1.16078 0.469725,2.73542 -0.09636,4.43161 -0.387939,1.16243 -0.461164,1.63237 -0.597525,3.83485 -0.588734,9.5091 -1.443183,13.780952 -3.165965,15.828362 -0.8677,1.031199 -2.119282,1.592029 -2.329622,1.043889 z m 1.266643,-0.614029 c 0.308216,-0.22327 0.694862,-0.59479 0.859213,-0.8256 1.397456,-1.96254 2.301358,-6.081882 2.728486,-12.434462 0.116029,-1.72568 0.238741,-3.46368 0.272693,-3.86221 l 0.06173,-0.7246 -0.429156,0.48878 c -0.732851,0.83467 -1.97311,1.30256 -2.908307,1.09715 -0.248896,-0.0547 -0.755819,-0.38307 -1.126495,-0.7298 -0.370677,-0.34672 -0.672844,-0.54338 -0.67148,-0.43701 0.0014,0.10636 0.06287,0.75816 0.13669,1.44843 0.07382,0.69028 0.240297,2.25908 0.369954,3.48623 0.157099,1.48687 0.238399,3.48722 0.243708,5.99631 0.0073,3.446552 -0.03446,4.097742 -0.413521,6.449522 -0.09339,0.579409 0.125575,0.591219 0.876485,0.0473 z m 2.20905,-16.870112 c 1.006794,-0.45729 1.697526,-1.58524 2.368691,-3.868 0.514188,-1.74885 0.354205,-3.25607 -0.462246,-4.35488 -0.349734,-0.47068 -2.093621,-1.69363 -2.415068,-1.69363 -0.338103,0 -1.492423,0.85221 -2.315919,1.70979 -1.226957,1.27775 -1.369088,1.60235 -1.357927,3.1012 0.01051,1.41223 0.292583,2.54384 0.904522,3.62877 0.884583,1.56831 1.984948,2.06404 3.277947,1.47675 z"
       id="tooth27" /></g></svg>
