<?xml version="1.0" encoding="UTF-8" standalone="no"?>
<!-- Created with Inkscape (http://www.inkscape.org/) -->

<svg
   width="7.7677693mm"
   height="24.426304mm"
   viewBox="0 0 7.7677693 24.426304"
   version="1.1"
   id="svg5"
   xml:space="preserve"
   xmlns="http://www.w3.org/2000/svg"
   xmlns:svg="http://www.w3.org/2000/svg"><defs
     id="defs2" /><g
     id="layer1"
     transform="translate(-64.379156,-73.375772)"><path
       style="fill:#000000;stroke-width:0.139449"
       d="m 66.780187,97.432011 c -0.210399,-0.3208 -0.260625,-0.84558 -0.336986,-3.521092 -0.0871,-3.0517 -0.157991,-3.78644 -0.606115,-6.28171 -0.289473,-1.61185 -0.711563,-4.62494 -0.90837,-6.48438 -0.0893,-0.84367 -0.251204,-1.88813 -0.359797,-2.32104 -0.240669,-0.95941 -0.253443,-2.06151 -0.03245,-2.79913 0.182758,-0.61 0.692327,-1.07209 2.275362,-2.06339 1.4704,-0.92076 2.230568,-0.7985 4.190005,0.67389 1.011229,0.75988 1.214664,1.23419 1.126648,2.62682 -0.03954,0.62552 -0.16786,1.47267 -0.285169,1.88256 -0.391081,1.36646 -0.635043,3.18354 -0.780265,5.81157 -0.07912,1.43186 -0.206001,3.26228 -0.281951,4.06759 -0.496925,5.26909 -2.835887,10.184652 -4.000916,8.408312 z m 1.372585,-0.87908 c 0.659861,-1.00233 1.188639,-2.360792 1.655144,-4.252172 0.430962,-1.74728 0.625817,-3.43977 0.842866,-7.32108 0.08364,-1.49559 0.186501,-2.97027 0.228587,-3.27705 l 0.07652,-0.5578 -0.538088,0.51613 c -0.683883,0.65597 -1.387086,0.94809 -2.282278,0.94809 -0.878529,0 -1.589897,-0.34814 -2.286187,-1.11885 l -0.525124,-0.58125 0.09009,0.81518 c 0.161375,1.46018 0.503121,3.85025 0.774558,5.41701 0.521347,3.00928 0.572907,3.52515 0.669007,6.69356 0.0535,1.764032 0.149325,3.289242 0.212936,3.389362 0.209531,0.32978 0.57039,0.10595 1.081966,-0.67113 z m 1.17693,-14.625252 c 1.170082,-0.53147 1.996304,-1.94632 2.307377,-3.95123 0.202172,-1.30303 0.104692,-2.12555 -0.303392,-2.55994 -0.520524,-0.55407 -2.499834,-1.64872 -2.978017,-1.64698 -0.598469,0.002 -3.011007,1.53502 -3.278698,2.08316 -0.643641,1.31796 -0.04421,4.15018 1.159783,5.47977 0.753243,0.83182 2.030767,1.07768 3.092947,0.59522 z"
       id="tooth29" /></g></svg>
