<?xml version="1.0" encoding="UTF-8" standalone="no"?>
<!-- Created with Inkscape (http://www.inkscape.org/) -->

<svg
   width="13.92483mm"
   height="23.667101mm"
   viewBox="0 0 13.92483 23.667101"
   version="1.1"
   id="svg5"
   xml:space="preserve"
   xmlns="http://www.w3.org/2000/svg"
   xmlns:svg="http://www.w3.org/2000/svg"><defs
     id="defs2" /><g
     id="layer1"
     transform="translate(-48.198085,-72.981586)"><path
       style="fill:#000000;stroke-width:0.139449"
       d="m 48.657303,96.587371 c -0.223696,-0.147 -0.462555,-0.80382 -0.459183,-1.26267 0.0015,-0.20593 0.195521,-0.907802 0.431127,-1.559732 0.625244,-1.73005 1.077279,-3.38571 1.313511,-4.81099 0.486425,-2.93476 0.377683,-7.62493 -0.216847,-9.35297 -0.554807,-1.61257 -0.650247,-4.02512 -0.188436,-4.76335 0.335168,-0.53579 0.974781,-0.77386 1.80155,-0.67056 0.497267,0.0621 0.766457,0.0394 0.834335,-0.0704 0.05511,-0.0892 0.421967,-0.31196 0.815229,-0.49507 1.044675,-0.48642 2.300415,-0.46572 3.332627,0.0549 0.683194,0.34462 0.80452,0.36744 1.030658,0.19393 0.14097,-0.10817 0.57007,-0.34607 0.953555,-0.52868 1.92344,-0.91589 3.626609,0.0815 3.798636,2.22463 0.08742,1.08908 -0.123721,2.05421 -0.748895,3.42325 -0.259238,0.5677 -0.540905,1.44623 -0.625924,1.95229 -0.205431,1.22278 -0.199712,3.49139 0.01163,4.61552 0.193657,1.03003 0.10867,2.67629 -0.226767,4.39264 -0.427783,2.18888 -1.179258,3.65561 -2.588158,5.051612 -1.43092,1.4178 -2.191503,1.29667 -2.311928,-0.368212 -0.05114,-0.70703 0.0069,-0.9602 0.44042,-1.9203 0.845355,-1.87227 0.987356,-3.37942 0.441495,-4.68585 -0.411066,-0.98382 -0.606006,-0.77936 -2.255895,2.366 -1.549487,2.95395 -2.659024,4.641362 -3.376278,5.134722 -0.223007,0.15339 -0.616554,0.44658 -0.874552,0.65152 -0.521395,0.41419 -1.07971,0.59349 -1.331917,0.42776 z m 1.165911,-0.81742 c 1.596538,-1.198142 2.274846,-2.151542 4.182557,-5.878802 1.234146,-2.41126 1.532896,-2.81973 2.062309,-2.81973 0.449295,0 0.730794,0.38164 0.976061,1.32328 0.391904,1.50462 0.220474,2.77778 -0.610445,4.53358 -0.446004,0.94244 -0.557134,1.870982 -0.284822,2.379802 0.220691,0.41236 0.462657,0.33166 1.299959,-0.43359 2.290307,-2.093212 3.342148,-5.787082 2.808658,-9.863492 -0.187049,-1.42925 -0.197189,-1.94263 -0.06143,-3.11038 0.08943,-0.76922 0.135728,-1.42545 0.10289,-1.45829 -0.03284,-0.0328 -0.274766,0.002 -0.537619,0.0774 -0.627329,0.17992 -2.088178,0.17489 -2.823503,-0.01 -0.505447,-0.12689 -0.709675,-0.0997 -1.506957,0.20082 -0.780156,0.29405 -1.202139,0.35353 -2.7385,0.38601 -1.432446,0.0303 -1.868617,-0.005 -2.064152,-0.16596 -0.228358,-0.18822 -0.240953,-0.17634 -0.159582,0.15057 0.04859,0.1952 0.128755,1.29337 0.178148,2.44036 0.147246,3.41927 -0.306993,6.71831 -1.295167,9.40651 -0.649684,1.76739 -0.797206,2.480942 -0.61264,2.963302 0.0807,0.21091 0.206234,0.38348 0.278954,0.38348 0.07272,0 0.435099,-0.2273 0.805283,-0.50511 z m 5.527647,-15.485242 c 0.951032,-0.30895 1.167065,-0.33437 1.700278,-0.20011 0.778687,0.19608 2.070461,0.18018 2.788231,-0.0343 0.499018,-0.14912 0.609794,-0.27037 1.051255,-1.15067 0.869899,-1.73461 1.057649,-3.26521 0.533373,-4.34822 -0.674271,-1.39286 -2.202283,-1.50788 -3.906888,-0.2941 l -0.419438,0.29867 -0.845063,-0.43583 c -1.341197,-0.69171 -2.630227,-0.57363 -3.843946,0.35212 -0.403698,0.30791 -0.523625,0.33802 -0.8159,0.20485 -0.552396,-0.25168 -0.993045,-0.1823 -1.453157,0.22881 -0.428351,0.38273 -0.43075,0.39282 -0.422331,1.77797 0.0127,2.09027 0.447032,3.47459 1.216664,3.87784 0.571012,0.29919 3.138938,0.13813 4.416922,-0.27702 z"
       id="tooth30" /></g></svg>
