<?xml version="1.0" encoding="UTF-8" standalone="no"?>
<!-- Created with Inkscape (http://www.inkscape.org/) -->

<svg
   width="5.419178mm"
   height="25.208231mm"
   viewBox="0 0 5.419178 25.208231"
   version="1.1"
   id="svg5"
   xml:space="preserve"
   xmlns="http://www.w3.org/2000/svg"
   xmlns:svg="http://www.w3.org/2000/svg"><defs
     id="defs2" /><g
     id="layer1"
     transform="translate(-95.339381,-72.302713)"><path
       style="fill:#000000;stroke-width:0.139449"
       d="m 97.508884,97.319261 c -0.272619,-0.27262 -0.337256,-0.85687 -0.431793,-3.902912 -0.11434,-3.68413 -0.642636,-9.07458 -1.530681,-15.6183 -0.247782,-1.82582 -0.279217,-4.2435 -0.06139,-4.72158 0.309418,-0.6791 0.837774,-0.81553 2.95843,-0.7639 1.73429,0.0422 1.95033,0.0751 2.14067,0.32587 0.3156,0.41576 0.1766,4.46493 -0.20584,5.99631 -0.24025,0.962 -0.28954,1.75874 -0.35801,5.78713 -0.105446,6.20333 -0.491936,9.99763 -1.212535,11.903692 -0.418608,1.10726 -0.852971,1.43957 -1.298851,0.99369 z m 1.085677,-1.66491 c 0.598379,-2.256102 0.89989,-5.546692 1.003663,-10.953572 0.0784,-4.08642 0.0772,-4.11118 -0.188819,-3.72808 -0.395701,0.56993 -0.747495,0.79025 -1.269729,0.79522 -0.453181,0.004 -1.164819,-0.38393 -1.51617,-0.82714 -0.143395,-0.18089 -0.170567,-0.14818 -0.174311,0.20984 -0.0024,0.23328 0.08926,1.14318 0.203781,2.02201 0.369317,2.83419 0.77335,7.80097 0.861655,10.59234 0.04731,1.495602 0.143841,2.875412 0.214509,3.066262 l 0.128487,0.34701 0.256605,-0.34019 c 0.141134,-0.18711 0.357282,-0.71977 0.480329,-1.1837 z m 0.170782,-14.614112 c 1.053431,-1.19124 1.583987,-3.37599 1.583987,-6.52256 0,-0.96117 -0.0583,-1.53313 -0.16734,-1.64218 -0.11328,-0.11329 -0.763165,-0.16734 -2.011884,-0.16734 -1.826605,0 -1.847365,0.004 -2.133572,0.36743 -0.24964,0.31737 -0.288648,0.55961 -0.286297,1.77797 0.0037,1.89939 0.335562,4.29471 0.69914,5.04577 0.611942,1.2641 1.723009,1.81144 2.315966,1.14091 z"
       id="tooth26" /></g></svg>
