<?xml version="1.0" encoding="UTF-8" standalone="no"?>
<!-- Created with Inkscape (http://www.inkscape.org/) -->

<svg
   width="10.530807mm"
   height="22.393467mm"
   viewBox="0 0 10.530807 22.393467"
   version="1.1"
   id="svg5"
   xml:space="preserve"
   xmlns="http://www.w3.org/2000/svg"
   xmlns:svg="http://www.w3.org/2000/svg"><defs
     id="defs2" /><g
     id="layer1"
     transform="translate(-37.15101,-46.910079)"><path
       style="fill:#000000;stroke-width:0.139449"
       d="m 43.733008,69.150009 c -0.345137,-0.11351 -0.874554,-0.43041 -1.176482,-0.70421 -0.317059,-0.28752 -0.641056,-0.46825 -0.76697,-0.42781 -0.119906,0.0385 -0.469018,0.16552 -0.775806,0.28224 -1.037988,0.39491 -1.818174,0.22144 -2.772477,-0.61645 -0.744304,-0.65351 -1.090263,-1.408 -1.090263,-2.37771 0,-0.84074 0.430476,-2.23341 0.825812,-2.67167 0.186298,-0.20652 0.206702,-0.54864 0.137226,-2.30091 -0.04489,-1.13207 -0.185703,-2.90547 -0.312927,-3.94087 -0.253098,-2.05984 -0.202699,-3.72898 0.154313,-5.11059 0.231812,-0.8971 0.781466,-2.05162 1.188026,-2.49539 0.143556,-0.15669 0.335413,-0.50183 0.42635,-0.76697 0.255855,-0.74598 0.541332,-1.10959 0.871153,-1.10959 0.409043,0 0.878808,0.34981 1.134961,0.84516 0.150138,0.29033 0.315268,0.40988 0.566167,0.40988 0.194816,0 0.467191,0.0605 0.605279,0.13437 0.343537,0.18385 1.694206,1.9743 2.295853,3.04339 1.05194,1.86922 1.304097,2.99498 1.552757,6.9323 0.105366,1.66838 0.538922,4.66836 0.856498,5.9265 0.326361,1.29295 0.302121,2.7174 -0.05814,3.41659 -0.702286,1.36298 -2.230498,2.00232 -3.66133,1.53174 z m 1.633764,-0.36855 c 1.439616,-0.3625 2.145079,-1.70212 1.854441,-3.52145 -0.230934,-1.44558 -0.704902,-2.22821 -1.734983,-2.86484 -0.554889,-0.34294 -2.645776,-0.63036 -4.542205,-0.62438 -1.677002,0.005 -2.558543,0.60352 -3.085363,2.09382 -0.575148,1.62702 -0.266222,2.84844 0.939024,3.7127 0.783494,0.56182 1.514844,0.64344 2.277827,0.25419 0.718177,-0.36638 1.09227,-0.30259 1.822945,0.31084 0.490629,0.41191 1.227169,0.76581 1.644356,0.79008 0.100257,0.006 0.471038,-0.0621 0.823958,-0.15096 z m 1.096717,-7.61092 c -0.117255,-0.84069 -0.281171,-2.55771 -0.364257,-3.81561 -0.16592,-2.51199 -0.274609,-3.16447 -0.717799,-4.30909 -0.737887,-1.90574 -2.715952,-4.61768 -3.22548,-4.42216 -0.331491,0.12721 -0.299801,0.71874 0.107651,2.00946 0.188891,0.59836 0.4399,1.54699 0.557797,2.10805 0.253426,1.20603 0.283419,3.95829 0.0555,5.09317 l -0.158859,0.79101 -0.340021,-0.45399 c -1.153638,-1.54033 -1.852346,-4.44305 -1.852346,-7.69542 0,-1.48272 -0.147876,-1.76204 -0.810164,-1.53031 -0.62207,0.21766 -1.278753,1.732 -1.541691,3.55522 -0.207765,1.44064 -0.203413,1.64546 0.0937,4.40953 0.171374,1.5943 0.310301,3.38632 0.308727,3.98228 l -0.0029,1.08357 0.592659,-0.3142 c 0.490166,-0.25987 0.809701,-0.31361 1.8477,-0.31079 2.862962,0.008 4.958318,0.46803 5.407816,1.18778 0.08778,0.14055 0.181084,0.23406 0.207354,0.20779 0.02627,-0.0263 -0.04817,-0.7356 -0.16543,-1.57629 z m -3.848209,-5.65536 c 0.0023,-1.76612 -0.215725,-3.10711 -0.771265,-4.74391 -0.187884,-0.55357 -0.340684,-1.32816 -0.341221,-1.72974 -8.37e-4,-0.61386 -0.06846,-0.80412 -0.433765,-1.22018 -0.513305,-0.58462 -0.780078,-0.622 -0.96515,-0.13523 -0.182261,0.47939 -0.171483,0.7579 0.02933,0.7579 0.09093,0 0.31056,0.13644 0.488071,0.3032 0.286596,0.26925 0.322748,0.4316 0.322748,1.44944 0,1.5114 0.240419,3.82776 0.505589,4.87119 0.30458,1.19851 0.904743,2.49973 1.048452,2.27316 0.06329,-0.0998 0.11604,-0.92141 0.117214,-1.82583 z"
       id="tooth02" /></g></svg>
