<?xml version="1.0" encoding="UTF-8" standalone="no"?>
<!-- Created with Inkscape (http://www.inkscape.org/) -->

<svg
   width="7.7061901mm"
   height="28.000387mm"
   viewBox="0 0 7.7061901 28.000387"
   version="1.1"
   id="svg5"
   xml:space="preserve"
   xmlns="http://www.w3.org/2000/svg"
   xmlns:svg="http://www.w3.org/2000/svg"><defs
     id="defs2" /><g
     id="layer1"
     transform="translate(-125.66677,-72.737042)"><path
       style="fill:#000000;stroke-width:0.139449"
       d="m 130.80004,100.33984 c -2.38335,-1.726489 -3.47408,-6.145241 -4.10094,-16.613661 -0.13865,-2.31543 -0.19948,-2.70637 -0.59674,-3.83485 -0.37497,-1.06518 -0.44126,-1.44775 -0.43523,-2.51163 0.006,-1.0442 0.0675,-1.38662 0.36693,-2.03829 0.58083,-1.2643 2.6525,-2.79619 3.49538,-2.58464 1.07857,0.2707 3.40741,2.71093 3.74649,3.92569 0.20792,0.74487 0.0695,2.41419 -0.2989,3.60528 -0.30773,0.99487 -0.35356,1.34225 -0.85826,6.50478 -0.39652,4.05598 -0.42848,9.576362 -0.0693,11.976062 0.25605,1.710839 0.20496,1.968849 -0.38991,1.968849 -0.17084,0 -0.55761,-0.17892 -0.85948,-0.39759 z m 1.00808,-0.404239 c -0.66262,-3.2212 -0.53043,-11.041392 0.28698,-16.977252 l 0.0959,-0.69655 -0.72758,0.65415 c -0.77332,0.69528 -1.51672,0.93024 -2.35835,0.74538 -0.57812,-0.12697 -1.43553,-0.7095 -1.79939,-1.22252 l -0.30595,-0.43135 0.0616,0.754 c 0.0339,0.4147 0.16005,2.22868 0.28042,4.03106 0.24336,3.64423 0.4561,5.29864 0.98623,7.6697 0.67066,2.999572 1.43681,4.608332 2.59379,5.446442 0.73012,0.528889 0.99123,0.536829 0.88634,0.0269 z m -0.88038,-17.084522 c 1.0686,-0.81506 1.87097,-2.65786 2.00903,-4.61412 0.0681,-0.96481 0.0362,-1.2522 -0.19731,-1.78016 -0.48431,-1.09486 -2.8214,-3.33029 -3.48175,-3.33029 -0.3481,0 -1.98319,1.13055 -2.38451,1.64873 -0.60145,0.77659 -0.77456,1.34753 -0.78489,2.58876 -0.007,0.89418 0.0744,1.37973 0.39046,2.31661 0.6847,2.02963 1.39099,3.02745 2.46182,3.47799 0.54238,0.2282 1.47376,0.0841 1.98715,-0.30752 z"
       id="tooth22" /></g></svg>
