<?xml version="1.0" encoding="UTF-8" standalone="no"?>
<!-- Created with Inkscape (http://www.inkscape.org/) -->

<svg
   width="7.5057373mm"
   height="24.484461mm"
   viewBox="0 0 7.5057373 24.484461"
   version="1.1"
   id="svg5"
   xml:space="preserve"
   xmlns="http://www.w3.org/2000/svg"
   xmlns:svg="http://www.w3.org/2000/svg"><defs
     id="defs2" /><g
     id="layer1"
     transform="translate(-145.55133,-44.714751)"><path
       style="fill:#000000;stroke-width:0.139449"
       d="m 147.77005,68.934769 c -0.88922,-0.40339 -1.82092,-1.21289 -2.06309,-1.79249 -0.30786,-0.73681 -0.15931,-1.94276 0.44865,-3.64203 0.43875,-1.22633 0.56517,-1.85045 0.79004,-3.90031 0.7682,-7.00268 1.93827,-12.50863 3.04412,-14.32465 0.36325,-0.59653 0.90477,-0.73363 1.30604,-0.33066 0.29693,0.29818 0.30047,0.35893 0.25716,4.41111 -0.0567,5.30659 0.35989,11.91159 0.80363,12.74074 0.29676,0.55448 0.70249,2.62207 0.70046,3.5695 -0.004,1.80607 -0.62147,2.57212 -2.57724,3.19663 -1.34111,0.42825 -1.89247,0.44293 -2.70977,0.0722 z m 2.45252,-0.42134 c 2.02812,-0.61557 2.52478,-1.32479 2.37858,-3.39656 -0.0951,-1.34699 -0.62931,-3.087 -1.16243,-3.78596 -1.17519,-1.54075 -2.9601,-1.33665 -4.10549,0.46945 -0.55437,0.87415 -1.38403,3.47008 -1.38403,4.33049 0,0.90592 0.39029,1.45225 1.52436,2.13377 1.03938,0.62463 1.40251,0.6575 2.74901,0.24881 z m -1.53774,-8.50136 c 0.19272,-0.0733 0.65528,-0.13323 1.02789,-0.13323 0.56327,0 0.78852,0.0847 1.33605,0.50269 l 0.65855,0.50269 -0.0898,-0.44888 c -0.27766,-1.38833 -0.52552,-6.93648 -0.48394,-10.83257 0.0337,-3.15382 0.003,-4.25261 -0.12346,-4.37976 -0.97864,-0.98637 -2.92802,6.70372 -3.59143,14.16776 -0.0477,0.53688 -0.12371,1.16344 -0.16888,1.39236 l -0.0821,0.41622 0.58336,-0.52703 c 0.32085,-0.28986 0.74104,-0.58698 0.93377,-0.66025 z"
       id="tooth13" /></g></svg>
