<?xml version="1.0" encoding="UTF-8" standalone="no"?>
<!-- Created with Inkscape (http://www.inkscape.org/) -->

<svg
   width="7.7274718mm"
   height="24.447021mm"
   viewBox="0 0 7.7274718 24.447021"
   version="1.1"
   id="svg5"
   xml:space="preserve"
   xmlns="http://www.w3.org/2000/svg"
   xmlns:svg="http://www.w3.org/2000/svg"><defs
     id="defs2" /><g
     id="layer1"
     transform="translate(-145.88835,-73.35275)"><path
       style="fill:#000000;stroke-width:0.139449"
       d="m 149.93221,97.456581 c -0.44979,-0.48533 -1.21506,-2.00281 -1.65971,-3.291102 -0.79021,-2.28947 -1.09033,-4.31315 -1.3499,-9.10226 -0.15289,-2.82091 -0.38593,-4.56024 -0.79593,-5.9404 -0.13752,-0.46295 -0.23167,-1.3013 -0.23751,-2.11494 -0.0111,-1.55333 0.0739,-1.70572 1.45454,-2.60719 2.03467,-1.32849 2.37368,-1.35382 4.05037,-0.30261 0.64844,0.40654 1.34767,0.91567 1.55385,1.1314 0.67243,0.70358 0.85398,2.09892 0.46765,3.59431 -0.11184,0.43291 -0.30094,1.72838 -0.42023,2.87884 -0.11928,1.15045 -0.43413,3.40953 -0.69966,5.02016 -0.68388,4.14826 -0.76848,4.99191 -0.76872,7.66605 -1.4e-4,1.981062 -0.0406,2.455122 -0.24404,2.862362 -0.32331,0.6472 -0.86493,0.72955 -1.35071,0.20538 z m 1.02353,-0.50509 c 0.0875,-0.25089 0.15309,-1.43536 0.15309,-2.762982 0,-2.32331 0.15969,-3.96569 0.67854,-6.97849 0.33662,-1.95463 0.66938,-4.22619 0.79408,-5.42066 l 0.0928,-0.8894 -0.53869,0.59744 c -0.65999,0.73195 -1.4401,1.10454 -2.32116,1.10858 -0.84724,0.004 -1.44848,-0.24889 -2.19931,-0.92467 l -0.59607,-0.53648 0.0896,0.5578 c 0.0493,0.30678 0.15494,1.78146 0.23485,3.27705 0.25443,4.76233 0.51429,6.56998 1.27193,8.84814 0.64991,1.954212 1.55237,3.562832 1.99879,3.562832 0.10364,0 0.25733,-0.19762 0.34153,-0.43916 z m 0.0203,-15.043092 c 1.58881,-0.81055 2.75939,-4.39779 1.9517,-5.98099 -0.34032,-0.66707 -2.60467,-2.14283 -3.30353,-2.15303 -0.47713,-0.007 -2.47088,1.11319 -3.01669,1.69487 -0.27301,0.29095 -0.30836,0.47321 -0.29841,1.5386 0.0342,3.66026 2.34394,6.08565 4.66693,4.90055 z"
       id="tooth20" /></g></svg>
