<?xml version="1.0" encoding="UTF-8" standalone="no"?>
<!-- Created with Inkscape (http://www.inkscape.org/) -->

<svg
   width="12.302795mm"
   height="21.703457mm"
   viewBox="0 0 12.302795 21.703457"
   version="1.1"
   id="svg5"
   xml:space="preserve"
   xmlns="http://www.w3.org/2000/svg"
   xmlns:svg="http://www.w3.org/2000/svg"><defs
     id="defs2" /><g
     id="layer1"
     transform="translate(-35.742319,-73.023921)"><path
       style="fill:#000000;stroke-width:0.139449"
       d="m 40.948555,94.537409 c -0.375614,-0.45258 -0.320466,-1.22243 0.190189,-2.655 0.51305,-1.43929 1.199763,-4.23478 1.199763,-4.88404 0,-0.65634 -0.305867,-0.30363 -1.340689,1.546 -1.755833,3.13837 -2.31489,3.99368 -3.201212,4.89763 -0.93912,0.95779 -1.356232,1.09558 -1.807387,0.59706 -0.194521,-0.21494 -0.254197,-0.49379 -0.246205,-1.15045 0.01042,-0.85648 0.08483,-1.1012 0.984364,-3.23738 1.031844,-2.4504 1.135027,-4.61771 0.441498,-9.27337 -0.648448,-4.35303 -0.552732,-5.3509 0.611294,-6.37292 0.879417,-0.77213 2.147602,-0.78646 3.669029,-0.0415 0.469595,0.22994 0.960305,0.41808 1.090468,0.41808 0.130164,0 0.511639,-0.18919 0.847723,-0.42042 2.104864,-1.44819 3.765211,-1.20741 4.47411,0.64882 0.29273,0.7665 0.221933,3.08697 -0.116415,3.81562 -0.124649,0.26844 -0.267081,0.77046 -0.316516,1.1156 -0.775571,5.41471 -2.265108,11.19212 -3.339637,12.95332 -0.996466,1.63326 -2.609498,2.682592 -3.140377,2.04292 z m 1.081747,-0.48172 c 0.588819,-0.30396 1.383594,-1.10589 1.808372,-1.82466 0.339526,-0.57451 1.15223,-2.94871 1.551365,-4.53209 0.54895,-2.17771 1.550288,-7.27478 1.550288,-7.89137 0,-0.25021 -0.02602,-0.25597 -0.31376,-0.0695 -0.666612,0.43193 -1.59377,0.55228 -2.804149,0.36399 -1.018036,-0.15837 -1.209226,-0.151 -1.833177,0.0707 -0.40281,0.1431 -1.108293,0.25012 -1.672747,0.25376 -1.078214,0.007 -1.744897,-0.23563 -2.444957,-0.88958 -0.227561,-0.21257 -0.413749,-0.33498 -0.413749,-0.272 0,0.063 0.132435,1.01374 0.294299,2.11282 0.236776,1.60774 0.280344,2.40717 0.222906,4.09006 -0.07899,2.31443 -0.184563,2.77526 -1.159136,5.0597 -0.747791,1.75286 -0.90466,2.73989 -0.51243,3.22428 l 0.270489,0.33404 0.579524,-0.52357 c 0.891044,-0.805 1.81208,-2.17684 3.374787,-5.02657 0.622962,-1.13602 1.430002,-2.34011 1.606745,-2.39723 0.0798,-0.0258 0.263697,0.0398 0.408664,0.14585 0.249049,0.1821 0.253477,0.26099 0.08033,1.43123 -0.160813,1.08689 -0.949034,3.9944 -1.387287,5.11729 -0.169692,0.43478 -0.20495,1.25233 -0.06025,1.39703 0.144616,0.14462 0.296388,0.11367 0.853871,-0.17411 z m -0.152549,-14.30778 c 0.593668,-0.24805 1.055211,-0.2583 2.192735,-0.0487 1.652407,0.30447 2.98443,-0.40714 3.407913,-1.8206 0.206636,-0.68968 0.204223,-2.40791 -0.0044,-3.10409 -0.08994,-0.3002 -0.374508,-0.73106 -0.632373,-0.95746 -0.786742,-0.69077 -1.720405,-0.52778 -3.342973,0.58357 -0.746827,0.51153 -1.125493,0.50248 -2.25574,-0.0539 -1.244918,-0.61288 -2.37791,-0.63906 -3.121192,-0.0721 -0.712989,0.54383 -0.985718,1.34815 -0.923224,2.72274 0.04302,0.94629 0.10464,1.17291 0.437583,1.60942 0.505281,0.66245 1.246118,1.22055 1.810713,1.36407 0.588995,0.14973 1.806238,0.0381 2.430914,-0.22288 z"
       id="tooth31" /></g></svg>
