<?xml version="1.0" encoding="UTF-8" standalone="no"?>
<!-- Created with Inkscape (http://www.inkscape.org/) -->

<svg
   width="7.4335876mm"
   height="24.261713mm"
   viewBox="0 0 7.4335876 24.261713"
   version="1.1"
   id="svg5"
   xml:space="preserve"
   xmlns="http://www.w3.org/2000/svg"
   xmlns:svg="http://www.w3.org/2000/svg"><defs
     id="defs2" /><g
     id="layer1"
     transform="translate(-136.27304,-73.267878)"><path
       style="fill:#000000;stroke-width:0.139449"
       d="m 141.24891,97.256451 c -0.2459,-0.14994 -0.63788,-0.60465 -0.87106,-1.01049 -1.24412,-2.165302 -2.74726,-8.868912 -3.35484,-14.961682 -0.0918,-0.92036 -0.25365,-1.9244 -0.3597,-2.23119 -0.10606,-0.30678 -0.25238,-0.9464 -0.32515,-1.42136 -0.23383,-1.52598 0.10312,-2.13288 1.98407,-3.57356 1.5097,-1.15635 1.77265,-1.11567 3.89324,0.60228 1.48711,1.20474 1.75151,1.99958 1.27568,3.83485 -0.99507,3.8379 -1.38783,11.00104 -0.82909,15.12092 0.13169,0.97108 0.19404,1.977052 0.14173,2.286712 -0.17798,1.05344 -0.53718,1.62932 -1.01461,1.62665 -0.0512,-2.8e-4 -0.29437,-0.1232 -0.54027,-0.27313 z m 0.84657,-0.45846 c 0.34678,-0.55305 0.37974,-1.2869 0.14025,-3.122082 -0.41599,-3.18755 -0.25766,-9.5886 0.31339,-12.67053 0.0773,-0.41728 0.0769,-0.41755 -0.15019,-0.1067 -0.33953,0.46469 -1.34089,1.00128 -2.03899,1.09263 -0.8161,0.10678 -1.72495,-0.22756 -2.3942,-0.88076 -0.50907,-0.49686 -0.52291,-0.50132 -0.52179,-0.16833 0.002,0.57082 0.26273,2.74413 0.56821,4.73471 0.61924,4.03506 1.96091,9.147192 2.70492,10.306502 0.39159,0.61018 0.87416,1.12832 1.05086,1.12832 0.0719,0 0.21934,-0.14119 0.32754,-0.31376 z m -1.09553,-15.425162 c 1.0919,-0.49604 1.86116,-1.69293 2.17069,-3.37738 0.25869,-1.40778 0.12985,-1.7961 -0.8869,-2.67301 -1.09741,-0.94649 -1.91866,-1.56885 -2.20806,-1.67333 -0.26778,-0.0967 -0.78466,0.20186 -1.99119,1.15003 -1.38929,1.0918 -1.59007,1.58111 -1.27219,3.10038 0.34443,1.64621 1.16341,2.92704 2.19954,3.43991 0.72304,0.3579 1.25417,0.36683 1.98811,0.0334 z"
       id="tooth21" /></g></svg>
