<?xml version="1.0" encoding="UTF-8" standalone="no"?>
<!-- Created with Inkscape (http://www.inkscape.org/) -->

<svg
   width="6.9955645mm"
   height="24.613642mm"
   viewBox="0 0 6.9955645 24.613642"
   version="1.1"
   id="svg5"
   xml:space="preserve"
   xmlns="http://www.w3.org/2000/svg"
   xmlns:svg="http://www.w3.org/2000/svg"><defs
     id="defs2" /><g
     id="layer1"
     transform="translate(-118.86124,-44.443974)"><path
       style="fill:#000000;stroke-width:0.139449"
       d="m 119.71503,68.856129 c -0.67938,-0.43728 -0.87993,-0.97393 -0.85114,-2.27754 0.0291,-1.31897 0.31703,-3.03323 0.71753,-4.2725 0.28445,-0.88018 0.33862,-1.22401 0.56918,-3.61256 0.521,-5.3975 1.40624,-9.71436 2.39733,-11.69057 0.46079,-0.9188 1.3077,-1.89878 2.023,-2.34086 0.39542,-0.24438 0.54185,-0.26999 0.81978,-0.14336 0.30643,0.13962 0.33806,0.23672 0.33509,1.02872 -0.002,0.481 -0.12759,1.34202 -0.27953,1.91337 -0.44202,1.66223 -0.59571,3.9313 -0.49165,7.2584 0.0989,3.1613 0.38532,6.75617 0.62222,7.80915 0.1825,0.81113 0.36064,4.44755 0.24119,4.92346 -0.0505,0.20117 -0.25149,0.52546 -0.44667,0.72064 -0.66112,0.66112 -1.23396,0.80987 -3.33768,0.86671 -1.65649,0.0447 -2.0078,0.017 -2.31865,-0.18306 z m 4.30092,-0.41484 c 0.36699,-0.12256 0.8472,-0.38926 1.06712,-0.59266 l 0.39986,-0.36981 -0.0792,-2.02201 c -0.12584,-3.21121 -0.41676,-4.26206 -1.425,-5.1473 -0.98319,-0.86325 -1.60209,-0.88036 -2.54831,-0.0704 -1.13756,0.97371 -1.81181,2.76713 -2.10472,5.59824 -0.15423,1.49078 -0.0294,2.12481 0.50044,2.54157 0.31685,0.24924 0.56207,0.28525 1.94261,0.28525 1.07617,0 1.79276,-0.0711 2.24724,-0.22285 z m -2.63333,-8.71613 c 1.03973,-0.73741 1.79488,-0.66505 2.83694,0.27185 0.489,0.43965 0.68559,0.55346 0.6304,0.36495 -0.0441,-0.15067 -0.15536,-1.68587 -0.24722,-3.41155 -0.20854,-3.91753 -0.0955,-7.28564 0.29946,-8.92474 0.34297,-1.42325 0.49206,-2.90068 0.31099,-3.08175 -0.16928,-0.16928 -1.10398,0.50068 -1.59059,1.14008 -1.01976,1.33994 -1.63663,3.19151 -2.27297,6.82239 -0.35181,2.00733 -0.92277,6.65857 -0.91582,7.46052 l 0.004,0.41835 0.21679,-0.34862 c 0.11924,-0.19174 0.44702,-0.51191 0.7284,-0.71148 z"
       id="tooth10" /></g></svg>
