<?xml version="1.0" encoding="UTF-8" standalone="no"?>
<!-- Created with Inkscape (http://www.inkscape.org/) -->

<svg
   width="12.332982mm"
   height="21.734119mm"
   viewBox="0 0 12.332982 21.734119"
   version="1.1"
   id="svg5"
   xml:space="preserve"
   xmlns="http://www.w3.org/2000/svg"
   xmlns:svg="http://www.w3.org/2000/svg"><defs
     id="defs2" /><g
     id="layer1"
     transform="translate(-169.92854,-72.987838)"><path
       style="fill:#000000;stroke-width:0.139449"
       d="m 175.86103,94.476169 c -1.0696,-0.49629 -2.01501,-1.69413 -2.64105,-3.34619 -0.85848,-2.26546 -1.84176,-6.45885 -2.5212,-10.75212 -0.12744,-0.80532 -0.35156,-1.79602 -0.49803,-2.20155 -0.36031,-0.99763 -0.36356,-2.93967 -0.006,-3.72623 0.3744,-0.82416 1.16179,-1.4632 1.80165,-1.46224 0.79633,0.001 1.44369,0.22833 2.38531,0.83693 0.47379,0.30623 0.96144,0.55678 1.08366,0.55678 0.12222,0 0.61874,-0.19521 1.1034,-0.4338 1.21382,-0.59757 2.41683,-0.6859 3.19127,-0.23433 0.30359,0.17703 0.73742,0.58569 0.96403,0.90814 0.61838,0.87984 0.63872,2.03136 0.10083,5.70694 -0.73978,5.05507 -0.58241,7.12659 0.76826,10.11267 0.53179,1.17568 0.65474,1.59767 0.66734,2.2902 0.0314,1.7305 -0.66395,2.075842 -1.88329,0.93528 -0.82816,-0.77465 -1.80329,-2.21939 -3.18081,-4.71267 -0.55086,-0.99706 -1.1223,-1.96972 -1.26985,-2.16146 l -0.26826,-0.34862 -0.003,0.39153 c -0.006,0.71203 0.57743,3.20909 1.12811,4.83127 0.59146,1.7423 0.65609,2.29192 0.3251,2.76449 -0.26274,0.375112 -0.51598,0.384242 -1.24714,0.045 z m 0.96123,-0.37398 c 0.15266,-0.39784 0.0907,-0.73318 -0.39736,-2.15189 -0.55105,-1.60164 -1.19139,-4.32399 -1.19139,-5.06508 0,-0.36835 0.0786,-0.54328 0.29635,-0.65984 0.44088,-0.23595 0.74543,0.14841 2.2174,2.79832 1.79595,3.23317 3.13536,4.96804 3.74497,4.85064 0.13889,-0.0267 0.27298,-0.26987 0.34987,-0.63433 0.13602,-0.64482 0.0246,-1.04195 -0.95835,-3.41392 -0.80654,-1.94636 -0.9482,-2.86981 -0.8611,-5.61338 0.0414,-1.30385 0.13495,-2.62164 0.2079,-2.92843 0.0729,-0.30679 0.17392,-0.89492 0.22438,-1.30697 l 0.0918,-0.74917 -0.6856,0.50327 c -0.99674,0.73167 -1.80203,0.88193 -3.10103,0.5786 -1.0666,-0.24906 -1.48354,-0.27222 -3.40914,-0.18934 -0.92219,0.0397 -1.21834,-0.003 -1.70825,-0.24825 -0.71072,-0.35528 -0.69191,-0.46067 -0.3141,1.76048 0.77738,4.5701 1.83711,8.57772 2.73863,10.35679 0.46114,0.91004 1.51145,2.02372 2.0581,2.18232 0.60514,0.17556 0.60267,0.17581 0.69693,-0.0698 z m 1.83973,-14.20817 c 0.6737,-0.20007 1.37248,-0.78402 1.91949,-1.60406 0.33295,-0.49914 0.31155,-2.39059 -0.0357,-3.15524 -0.60526,-1.33273 -2.07327,-1.63729 -3.79836,-0.78803 -1.14137,0.56189 -1.50838,0.56635 -2.2911,0.0278 -1.91913,-1.32039 -3.10053,-1.27284 -3.82851,0.15411 -0.20921,0.41009 -0.27501,0.81979 -0.27501,1.7124 0,2.81545 1.17301,3.84082 3.91384,3.42125 0.97362,-0.14904 1.20521,-0.14172 1.77538,0.0561 1.18494,0.41114 1.70874,0.44625 2.61998,0.17564 z"
       id="tooth18" /></g></svg>
