<?xml version="1.0" encoding="UTF-8" standalone="no"?>
<!-- Created with Inkscape (http://www.inkscape.org/) -->

<svg
   width="8.6590424mm"
   height="25.157545mm"
   viewBox="0 0 8.6590424 25.157545"
   version="1.1"
   id="svg5"
   xml:space="preserve"
   xmlns="http://www.w3.org/2000/svg"
   xmlns:svg="http://www.w3.org/2000/svg"><defs
     id="defs2" /><g
     id="layer1"
     transform="translate(-109.74392,-43.499424)"><path
       style="fill:#000000;stroke-width:0.139449"
       d="m 110.21612,68.388339 c -0.20812,-0.16371 -0.41154,-0.49486 -0.45883,-0.74696 -0.12069,-0.64333 0.60363,-5.2937 1.04615,-6.71667 0.0716,-0.23009 0.19674,-1.17137 0.27819,-2.09174 0.58867,-6.65197 1.48185,-11.03932 2.68278,-13.17794 1.22147,-2.17521 2.25481,-2.71508 3.00506,-1.57001 0.22058,0.33665 0.24487,0.85565 0.25272,5.39874 0.01,5.65097 0.36807,10.22745 0.87672,11.19741 0.2748,0.52404 0.49813,2.42584 0.50348,4.28756 0.005,1.83022 -0.0161,1.9902 -0.34151,2.55862 -0.58227,1.01708 -0.75337,1.06099 -4.32886,1.11107 -3.0197,0.0423 -3.15659,0.0325 -3.5159,-0.25008 z m 6.72767,-0.3868 c 0.31358,-0.15666 0.60459,-0.46816 0.81402,-0.87134 0.3101,-0.59702 0.32199,-0.72241 0.2445,-2.57981 -0.15143,-3.62991 -0.73843,-5.12396 -2.44546,-6.22423 -0.68957,-0.44447 -1.30505,-0.50703 -1.99918,-0.20318 -0.8565,0.37491 -1.76432,1.4328 -2.18782,2.54946 -0.50809,1.33972 -1.35845,6.33333 -1.17854,6.92084 0.19844,0.64803 0.22126,0.65252 3.31818,0.65229 2.52558,-1.4e-4 3.01591,-0.035 3.4343,-0.24403 z m -3.55355,-10.27618 c 1.06579,-0.44531 2.20258,-0.14638 3.17006,0.83358 0.28761,0.29133 0.52219,0.47217 0.52128,0.40186 -9.7e-4,-0.0703 -0.10606,-1.13186 -0.23368,-2.35901 -0.16025,-1.54101 -0.24036,-3.71939 -0.25896,-7.04218 -0.0148,-2.64605 -0.0352,-4.88943 -0.0452,-4.98531 -0.0101,-0.0959 -0.14522,-0.30125 -0.30038,-0.4564 -0.23252,-0.23252 -0.33409,-0.25426 -0.57801,-0.12373 -1.00062,0.53552 -2.20118,2.84501 -2.82063,5.42599 -0.43556,1.81477 -1.00937,5.77951 -1.27809,8.83091 l -0.0961,1.09148 0.70001,-0.70002 c 0.38501,-0.38501 0.93389,-0.79773 1.21974,-0.91717 z"
       id="tooth09" /></g></svg>
