<?xml version="1.0" encoding="UTF-8" standalone="no"?>
<!-- Created with Inkscape (http://www.inkscape.org/) -->

<svg
   width="5.4493833mm"
   height="25.235029mm"
   viewBox="0 0 5.4493833 25.235029"
   version="1.1"
   id="svg5"
   xml:space="preserve"
   xmlns="http://www.w3.org/2000/svg"
   xmlns:svg="http://www.w3.org/2000/svg"><defs
     id="defs2" /><g
     id="layer1"
     transform="translate(-117.22187,-72.288888)"><path
       style="fill:#000000;stroke-width:0.139449"
       d="m 119.61203,97.173591 c -0.94235,-1.19801 -1.45423,-5.206812 -1.69057,-13.239782 -0.10267,-3.4898 -0.19625,-4.94371 -0.35452,-5.50824 -0.13253,-0.47273 -0.24766,-1.68195 -0.30008,-3.15203 -0.11135,-3.12231 -0.22234,-2.98373 2.38962,-2.98373 2.05336,0 2.41661,0.0933 2.78395,0.71517 0.30358,0.51393 0.30824,2.54035 0.0108,4.72335 -0.24398,1.79093 -1.09133,9.09746 -1.30994,11.29537 -0.0877,0.88202 -0.19439,2.92146 -0.23701,4.5321 -0.0426,1.610642 -0.14753,3.116692 -0.23313,3.346782 -0.26939,0.72413 -0.63014,0.81644 -1.05918,0.27101 z m 0.83592,-2.891812 c 0.0491,-1.39635 0.13195,-3.04083 0.184,-3.65441 0.30271,-3.56857 0.53669,-6.06061 0.71347,-7.59912 0.27497,-2.39313 0.28525,-2.31576 -0.24081,-1.81303 -0.84725,0.80968 -1.83593,0.77424 -2.39278,-0.0858 -0.1671,-0.25808 -0.33521,-0.47007 -0.37355,-0.47109 -0.13867,-0.004 0.13687,8.48757 0.34386,10.59653 0.27603,2.81247 0.69921,4.845932 1.15245,5.537652 0.40446,0.61729 0.5199,0.14475 0.61336,-2.510762 z m 0.31636,-13.35225 c 0.2659,-0.23346 0.6154,-0.69706 0.77668,-1.0302 0.36358,-0.75106 0.69547,-3.14638 0.69914,-5.04577 0.002,-1.21836 -0.0367,-1.4606 -0.2863,-1.77797 -0.28636,-0.36405 -0.3061,-0.36743 -2.14439,-0.36743 -1.49832,0 -1.88957,0.0412 -2.03311,0.21417 -0.24908,0.30013 -0.0848,4.43384 0.22123,5.56537 0.25998,0.96138 0.8039,2.1021 1.2171,2.55254 0.40499,0.44148 0.96642,0.40137 1.54965,-0.11071 z"
       id="tooth23" /></g></svg>
