<?xml version="1.0" encoding="UTF-8" standalone="no"?>
<!-- Created with Inkscape (http://www.inkscape.org/) -->

<svg
   width="10.560571mm"
   height="22.43457mm"
   viewBox="0 0 10.560571 22.43457"
   version="1.1"
   id="svg5"
   xml:space="preserve"
   xmlns="http://www.w3.org/2000/svg"
   xmlns:svg="http://www.w3.org/2000/svg"><defs
     id="defs2" /><g
     id="layer1"
     transform="translate(-170.29735,-46.920606)"><path
       style="fill:#000000;stroke-width:0.139449"
       d="m 172.25089,69.082089 c -0.81508,-0.31832 -1.26433,-0.71314 -1.6656,-1.46382 -0.36825,-0.68897 -0.38534,-2.21082 -0.0394,-3.51447 0.37623,-1.41795 0.76301,-4.27886 0.91996,-6.80477 0.17185,-2.76588 0.39122,-3.77207 1.15533,-5.29906 1.11336,-2.22494 2.41562,-3.83102 3.11372,-3.84014 0.31126,-0.004 0.49297,-0.1324 0.78464,-0.55416 0.40146,-0.58052 0.97377,-0.83349 1.35027,-0.59684 0.12234,0.0769 0.32971,0.42739 0.46081,0.77887 0.13111,0.35148 0.45314,0.9204 0.71562,1.26428 0.63479,0.83162 1.04431,2.08587 1.23803,3.79171 0.13877,1.22201 0.12018,1.74891 -0.14511,4.11375 -0.38935,3.47092 -0.40345,5.31588 -0.0445,5.82831 0.40189,0.57375 0.7706,1.83136 0.76315,2.60301 -0.0154,1.59726 -1.5642,3.14729 -3.13034,3.13286 -0.18285,-0.002 -0.60599,-0.12718 -0.94033,-0.27889 -0.33435,-0.15171 -0.66361,-0.27584 -0.73171,-0.27584 -0.0681,0 -0.37308,0.22519 -0.67773,0.50043 -0.5344,0.4828 -1.54923,0.90105 -2.15345,0.88754 -0.16038,-0.004 -0.59837,-0.12633 -0.97332,-0.27277 z m 1.74734,-0.30089 c 0.29708,-0.089 0.78063,-0.36768 1.07455,-0.61926 0.73831,-0.63197 1.11766,-0.70002 1.84209,-0.33044 1.53694,0.78409 3.52494,-0.6677 3.51398,-2.56618 -0.008,-1.4282 -0.70687,-2.63463 -1.87564,-3.23903 -0.5233,-0.2706 -2.08746,-0.3094 -4.05241,-0.10052 -1.23332,0.13111 -1.6086,0.22833 -2.11288,0.54736 -1.08985,0.68948 -1.63522,1.84699 -1.66863,3.54147 -0.0281,1.42806 0.52713,2.26584 1.80303,2.72036 0.68325,0.24339 0.80511,0.24721 1.47591,0.0462 z m -1.44279,-6.89054 c 0.46171,-0.21909 1.69148,-0.39558 3.93577,-0.56484 1.0628,-0.0802 1.27815,-0.0532 2.04395,0.25615 l 0.856,0.34575 0.0118,-1.19875 c 0.007,-0.65931 0.14426,-2.32829 0.30608,-3.70883 0.40846,-3.48499 0.24576,-5.28632 -0.64327,-7.12228 -0.40145,-0.82904 -0.85691,-1.14508 -1.30481,-0.90538 -0.26586,0.14229 -0.29633,0.27846 -0.29633,1.32423 0,1.6394 -0.2498,3.88266 -0.55497,4.98394 -0.37861,1.36626 -1.39553,3.37142 -1.60406,3.16289 -0.17727,-0.17727 -0.35105,-1.68746 -0.35105,-3.0507 0,-1.67443 0.25022,-3.21836 0.76864,-4.74255 0.92048,-2.7063 -0.019,-2.72967 -1.82358,-0.0454 -1.393,2.07209 -1.79116,3.4033 -2.0171,6.74383 -0.0856,1.2655 -0.24517,2.95504 -0.35463,3.75454 -0.10946,0.79949 -0.19901,1.50799 -0.19901,1.57444 0,0.0665 0.1719,-0.0386 0.38201,-0.2334 0.2101,-0.19482 0.59013,-0.45298 0.84449,-0.57368 z m 3.92587,-6.6389 c 0.31848,-1.1774 0.56505,-3.39159 0.56505,-5.07397 0,-1.019 0.0383,-1.20077 0.3052,-1.44944 0.16785,-0.15638 0.39429,-0.28433 0.50319,-0.28433 0.24717,0 0.11253,-0.6638 -0.19801,-0.97615 -0.1847,-0.18576 -0.2617,-0.15088 -0.68807,0.31171 -0.41031,0.44516 -0.48011,0.61974 -0.48011,1.20079 0,0.37395 -0.15735,1.17496 -0.34968,1.78003 -0.19233,0.60507 -0.44334,1.55243 -0.55779,2.10525 -0.20949,1.01175 -0.28737,3.99487 -0.11596,4.44155 0.12931,0.33699 0.65869,-0.7338 1.01618,-2.05544 z"
       id="tooth15" /></g></svg>
