<?xml version="1.0" encoding="UTF-8" standalone="no"?>
<!-- Created with Inkscape (http://www.inkscape.org/) -->

<svg
   width="7.0302191mm"
   height="24.579891mm"
   viewBox="0 0 7.0302191 24.579891"
   version="1.1"
   id="svg5"
   xml:space="preserve"
   xmlns="http://www.w3.org/2000/svg"
   xmlns:svg="http://www.w3.org/2000/svg"><defs
     id="defs2" /><g
     id="layer1"
     transform="translate(-92.127254,-44.487661)"><path
       style="fill:#000000;stroke-width:0.139449"
       d="m 94.143855,68.952089 c -0.953316,-0.23209 -1.818348,-0.88997 -1.971254,-1.49919 -0.138869,-0.5533 0.06445,-4.16533 0.295753,-5.25407 0.323153,-1.52111 0.531859,-4.88388 0.546432,-8.80437 0.01346,-3.62159 -0.06847,-4.5412 -0.558195,-6.26566 -0.107414,-0.37823 -0.195299,-1.08198 -0.195299,-1.56389 0,-0.73517 0.04515,-0.90037 0.280519,-1.02634 0.592371,-0.31702 2.106358,0.89718 2.790282,2.23778 1.114547,2.18469 1.961375,6.29393 2.570832,12.47497 0.142446,1.44468 0.342605,2.62444 0.567816,3.34678 0.497382,1.5953 0.831585,4.27882 0.624216,5.01224 -0.179307,0.63417 -0.494175,1.0744 -0.938546,1.31222 -0.329705,0.17645 -3.318691,0.19845 -4.012556,0.0295 z m 4.020415,-0.5732 c 0.531565,-0.41812 0.656988,-1.0568 0.500653,-2.54942 -0.340914,-3.2549 -1.277247,-5.33196 -2.710162,-6.01192 -0.625153,-0.29666 -1.111935,-0.19962 -1.786055,0.35605 -1.129088,0.93069 -1.446351,1.99167 -1.579828,5.28321 l -0.082,2.02201 0.40014,0.37003 c 0.64786,0.59911 1.466293,0.8012 3.274902,0.80863 1.426574,0.006 1.662964,-0.0274 1.982347,-0.27859 z m -3.140817,-9.12304 c 0.68746,-0.11614 1.139657,0.0678 1.908315,0.77634 0.761491,0.70192 0.737617,0.88168 0.344468,-2.59371 -0.660008,-5.83436 -1.528659,-9.36505 -2.734029,-11.11263 -0.345098,-0.50033 -1.511615,-1.50751 -1.746003,-1.50751 -0.215752,0 -0.118906,1.4803 0.169602,2.59236 0.490417,1.89033 0.629274,4.71974 0.435611,8.87625 -0.09383,2.01389 -0.211769,3.8185 -0.262081,4.01024 -0.08078,0.30786 -0.0068,0.27258 0.632615,-0.3018 0.484241,-0.43498 0.898797,-0.67995 1.251502,-0.73954 z"
       id="tooth07" /></g></svg>
