<?xml version="1.0" encoding="UTF-8" standalone="no"?>
<!-- Created with Inkscape (http://www.inkscape.org/) -->

<svg
   width="8.4293947mm"
   height="28.87326mm"
   viewBox="0 0 8.4293947 28.87326"
   version="1.1"
   id="svg5"
   xml:space="preserve"
   xmlns="http://www.w3.org/2000/svg"
   xmlns:svg="http://www.w3.org/2000/svg"><defs
     id="defs2" /><g
     id="layer1"
     transform="translate(-82.360405,-40.206271)"><path
       style="fill:#000000;stroke-width:0.139449"
       d="m 84.92663,68.304199 c -2.322808,-1.4562 -2.566225,-1.7572 -2.566225,-3.17327 0,-0.9354 0.334578,-2.93486 0.692177,-4.13649 0.497811,-1.67279 0.902459,-14.18837 0.552305,-17.08252 -0.30829,-2.54812 -0.317721,-2.97174 -0.07442,-3.34306 0.388103,-0.59232 0.863976,-0.4702 1.751529,0.44949 2.000891,2.07335 2.970031,5.9815 4.054551,16.35041 0.228846,2.18794 0.391751,3.13683 0.69428,4.04402 0.661343,1.98317 0.888814,3.37946 0.688948,4.22899 -0.219203,0.93172 -0.539233,1.55136 -1.192645,2.3092 -0.681655,0.7906 -1.424089,1.12454 -2.508762,1.12845 -0.793202,0.003 -0.933611,-0.0492 -2.091737,-0.77522 z m 3.323111,0.15734 c 0.861659,-0.36002 1.733856,-1.58493 2.065019,-2.90009 0.128431,-0.51005 0.11443,-0.84693 -0.07349,-1.76828 -0.495997,-2.43182 -1.156837,-3.88345 -2.20971,-4.85395 -0.783225,-0.72196 -1.533277,-0.97184 -2.228424,-0.74242 -0.627259,0.20701 -1.557485,1.12862 -1.97285,1.95458 -0.704463,1.40082 -1.251868,4.90339 -0.922369,5.90178 0.179302,0.54329 0.867679,1.11201 2.518157,2.08043 1.013572,0.59472 1.930366,0.7012 2.823667,0.32795 z m 0.459406,-12.93123 c -0.954745,-8.58039 -1.93002,-12.32169 -3.706315,-14.21795 -0.349045,-0.37262 -0.740051,-0.67749 -0.8689,-0.67749 -0.302999,0 -0.434142,0.53432 -0.335557,1.36719 0.04263,0.36015 0.150759,1.28234 0.240282,2.04931 0.167742,1.43706 0.09478,8.41983 -0.134783,12.89904 -0.06093,1.18881 -0.09883,2.17678 -0.08423,2.19549 0.0146,0.0187 0.317787,-0.24503 0.673748,-0.5861 0.702942,-0.67354 1.541808,-0.99296 2.240644,-0.85319 0.564881,0.11297 1.681635,0.8458 1.993278,1.308 0.245445,0.36403 0.255077,0.36634 0.298623,0.0716 0.02475,-0.16748 -0.117808,-1.76766 -0.316792,-3.55595 z"
       id="tooth06" /></g></svg>
