<?xml version="1.0" encoding="UTF-8" standalone="no"?>
<!-- Created with Inkscape (http://www.inkscape.org/) -->

<svg
   width="11.538245mm"
   height="22.868299mm"
   viewBox="0 0 11.538245 22.868299"
   version="1.1"
   id="svg5"
   xml:space="preserve"
   xmlns="http://www.w3.org/2000/svg"
   xmlns:svg="http://www.w3.org/2000/svg"><defs
     id="defs2" /><g
     id="layer1"
     transform="translate(-51.158508,-46.491729)"><path
       style="fill:#000000;stroke-width:0.139449"
       d="m 53.552471,69.153979 c -0.961292,-0.30354 -1.43835,-0.61387 -1.812234,-1.17884 -0.306021,-0.46243 -0.357737,-0.69331 -0.353127,-1.57644 0.0055,-1.06247 0.50952,-3.01203 0.953981,-3.69036 0.176912,-0.27 0.199402,-0.72976 0.136798,-2.79649 -0.06773,-2.2359 -0.122602,-2.6608 -0.571541,-4.42565 -0.876447,-3.44546 -0.981361,-5.75571 -0.320831,-7.06474 0.409999,-0.81253 0.792284,-0.86267 1.429088,-0.18746 0.263912,0.27982 0.486629,0.61412 0.494927,0.74288 0.0083,0.12876 0.09928,-0.22706 0.202186,-0.79071 0.217481,-1.19124 0.496705,-1.69444 0.940231,-1.69444 0.580107,0 1.507297,0.85431 2.077442,1.91416 l 0.317064,0.5894 0.211617,-0.44995 c 0.289443,-0.61542 0.741317,-0.64453 1.562421,-0.10066 0.999057,0.66175 1.672111,1.40906 2.167918,2.4071 0.843009,1.69694 0.930245,2.35715 0.897984,6.79588 -0.02945,4.0519 0.01881,4.66341 0.522746,6.62383 0.471155,1.83289 0.358212,3.36877 -0.300383,4.08481 -0.434394,0.47228 -1.604569,1.00207 -2.216983,1.00372 -0.665318,0.002 -1.51631,-0.30744 -2.266525,-0.8236 l -0.607403,-0.4179 -0.31518,0.33549 c -0.754167,0.80278 -1.969448,1.07281 -3.150196,0.69997 z m 2.359259,-0.6289 c 0.362477,-0.22988 0.695236,-0.51226 0.739466,-0.62752 0.100705,-0.26244 0.447985,-0.26998 0.736844,-0.016 0.480642,0.4226 1.746742,0.9684 2.360472,1.01756 0.765333,0.0613 1.711977,-0.36712 2.171691,-0.98286 0.244195,-0.32707 0.289811,-0.58959 0.289811,-1.66785 0,-1.83497 -0.353679,-3.00583 -1.147861,-3.80001 -0.843611,-0.84361 -1.695223,-1.09707 -2.756945,-0.82052 -0.472851,0.12316 -1.289542,0.18718 -2.126805,0.16673 -2.444213,-0.0597 -3.356586,0.4564 -3.923471,2.21941 -0.883171,2.74667 -0.53333,4.04288 1.258121,4.66149 1.080966,0.37327 1.626865,0.33904 2.398677,-0.15043 z m 5.519083,-14.64724 c -0.170136,-1.31755 -0.619844,-2.65878 -1.151339,-3.43381 -0.519829,-0.75803 -1.972651,-2.00001 -2.339522,-2.00001 -0.407266,0 -0.444617,0.70429 -0.104597,1.97225 0.4232,1.57814 0.462558,4.67541 0.07417,5.8369 -0.372379,1.11362 -0.771438,1.72244 -1.003013,1.53025 -0.473096,-0.39263 -2.47938,-4.84613 -3.484919,-7.73574 -0.799224,-2.29672 -1.343175,-2.46922 -1.741155,-0.55217 -0.246547,1.18762 -0.08061,2.79405 0.582812,5.64206 0.499262,2.1433 0.577113,2.70867 0.639542,4.64446 0.06323,1.96072 0.09597,2.19347 0.296505,2.10782 1.022781,-0.43686 1.477629,-0.52025 3.014406,-0.55265 0.920364,-0.0194 1.944535,-0.0968 2.275937,-0.1721 0.858971,-0.19506 2.22634,0.19478 2.702954,0.77062 0.149372,0.18047 0.195919,-0.42052 0.268298,-3.46421 0.04817,-2.02541 0.03463,-4.09256 -0.03008,-4.59367 z m -3.89208,2.08139 c 0.525782,-1.73877 0.292826,-4.57629 -0.505484,-6.15704 -0.776917,-1.53839 -1.860305,-2.89211 -2.314569,-2.89211 -0.414494,0 -0.572839,0.65763 -0.5708,2.37063 0.0019,1.59819 0.0043,1.60962 0.700764,3.34678 1.01629,2.53487 2.125698,4.69609 2.284377,4.45015 0.06989,-0.10832 0.252463,-0.61161 0.405712,-1.11841 z"
       id="tooth03" /></g></svg>
