<?xml version="1.0" encoding="UTF-8" standalone="no"?>
<!-- Created with Inkscape (http://www.inkscape.org/) -->

<svg
   width="14.458422mm"
   height="19.620623mm"
   viewBox="0 0 14.458422 19.620623"
   version="1.1"
   id="svg5"
   xml:space="preserve"
   xmlns="http://www.w3.org/2000/svg"
   xmlns:svg="http://www.w3.org/2000/svg"><defs
     id="defs2" /><g
     id="layer1"
     transform="translate(-184.45928,-73.699571)"><path
       style="fill:#000000;stroke-width:0.139449"
       d="m 192.66466,93.248099 c -0.54852,-0.20063 -1.97061,-1.14048 -2.75779,-1.8226 -2.48946,-2.15724 -4.06544,-5.93796 -4.43095,-10.62962 -0.0696,-0.89335 -0.23825,-1.71025 -0.51814,-2.50976 -0.22821,-0.65192 -0.44665,-1.60192 -0.48541,-2.1111 -0.1683,-2.21111 1.29334,-2.99157 4.0008,-2.13629 1.07155,0.33851 1.15043,0.34477 1.75519,0.13945 0.80922,-0.27474 2.06979,-0.26561 2.78492,0.0202 0.30679,0.12259 0.90885,0.22966 1.33791,0.23791 0.46802,0.009 0.8813,0.0987 1.03309,0.22419 0.76244,0.63034 1.00915,2.58168 0.49221,3.89313 -0.36658,0.93005 -0.61557,3.51662 -0.50145,5.20956 0.19298,2.86331 0.94016,4.71871 2.56122,6.35994 0.87915,0.89011 1.01262,1.08996 0.97614,1.46175 -0.0585,0.59622 -0.52588,0.82079 -1.49485,0.71824 -0.42081,-0.0445 -1.06852,-0.24804 -1.46238,-0.45947 -1.32113,-0.7092 -3.31903,-2.99828 -4.34749,-4.98109 l -0.50645,-0.97641 0.0959,0.62752 c 0.16672,1.0905 1.00303,3.31303 1.66555,4.42629 0.58524,0.98342 0.72462,1.41562 0.64122,1.98837 -0.0523,0.35902 -0.38523,0.4859 -0.83928,0.31982 z m 0.44166,-0.75113 c -0.0255,-0.18461 -0.20888,-0.61805 -0.40747,-0.96318 -1.0151,-1.76429 -1.52437,-3.09634 -1.91385,-5.00597 -0.24115,-1.18232 -0.21149,-1.40869 0.18457,-1.40869 0.15856,0 0.39866,0.32134 0.70333,0.94128 0.98236,1.99897 2.79077,4.2735 4.13065,5.19537 0.70494,0.48501 1.63834,0.74681 2.2521,0.63167 0.68945,-0.12934 0.59594,-0.47633 -0.38241,-1.41893 -2.04683,-1.97208 -2.89973,-4.68823 -2.7191,-8.6593 l 0.0903,-1.98514 -0.49578,0.29252 c -0.35493,0.20941 -0.82174,0.31193 -1.64309,0.36085 -1.19753,0.0713 -2.08185,-0.0874 -3.58768,-0.64377 -0.57454,-0.2123 -1.1129,-0.28455 -2.14577,-0.28796 l -1.3788,-0.005 0.0982,1.2098 c 0.46454,5.72514 2.54802,9.66043 6.2154,11.73969 0.86398,0.48984 1.0665,0.49112 0.99946,0.006 z m 1.18906,-12.72456 c 0.57675,-0.29825 1.11654,-0.96494 1.29158,-1.5952 0.20192,-0.72707 0.18057,-1.90803 -0.0442,-2.44604 -0.30816,-0.73752 -0.56546,-0.91566 -1.19967,-0.83059 -0.39983,0.0536 -0.76569,-0.0142 -1.28721,-0.23852 -0.60414,-0.25989 -0.90355,-0.30221 -1.75264,-0.24771 -0.56322,0.0361 -1.096,0.13768 -1.18395,0.22563 -0.2349,0.2349 -0.69893,0.19623 -1.51768,-0.12649 -0.88389,-0.3484 -2.28232,-0.49221 -2.80473,-0.28845 -0.54123,0.21111 -0.94021,0.93202 -0.94083,1.69999 0,0.35039 0.17855,1.19754 0.3974,1.88257 l 0.39792,1.24549 1.72868,0.076 c 1.39282,0.0612 1.86414,0.13781 2.42592,0.3941 0.38349,0.17495 0.94826,0.37316 1.25505,0.44047 0.82474,0.18094 2.73281,0.0681 3.23438,-0.19126 z"
       id="tooth17" /></g></svg>
