<?xml version="1.0" encoding="UTF-8" standalone="no"?>
<!-- Created with Inkscape (http://www.inkscape.org/) -->

<svg
   width="7.7896233mm"
   height="23.682926mm"
   viewBox="0 0 7.7896233 23.682926"
   version="1.1"
   id="svg5"
   xml:space="preserve"
   xmlns="http://www.w3.org/2000/svg"
   xmlns:svg="http://www.w3.org/2000/svg"><defs
     id="defs2" /><g
     id="layer1"
     transform="translate(-137.09759,-45.543187)"><path
       style="fill:#000000;stroke-width:0.139449"
       d="m 139.41747,68.792749 c -1.86142,-0.93016 -2.57667,-2.18324 -2.23907,-3.9227 0.0937,-0.4826 0.34814,-1.31672 0.5655,-1.8536 0.337,-0.83241 0.39544,-1.17122 0.3969,-2.30091 0.007,-5.29212 1.27229,-12.63604 2.44158,-14.16906 1.014,-1.32943 2.47298,-1.33886 3.27554,-0.0212 0.26538,0.43571 0.27331,0.63013 0.19201,4.70768 -0.11399,5.71635 0.099,10.51916 0.52037,11.73312 0.22465,0.64725 0.31024,1.22627 0.3166,2.14206 0.0108,1.54759 -0.2532,2.13306 -1.3336,2.9579 -1.68923,1.28964 -2.66585,1.46123 -4.13583,0.72667 z m 2.9005,-0.4158 c 0.44025,-0.23465 1.06492,-0.69611 1.38816,-1.02547 0.50277,-0.51228 0.60993,-0.72852 0.7414,-1.49608 0.12892,-0.75262 0.11372,-1.06701 -0.0943,-1.9504 -0.78779,-3.34523 -2.93808,-4.58641 -4.84904,-2.79894 -0.82095,0.76791 -1.41918,1.88445 -1.7932,3.34685 -0.49825,1.94814 0.0915,3.11932 2.02362,4.01903 0.96164,0.44779 1.60973,0.42396 2.58338,-0.095 z m -2.13658,-8.306 c 0.53489,-0.22349 1.54992,-0.25131 2.06226,-0.0565 0.19615,0.0746 0.64945,0.40403 1.00735,0.73211 l 0.65071,0.59652 -0.11579,-0.41835 c -0.0637,-0.23009 -0.12511,-3.46182 -0.1365,-7.18163 -0.0146,-4.75829 -0.0678,-6.85044 -0.17958,-7.05729 -0.21238,-0.39309 -0.78047,-0.75186 -1.19051,-0.75186 -0.55017,0 -1.24802,0.5824 -1.64155,1.36998 -0.60712,1.21504 -1.43453,5.038 -1.78601,8.25201 -0.0797,0.72862 -0.18788,2.3439 -0.24045,3.58951 l -0.0956,2.26475 0.60293,-0.57356 c 0.33162,-0.31546 0.80984,-0.66001 1.06272,-0.76567 z"
       id="tooth12" /></g></svg>
