<?xml version="1.0" encoding="UTF-8" standalone="no"?>
<!-- Created with Inkscape (http://www.inkscape.org/) -->

<svg
   width="9.8839483mm"
   height="19.490822mm"
   viewBox="0 0 9.8839483 19.490822"
   version="1.1"
   id="svg5"
   xml:space="preserve"
   xmlns="http://www.w3.org/2000/svg"
   xmlns:svg="http://www.w3.org/2000/svg"><defs
     id="defs2" /><g
     id="layer1"
     transform="translate(-23.802867,-49.845846)"><path
       style="fill:#000000;stroke-width:0.139449"
       d="m 30.415618,69.165279 c -0.306788,-0.0976 -0.868155,-0.37578 -1.247481,-0.61819 -0.379327,-0.24241 -0.76559,-0.44075 -0.858363,-0.44075 -0.09277,0 -0.431562,0.21963 -0.752863,0.48807 -0.655873,0.54797 -1.150526,0.61811 -1.854626,0.26298 -1.189495,-0.59995 -1.788517,-1.59505 -1.879842,-3.12282 -0.05324,-0.89064 -0.01046,-1.17179 0.286478,-1.88256 0.418261,-1.00119 0.79961,-3.59621 0.795735,-5.41484 -0.0034,-1.58519 -0.301288,-3.87243 -0.683685,-5.24908 -0.486173,-1.75025 -0.303345,-2.49469 0.569784,-2.32007 0.374235,0.0749 0.395521,0.0528 0.395521,-0.40985 0,-0.53556 0.214831,-0.70098 0.739368,-0.56933 0.400028,0.10041 1.329894,0.96176 1.804981,1.67199 0.344964,0.5157 0.365429,0.52538 0.516002,0.24403 0.248021,-0.46343 0.664365,-0.34665 1.405124,0.39411 2.059941,2.05994 2.937646,4.66276 3.342139,9.91106 0.10059,1.30518 0.258828,2.33122 0.44635,2.89422 0.591466,1.77577 0.08884,3.50726 -1.186145,4.08612 -0.674346,0.30616 -1.061901,0.32195 -1.838477,0.0749 z m 2.017505,-0.66714 c 1.311796,-1.03474 1.024627,-3.58519 -0.580596,-5.15646 -1.846453,-1.8074 -4.280851,-1.96156 -6.34461,-0.40177 -1.026453,0.7758 -1.317315,1.38638 -1.265388,2.65635 0.05044,1.23353 0.362436,1.9582 1.093922,2.54083 0.274338,0.21852 0.719555,0.43312 0.989371,0.47691 0.410142,0.0665 0.569671,0.0102 0.973005,-0.34397 0.766761,-0.67323 1.116449,-0.69437 2.041478,-0.12344 1.395596,0.86136 2.314143,0.96577 3.092818,0.35155 z m 0.113479,-6.56242 c -0.230722,-3.40714 -0.904057,-6.25654 -1.82023,-7.70282 -0.486029,-0.76724 -1.879065,-2.30266 -2.089137,-2.30266 -0.192947,0 -0.04088,1.03753 0.316795,2.16147 0.537751,1.68978 0.406143,5.22934 -0.194436,5.22934 -0.109383,0 -0.225818,-0.4408 -0.32592,-1.23385 -0.206938,-1.63947 -0.879726,-3.59894 -1.62774,-4.74074 -1.12752,-1.7211 -2.328524,-2.54658 -2.429806,-1.67006 -0.02375,0.20552 0.05739,0.70753 0.180313,1.11559 0.658386,2.18562 0.922783,5.4586 0.640079,7.92355 -0.09236,0.80532 -0.201863,1.60484 -0.243337,1.77671 -0.07119,0.29504 -0.03062,0.28553 0.726135,-0.17016 2.247986,-1.35367 4.445061,-1.15088 6.32975,0.58423 0.350755,0.32292 0.639094,0.58962 0.640753,0.59266 0.0017,0.003 -0.04479,-0.70042 -0.103219,-1.56326 z m -3.640919,-5.65996 c -0.100689,-1.41852 -0.553073,-2.89211 -1.234341,-4.02072 -0.462891,-0.76683 -1.646858,-1.99819 -1.921295,-1.99819 -0.07998,0 -0.145423,0.24881 -0.145423,0.5529 0,0.4063 0.07242,0.59165 0.273163,0.69908 0.39233,0.20997 1.47681,1.77813 1.947341,2.81587 0.366609,0.80854 0.685216,1.79148 0.907585,2.80002 0.171106,0.77604 0.258032,0.34939 0.17297,-0.84896 z"
       id="tooth01" /></g></svg>
