<?xml version="1.0" encoding="UTF-8" standalone="no"?>
<!-- Created with Inkscape (http://www.inkscape.org/) -->

<svg
   width="7.517355mm"
   height="24.510334mm"
   viewBox="0 0 7.517355 24.510334"
   version="1.1"
   id="svg5"
   xml:space="preserve"
   xmlns="http://www.w3.org/2000/svg"
   xmlns:svg="http://www.w3.org/2000/svg"><defs
     id="defs2" /><g
     id="layer1"
     transform="translate(-64.932302,-44.702078)"><path
       style="fill:#000000;stroke-width:0.139449"
       d="m 68.345775,69.129049 c -0.716661,-0.15554 -1.997724,-0.68122 -2.420676,-0.99332 -0.641386,-0.4733 -0.989002,-1.29716 -0.992765,-2.3529 -0.0036,-1.01178 0.29952,-2.7078 0.621452,-3.47709 0.565609,-1.35157 0.981029,-7.65527 0.840135,-12.74845 -0.111425,-4.02793 -0.03317,-4.67292 0.585783,-4.82827 0.301895,-0.0758 0.446291,-0.006 0.813471,0.39501 0.245532,0.26792 0.587419,0.85783 0.759748,1.3109 0.749534,1.97061 1.810176,7.20179 2.23101,11.00355 0.479933,4.33566 0.527389,4.6104 1.045332,6.05195 0.923647,2.57073 0.832355,3.67142 -0.384271,4.63311 -1.262766,0.99816 -2.012418,1.24138 -3.099219,1.00551 z m 2.411549,-1.01422 c 1.096271,-0.74831 1.34393,-1.19367 1.24051,-2.23079 -0.106486,-1.06787 -0.834851,-3.28838 -1.33898,-4.08204 -1.273646,-2.00512 -3.284444,-2.00759 -4.373,-0.005 -0.836933,1.5394 -1.17722,4.0334 -0.709739,5.20175 0.270096,0.67503 0.870376,1.09668 2.15601,1.51442 1.292513,0.41998 1.954481,0.3329 3.025199,-0.39797 z m -0.06442,-7.64333 c -0.631572,-7.0946 -2.157346,-14.17303 -3.272582,-15.18231 -0.568395,-0.51439 -0.61133,-0.18184 -0.565936,4.38333 0.03913,3.9352 -0.180842,8.84991 -0.478657,10.69439 l -0.09006,0.5578 0.402531,-0.36644 c 0.589806,-0.53694 0.936451,-0.67943 1.652885,-0.67943 0.803994,0 1.421978,0.25996 1.948203,0.81952 0.225266,0.23954 0.421502,0.43552 0.43608,0.43552 0.01458,0 -3e-5,-0.29807 -0.03246,-0.66238 z"
       id="tooth04" /></g></svg>
