<?xml version="1.0" encoding="UTF-8" standalone="no"?>
<!-- Created with Inkscape (http://www.inkscape.org/) -->

<svg
   width="8.4137573mm"
   height="28.848717mm"
   viewBox="0 0 8.4137573 28.848717"
   version="1.1"
   id="svg5"
   xml:space="preserve"
   xmlns="http://www.w3.org/2000/svg"
   xmlns:svg="http://www.w3.org/2000/svg"><defs
     id="defs2" /><g
     id="layer1"
     transform="translate(-127.19677,-40.221615)"><path
       style="fill:#000000;stroke-width:0.139449"
       d="m 129.55694,68.872909 c -0.5357,-0.2353 -1.48575,-1.25749 -1.87148,-2.01359 -0.16204,-0.31763 -0.35844,-0.92271 -0.43643,-1.34463 -0.16151,-0.87371 0.0441,-2.04801 0.71824,-4.10191 0.24123,-0.73495 0.44961,-1.79463 0.54844,-2.78898 1.11113,-11.17981 2.24186,-15.81748 4.33355,-17.77401 0.78767,-0.73677 1.25819,-0.81884 1.61065,-0.28093 0.24329,0.37132 0.23386,0.79494 -0.0744,3.34306 -0.31243,2.5824 0.0528,15.59983 0.47093,16.78496 0.39824,1.12872 0.80488,3.64694 0.7489,4.6377 -0.0653,1.15536 -0.2845,1.4906 -1.52374,2.33022 -1.87236,1.26858 -2.20725,1.41595 -3.19287,1.405 -0.49853,-0.006 -1.09782,-0.0941 -1.33176,-0.19689 z m 3.01218,-0.73998 c 1.74314,-1.01863 2.48064,-1.6479 2.58532,-2.2059 0.2171,-1.1572 -0.36608,-4.54063 -0.99736,-5.78639 -0.19223,-0.37935 -0.60539,-0.93805 -0.91813,-1.24156 -1.16596,-1.13153 -2.33245,-1.01391 -3.58996,0.36201 -0.80435,0.88008 -1.41324,2.30252 -1.84039,4.2993 -0.32875,1.53681 -0.2047,2.41058 0.4966,3.49802 0.77485,1.2015 1.42265,1.60357 2.58571,1.60487 0.63979,6.9e-4 0.92209,-0.0885 1.67821,-0.53035 z m -1.8896,-10.22386 c 0.30679,-0.14041 0.67602,-0.25667 0.82052,-0.25835 0.60393,-0.007 1.41311,0.36784 2.07128,0.95959 0.48665,0.43754 0.67766,0.54708 0.62279,0.35716 -0.14683,-0.50823 -0.41851,-11.03867 -0.34044,-13.19577 0.0426,-1.17627 0.15406,-2.58736 0.24774,-3.13574 0.18905,-1.10661 0.0925,-2.00109 -0.21603,-2.00109 -0.1089,0 -0.41854,0.19363 -0.68809,0.4303 -1.70547,1.49742 -2.8457,5.38249 -3.70038,12.60819 -0.1633,1.38054 -0.35621,3.01045 -0.4287,3.62202 -0.0725,0.61156 -0.1318,1.31745 -0.1318,1.56864 v 0.45672 l 0.59266,-0.57819 c 0.32596,-0.31801 0.84366,-0.69307 1.15045,-0.83348 z"
       id="tooth11" /></g></svg>
