<?xml version="1.0" encoding="UTF-8" standalone="no"?>
<!-- Created with Inkscape (http://www.inkscape.org/) -->

<svg
   width="13.892623mm"
   height="23.691711mm"
   viewBox="0 0 13.892623 23.691711"
   version="1.1"
   id="svg5"
   xml:space="preserve"
   xmlns="http://www.w3.org/2000/svg"
   xmlns:svg="http://www.w3.org/2000/svg"><defs
     id="defs2" /><g
     id="layer1"
     transform="translate(-155.86055,-73.001689)"><path
       style="fill:#000000;stroke-width:0.139449"
       d="m 167.68029,95.921441 c -1.50694,-1.13726 -2.14354,-2.065562 -4.35416,-6.349172 -1.1707,-2.26853 -1.45379,-2.51239 -1.84093,-1.58582 -0.559,1.33785 -0.38265,2.98124 0.52935,4.93298 0.3529,0.75523 0.41016,1.02529 0.36114,1.70302 -0.0974,1.346472 -0.67488,1.701832 -1.60921,0.990222 -1.46653,-1.116922 -2.60339,-2.897282 -3.11335,-4.875592 -0.43565,-1.69009 -0.60491,-3.93493 -0.39729,-5.26933 0.37859,-2.43333 0.14491,-4.82426 -0.63835,-6.53126 -1.17463,-2.55993 -0.96972,-4.7622 0.52808,-5.67546 0.83916,-0.51166 2.4055,-0.24307 3.50992,0.60187 0.24873,0.19029 0.33754,0.17285 0.98742,-0.19392 0.61096,-0.3448 0.86476,-0.40302 1.75691,-0.40302 0.94527,0 1.11892,0.0458 1.85681,0.49017 0.7236,0.43573 0.88672,0.48052 1.46873,0.40332 0.67509,-0.0896 1.29816,0.11648 1.65594,0.54758 0.52861,0.63694 0.45989,3.21936 -0.13132,4.93456 -0.43692,1.26758 -0.64099,4.57698 -0.43874,7.11491 0.18783,2.3571 0.51855,4.02933 1.15166,5.82316 0.24362,0.69027 0.53885,1.57731 0.65604,1.9712 0.33366,1.121432 0.0197,2.142542 -0.65871,2.142542 -0.14138,0 -0.71734,-0.34738 -1.27994,-0.77196 z m 1.57702,-0.12702 c 0.1425,-0.53287 0.0407,-1.00685 -0.59161,-2.755192 -1.09695,-3.03286 -1.58364,-7.13432 -1.28208,-10.80439 0.0988,-1.20283 0.0871,-1.39556 -0.0764,-1.25987 -0.12922,0.10724 -0.79355,0.14752 -2.00927,0.12182 -1.51742,-0.0321 -1.963,-0.0936 -2.70831,-0.37417 -0.77295,-0.29094 -0.98709,-0.31775 -1.60368,-0.20082 -0.91465,0.17346 -2.1481,0.17252 -2.75698,-0.002 -0.26285,-0.0754 -0.50163,-0.11335 -0.53062,-0.0844 -0.029,0.029 0.0171,0.68696 0.10239,1.46216 0.12663,1.15085 0.11525,1.71574 -0.0621,3.07868 -0.5399,4.15003 0.48452,7.74938 2.82882,9.939252 0.80374,0.7508 1.08709,0.81812 1.28231,0.30469 0.24029,-0.632062 0.14695,-1.361802 -0.2932,-2.291842 -0.868,-1.83416 -1.02673,-3.22481 -0.54583,-4.78182 0.27997,-0.90645 0.44221,-1.07504 1.03453,-1.07504 0.44676,0 0.58629,0.20359 1.95931,2.85871 1.40743,2.72169 2.36717,4.27443 3.02776,4.898542 0.73598,0.69535 1.80926,1.46202 1.97117,1.40805 0.0818,-0.0273 0.19594,-0.22629 0.25371,-0.4423 z m -2.26507,-15.200262 c 0.6985,-0.36121 1.04299,-1.14085 1.25692,-2.84467 0.18394,-1.46477 0.0556,-2.44949 -0.37531,-2.88042 -0.37753,-0.37754 -0.91543,-0.44748 -1.47625,-0.19196 -0.29227,0.13317 -0.4122,0.10306 -0.8159,-0.20485 -1.21371,-0.92575 -2.50274,-1.04383 -3.84395,-0.35212 l -0.84506,0.43583 -0.41943,-0.29867 c -1.71909,-1.2241 -3.23734,-1.08901 -3.93396,0.35002 -0.25326,0.52316 -0.29449,0.79567 -0.23658,1.56354 0.0774,1.02562 0.46097,2.23417 1.00242,3.15808 0.30735,0.52445 0.44466,0.6236 1.0721,0.77412 0.48506,0.11636 1.0654,0.13768 1.78061,0.0654 1.55461,-0.1571 2.00754,-0.12921 2.53742,0.15626 0.34653,0.18669 0.91184,0.27899 2.07956,0.3395 0.88201,0.0457 1.65384,0.0941 1.71518,0.10755 0.0613,0.0134 0.28732,-0.0665 0.50223,-0.17761 z"
       id="tooth19" /></g></svg>
