<?xml version="1.0" encoding="UTF-8" standalone="no"?>
<!-- Created with Inkscape (http://www.inkscape.org/) -->

<svg
   width="11.514989mm"
   height="22.866608mm"
   viewBox="0 0 11.514989 22.866608"
   version="1.1"
   id="svg5"
   xml:space="preserve"
   xmlns="http://www.w3.org/2000/svg"
   xmlns:svg="http://www.w3.org/2000/svg"><defs
     id="defs2" /><g
     id="layer1"
     transform="translate(-155.30196,-46.491729)"><path
       style="fill:#000000;stroke-width:0.139449"
       d="m 157.13845,69.175239 c -0.67181,-0.24365 -1.42985,-0.90029 -1.65138,-1.43048 -0.27928,-0.66842 -0.2383,-2.17987 0.0942,-3.47327 0.50307,-1.95708 0.55086,-2.56841 0.52318,-6.69356 -0.0234,-3.4879 0.007,-4.16867 0.21919,-4.95044 0.53547,-1.97046 1.37493,-3.19273 2.89301,-4.21228 0.78376,-0.52638 1.25712,-0.48248 1.43844,0.13339 0.0734,0.24927 0.1675,0.45197 0.20917,0.45045 0.0417,-0.002 0.264,-0.32524 0.4941,-0.71937 0.58409,-1.00051 1.42415,-1.78795 1.90744,-1.78795 0.52416,0 0.79366,0.44952 1.02075,1.70262 0.10134,0.55915 0.1899,0.91129 0.19683,0.78253 0.0165,-0.30782 0.8916,-1.23011 1.16711,-1.23011 0.43698,0 0.90414,0.79006 1.07854,1.82402 0.22596,1.33961 0.0183,3.2493 -0.64554,5.93714 -0.46116,1.86709 -0.51788,2.30558 -0.57884,4.47325 -0.0561,1.99694 -0.0317,2.45795 0.14442,2.72677 0.11657,0.17793 0.3785,0.85068 0.58203,1.49499 0.60088,1.90212 0.47076,3.5177 -0.34257,4.25377 -0.37732,0.34146 -2.0149,0.90519 -2.61909,0.90161 -0.63844,-0.004 -1.52322,-0.39961 -1.96453,-0.87887 l -0.33235,-0.36093 -0.6074,0.4179 c -1.13403,0.78024 -2.23548,0.9983 -3.22669,0.63882 z m 1.9168,-0.44061 c 0.32489,-0.11463 0.84715,-0.39701 1.16061,-0.62752 0.31344,-0.23052 0.64289,-0.41912 0.73209,-0.41912 0.0892,0 0.39325,0.21791 0.67563,0.48423 0.95135,0.89724 2.08573,0.95565 3.61501,0.18613 1.11625,-0.56168 1.26232,-2.18661 0.41125,-4.57493 -0.56931,-1.59767 -1.38852,-2.02084 -3.83506,-1.98106 -0.82272,0.0134 -1.66987,-0.0436 -1.88256,-0.12654 -1.02937,-0.40157 -2.4947,0.0441 -3.24037,0.98561 -0.50021,0.63157 -0.97875,2.43984 -0.98023,3.70397 -0.001,1.1641 0.31091,1.71064 1.25363,2.19415 0.85162,0.43679 1.25296,0.47041 2.09,0.17508 z m -0.59985,-7.58133 c 0.46299,-0.0732 0.94216,-0.0521 1.38683,0.0611 0.37367,0.0951 1.36968,0.16678 2.21335,0.15931 1.29689,-0.0115 1.63904,0.0336 2.21405,0.29165 0.37406,0.16789 0.69524,0.30525 0.71373,0.30525 0.0185,0 0.0655,-0.98835 0.10446,-2.19632 0.0635,-1.96933 0.13312,-2.45575 0.67329,-4.70641 0.51534,-2.1472 0.60352,-2.73185 0.60992,-4.04403 0.006,-1.16716 -0.0536,-1.69231 -0.24809,-2.19632 -0.14057,-0.36431 -0.31614,-0.66238 -0.39016,-0.66238 -0.31424,0 -0.77915,0.75877 -1.21012,1.97503 -0.78775,2.22313 -2.13197,5.3765 -2.7667,6.49032 -0.33374,0.58564 -0.6068,1.12206 -0.6068,1.19206 0,0.31548 -0.36874,-0.0463 -0.67676,-0.6639 -0.57408,-1.15118 -0.72487,-1.96291 -0.69741,-3.75446 0.0199,-1.29604 0.0975,-1.89695 0.35119,-2.71926 0.45081,-1.46104 0.42311,-2.24089 -0.0796,-2.24089 -0.36365,0 -1.81836,1.24563 -2.33568,2.00001 -0.51842,0.75597 -0.97697,2.10079 -1.14719,3.36443 -0.0623,0.46257 -0.0836,2.51791 -0.0474,4.56741 l 0.0659,3.72637 0.58283,-0.41855 c 0.34991,-0.25129 0.86555,-0.46325 1.29026,-0.53039 z m 3.6218,-6.10441 c 1.63788,-3.43055 1.94863,-4.56602 1.78775,-6.53263 -0.10265,-1.25464 -0.23771,-1.60618 -0.61711,-1.60618 -0.35535,0 -1.25551,1.05134 -2.02729,2.36779 -0.75144,1.28175 -1.04753,2.5599 -1.04753,4.52189 0,1.63541 0.4857,3.43731 0.86357,3.20377 0.0838,-0.0518 0.55205,-0.93137 1.04061,-1.95464 z"
       id="tooth14" /></g></svg>
