<?xml version="1.0" encoding="UTF-8" standalone="no"?>
<!-- Created with Inkscape (http://www.inkscape.org/) -->

<svg
   width="8.6667433mm"
   height="25.172083mm"
   viewBox="0 0 8.6667433 25.172083"
   version="1.1"
   id="svg5"
   xml:space="preserve"
   xmlns="http://www.w3.org/2000/svg"
   xmlns:svg="http://www.w3.org/2000/svg"><defs
     id="defs2" /><g
     id="layer1"
     transform="translate(-99.587567,-43.487079)"><path
       style="fill:#000000;stroke-width:0.139449"
       d="m 100.97686,68.450939 c -0.30679,-0.11052 -0.57085,-0.2019 -0.58679,-0.20305 -0.0159,-0.001 -0.2042,-0.30017 -0.418346,-0.66448 -0.37884,-0.64449 -0.38919,-0.71703 -0.38319,-2.6844 0.006,-1.90374 0.21733,-3.66009 0.508786,-4.22479 0.4886,-0.94665 0.8572,-5.71783 0.87003,-11.2617 0.0105,-4.52368 0.0334,-4.99157 0.26191,-5.34028 0.62585,-0.95517 1.38816,-0.74486 2.39025,0.65945 1.58594,2.22249 2.42343,5.53118 3.07513,12.149 0.26853,2.72681 0.34084,3.21337 0.87048,5.85686 0.52677,2.62917 0.78296,4.56866 0.65793,4.9807 -0.0531,0.1751 -0.22584,0.45956 -0.38379,0.63213 -0.28118,0.3072 -0.35001,0.31363 -3.29589,0.30764 -2.25595,-0.005 -3.14827,-0.0564 -3.56651,-0.20708 z m 6.70847,-0.55695 c 0.21459,-0.32751 0.21395,-0.47439 -0.009,-2.1266 -0.3383,-2.50535 -0.87897,-4.87444 -1.28023,-5.60965 -0.67214,-1.23153 -1.88253,-2.23118 -2.70154,-2.23118 -1.01919,0 -2.24918,0.91056 -2.87066,2.12514 -0.49205,0.9616 -0.76374,2.43055 -0.844966,4.56841 -0.0674,1.77475 -0.0529,1.9185 0.254086,2.51009 0.54222,1.0449 0.81054,1.11512 4.26186,1.11537 l 2.96008,2.8e-4 0.23051,-0.3518 z m -1.40257,-10.98642 c -0.62497,-5.73451 -1.38323,-9.2466 -2.37188,-10.98611 -0.47345,-0.83302 -1.24165,-1.77271 -1.57644,-1.92834 -0.25542,-0.11874 -0.36876,-0.0939 -0.59266,0.13003 -0.15227,0.15226 -0.28454,0.35528 -0.29395,0.45115 -0.009,0.0959 -0.0307,2.40201 -0.0473,5.12476 -0.0213,3.49519 -0.0975,5.54484 -0.25904,6.97245 -0.29032,2.56534 -0.29626,2.46562 0.11755,1.97383 0.47819,-0.56829 1.6607,-1.13744 2.35988,-1.13582 0.70258,0.002 1.8598,0.6376 2.4062,1.32239 0.21465,0.26901 0.41238,0.42278 0.43941,0.3417 0.027,-0.0811 -0.0548,-1.1008 -0.18176,-2.26604 z"
       id="tooth08" /></g></svg>
