<?xml version="1.0" encoding="UTF-8" standalone="no"?>
<!-- Created with Inkscape (http://www.inkscape.org/) -->

<svg
   width="7.7697911mm"
   height="23.68257mm"
   viewBox="0 0 7.7697911 23.68257"
   version="1.1"
   id="svg5"
   xml:space="preserve"
   xmlns="http://www.w3.org/2000/svg"
   xmlns:svg="http://www.w3.org/2000/svg"><defs
     id="defs2" /><g
     id="layer1"
     transform="translate(-73.089239,-45.536373)"><path
       style="fill:#000000;stroke-width:0.139449"
       d="m 75.564162,68.814279 c -1.107312,-0.61051 -1.827913,-1.23563 -2.160569,-1.87429 -0.425121,-0.81618 -0.417969,-2.72687 0.01486,-3.97108 0.424158,-1.21927 0.635438,-5.91451 0.525118,-11.66961 -0.07928,-4.13594 -0.07086,-4.34619 0.191375,-4.77741 0.534258,-0.87851 1.540275,-1.22682 2.340656,-0.81038 0.907779,0.47232 1.408193,1.40231 1.977385,3.67486 0.824549,3.29208 1.202697,6.37165 1.451067,11.81724 0.03722,0.81613 0.173202,1.45248 0.506563,2.37063 0.795036,2.1897 0.541966,3.58796 -0.83191,4.59647 -1.563254,1.14754 -2.754208,1.33846 -4.014549,0.64357 z"
       id="tooth05" /></g></svg>
