<?xml version="1.0" encoding="UTF-8" standalone="no"?>
<!-- Created with Inkscape (http://www.inkscape.org/) -->

<svg
   width="9.9076843mm"
   height="19.495426mm"
   viewBox="0 0 9.9076843 19.495426"
   version="1.1"
   id="svg5"
   xml:space="preserve"
   xmlns="http://www.w3.org/2000/svg"
   xmlns:svg="http://www.w3.org/2000/svg"><defs
     id="defs2" /><g
     id="layer1"
     transform="translate(-184.30975,-49.854241)"><path
       style="fill:#000000;stroke-width:0.139449"
       d="m 185.87525,69.207629 c -0.53239,-0.15403 -1.25209,-0.98312 -1.44018,-1.65909 -0.19842,-0.71312 -0.15678,-1.80172 0.0934,-2.44036 0.12017,-0.30678 0.32934,-1.71871 0.46483,-3.1376 0.4788,-5.01396 1.0774,-7.02875 2.67653,-9.00878 1.11411,-1.37948 1.76158,-1.74065 2.07397,-1.15694 0.15053,0.28129 0.17102,0.27156 0.51359,-0.24403 1.08535,-1.63352 2.54676,-2.27514 2.54676,-1.11813 0,0.45679 0.0184,0.47293 0.52154,0.45758 0.48835,-0.0149 0.52963,0.0165 0.64862,0.49271 0.0999,0.39989 0.0459,0.82639 -0.25242,1.99518 -0.50153,1.96466 -0.68422,3.80506 -0.58893,5.93288 0.0918,2.05089 0.37341,3.72753 0.77285,4.60182 0.65066,1.42412 0.24773,3.44253 -0.88588,4.43786 -1.01132,0.88796 -1.72901,0.95002 -2.59728,0.2246 -0.67578,-0.5646 -0.97405,-0.55977 -1.74502,0.0283 -0.48582,0.37054 -1.57073,0.75657 -2.06626,0.73519 -0.16038,-0.007 -0.49162,-0.0704 -0.73608,-0.14117 z"
       id="tooth16" /></g></svg>
