<?xml version="1.0" encoding="UTF-8" standalone="no"?>
<!-- Created with Inkscape (http://www.inkscape.org/) -->

<svg
   width="12.302795mm"
   height="21.703457mm"
   viewBox="0 0 12.302795 21.703457"
   version="1.1"
   id="svg5"
   xml:space="preserve"
   xmlns="http://www.w3.org/2000/svg"
   xmlns:svg="http://www.w3.org/2000/svg"><defs
     id="defs2" /><g
     id="layer1"
     transform="translate(-35.742319,-73.023921)"><path
       style="fill:#000000;stroke-width:0.139449"
       d="m 40.948555,94.537409 c -0.375614,-0.45258 -0.320466,-1.22243 0.190189,-2.655 0.51305,-1.43929 1.199763,-4.23478 1.199763,-4.88404 0,-0.65634 -0.305867,-0.30363 -1.340689,1.546 -1.755833,3.13837 -2.31489,3.99368 -3.201212,4.89763 -0.93912,0.95779 -1.356232,1.09558 -1.807387,0.59706 -0.194521,-0.21494 -0.254197,-0.49379 -0.246205,-1.15045 0.01042,-0.85648 0.08483,-1.1012 0.984364,-3.23738 1.031844,-2.4504 1.135027,-4.61771 0.441498,-9.27337 -0.648448,-4.35303 -0.552732,-5.3509 0.611294,-6.37292 0.879417,-0.77213 2.147602,-0.78646 3.669029,-0.0415 0.469595,0.22994 0.960305,0.41808 1.090468,0.41808 0.130164,0 0.511639,-0.18919 0.847723,-0.42042 2.104864,-1.44819 3.765211,-1.20741 4.47411,0.64882 0.29273,0.7665 0.221933,3.08697 -0.116415,3.81562 -0.124649,0.26844 -0.267081,0.77046 -0.316516,1.1156 -0.775571,5.41471 -2.265108,11.19212 -3.339637,12.95332 -0.996466,1.63326 -2.609498,2.682592 -3.140377,2.04292 z"
       id="tooth31" /></g></svg>
