<?xml version="1.0" encoding="UTF-8" standalone="no"?>
<!-- Created with Inkscape (http://www.inkscape.org/) -->

<svg
   width="6.812767mm"
   height="23.546406mm"
   viewBox="0 0 6.812767 23.546406"
   version="1.1"
   id="svg5"
   xml:space="preserve"
   xmlns="http://www.w3.org/2000/svg"
   xmlns:svg="http://www.w3.org/2000/svg"><defs
     id="defs2" /><g
     id="layer1"
     transform="translate(-74.613836,-73.585938)"><path
       id="tooth28"
       style="fill:#000000;stroke-width:0.139449"
       d="m 78.158203,73.585938 c -0.431609,6.02e-4 -0.945263,0.315506 -2.0625,1.228515 -1.524082,1.245486 -1.708939,1.764905 -1.283203,3.636719 0.308918,1.358203 1.046705,2.458521 1.984375,2.925781 0.787222,0.39228 1.072589,0.423239 1.865234,0.203125 0.766496,-0.212855 1.424706,-0.843291 1.958985,-1.845703 0.476756,-0.894484 0.927686,-2.637262 0.77539,-3.107422 -0.04591,-0.141749 -0.149028,-0.431902 -0.228515,-0.644531 -0.200486,-0.536273 -2.517394,-2.397267 -3.009766,-2.396484 z m 2.605469,6.660156 -0.767578,0.75 c -0.583752,0.572299 -1.459126,0.957977 -2.150391,0.953125 -0.511975,-0.0037 -1.357607,-0.379126 -1.958984,-0.886719 -0.157109,-0.132608 -0.267734,-0.22194 -0.339844,-0.263672 -0.09049,-0.05237 -0.22651,-0.05896 -0.236328,0.08789 -0.0027,0.04001 0.0103,0.0983 0.02734,0.154297 0.04549,0.14946 0.184178,1.225262 0.3125,2.414062 0.291741,2.702743 0.312076,7.720264 0.04102,9.667969 -0.355857,2.556999 -0.165654,4.146218 0.605469,4 0.185725,-0.03522 0.39035,-0.184533 0.603516,-0.425781 1.2792,-1.447706 2.840222,-7.625407 3.591797,-14.113282 z" /></g></svg>
