<?xml version="1.0" encoding="UTF-8" standalone="no"?>
<!-- Created with Inkscape (http://www.inkscape.org/) -->

<svg
   width="7.7639794mm"
   height="28.228519mm"
   viewBox="0 0 7.7639794 28.228519"
   version="1.1"
   id="svg5"
   xml:space="preserve"
   xmlns="http://www.w3.org/2000/svg"
   xmlns:svg="http://www.w3.org/2000/svg"><defs
     id="defs2" /><g
     id="layer1"
     transform="translate(-127.53568,-40.535156)"><path
       id="tooth11"
       style="fill:#000000;stroke-width:0.139449"
       d="m 133.88477,40.535156 c -0.15321,0 -0.48128,0.215702 -0.75391,0.455078 -1.73537,1.523675 -2.87924,5.442328 -3.73438,12.671875 -0.1633,1.380558 -0.35525,3.009587 -0.42773,3.621094 -0.0727,0.612806 -0.13281,1.320885 -0.13281,1.580078 v 0.69336 l 0.76367,-0.742188 c 0.3211,-0.313275 0.82563,-0.679227 1.12109,-0.814453 0.30245,-0.138422 0.66246,-0.248619 0.78125,-0.25 0.57218,-0.0066 1.3568,0.351792 2.00391,0.933594 0.39083,0.351392 0.66464,0.585881 0.77539,0.416015 0.0342,-0.0525 0.0209,-0.114815 0.008,-0.160156 -0.14101,-0.488085 -0.41396,-11.008222 -0.33594,-13.164062 0.0425,-1.174554 0.1537,-2.580232 0.2461,-3.121094 0.19063,-1.115861 0.11801,-2.119141 -0.31445,-2.119141 z m -2.41602,17.50586 c -0.62794,0.06332 -1.25661,0.454352 -1.89453,1.152343 -0.82119,0.898508 -1.43436,2.340614 -1.86328,4.345703 -0.33279,1.555701 -0.20702,2.462766 0.50976,3.574219 0.78929,1.223882 1.46654,1.649047 2.66992,1.650391 0.65864,7.11e-4 0.96393,-0.09812 1.72852,-0.544922 1.74678,-1.020757 2.51823,-1.662673 2.63281,-2.273438 0.22179,-1.182198 -0.36641,-4.58774 -1.00586,-5.849609 -0.19632,-0.387431 -0.61851,-0.959962 -0.9375,-1.269531 -0.59786,-0.580209 -1.20669,-0.849003 -1.83984,-0.785156 z" /></g></svg>
