<?xml version="1.0" encoding="UTF-8" standalone="no"?>
<!-- Created with Inkscape (http://www.inkscape.org/) -->

<svg
   width="7.0302191mm"
   height="24.579891mm"
   viewBox="0 0 7.0302191 24.579891"
   version="1.1"
   id="svg5"
   xml:space="preserve"
   xmlns="http://www.w3.org/2000/svg"
   xmlns:svg="http://www.w3.org/2000/svg"><defs
     id="defs2" /><g
     id="layer1"
     transform="translate(-92.127254,-44.487661)"><path
       style="fill:#000000;stroke-width:0.139449"
       d="m 94.143855,68.952089 c -0.953316,-0.23209 -1.818348,-0.88997 -1.971254,-1.49919 -0.138869,-0.5533 0.06445,-4.16533 0.295753,-5.25407 0.323153,-1.52111 0.531859,-4.88388 0.546432,-8.80437 0.01346,-3.62159 -0.06847,-4.5412 -0.558195,-6.26566 -0.107414,-0.37823 -0.195299,-1.08198 -0.195299,-1.56389 0,-0.73517 0.04515,-0.90037 0.280519,-1.02634 0.592371,-0.31702 2.106358,0.89718 2.790282,2.23778 1.114547,2.18469 1.961375,6.29393 2.570832,12.47497 0.142446,1.44468 0.342605,2.62444 0.567816,3.34678 0.497382,1.5953 0.831585,4.27882 0.624216,5.01224 -0.179307,0.63417 -0.494175,1.0744 -0.938546,1.31222 -0.329705,0.17645 -3.318691,0.19845 -4.012556,0.0295 z"
       id="tooth07" /></g></svg>
