<?xml version="1.0" encoding="UTF-8" standalone="no"?>
<!-- Created with Inkscape (http://www.inkscape.org/) -->

<svg
   width="7.7677693mm"
   height="24.426304mm"
   viewBox="0 0 7.7677693 24.426304"
   version="1.1"
   id="svg5"
   xml:space="preserve"
   xmlns="http://www.w3.org/2000/svg"
   xmlns:svg="http://www.w3.org/2000/svg"><defs
     id="defs2" /><g
     id="layer1"
     transform="translate(-64.379156,-73.375772)"><path
       style="fill:#000000;stroke-width:0.139449"
       d="m 66.780187,97.432011 c -0.210399,-0.3208 -0.260625,-0.84558 -0.336986,-3.521092 -0.0871,-3.0517 -0.157991,-3.78644 -0.606115,-6.28171 -0.289473,-1.61185 -0.711563,-4.62494 -0.90837,-6.48438 -0.0893,-0.84367 -0.251204,-1.88813 -0.359797,-2.32104 -0.240669,-0.95941 -0.253443,-2.06151 -0.03245,-2.79913 0.182758,-0.61 0.692327,-1.07209 2.275362,-2.06339 1.4704,-0.92076 2.230568,-0.7985 4.190005,0.67389 1.011229,0.75988 1.214664,1.23419 1.126648,2.62682 -0.03954,0.62552 -0.16786,1.47267 -0.285169,1.88256 -0.391081,1.36646 -0.635043,3.18354 -0.780265,5.81157 -0.07912,1.43186 -0.206001,3.26228 -0.281951,4.06759 -0.496925,5.26909 -2.835887,10.184652 -4.000916,8.408312 z"
       id="tooth29" /></g></svg>
