<?xml version="1.0" encoding="UTF-8" standalone="no"?>
<!-- Created with Inkscape (http://www.inkscape.org/) -->

<svg
   width="6.8020043mm"
   height="23.679394mm"
   viewBox="0 0 6.8020043 23.679394"
   version="1.1"
   id="svg5"
   xml:space="preserve"
   xmlns="http://www.w3.org/2000/svg"
   xmlns:svg="http://www.w3.org/2000/svg"><defs
     id="defs2" /><g
     id="layer1"
     transform="translate(-136.58165,-73.53154)"><path
       id="tooth21"
       style="fill:#000000;stroke-width:0.139449"
       d="m 140.10938,73.554688 c -0.3307,-0.119419 -0.87955,0.216419 -2.0879,1.166015 -1.41649,1.113181 -1.63364,1.636354 -1.30664,3.199219 0.34826,1.664512 1.18036,2.97934 2.25196,3.509766 0.74835,0.370429 1.31456,0.380269 2.07422,0.03516 1.13096,-0.513786 1.91323,-1.746054 2.22656,-3.451172 0.26449,-1.439345 0.12455,-1.86676 -0.91992,-2.767578 -1.09797,-0.946971 -1.93323,-1.581277 -2.23828,-1.691406 z m 2.5371,7.042968 c -0.11484,-0.0816 -0.21451,0.08667 -0.32812,0.242188 -0.32274,0.441711 -1.29349,0.963861 -1.97266,1.052734 -0.78226,0.102351 -1.66022,-0.218787 -2.31054,-0.853516 -0.2037,-0.198811 -0.33318,-0.323387 -0.41797,-0.380859 -0.11638,-0.07888 -0.23354,-0.0608 -0.26367,0.08398 -0.0101,0.04844 -0.01,0.118962 -0.01,0.199218 0.002,0.585609 0.2627,2.760194 0.56836,4.751953 0.61958,4.037283 1.96603,9.169777 2.7207,10.345703 0.39366,0.613404 0.89409,1.171876 1.13477,1.171876 0.12866,0 0.30002,-0.180611 0.41211,-0.359376 0.36673,-0.584871 0.39634,-1.349621 0.15625,-3.189453 -0.41467,-3.177428 -0.25855,-9.567312 0.31054,-12.638671 0.0387,-0.208646 0.084,-0.366134 0,-0.425782 z" /></g></svg>
