<?xml version="1.0" encoding="UTF-8" standalone="no"?>
<!-- Created with Inkscape (http://www.inkscape.org/) -->

<svg
   width="8.4293947mm"
   height="28.87326mm"
   viewBox="0 0 8.4293947 28.87326"
   version="1.1"
   id="svg5"
   xml:space="preserve"
   xmlns="http://www.w3.org/2000/svg"
   xmlns:svg="http://www.w3.org/2000/svg"><defs
     id="defs2" /><g
     id="layer1"
     transform="translate(-82.360405,-40.206271)"><path
       style="fill:#000000;stroke-width:0.139449"
       d="m 84.92663,68.304199 c -2.322808,-1.4562 -2.566225,-1.7572 -2.566225,-3.17327 0,-0.9354 0.334578,-2.93486 0.692177,-4.13649 0.497811,-1.67279 0.902459,-14.18837 0.552305,-17.08252 -0.30829,-2.54812 -0.317721,-2.97174 -0.07442,-3.34306 0.388103,-0.59232 0.863976,-0.4702 1.751529,0.44949 2.000891,2.07335 2.970031,5.9815 4.054551,16.35041 0.228846,2.18794 0.391751,3.13683 0.69428,4.04402 0.661343,1.98317 0.888814,3.37946 0.688948,4.22899 -0.219203,0.93172 -0.539233,1.55136 -1.192645,2.3092 -0.681655,0.7906 -1.424089,1.12454 -2.508762,1.12845 -0.793202,0.003 -0.933611,-0.0492 -2.091737,-0.77522 z"
       id="tooth06" /></g></svg>
