<?xml version="1.0" encoding="UTF-8" standalone="no"?>
<!-- Created with Inkscape (http://www.inkscape.org/) -->

<svg
   width="13.23427mm"
   height="23.014187mm"
   viewBox="0 0 13.23427 23.014187"
   version="1.1"
   id="svg5"
   xml:space="preserve"
   xmlns="http://www.w3.org/2000/svg"
   xmlns:svg="http://www.w3.org/2000/svg"><defs
     id="defs2" /><g
     id="layer1"
     transform="translate(-156.18005,-73.325313)"><path
       id="tooth19"
       style="fill:#000000;stroke-width:0.139449"
       d="m 158.11328,73.333984 c -0.72314,0.06434 -1.30089,0.480249 -1.66406,1.230469 -0.2614,0.539967 -0.3048,0.834826 -0.2461,1.613281 0.0785,1.03973 0.46756,2.265959 1.01563,3.201172 0.32051,0.546913 0.48426,0.666213 1.13477,0.822266 0.49915,0.119742 1.09243,0.139374 1.81445,0.06641 1.54994,-0.156629 1.9784,-0.125956 2.48047,0.144531 0.36742,0.197945 0.95067,0.290913 2.12109,0.351563 0.88201,0.0457 1.63782,0.09201 1.69922,0.105469 0.1023,0.02236 0.3529,-0.0751 0.57031,-0.1875 0.74366,-0.384564 1.09528,-1.205457 1.31055,-2.919922 0.185,-1.473229 0.0597,-2.496878 -0.40625,-2.962891 -0.41032,-0.410332 -0.9935,-0.482816 -1.58594,-0.21289 -0.24833,0.113148 -0.32646,0.102863 -0.71484,-0.19336 -1.24358,-0.948535 -2.57394,-1.070609 -3.94922,-0.361328 l -0.79297,0.408203 -0.36914,-0.263672 c -0.87146,-0.620526 -1.7052,-0.905216 -2.41797,-0.841797 z m -0.48437,7.03125 c -0.0315,0.03151 -0.0334,0.07013 -0.0352,0.08789 -0.0155,0.159863 0.0306,0.758316 0.10742,1.457031 0.12594,1.144546 0.11428,1.694204 -0.0625,3.052735 -0.54293,4.173342 0.48783,7.808243 2.86133,10.02539 0.82442,0.770121 1.20775,0.887246 1.44336,0.267578 0.25396,-0.668011 0.1504,-1.426001 -0.29688,-2.371093 -0.85847,-1.814028 -1.0098,-3.184869 -0.53906,-4.708985 0.27295,-0.883705 0.40655,-1.003906 0.9375,-1.003906 0.37884,0 0.49878,0.150937 1.8711,2.804687 1.40813,2.723049 2.37574,4.287917 3.04882,4.923829 0.66432,0.62764 1.61765,1.326749 1.93555,1.423828 0.0397,0.01211 0.0889,0.0231 0.13477,0.0078 0.13742,-0.04587 0.2583,-0.287171 0.31836,-0.511719 0.15285,-0.5716 0.0398,-1.062794 -0.59375,-2.814453 -1.09202,-3.019207 -1.57799,-7.104723 -1.27735,-10.763671 0.0791,-0.962814 0.11774,-1.360201 -0.0742,-1.402344 -0.0652,-0.01431 -0.12768,0.02678 -0.16601,0.05859 -0.0919,0.07623 -0.72664,0.125289 -1.94141,0.09961 -1.51394,-0.03203 -1.94209,-0.09294 -2.67578,-0.369141 -0.78238,-0.294491 -1.02425,-0.325301 -1.6582,-0.205078 -0.90653,0.17192 -2.11924,0.169595 -2.71094,0 -0.2644,-0.07585 -0.54743,-0.138004 -0.62695,-0.05859 z" /></g></svg>
