<?xml version="1.0" encoding="UTF-8" standalone="no"?>
<!-- Created with Inkscape (http://www.inkscape.org/) -->

<svg
   width="7.7896495mm"
   height="28.243095mm"
   viewBox="0 0 7.7896495 28.243095"
   version="1.1"
   id="svg5"
   xml:space="preserve"
   xmlns="http://www.w3.org/2000/svg"
   xmlns:svg="http://www.w3.org/2000/svg"><defs
     id="defs2" /><g
     id="layer1"
     transform="translate(-82.709315,-40.535156)"><path
       id="tooth06"
       style="fill:#000000;stroke-width:0.139449"
       d="m 84.134766,40.535156 c -0.40954,0 -0.53577,0.631809 -0.435547,1.478516 0.04262,0.360057 0.150714,1.281879 0.240234,2.048828 0.165387,1.416872 0.09469,8.405715 -0.134765,12.882812 -0.05485,1.070256 -0.0921,1.975508 -0.08789,2.169922 4.56e-4,0.02104 -0.0036,0.05657 0.02539,0.09375 0.0535,0.06852 0.123331,0.03027 0.136718,0.02344 0.08215,-0.04192 0.3628,-0.292236 0.683594,-0.59961 0.687834,-0.659063 1.491869,-0.960222 2.152344,-0.828124 0.536597,0.107313 1.635298,0.829013 1.929687,1.265624 0.09829,0.145776 0.16347,0.241634 0.216797,0.28711 0.01899,0.0162 0.04872,0.03603 0.08789,0.03906 0.139324,0.01077 0.15476,-0.154593 0.175781,-0.296875 0.02743,-0.185646 -0.117574,-1.792802 -0.316406,-3.580078 -0.955101,-8.583591 -1.933795,-12.353205 -3.734375,-14.27539 -0.351152,-0.374869 -0.761271,-0.708985 -0.939452,-0.708985 z m 1.636718,17.566406 c -0.655254,0.21625 -1.609136,1.166481 -2.03125,2.00586 -0.712231,1.416266 -1.269281,4.941667 -0.927734,5.976562 0.192313,0.582713 0.908819,1.164467 2.5625,2.134766 1.036339,0.608079 1.984858,0.722235 2.914062,0.333984 0.900908,-0.37642 1.786968,-1.632113 2.123047,-2.966796 0.132817,-0.527469 0.116817,-0.885454 -0.07227,-1.8125 -0.498039,-2.441851 -1.164867,-3.916974 -2.24023,-4.908204 -0.800043,-0.737462 -1.587039,-1.008253 -2.328125,-0.763672 z" /></g></svg>
