<?xml version="1.0" encoding="UTF-8" standalone="no"?>
<!-- Created with Inkscape (http://www.inkscape.org/) -->

<svg
   width="8.6590424mm"
   height="25.157545mm"
   viewBox="0 0 8.6590424 25.157545"
   version="1.1"
   id="svg5"
   xml:space="preserve"
   xmlns="http://www.w3.org/2000/svg"
   xmlns:svg="http://www.w3.org/2000/svg"><defs
     id="defs2" /><g
     id="layer1"
     transform="translate(-109.74392,-43.499424)"><path
       style="fill:#000000;stroke-width:0.139449"
       d="m 110.21612,68.388339 c -0.20812,-0.16371 -0.41154,-0.49486 -0.45883,-0.74696 -0.12069,-0.64333 0.60363,-5.2937 1.04615,-6.71667 0.0716,-0.23009 0.19674,-1.17137 0.27819,-2.09174 0.58867,-6.65197 1.48185,-11.03932 2.68278,-13.17794 1.22147,-2.17521 2.25481,-2.71508 3.00506,-1.57001 0.22058,0.33665 0.24487,0.85565 0.25272,5.39874 0.01,5.65097 0.36807,10.22745 0.87672,11.19741 0.2748,0.52404 0.49813,2.42584 0.50348,4.28756 0.005,1.83022 -0.0161,1.9902 -0.34151,2.55862 -0.58227,1.01708 -0.75337,1.06099 -4.32886,1.11107 -3.0197,0.0423 -3.15659,0.0325 -3.5159,-0.25008 z"
       id="tooth09" /></g></svg>
