<?xml version="1.0" encoding="UTF-8" standalone="no"?>
<!-- Created with Inkscape (http://www.inkscape.org/) -->

<svg
   width="10.838571mm"
   height="22.217009mm"
   viewBox="0 0 10.838571 22.217009"
   version="1.1"
   id="svg5"
   xml:space="preserve"
   xmlns="http://www.w3.org/2000/svg"
   xmlns:svg="http://www.w3.org/2000/svg"><defs
     id="defs2" /><g
     id="layer1"
     transform="translate(-51.471976,-46.810547)"><path
       id="tooth03"
       style="fill:#000000;stroke-width:0.139449"
       d="m 54.71875,46.810547 c -0.519928,0 -0.671969,0.751553 -0.669922,2.470703 0.0019,1.603788 0.0098,1.643674 0.707031,3.382812 0.915005,2.28224 1.910422,4.286963 2.248047,4.501954 0.06339,0.04036 0.158061,0.05178 0.212891,-0.0332 0.07826,-0.121291 0.264453,-0.636846 0.417969,-1.144531 0.534102,-1.766287 0.300216,-4.622739 -0.511719,-6.230469 -0.779103,-1.542717 -1.880164,-2.947265 -2.404297,-2.947265 z m -2.289062,1.285156 c -0.390676,-0.123892 -0.646665,0.412693 -0.847657,1.380859 -0.250651,1.207392 -0.08022,2.832231 0.583985,5.683594 0.498712,2.140941 0.574387,2.69224 0.636718,4.625 0.05059,1.568837 0.07107,2.07292 0.238282,2.189453 0.06872,0.04789 0.142703,0.03112 0.197265,0.0078 1.014379,-0.433271 1.444592,-0.512623 2.976563,-0.544922 0.922375,-0.01944 1.950949,-0.09523 2.296875,-0.173828 0.827514,-0.187917 2.157488,0.195082 2.605469,0.736328 0.02064,0.02493 0.06223,0.06164 0.111328,0.06445 0.06043,0.0035 0.101135,-0.03462 0.123046,-0.06836 0.113202,-0.17431 0.150355,-1.057927 0.208985,-3.523438 0.04819,-2.026428 0.03754,-4.091771 -0.0293,-4.609375 -0.171021,-1.3244 -0.63067,-2.69022 -1.169922,-3.476562 -0.524916,-0.765448 -1.998582,-2.042969 -2.421875,-2.042969 -0.532392,0 -0.542344,0.818121 -0.199219,2.097656 0.419161,1.563077 0.453804,4.646087 0.07422,5.78125 -0.369086,1.103774 -0.733032,1.576263 -0.84375,1.484375 -0.445109,-0.369403 -2.450021,-4.805133 -3.455078,-7.693359 -0.400648,-1.151336 -0.748762,-1.811041 -1.085937,-1.917969 z m 7.365234,13.425781 c -0.471574,-0.14035 -0.970372,-0.134211 -1.515625,0.0078 -0.463428,0.120706 -1.265736,0.186383 -2.099609,0.166015 -2.477181,-0.0605 -3.435061,0.469408 -4.019532,2.28711 -0.893171,2.777771 -0.542755,4.143769 1.320313,4.787109 1.104155,0.381278 1.680115,0.349892 2.484375,-0.160156 0.365448,-0.231764 0.719932,-0.521082 0.779297,-0.675781 0.06824,-0.177833 0.325855,-0.200324 0.578125,0.02148 0.49728,0.437229 1.780327,0.991893 2.417968,1.042969 0.797934,0.06391 1.780485,-0.379537 2.259766,-1.021485 0.261726,-0.35055 0.310547,-0.645913 0.310547,-1.728515 0,-1.849449 -0.356327,-3.047735 -1.177735,-3.869141 -0.430335,-0.430334 -0.866719,-0.717192 -1.33789,-0.857422 z" /></g></svg>
