<?xml version="1.0" encoding="UTF-8" standalone="no"?>
<!-- Created with Inkscape (http://www.inkscape.org/) -->

<svg
   width="7.1864591mm"
   height="23.054108mm"
   viewBox="0 0 7.1864591 23.054108"
   version="1.1"
   id="svg5"
   xml:space="preserve"
   xmlns="http://www.w3.org/2000/svg"
   xmlns:svg="http://www.w3.org/2000/svg"><defs
     id="defs2" /><g
     id="layer1"
     transform="translate(-137.44232,-45.833981)"><path
       id="tooth12"
       style="fill:#000000;stroke-width:0.139449"
       d="m 142.2793,45.833984 c -0.6032,0 -1.32774,0.61978 -1.73047,1.425782 -0.61774,1.236282 -1.44494,5.066967 -1.79688,8.285156 -0.08,0.7317 -0.18762,2.349033 -0.24023,3.595703 l -0.10742,2.511719 0.7832,-0.744141 c 0.32741,-0.311453 0.79532,-0.646697 1.0332,-0.746094 0.5155,-0.215384 1.49795,-0.241131 1.98828,-0.05469 0.17434,0.0663 0.62002,0.387841 0.97461,0.71289 l 0.91016,0.833985 -0.21289,-0.757813 c -0.0562,-0.203018 -0.11947,-3.434598 -0.13086,-7.154296 -0.0146,-4.758374 -0.0637,-6.867131 -0.19141,-7.103516 -0.22701,-0.420166 -0.83279,-0.804688 -1.27929,-0.804688 z m -1.33985,14.386719 c -0.50587,0.08672 -1.01493,0.355129 -1.5039,0.8125 -0.83853,0.784355 -1.44495,1.919239 -1.82227,3.394531 -0.51063,1.996565 0.10565,3.216263 2.07813,4.134766 0.99115,0.461536 1.67372,0.435402 2.67382,-0.09766 0.44692,-0.238205 1.0846,-0.707267 1.41407,-1.042969 0.5151,-0.524845 0.6317,-0.766931 0.76562,-1.548828 0.13042,-0.761353 0.11574,-1.102577 -0.0937,-1.992188 -0.59726,-2.536149 -1.99086,-3.920865 -3.51172,-3.660156 z" /></g></svg>
