<?xml version="1.0" encoding="UTF-8" standalone="no"?>
<!-- Created with Inkscape (http://www.inkscape.org/) -->

<svg
   width="5.4380445mm"
   height="23.262823mm"
   viewBox="0 0 5.4380445 23.262823"
   version="1.1"
   id="svg5"
   xml:space="preserve"
   xmlns="http://www.w3.org/2000/svg"
   xmlns:svg="http://www.w3.org/2000/svg"><defs
     id="defs2" /><g
     id="layer1"
     transform="translate(-102.71983,-72.154576)"><path
       style="fill:#000000;stroke-width:0.139449"
       d="m 104.6912,95.017631 c -0.21561,-0.354552 -0.27109,-0.864542 -0.35269,-3.242192 -0.15131,-4.40925 -0.76874,-11.41224 -1.2139,-13.76821 -0.15216,-0.80532 -0.31431,-2.25051 -0.36034,-3.21153 -0.0827,-1.7276 -0.0797,-1.75198 0.27223,-2.16146 l 0.35591,-0.41415 2.09425,-0.0448 c 2.84803,-0.0609 2.73955,-0.17142 2.62838,2.6788 -0.0452,1.15897 -0.17517,2.52616 -0.28882,3.03819 -0.12345,0.55614 -0.24073,2.10013 -0.29132,3.83485 -0.23471,8.04906 -0.8303,12.33807 -1.8557,13.363472 -0.45506,0.45506 -0.67683,0.43867 -0.988,-0.073 z"
       id="tooth25" /></g></svg>
