<?xml version="1.0" encoding="UTF-8" standalone="no"?>
<!-- Created with Inkscape (http://www.inkscape.org/) -->

<svg
   width="6.8753171mm"
   height="23.8484mm"
   viewBox="0 0 6.8753171 23.8484"
   version="1.1"
   id="svg5"
   xml:space="preserve"
   xmlns="http://www.w3.org/2000/svg"
   xmlns:svg="http://www.w3.org/2000/svg"><defs
     id="defs2" /><g
     id="layer1"
     transform="translate(-145.84961,-45.03473)"><path
       id="tooth13"
       style="fill:#000000;stroke-width:0.139449"
       d="m 150.66016,45.082031 c -0.1436,0.07698 -0.28752,0.242849 -0.42188,0.466797 -1.03858,1.731128 -2.38879,7.856325 -2.91992,13.832031 -0.0476,0.535689 -0.12216,1.160559 -0.16602,1.382813 l -0.14062,0.710937 0.80664,-0.728515 c 0.31735,-0.286699 0.729,-0.574725 0.90234,-0.640625 0.17631,-0.06706 0.6249,-0.126953 0.99219,-0.126953 0.5434,0 0.73872,0.07272 1.27539,0.482422 l 0.86914,0.664062 -0.14258,-0.708984 c -0.27376,-1.368835 -0.52397,-6.917089 -0.48242,-10.810547 0.0337,-3.154005 0.0152,-4.284713 -0.15234,-4.453125 -0.13366,-0.134715 -0.27633,-0.14729 -0.41992,-0.07031 z m -1.29688,15.128907 c -0.77382,0.08848 -1.52884,0.615551 -2.11328,1.537109 -0.56031,0.883516 -1.40039,3.506317 -1.40039,4.382812 0,0.948901 0.42091,1.52684 1.57227,2.21875 1.06549,0.640327 1.46162,0.675119 2.83007,0.259766 2.07234,-0.628991 2.59881,-1.380179 2.44922,-3.5 -0.0958,-1.357084 -0.634,-3.121846 -1.18164,-3.839844 -0.60574,-0.794174 -1.37819,-1.147563 -2.15625,-1.058593 z" /></g></svg>
