<?xml version="1.0" encoding="UTF-8" standalone="no"?>
<!-- Created with Inkscape (http://www.inkscape.org/) -->

<svg
   width="9.8839483mm"
   height="19.490822mm"
   viewBox="0 0 9.8839483 19.490822"
   version="1.1"
   id="svg5"
   xml:space="preserve"
   xmlns="http://www.w3.org/2000/svg"
   xmlns:svg="http://www.w3.org/2000/svg"><defs
     id="defs2" /><g
     id="layer1"
     transform="translate(-23.802867,-49.845846)"><path
       style="fill:#000000;stroke-width:0.139449"
       d="m 30.415618,69.165279 c -0.306788,-0.0976 -0.868155,-0.37578 -1.247481,-0.61819 -0.379327,-0.24241 -0.76559,-0.44075 -0.858363,-0.44075 -0.09277,0 -0.431562,0.21963 -0.752863,0.48807 -0.655873,0.54797 -1.150526,0.61811 -1.854626,0.26298 -1.189495,-0.59995 -1.788517,-1.59505 -1.879842,-3.12282 -0.05324,-0.89064 -0.01046,-1.17179 0.286478,-1.88256 0.418261,-1.00119 0.79961,-3.59621 0.795735,-5.41484 -0.0034,-1.58519 -0.301288,-3.87243 -0.683685,-5.24908 -0.486173,-1.75025 -0.303345,-2.49469 0.569784,-2.32007 0.374235,0.0749 0.395521,0.0528 0.395521,-0.40985 0,-0.53556 0.214831,-0.70098 0.739368,-0.56933 0.400028,0.10041 1.329894,0.96176 1.804981,1.67199 0.344964,0.5157 0.365429,0.52538 0.516002,0.24403 0.248021,-0.46343 0.664365,-0.34665 1.405124,0.39411 2.059941,2.05994 2.937646,4.66276 3.342139,9.91106 0.10059,1.30518 0.258828,2.33122 0.44635,2.89422 0.591466,1.77577 0.08884,3.50726 -1.186145,4.08612 -0.674346,0.30616 -1.061901,0.32195 -1.838477,0.0749 z"
       id="tooth01" /></g></svg>
