<?xml version="1.0" encoding="UTF-8" standalone="no"?>
<!-- Created with Inkscape (http://www.inkscape.org/) -->

<svg
   width="5.4328208mm"
   height="23.198891mm"
   viewBox="0 0 5.4328208 23.198891"
   version="1.1"
   id="svg5"
   xml:space="preserve"
   xmlns="http://www.w3.org/2000/svg"
   xmlns:svg="http://www.w3.org/2000/svg"><defs
     id="defs2" /><g
     id="layer1"
     transform="translate(-109.83584,-72.220089)"><path
       style="fill:#000000;stroke-width:0.139449"
       d="m 112.28561,95.090991 c -1.01128,-1.091192 -1.61659,-5.467822 -1.8324,-13.248912 -0.0545,-1.9663 -0.15936,-3.36832 -0.29195,-3.90458 -0.11377,-0.46018 -0.24278,-1.8418 -0.28667,-3.07027 -0.0726,-2.0324 -0.0574,-2.25221 0.16935,-2.44036 0.19646,-0.16305 0.70433,-0.20678 2.40126,-0.20678 h 2.1521 l 0.35624,0.41415 c 0.35322,0.41065 0.35547,0.42896 0.26541,2.16146 -0.05,0.96102 -0.18444,2.21795 -0.29886,2.79318 -0.43794,2.20174 -1.11905,9.81821 -1.26963,14.19758 -0.0814,2.36628 -0.1372,2.87913 -0.35193,3.232222 -0.31055,0.51067 -0.58829,0.5305 -1.01292,0.0723 z"
       id="tooth24" /></g></svg>
