<?xml version="1.0" encoding="UTF-8" standalone="no"?>
<!-- Created with Inkscape (http://www.inkscape.org/) -->

<svg
   width="7.7896233mm"
   height="23.682926mm"
   viewBox="0 0 7.7896233 23.682926"
   version="1.1"
   id="svg5"
   xml:space="preserve"
   xmlns="http://www.w3.org/2000/svg"
   xmlns:svg="http://www.w3.org/2000/svg"><defs
     id="defs2" /><g
     id="layer1"
     transform="translate(-137.09759,-45.543187)"><path
       style="fill:#000000;stroke-width:0.139449"
       d="m 139.41747,68.792749 c -1.86142,-0.93016 -2.57667,-2.18324 -2.23907,-3.9227 0.0937,-0.4826 0.34814,-1.31672 0.5655,-1.8536 0.337,-0.83241 0.39544,-1.17122 0.3969,-2.30091 0.007,-5.29212 1.27229,-12.63604 2.44158,-14.16906 1.014,-1.32943 2.47298,-1.33886 3.27554,-0.0212 0.26538,0.43571 0.27331,0.63013 0.19201,4.70768 -0.11399,5.71635 0.099,10.51916 0.52037,11.73312 0.22465,0.64725 0.31024,1.22627 0.3166,2.14206 0.0108,1.54759 -0.2532,2.13306 -1.3336,2.9579 -1.68923,1.28964 -2.66585,1.46123 -4.13583,0.72667 z"
       id="tooth12" /></g></svg>
