<?xml version="1.0" encoding="UTF-8" standalone="no"?>
<!-- Created with Inkscape (http://www.inkscape.org/) -->

<svg
   width="6.9955645mm"
   height="24.613642mm"
   viewBox="0 0 6.9955645 24.613642"
   version="1.1"
   id="svg5"
   xml:space="preserve"
   xmlns="http://www.w3.org/2000/svg"
   xmlns:svg="http://www.w3.org/2000/svg"><defs
     id="defs2" /><g
     id="layer1"
     transform="translate(-118.86124,-44.443974)"><path
       style="fill:#000000;stroke-width:0.139449"
       d="m 119.71503,68.856129 c -0.67938,-0.43728 -0.87993,-0.97393 -0.85114,-2.27754 0.0291,-1.31897 0.31703,-3.03323 0.71753,-4.2725 0.28445,-0.88018 0.33862,-1.22401 0.56918,-3.61256 0.521,-5.3975 1.40624,-9.71436 2.39733,-11.69057 0.46079,-0.9188 1.3077,-1.89878 2.023,-2.34086 0.39542,-0.24438 0.54185,-0.26999 0.81978,-0.14336 0.30643,0.13962 0.33806,0.23672 0.33509,1.02872 -0.002,0.481 -0.12759,1.34202 -0.27953,1.91337 -0.44202,1.66223 -0.59571,3.9313 -0.49165,7.2584 0.0989,3.1613 0.38532,6.75617 0.62222,7.80915 0.1825,0.81113 0.36064,4.44755 0.24119,4.92346 -0.0505,0.20117 -0.25149,0.52546 -0.44667,0.72064 -0.66112,0.66112 -1.23396,0.80987 -3.33768,0.86671 -1.65649,0.0447 -2.0078,0.017 -2.31865,-0.18306 z"
       id="tooth10" /></g></svg>
