<?xml version="1.0" encoding="UTF-8" standalone="no"?>
<!-- Created with Inkscape (http://www.inkscape.org/) -->

<svg
   width="7.4335876mm"
   height="24.261713mm"
   viewBox="0 0 7.4335876 24.261713"
   version="1.1"
   id="svg5"
   xml:space="preserve"
   xmlns="http://www.w3.org/2000/svg"
   xmlns:svg="http://www.w3.org/2000/svg"><defs
     id="defs2" /><g
     id="layer1"
     transform="translate(-136.27304,-73.267878)"><path
       style="fill:#000000;stroke-width:0.139449"
       d="m 141.24891,97.256451 c -0.2459,-0.14994 -0.63788,-0.60465 -0.87106,-1.01049 -1.24412,-2.165302 -2.74726,-8.868912 -3.35484,-14.961682 -0.0918,-0.92036 -0.25365,-1.9244 -0.3597,-2.23119 -0.10606,-0.30678 -0.25238,-0.9464 -0.32515,-1.42136 -0.23383,-1.52598 0.10312,-2.13288 1.98407,-3.57356 1.5097,-1.15635 1.77265,-1.11567 3.89324,0.60228 1.48711,1.20474 1.75151,1.99958 1.27568,3.83485 -0.99507,3.8379 -1.38783,11.00104 -0.82909,15.12092 0.13169,0.97108 0.19404,1.977052 0.14173,2.286712 -0.17798,1.05344 -0.53718,1.62932 -1.01461,1.62665 -0.0512,-2.8e-4 -0.29437,-0.1232 -0.54027,-0.27313 z"
       id="tooth21" /></g></svg>
