<?xml version="1.0" encoding="UTF-8" standalone="no"?>
<!-- Created with Inkscape (http://www.inkscape.org/) -->

<svg
   width="11.73441mm"
   height="21.075235mm"
   viewBox="0 0 11.73441 21.075235"
   version="1.1"
   id="svg5"
   xml:space="preserve"
   xmlns="http://www.w3.org/2000/svg"
   xmlns:svg="http://www.w3.org/2000/svg"><defs
     id="defs2" /><g
     id="layer1"
     transform="translate(-170.25391,-73.320818)"><path
       id="tooth18"
       style="fill:#000000;stroke-width:0.139449"
       d="m 172.0918,73.322266 c -0.67264,0.02707 -1.17847,0.424659 -1.55469,1.162109 -0.22188,0.434917 -0.2832,0.856055 -0.2832,1.755859 0,2.874484 1.22828,3.950268 4.02929,3.521485 0.96789,-0.148163 1.17069,-0.142079 1.72657,0.05078 1.19881,0.415953 1.74583,0.455639 2.68164,0.177734 0.70251,-0.208626 1.41916,-0.813798 1.97461,-1.646484 0.35764,-0.536161 0.32732,-2.464723 -0.0293,-3.25 -0.63374,-1.395438 -2.17273,-1.702811 -3.9336,-0.835938 -1.11901,0.550887 -1.44337,0.548497 -2.18945,0.03516 -0.96584,-0.664514 -1.76781,-0.99703 -2.42187,-0.970703 z m 8.58203,5.689453 -0.8711,0.638672 c -0.97362,0.714703 -1.74469,0.860187 -3.01953,0.5625 -1.07299,-0.250554 -1.50781,-0.274378 -3.43554,-0.191407 -0.91622,0.03944 -1.18569,-7.59e-4 -1.66016,-0.238281 -0.28216,-0.141048 -0.50461,-0.284973 -0.64062,-0.15625 -0.0396,0.03746 -0.059,0.09006 -0.0684,0.142578 -0.0423,0.236502 0.0631,0.770546 0.25195,1.88086 0.77783,4.572738 1.83802,8.592774 2.74609,10.384765 0.46756,0.922696 1.53079,2.061157 2.1211,2.232422 0.30256,0.08778 0.46889,0.138043 0.57812,0.126953 0.1539,-0.01563 0.19325,-0.135372 0.24024,-0.257812 0.16751,-0.43654 0.0927,-0.796833 -0.39649,-2.21875 -0.54925,-1.596419 -1.18555,-4.320916 -1.18555,-5.033203 0,-0.3474 0.0666,-0.478274 0.24219,-0.572266 0.34317,-0.183654 0.61349,0.112517 2.08399,2.759766 1.79714,3.23532 3.1559,5.034361 3.85156,4.90039 0.20079,-0.0386 0.34898,-0.337646 0.42773,-0.710937 0.14203,-0.673275 0.0188,-1.100894 -0.96484,-3.47461 -0.80247,-1.936529 -0.93847,-2.832902 -0.85156,-5.570312 0.0414,-1.302552 0.13737,-2.623459 0.20507,-2.908203 0.0738,-0.310681 0.17583,-0.905991 0.22657,-1.320313 z" /></g></svg>
