<?xml version="1.0" encoding="UTF-8" standalone="no"?>
<!-- Created with Inkscape (http://www.inkscape.org/) -->

<svg
   width="13.892623mm"
   height="23.691711mm"
   viewBox="0 0 13.892623 23.691711"
   version="1.1"
   id="svg5"
   xml:space="preserve"
   xmlns="http://www.w3.org/2000/svg"
   xmlns:svg="http://www.w3.org/2000/svg"><defs
     id="defs2" /><g
     id="layer1"
     transform="translate(-155.86055,-73.001689)"><path
       style="fill:#000000;stroke-width:0.139449"
       d="m 167.68029,95.921441 c -1.50694,-1.13726 -2.14354,-2.065562 -4.35416,-6.349172 -1.1707,-2.26853 -1.45379,-2.51239 -1.84093,-1.58582 -0.559,1.33785 -0.38265,2.98124 0.52935,4.93298 0.3529,0.75523 0.41016,1.02529 0.36114,1.70302 -0.0974,1.346472 -0.67488,1.701832 -1.60921,0.990222 -1.46653,-1.116922 -2.60339,-2.897282 -3.11335,-4.875592 -0.43565,-1.69009 -0.60491,-3.93493 -0.39729,-5.26933 0.37859,-2.43333 0.14491,-4.82426 -0.63835,-6.53126 -1.17463,-2.55993 -0.96972,-4.7622 0.52808,-5.67546 0.83916,-0.51166 2.4055,-0.24307 3.50992,0.60187 0.24873,0.19029 0.33754,0.17285 0.98742,-0.19392 0.61096,-0.3448 0.86476,-0.40302 1.75691,-0.40302 0.94527,0 1.11892,0.0458 1.85681,0.49017 0.7236,0.43573 0.88672,0.48052 1.46873,0.40332 0.67509,-0.0896 1.29816,0.11648 1.65594,0.54758 0.52861,0.63694 0.45989,3.21936 -0.13132,4.93456 -0.43692,1.26758 -0.64099,4.57698 -0.43874,7.11491 0.18783,2.3571 0.51855,4.02933 1.15166,5.82316 0.24362,0.69027 0.53885,1.57731 0.65604,1.9712 0.33366,1.121432 0.0197,2.142542 -0.65871,2.142542 -0.14138,0 -0.71734,-0.34738 -1.27994,-0.77196 z"
       id="tooth19" /></g></svg>
