<?xml version="1.0" encoding="UTF-8" standalone="no"?>
<!-- Created with Inkscape (http://www.inkscape.org/) -->

<svg
   width="7.1614637mm"
   height="23.044519mm"
   viewBox="0 0 7.1614637 23.044519"
   version="1.1"
   id="svg5"
   xml:space="preserve"
   xmlns="http://www.w3.org/2000/svg"
   xmlns:svg="http://www.w3.org/2000/svg"><defs
     id="defs2" /><g
     id="layer1"
     transform="translate(-73.375061,-45.833984)"><path
       id="tooth05"
       style="fill:#000000;stroke-width:0.139449"
       d="m 75.710938,45.833984 c -0.447003,0 -1.052217,0.384788 -1.277344,0.804688 -0.126265,0.235506 -0.175292,2.381794 -0.191406,7.103516 -0.01269,3.719695 -0.0781,6.952133 -0.132813,7.15625 l -0.205078,0.773437 0.78125,-0.771484 c 0.282478,-0.278143 0.713553,-0.598283 0.955078,-0.712891 0.563518,-0.267413 1.581368,-0.267283 2.144531,0 0.243299,0.115447 0.698617,0.427023 1.009766,0.693359 l 0.736328,0.63086 V 60.34375 c -0.0025,-1.97095 -0.440984,-6.673083 -0.765625,-8.208984 -0.441521,-2.088863 -1.122005,-4.60313 -1.378906,-5.060547 -0.365872,-0.651554 -1.13937,-1.240235 -1.675781,-1.240235 z m 0.978515,14.363282 c -1.309062,0 -2.370596,1.074268 -2.972656,2.927734 -0.346349,1.066244 -0.431437,2.056434 -0.246094,2.949219 0.145617,0.701446 0.281681,0.917567 0.912109,1.484375 1.441637,1.296159 2.566291,1.620369 3.826172,1.048828 0.828862,-0.376012 1.805428,-1.18294 2.097657,-1.748047 0.68611,-1.326787 -0.246375,-4.432452 -1.701172,-5.773437 -0.737066,-0.679398 -1.18049,-0.888672 -1.916016,-0.888672 z" /></g></svg>
