<?xml version="1.0" encoding="UTF-8" standalone="no"?>
<!-- Created with Inkscape (http://www.inkscape.org/) -->

<svg
   width="7.5057373mm"
   height="24.484461mm"
   viewBox="0 0 7.5057373 24.484461"
   version="1.1"
   id="svg5"
   xml:space="preserve"
   xmlns="http://www.w3.org/2000/svg"
   xmlns:svg="http://www.w3.org/2000/svg"><defs
     id="defs2" /><g
     id="layer1"
     transform="translate(-145.55133,-44.714751)"><path
       style="fill:#000000;stroke-width:0.139449"
       d="m 147.77005,68.934769 c -0.88922,-0.40339 -1.82092,-1.21289 -2.06309,-1.79249 -0.30786,-0.73681 -0.15931,-1.94276 0.44865,-3.64203 0.43875,-1.22633 0.56517,-1.85045 0.79004,-3.90031 0.7682,-7.00268 1.93827,-12.50863 3.04412,-14.32465 0.36325,-0.59653 0.90477,-0.73363 1.30604,-0.33066 0.29693,0.29818 0.30047,0.35893 0.25716,4.41111 -0.0567,5.30659 0.35989,11.91159 0.80363,12.74074 0.29676,0.55448 0.70249,2.62207 0.70046,3.5695 -0.004,1.80607 -0.62147,2.57212 -2.57724,3.19663 -1.34111,0.42825 -1.89247,0.44293 -2.70977,0.0722 z"
       id="tooth13" /></g></svg>
