<?xml version="1.0" encoding="UTF-8" standalone="no"?>
<!-- Created with Inkscape (http://www.inkscape.org/) -->

<svg
   width="9.2247906mm"
   height="18.833059mm"
   viewBox="0 0 9.2247906 18.833059"
   version="1.1"
   id="svg5"
   xml:space="preserve"
   xmlns="http://www.w3.org/2000/svg"
   xmlns:svg="http://www.w3.org/2000/svg"><defs
     id="defs2" /><g
     id="layer1"
     transform="translate(-23.490313,-50.167969)"><path
       id="tooth01"
       style="fill:#000000;stroke-width:0.139449"
       d="m 25.103516,50.167969 c -0.186846,0 -0.244141,0.340956 -0.244141,0.652343 0,0.424193 0.07538,0.652897 0.326172,0.78711 0.363554,0.194569 1.433864,1.736318 1.902344,2.769531 0.363427,0.801522 0.679213,1.778117 0.90039,2.78125 0.06221,0.282159 0.125765,0.515872 0.279297,0.462891 0.09312,-0.03214 0.107624,-0.161118 0.117188,-0.28711 0.01597,-0.210321 0.0087,-0.574043 -0.02539,-1.054687 -0.101696,-1.432714 -0.558213,-2.921652 -1.248047,-4.064453 -0.465999,-0.771979 -1.66941,-2.046875 -2.007813,-2.046875 z m -1.123047,1.070312 c -0.200211,0.02631 -0.3208,0.18817 -0.34961,0.4375 -0.02629,0.227539 0.05915,0.743128 0.183594,1.15625 0.655478,2.175966 0.918449,5.426355 0.636719,7.882813 -0.09227,0.804568 -0.204272,1.608501 -0.242188,1.765625 -0.02611,0.108205 -0.05734,0.238912 0.03711,0.300781 0.06677,0.04374 0.149178,0.01808 0.222656,-0.01367 0.119072,-0.05145 0.312361,-0.165277 0.615234,-0.347656 2.212427,-1.332257 4.358302,-1.133336 6.210938,0.572266 0.350717,0.322885 0.620316,0.565008 0.621094,0.566406 0.218721,0.385979 0.188278,-0.06067 0.1875,-0.07422 -0.007,-0.121066 -0.05093,-0.766385 -0.103516,-1.542969 -0.231038,-3.411808 -0.909803,-6.287994 -1.835938,-7.75 -0.440569,-0.695478 -1.624895,-2.024546 -2.021484,-2.289062 -0.04554,-0.03038 -0.106972,-0.06055 -0.152344,-0.06055 -0.114814,0 -0.159217,0.10935 -0.173828,0.201172 -0.05292,0.332583 0.10919,1.189016 0.396485,2.091797 0.48013,1.508717 0.409976,4.486552 -0.01367,5.035156 -0.03172,0.04107 -0.05203,0.04656 -0.07031,0.05078 -0.07287,-0.115412 -0.16278,-0.503717 -0.242187,-1.132812 -0.208002,-1.647899 -0.887707,-3.632889 -1.642578,-4.785157 -0.849327,-1.296452 -1.762674,-2.130278 -2.263672,-2.064453 z m 4.140625,10.550781 c -1.124537,-0.07121 -2.271078,0.28902 -3.320313,1.082032 -1.052205,0.795264 -1.357968,1.437164 -1.304687,2.740234 0.05137,1.256349 0.3682,2.007774 1.130859,2.615234 0.282541,0.225053 0.750424,0.451519 1.037109,0.498047 0.442149,0.07169 0.636684,-0.0021 1.054688,-0.36914 0.729846,-0.640818 1.033574,-0.65959 1.921875,-0.111328 1.414339,0.872928 2.383036,0.995259 3.208984,0.34375 1.371551,-1.081874 1.063058,-3.705907 -0.572265,-5.306641 -0.938819,-0.918963 -2.031681,-1.420975 -3.15625,-1.492188 z" /></g></svg>
