<?xml version="1.0" encoding="UTF-8" standalone="no"?>
<!-- Created with Inkscape (http://www.inkscape.org/) -->

<svg
   width="9.2448196mm"
   height="18.859699mm"
   viewBox="0 0 9.2448196 18.859699"
   version="1.1"
   id="svg5"
   xml:space="preserve"
   xmlns="http://www.w3.org/2000/svg"
   xmlns:svg="http://www.w3.org/2000/svg"><defs
     id="defs2" /><g
     id="layer1"
     transform="translate(-184.63409,-50.1582)"><path
       id="tooth16"
       style="fill:#000000;stroke-width:0.139449"
       d="m 192.21875,50.158203 c -0.14577,0 -0.60841,0.408105 -1.06055,0.873047 -1.31854,1.355868 -2.03593,3.149068 -2.15234,5.355469 l -0.0703,1.324219 0.19531,0.0332 0.34961,-1.253907 c 0.19047,-0.684644 0.63915,-1.829255 0.99609,-2.542968 0.39687,-0.793559 0.90407,-1.555412 1.3086,-1.970704 0.5458,-0.56037 0.69922,-0.821962 0.69922,-1.240234 0,-0.2913 -0.0704,-0.578125 -0.26563,-0.578125 z m 1.12891,1.003906 c -0.2067,-0.03916 -0.66723,0.298569 -1.1836,0.791016 -1.40541,1.340272 -2.4883,3.877596 -2.74804,6.416016 -0.0507,0.495162 -0.12052,0.771006 -0.1836,0.845703 -0.0198,-0.0022 -0.0461,-0.011 -0.082,-0.05664 -0.42982,-0.546444 -0.50203,-3.5129 -0.0176,-5.035156 0.2915,-0.915996 0.45085,-1.7657 0.39258,-2.095703 -0.0161,-0.09149 -0.0651,-0.197266 -0.17773,-0.197266 -0.0613,0 -0.12184,0.03232 -0.17969,0.07031 -0.4905,0.322103 -1.82245,1.943181 -2.22656,2.746093 -0.82578,1.640683 -1.36743,3.984269 -1.55274,6.691407 -0.0471,0.68938 -0.12002,1.465655 -0.16015,1.720703 l -0.11914,0.753906 0.89453,-0.804688 c 0.37124,-0.333782 1.02373,-0.781776 1.45117,-0.998046 1.47771,-0.747652 3.11443,-0.621617 4.7832,0.384765 0.48885,0.294809 0.7773,0.458125 0.87695,0.292969 0.0299,-0.04953 0.021,-0.1143 0.008,-0.158203 -0.0305,-0.10164 -0.14272,-0.911098 -0.23243,-1.753906 -0.27369,-2.571044 -0.0152,-5.784474 0.63868,-7.955079 0.27347,-0.907863 0.25754,-1.574919 -0.18164,-1.658203 z m -3.89063,10.638672 c -0.89484,0 -1.20653,0.06812 -1.91797,0.427735 -1.69166,0.855186 -2.72678,2.25702 -2.88476,3.929687 -0.0858,0.908774 0.10049,1.619485 0.58008,2.158203 0.60791,0.682828 1.29356,0.860201 2.17578,0.5625 0.27106,-0.0915 0.77783,-0.361603 1.12695,-0.597656 0.8262,-0.558614 1.38911,-0.549172 2.02344,0.0078 0.62402,0.54788 0.95022,0.584392 1.71289,0.195313 1.04202,-0.531597 1.60547,-1.624019 1.60547,-3.054687 0,-1.490249 -0.66978,-2.352621 -2.42579,-3.1875 -0.77054,-0.366349 -1.10789,-0.441407 -1.99609,-0.441407 z" /></g></svg>
