<?xml version="1.0" encoding="UTF-8" standalone="no"?>
<!-- Created with Inkscape (http://www.inkscape.org/) -->

<svg
   width="4.7975359mm"
   height="22.623262mm"
   viewBox="0 0 4.7975359 22.623262"
   version="1.1"
   id="svg5"
   xml:space="preserve"
   xmlns="http://www.w3.org/2000/svg"
   xmlns:svg="http://www.w3.org/2000/svg"><defs
     id="defs2" /><g
     id="layer1"
     transform="translate(-103.04041,-72.46875)"><path
       id="tooth25"
       style="fill:#000000;stroke-width:0.139449"
       d="m 105.55078,72.46875 c -1.71285,0 -1.91774,0.02121 -2.22461,0.328125 -0.31496,0.314967 -0.32259,0.464295 -0.24414,1.994141 0.0899,1.752755 0.55623,4.458427 0.88477,5.09375 0.50459,0.975783 1.64814,1.171031 2.49023,0.43164 0.81895,-0.71903 1.37536,-3.216531 1.38086,-6.011718 0.002,-0.909058 -0.0501,-1.493466 -0.19531,-1.638672 -0.15022,-0.150221 -0.83435,-0.197266 -2.0918,-0.197266 z m 1.71875,7.589844 -0.76953,0.544922 c -0.73559,0.518499 -1.48492,0.551356 -2.08008,0.111328 l -0.60937,-0.451172 0.11718,1.253906 c 0.34443,3.668015 0.64079,7.822914 0.72461,10.160156 0.0537,1.49588 0.15546,2.886484 0.23047,3.087891 0.0626,0.168145 0.1097,0.305386 0.22266,0.324219 0.11296,0.01883 0.20466,-0.08749 0.33984,-0.222656 0.16728,-0.167282 0.41443,-0.646857 0.5625,-1.072266 0.52789,-1.51646 0.92765,-4.720356 1.0625,-8.462891 0.0442,-1.227069 0.10635,-2.869726 0.13672,-3.65039 z" /></g></svg>
