<?xml version="1.0" encoding="UTF-8" standalone="no"?>
<!-- Created with Inkscape (http://www.inkscape.org/) -->

<svg
   width="7.7274718mm"
   height="24.447021mm"
   viewBox="0 0 7.7274718 24.447021"
   version="1.1"
   id="svg5"
   xml:space="preserve"
   xmlns="http://www.w3.org/2000/svg"
   xmlns:svg="http://www.w3.org/2000/svg"><defs
     id="defs2" /><g
     id="layer1"
     transform="translate(-145.88835,-73.35275)"><path
       style="fill:#000000;stroke-width:0.139449"
       d="m 149.93221,97.456581 c -0.44979,-0.48533 -1.21506,-2.00281 -1.65971,-3.291102 -0.79021,-2.28947 -1.09033,-4.31315 -1.3499,-9.10226 -0.15289,-2.82091 -0.38593,-4.56024 -0.79593,-5.9404 -0.13752,-0.46295 -0.23167,-1.3013 -0.23751,-2.11494 -0.0111,-1.55333 0.0739,-1.70572 1.45454,-2.60719 2.03467,-1.32849 2.37368,-1.35382 4.05037,-0.30261 0.64844,0.40654 1.34767,0.91567 1.55385,1.1314 0.67243,0.70358 0.85398,2.09892 0.46765,3.59431 -0.11184,0.43291 -0.30094,1.72838 -0.42023,2.87884 -0.11928,1.15045 -0.43413,3.40953 -0.69966,5.02016 -0.68388,4.14826 -0.76848,4.99191 -0.76872,7.66605 -1.4e-4,1.981062 -0.0406,2.455122 -0.24404,2.862362 -0.32331,0.6472 -0.86493,0.72955 -1.35071,0.20538 z"
       id="tooth20" /></g></svg>
