<?xml version="1.0" encoding="UTF-8" standalone="no"?>
<!-- Created with Inkscape (http://www.inkscape.org/) -->

<svg
   width="6.4205651mm"
   height="24.039703mm"
   viewBox="0 0 6.4205651 24.039703"
   version="1.1"
   id="svg5"
   xml:space="preserve"
   xmlns="http://www.w3.org/2000/svg"
   xmlns:svg="http://www.w3.org/2000/svg"><defs
     id="defs2" /><g
     id="layer1"
     transform="translate(-92.406254,-44.71875)"><path
       id="tooth07"
       style="fill:#000000;stroke-width:0.139449"
       d="m 92.796875,44.71875 c -0.07301,0 -0.116848,0.04761 -0.142578,0.09375 -0.162339,0.291108 -0.0478,1.61822 0.212891,2.623047 0.486723,1.876093 0.629057,4.694415 0.435546,8.847656 -0.09383,2.01389 -0.211406,3.796541 -0.261718,3.988281 -0.02991,0.113992 -0.06238,0.258292 0.05078,0.306641 0.07041,0.03008 0.150065,-0.01208 0.214844,-0.05664 0.106601,-0.07334 0.275206,-0.221171 0.53125,-0.451172 0.478836,-0.430125 0.874277,-0.661237 1.203125,-0.716796 0.645263,-0.109012 1.067709,0.05641 1.822265,0.751953 0.302313,0.278663 0.543452,0.559958 0.705078,0.384765 0.162826,-0.176492 0.04251,-0.977409 -0.193359,-3.0625 -0.660304,-5.83698 -1.533118,-9.393933 -2.75,-11.158203 -0.349821,-0.507177 -1.537769,-1.550781 -1.828125,-1.550781 z m 2.263672,14.859375 c -0.306011,0.061 -0.613476,0.234389 -0.957031,0.517578 -1.161678,0.957553 -1.47947,2.057625 -1.613282,5.357422 l -0.08398,2.066406 0.431641,0.404297 c 0.676125,0.625248 1.525996,0.826517 3.34375,0.833984 1.429854,0.006 1.694745,-0.02537 2.044921,-0.300781 0.572668,-0.450449 0.694548,-1.133575 0.53711,-2.636719 -0.342238,-3.267552 -1.283687,-5.388573 -2.765625,-6.091796 -0.326941,-0.155147 -0.62691,-0.212307 -0.9375,-0.150391 z" /></g></svg>
