<?xml version="1.0" encoding="UTF-8" standalone="no"?>
<!-- Created with Inkscape (http://www.inkscape.org/) -->

<svg
   width="7.517355mm"
   height="24.510334mm"
   viewBox="0 0 7.517355 24.510334"
   version="1.1"
   id="svg5"
   xml:space="preserve"
   xmlns="http://www.w3.org/2000/svg"
   xmlns:svg="http://www.w3.org/2000/svg"><defs
     id="defs2" /><g
     id="layer1"
     transform="translate(-64.932302,-44.702078)"><path
       style="fill:#000000;stroke-width:0.139449"
       d="m 68.345775,69.129049 c -0.716661,-0.15554 -1.997724,-0.68122 -2.420676,-0.99332 -0.641386,-0.4733 -0.989002,-1.29716 -0.992765,-2.3529 -0.0036,-1.01178 0.29952,-2.7078 0.621452,-3.47709 0.565609,-1.35157 0.981029,-7.65527 0.840135,-12.74845 -0.111425,-4.02793 -0.03317,-4.67292 0.585783,-4.82827 0.301895,-0.0758 0.446291,-0.006 0.813471,0.39501 0.245532,0.26792 0.587419,0.85783 0.759748,1.3109 0.749534,1.97061 1.810176,7.20179 2.23101,11.00355 0.479933,4.33566 0.527389,4.6104 1.045332,6.05195 0.923647,2.57073 0.832355,3.67142 -0.384271,4.63311 -1.262766,0.99816 -2.012418,1.24138 -3.099219,1.00551 z"
       id="tooth04" /></g></svg>
