<?xml version="1.0" encoding="UTF-8" standalone="no"?>
<!-- Created with Inkscape (http://www.inkscape.org/) -->

<svg
   width="14.495653mm"
   height="19.629633mm"
   viewBox="0 0 14.495653 19.629633"
   version="1.1"
   id="svg5"
   xml:space="preserve"
   xmlns="http://www.w3.org/2000/svg"
   xmlns:svg="http://www.w3.org/2000/svg"><defs
     id="defs2" /><g
     id="layer1"
     transform="translate(-19.025525,-73.696843)"><path
       style="fill:#000000;stroke-width:0.139449"
       d="m 24.499015,93.024259 c -0.176882,-0.46523 -4.74e-4,-1.06446 0.601711,-2.04393 0.622255,-1.01211 1.118362,-2.21303 1.472045,-3.56335 0.400696,-1.52982 0.360722,-1.64244 -0.200676,-0.56539 -1.090373,2.0919 -2.997354,4.25768 -4.440537,5.04315 -0.813824,0.44294 -2.236438,0.55814 -2.650404,0.21463 -0.484216,-0.40181 -0.289479,-0.95902 0.660786,-1.89076 1.778545,-1.74387 2.435973,-3.3651 2.674771,-6.59603 0.11433,-1.54689 -0.136198,-4.07078 -0.498801,-5.02507 -0.480564,-1.26475 -0.335942,-2.89418 0.330386,-3.7224 0.296022,-0.36795 0.421296,-0.41473 1.151583,-0.43009 0.450685,-0.009 1.094013,-0.12176 1.429618,-0.24952 0.763485,-0.29066 1.906107,-0.2979 2.732534,-0.0173 0.604757,0.20532 0.683635,0.19906 1.755186,-0.13945 2.002924,-0.63272 3.19835,-0.39244 3.80073,0.76395 0.350033,0.67195 0.243468,1.97283 -0.285349,3.48344 -0.281852,0.80513 -0.447312,1.61024 -0.515861,2.51009 -0.289744,3.80356 -1.424952,7.11159 -3.200576,9.32657 -1.122716,1.40051 -3.211184,2.96341 -4.23305,3.16778 -0.391951,0.0784 -0.465857,0.0447 -0.584096,-0.2663 z"
       id="tooth32" /></g></svg>
