<?xml version="1.0" encoding="UTF-8" standalone="no"?>
<!-- Created with Inkscape (http://www.inkscape.org/) -->

<svg
   width="7.0456567mm"
   height="27.383472mm"
   viewBox="0 0 7.0456567 27.383472"
   version="1.1"
   id="svg5"
   xml:space="preserve"
   xmlns="http://www.w3.org/2000/svg"
   xmlns:svg="http://www.w3.org/2000/svg"><defs
     id="defs2" /><g
     id="layer1"
     transform="translate(-84.989689,-73.027344)"><path
       id="tooth27"
       style="fill:#000000;stroke-width:0.139449"
       d="m 88.763672,73.027344 c -0.385319,0 -1.562519,0.879886 -2.388672,1.740234 -1.239773,1.291096 -1.396117,1.645447 -1.384766,3.169922 0.01063,1.428363 0.293871,2.57471 0.916016,3.677734 0.904076,1.602871 2.055166,2.133204 3.40625,1.519532 1.047119,-0.475606 1.749956,-1.639675 2.423828,-3.931641 0.520539,-1.770451 0.361709,-3.312553 -0.478516,-4.443359 -0.358248,-0.48214 -2.125147,-1.732422 -2.49414,-1.732422 z m 2.345703,8.74414 -0.628906,0.716797 c -0.711268,0.810089 -1.920369,1.262357 -2.8125,1.066407 -0.2217,-0.04872 -0.712483,-0.363057 -1.078125,-0.705079 -0.33541,-0.313732 -0.66293,-0.572894 -0.794922,-0.46289 -0.0367,0.03059 -0.04533,0.06974 -0.04492,0.101562 0.0016,0.122946 0.06286,0.764425 0.136719,1.455078 0.07381,0.69018 0.239483,2.259176 0.36914,3.486329 0.156647,1.482583 0.238835,3.478782 0.244141,5.986328 0.0073,3.445284 -0.03541,4.084375 -0.414062,6.433593 -0.03864,0.239741 -0.03498,0.436271 0.0957,0.523441 0.17735,0.11829 0.485858,-0.0504 0.939453,-0.378909 0.313494,-0.227093 0.711688,-0.607334 0.882812,-0.847657 1.410727,-1.981177 2.318746,-6.132434 2.746094,-12.488281 0.116023,-1.72559 0.237728,-3.463141 0.271484,-3.859375 z" /></g></svg>
