<?xml version="1.0" encoding="UTF-8" standalone="no"?>
<!-- Created with Inkscape (http://www.inkscape.org/) -->

<svg
   width="4.7998438mm"
   height="22.566542mm"
   viewBox="0 0 4.7998438 22.566542"
   version="1.1"
   id="svg5"
   xml:space="preserve"
   xmlns="http://www.w3.org/2000/svg"
   xmlns:svg="http://www.w3.org/2000/svg"><defs
     id="defs2" /><g
     id="layer1"
     transform="translate(-110.15072,-72.46875)"><path
       id="tooth24"
       style="fill:#000000;stroke-width:0.139449"
       d="m 112.43945,72.46875 c -1.25745,0 -1.94157,0.04708 -2.09179,0.197266 -0.25523,0.255225 -0.25251,2.553008 -0.0488,4.054687 0.20051,1.478331 0.65506,3.001699 1.04101,3.427735 0.64739,0.714619 1.3746,0.845175 2.13282,0.367187 0.18496,-0.116604 0.43055,-0.398117 0.54687,-0.623047 0.33658,-0.650881 0.80714,-3.355378 0.89258,-5.101562 0.0748,-1.527594 0.0641,-1.680052 -0.25,-1.994141 -0.306,-0.305994 -0.51099,-0.328125 -2.22266,-0.328125 z m -1.72851,7.583984 0.0742,2.392578 c 0.17501,5.591387 0.59441,9.638882 1.17578,11.292969 0.26335,0.749275 0.55358,1.245517 0.83008,1.292969 0.0905,0.01554 0.16858,-0.01428 0.23437,-0.08008 0.12243,-0.122429 0.22255,-1.38288 0.28516,-2.962891 0.091,-2.297606 0.35593,-5.954465 0.76757,-10.611328 l 0.0977,-1.109375 -0.60742,0.447266 c -0.59163,0.437409 -1.34394,0.405024 -2.08203,-0.115235 z" /></g></svg>
