<?xml version="1.0" encoding="UTF-8" standalone="no"?>
<!-- Created with Inkscape (http://www.inkscape.org/) -->

<svg
   width="10.530807mm"
   height="22.393467mm"
   viewBox="0 0 10.530807 22.393467"
   version="1.1"
   id="svg5"
   xml:space="preserve"
   xmlns="http://www.w3.org/2000/svg"
   xmlns:svg="http://www.w3.org/2000/svg"><defs
     id="defs2" /><g
     id="layer1"
     transform="translate(-37.15101,-46.910079)"><path
       style="fill:#000000;stroke-width:0.139449"
       d="m 43.733008,69.150009 c -0.345137,-0.11351 -0.874554,-0.43041 -1.176482,-0.70421 -0.317059,-0.28752 -0.641056,-0.46825 -0.76697,-0.42781 -0.119906,0.0385 -0.469018,0.16552 -0.775806,0.28224 -1.037988,0.39491 -1.818174,0.22144 -2.772477,-0.61645 -0.744304,-0.65351 -1.090263,-1.408 -1.090263,-2.37771 0,-0.84074 0.430476,-2.23341 0.825812,-2.67167 0.186298,-0.20652 0.206702,-0.54864 0.137226,-2.30091 -0.04489,-1.13207 -0.185703,-2.90547 -0.312927,-3.94087 -0.253098,-2.05984 -0.202699,-3.72898 0.154313,-5.11059 0.231812,-0.8971 0.781466,-2.05162 1.188026,-2.49539 0.143556,-0.15669 0.335413,-0.50183 0.42635,-0.76697 0.255855,-0.74598 0.541332,-1.10959 0.871153,-1.10959 0.409043,0 0.878808,0.34981 1.134961,0.84516 0.150138,0.29033 0.315268,0.40988 0.566167,0.40988 0.194816,0 0.467191,0.0605 0.605279,0.13437 0.343537,0.18385 1.694206,1.9743 2.295853,3.04339 1.05194,1.86922 1.304097,2.99498 1.552757,6.9323 0.105366,1.66838 0.538922,4.66836 0.856498,5.9265 0.326361,1.29295 0.302121,2.7174 -0.05814,3.41659 -0.702286,1.36298 -2.230498,2.00232 -3.66133,1.53174 z"
       id="tooth02" /></g></svg>
