<?xml version="1.0" encoding="UTF-8" standalone="no"?>
<!-- Created with Inkscape (http://www.inkscape.org/) -->

<svg
   width="6.855865mm"
   height="23.856174mm"
   viewBox="0 0 6.855865 23.856174"
   version="1.1"
   id="svg5"
   xml:space="preserve"
   xmlns="http://www.w3.org/2000/svg"
   xmlns:svg="http://www.w3.org/2000/svg"><defs
     id="defs2" /><g
     id="layer1"
     transform="translate(-65.263662,-45.008983)"><path
       id="tooth04"
       style="fill:#000000;stroke-width:0.139449"
       d="m 67.052734,45.021484 c -0.09305,0.03372 -0.149073,0.126498 -0.185546,0.244141 -0.138972,0.448242 -0.140521,1.66889 -0.113282,4.408203 0.03911,3.932924 -0.182311,8.843226 -0.478515,10.677734 l -0.134766,0.837891 0.613281,-0.556641 c 0.573891,-0.522451 0.898023,-0.654296 1.587891,-0.654296 0.776967,0 1.368907,0.250909 1.875,0.789062 0.203258,0.216137 0.376694,0.394924 0.4375,0.441406 0.0068,0.0052 0.02404,0.02539 0.07031,0.02539 0.104254,0 0.09972,-0.08208 0.101563,-0.09375 0.01096,-0.06956 -0.004,-0.351268 -0.0332,-0.679687 -0.631758,-7.096682 -2.156706,-14.205412 -3.306641,-15.246094 -0.145385,-0.131572 -0.29306,-0.244293 -0.433594,-0.19336 z m 1.34961,15.175782 c -0.84502,-9.89e-4 -1.646905,0.525876 -2.205078,1.552734 -0.847073,1.558049 -1.197596,4.07864 -0.714844,5.285156 0.287147,0.717645 0.920418,1.152353 2.21875,1.574219 1.319375,0.428708 2.016994,0.336214 3.113281,-0.412109 1.119928,-0.764458 1.39123,-1.23895 1.283203,-2.322266 -0.108043,-1.083487 -0.840409,-3.314132 -1.355468,-4.125 -0.649974,-1.023263 -1.498672,-1.55175 -2.339844,-1.552734 z" /></g></svg>
