<?xml version="1.0" encoding="UTF-8" standalone="no"?>
<!-- Created with Inkscape (http://www.inkscape.org/) -->

<svg
   width="11.538245mm"
   height="22.868299mm"
   viewBox="0 0 11.538245 22.868299"
   version="1.1"
   id="svg5"
   xml:space="preserve"
   xmlns="http://www.w3.org/2000/svg"
   xmlns:svg="http://www.w3.org/2000/svg"><defs
     id="defs2" /><g
     id="layer1"
     transform="translate(-51.158508,-46.491729)"><path
       style="fill:#000000;stroke-width:0.139449"
       d="m 53.552471,69.153979 c -0.961292,-0.30354 -1.43835,-0.61387 -1.812234,-1.17884 -0.306021,-0.46243 -0.357737,-0.69331 -0.353127,-1.57644 0.0055,-1.06247 0.50952,-3.01203 0.953981,-3.69036 0.176912,-0.27 0.199402,-0.72976 0.136798,-2.79649 -0.06773,-2.2359 -0.122602,-2.6608 -0.571541,-4.42565 -0.876447,-3.44546 -0.981361,-5.75571 -0.320831,-7.06474 0.409999,-0.81253 0.792284,-0.86267 1.429088,-0.18746 0.263912,0.27982 0.486629,0.61412 0.494927,0.74288 0.0083,0.12876 0.09928,-0.22706 0.202186,-0.79071 0.217481,-1.19124 0.496705,-1.69444 0.940231,-1.69444 0.580107,0 1.507297,0.85431 2.077442,1.91416 l 0.317064,0.5894 0.211617,-0.44995 c 0.289443,-0.61542 0.741317,-0.64453 1.562421,-0.10066 0.999057,0.66175 1.672111,1.40906 2.167918,2.4071 0.843009,1.69694 0.930245,2.35715 0.897984,6.79588 -0.02945,4.0519 0.01881,4.66341 0.522746,6.62383 0.471155,1.83289 0.358212,3.36877 -0.300383,4.08481 -0.434394,0.47228 -1.604569,1.00207 -2.216983,1.00372 -0.665318,0.002 -1.51631,-0.30744 -2.266525,-0.8236 l -0.607403,-0.4179 -0.31518,0.33549 c -0.754167,0.80278 -1.969448,1.07281 -3.150196,0.69997 z"
       id="tooth03" /></g></svg>
