<?xml version="1.0" encoding="UTF-8" standalone="no"?>
<!-- Created with Inkscape (http://www.inkscape.org/) -->

<svg
   width="13.838547mm"
   height="18.963192mm"
   viewBox="0 0 13.838547 18.963192"
   version="1.1"
   id="svg5"
   xml:space="preserve"
   xmlns="http://www.w3.org/2000/svg"
   xmlns:svg="http://www.w3.org/2000/svg"><defs
     id="defs2" /><g
     id="layer1"
     transform="translate(-19.386545,-74.028209)"><path
       id="tooth32"
       style="fill:#000000;stroke-width:0.139449"
       d="m 31,74.042969 c -0.532857,0.04322 -1.136477,0.179354 -1.708984,0.398437 -0.771671,0.295302 -0.7872,0.295323 -1.482422,0.07617 -1.012689,-0.319219 -2.055495,-0.299773 -2.96875,0.06055 -0.495782,0.195611 -0.869683,0.255346 -1.197266,0.203125 -0.39735,-0.06339 -0.629174,-0.01926 -0.835937,0.1875 -0.884479,0.884486 -0.86421,3.16189 0.02344,4.216797 0.692943,0.823514 1.365076,1.021748 3.056641,0.955078 0.922573,-0.03634 1.416222,-0.137073 2.126953,-0.441406 0.772344,-0.330726 1.109114,-0.390267 2.566406,-0.44336 l 1.761719,-0.0625 0.242187,-0.642578 C 33.501028,76.13811 33.453662,74.797079 32.316406,74.208984 32.008963,74.049998 31.531544,73.999859 31,74.042969 Z m -0.228516,5.398437 c -1.288333,0 -1.563988,0.04978 -2.533203,0.451172 -0.975175,0.403869 -1.16468,0.435754 -2.632812,0.445313 -1.420498,0.009 -1.632216,-0.0221 -2.083985,-0.289063 -0.292098,-0.172619 -0.559649,-0.328125 -0.617187,-0.328125 -0.09601,0 -0.102402,0.09241 -0.103516,0.105469 -0.0097,0.113818 0.03038,0.550159 0.0918,1.085937 0.252708,2.20465 -0.12685,5.383747 -0.820312,6.902344 -0.406509,0.890198 -1.214143,2.009236 -1.960938,2.71875 -0.319046,0.303118 -0.539933,0.558622 -0.644531,0.757813 -0.182083,0.346748 -0.04772,0.581442 0.335937,0.677734 1.062049,0.266551 2.256584,-0.336909 3.712891,-1.8125 1.20304,-1.218959 2.10729,-2.491967 2.931641,-4.128906 0.463128,-0.919657 0.481987,-0.9059 0.660156,-0.810547 0.190169,0.101778 0.220818,0.155921 0.15039,0.558594 -0.358952,2.05232 -1.076776,4.100663 -1.894531,5.429687 -0.450857,0.732736 -0.756029,1.515449 -0.554687,1.716797 0.17567,0.175657 0.493596,0.02277 1.396484,-0.507813 1.141006,-0.670567 2.878594,-2.385283 3.617188,-3.570312 1.291957,-2.072863 2.116386,-4.890218 2.376953,-8.101562 l 0.107422,-1.300782 z" /></g></svg>
