<?xml version="1.0" encoding="UTF-8" standalone="no"?>
<!-- Created with Inkscape (http://www.inkscape.org/) -->

<svg
   width="7.080451mm"
   height="27.385059mm"
   viewBox="0 0 7.080451 27.385059"
   version="1.1"
   id="svg5"
   xml:space="preserve"
   xmlns="http://www.w3.org/2000/svg"
   xmlns:svg="http://www.w3.org/2000/svg"><defs
     id="defs2" /><g
     id="layer1"
     transform="translate(-125.98788,-73.027344)"><path
       id="tooth22"
       style="fill:#000000;stroke-width:0.139449"
       d="m 129.25781,73.027344 c -0.39545,0 -2.05338,1.15875 -2.46289,1.6875 -0.61466,0.793652 -0.7962,1.393573 -0.80664,2.648437 -0.007,0.903727 0.076,1.403316 0.39453,2.347657 0.68907,2.042572 1.406,3.070555 2.51953,3.539062 0.58099,0.244442 1.54482,0.09442 2.08594,-0.318359 1.09756,-0.83715 1.90956,-2.714168 2.04883,-4.6875 0.0685,-0.970169 0.0345,-1.286416 -0.20508,-1.828125 -0.49169,-1.111549 -2.85393,-3.388672 -3.57422,-3.388672 z m -2.38672,8.626953 0.0898,1.115234 c 0.0338,0.413004 0.16088,2.227025 0.28125,4.029297 0.24354,3.64702 0.45677,5.308328 0.98828,7.685547 0.6723,3.006923 1.44763,4.645376 2.63281,5.503906 0.2938,0.212829 0.52662,0.351539 0.6875,0.400389 0.32162,0.0977 0.42898,-0.11529 0.35547,-0.472654 -0.65914,-3.204272 -0.52764,-11.012613 0.28906,-16.94336 l 0.13281,-0.966797 -0.93164,0.835938 c -0.75418,0.678074 -1.46468,0.899436 -2.26953,0.722656 -0.55692,-0.122315 -1.38547,-0.686152 -1.73828,-1.183594 z" /></g></svg>
