<?xml version="1.0" encoding="UTF-8" standalone="no"?>
<!-- Created with Inkscape (http://www.inkscape.org/) -->

<svg
   width="7.1257334mm"
   height="23.805006mm"
   viewBox="0 0 7.1257334 23.805006"
   version="1.1"
   id="svg5"
   xml:space="preserve"
   xmlns="http://www.w3.org/2000/svg"
   xmlns:svg="http://www.w3.org/2000/svg"><defs
     id="defs2" /><g
     id="layer1"
     transform="translate(-64.71357,-73.66992)"><path
       id="tooth29"
       style="fill:#000000;stroke-width:0.139449"
       d="m 68.355469,73.669922 c -0.638304,0.0021 -3.084643,1.558069 -3.369141,2.140625 -0.665847,1.36343 -0.05091,4.233237 1.175781,5.587891 0.78346,0.865188 2.108853,1.120791 3.208985,0.621093 1.212004,-0.550511 2.051333,-2.004205 2.365234,-4.027343 0.203677,-1.31273 0.111045,-2.174973 -0.330078,-2.644532 -0.530938,-0.565155 -2.534242,-1.679614 -3.050781,-1.677734 z m -3.164063,6.941406 0.123047,1.125 c 0.161571,1.461941 0.505655,3.853664 0.777344,5.421875 0.521133,3.008046 0.569949,3.512377 0.666015,6.679688 0.05351,1.764207 0.14406,3.306521 0.228516,3.439453 0.276345,0.434937 0.726378,0.125456 1.25,-0.669922 0.667994,-1.014684 1.20206,-2.386322 1.669922,-4.283203 0.433368,-1.757035 0.626582,-3.454462 0.84375,-7.337891 0.08361,-1.49514 0.187862,-2.97319 0.228516,-3.269531 l 0.115234,-0.84375 -0.744141,0.714844 c -0.66638,0.639182 -1.34695,0.921875 -2.214843,0.921875 -0.845479,0 -1.530462,-0.332732 -2.210938,-1.085938 z" /></g></svg>
