<?xml version="1.0" encoding="UTF-8" standalone="no"?>
<!-- Created with Inkscape (http://www.inkscape.org/) -->

<svg
   width="8.4137573mm"
   height="28.848717mm"
   viewBox="0 0 8.4137573 28.848717"
   version="1.1"
   id="svg5"
   xml:space="preserve"
   xmlns="http://www.w3.org/2000/svg"
   xmlns:svg="http://www.w3.org/2000/svg"><defs
     id="defs2" /><g
     id="layer1"
     transform="translate(-127.19677,-40.221615)"><path
       style="fill:#000000;stroke-width:0.139449"
       d="m 129.55694,68.872909 c -0.5357,-0.2353 -1.48575,-1.25749 -1.87148,-2.01359 -0.16204,-0.31763 -0.35844,-0.92271 -0.43643,-1.34463 -0.16151,-0.87371 0.0441,-2.04801 0.71824,-4.10191 0.24123,-0.73495 0.44961,-1.79463 0.54844,-2.78898 1.11113,-11.17981 2.24186,-15.81748 4.33355,-17.77401 0.78767,-0.73677 1.25819,-0.81884 1.61065,-0.28093 0.24329,0.37132 0.23386,0.79494 -0.0744,3.34306 -0.31243,2.5824 0.0528,15.59983 0.47093,16.78496 0.39824,1.12872 0.80488,3.64694 0.7489,4.6377 -0.0653,1.15536 -0.2845,1.4906 -1.52374,2.33022 -1.87236,1.26858 -2.20725,1.41595 -3.19287,1.405 -0.49853,-0.006 -1.09782,-0.0941 -1.33176,-0.19689 z"
       id="tooth11" /></g></svg>
