<?xml version="1.0" encoding="UTF-8" standalone="no"?>
<!-- Created with Inkscape (http://www.inkscape.org/) -->

<svg
   width="4.7858481mm"
   height="24.525593mm"
   viewBox="0 0 4.7858481 24.525593"
   version="1.1"
   id="svg5"
   xml:space="preserve"
   xmlns="http://www.w3.org/2000/svg"
   xmlns:svg="http://www.w3.org/2000/svg"><defs
     id="defs2" /><g
     id="layer1"
     transform="translate(-117.55411,-72.609375)"><path
       id="tooth23"
       style="fill:#000000;stroke-width:0.139449"
       d="m 119.80859,72.609375 c -1.49954,0 -1.92994,0.03182 -2.10937,0.248047 -0.04,0.04822 -0.0686,0.143282 -0.0859,0.246094 -0.15422,0.912055 0.0106,4.380423 0.28906,5.410156 0.26197,0.968712 0.81142,2.130367 1.23828,2.595703 0.45057,0.491164 1.07612,0.433049 1.68946,-0.105469 0.27426,-0.240802 0.63508,-0.720221 0.80078,-1.0625 0.37654,-0.77783 0.7053,-3.182727 0.70898,-5.08789 0.002,-1.222727 -0.0348,-1.491758 -0.30859,-1.839844 -0.31681,-0.402755 -0.38152,-0.404297 -2.22266,-0.404297 z m -1.46875,7.949219 c -0.13001,-0.0038 -0.12476,0.17858 -0.13086,0.333984 -0.0551,1.40397 0.18599,8.465207 0.37305,10.371094 0.27629,2.815079 0.69791,4.866596 1.16797,5.583984 0.0827,0.126148 0.17197,0.230907 0.25195,0.267578 0.042,0.01927 0.0884,0.02682 0.13867,0.01172 0.27877,-0.08368 0.33894,-0.929147 0.40626,-2.841797 0.0491,-1.395717 0.13374,-3.039771 0.18554,-3.65039 0.30269,-3.568367 0.53624,-6.058319 0.71289,-7.595704 0.16497,-1.435785 0.2498,-2.014017 0.12696,-2.158203 -0.13532,-0.158827 -0.32622,0.06204 -0.53516,0.261719 -0.8071,0.771311 -1.72482,0.730696 -2.24219,-0.06836 -0.16765,-0.258939 -0.3509,-0.512854 -0.45508,-0.515625 z" /></g></svg>
