<?xml version="1.0" encoding="UTF-8" standalone="no"?>
<!-- Created with Inkscape (http://www.inkscape.org/) -->

<svg
   width="7.7195625mm"
   height="28.033047mm"
   viewBox="0 0 7.7195625 28.033047"
   version="1.1"
   id="svg5"
   xml:space="preserve"
   xmlns="http://www.w3.org/2000/svg"
   xmlns:svg="http://www.w3.org/2000/svg"><defs
     id="defs2" /><g
     id="layer1"
     transform="translate(-84.62027,-72.708159)"><path
       style="fill:#000000;stroke-width:0.139449"
       d="m 85.795789,100.52716 c -0.04438,-0.11565 0.02455,-0.947109 0.153167,-1.847699 0.285941,-2.00214 0.320627,-8.061312 0.06006,-10.492452 -0.09453,-0.88202 -0.297324,-2.83924 -0.450649,-4.34939 -0.172327,-1.69729 -0.38393,-3.05136 -0.554164,-3.54616 -0.353365,-1.02707 -0.49687,-2.86186 -0.28481,-3.64147 0.338828,-1.24565 3.043491,-3.94183 3.954232,-3.94183 0.893019,0 2.82783,1.56595 3.311626,2.68029 0.503961,1.16078 0.469725,2.73542 -0.09636,4.43161 -0.387939,1.16243 -0.461164,1.63237 -0.597525,3.83485 -0.588734,9.5091 -1.443183,13.780952 -3.165965,15.828362 -0.8677,1.031199 -2.119282,1.592029 -2.329622,1.043889 z"
       id="tooth27" /></g></svg>
