<?xml version="1.0" encoding="UTF-8" standalone="no"?>
<!-- Created with Inkscape (http://www.inkscape.org/) -->

<svg
   width="14.458422mm"
   height="19.620623mm"
   viewBox="0 0 14.458422 19.620623"
   version="1.1"
   id="svg5"
   xml:space="preserve"
   xmlns="http://www.w3.org/2000/svg"
   xmlns:svg="http://www.w3.org/2000/svg"><defs
     id="defs2" /><g
     id="layer1"
     transform="translate(-184.45928,-73.699571)"><path
       style="fill:#000000;stroke-width:0.139449"
       d="m 192.66466,93.248099 c -0.54852,-0.20063 -1.97061,-1.14048 -2.75779,-1.8226 -2.48946,-2.15724 -4.06544,-5.93796 -4.43095,-10.62962 -0.0696,-0.89335 -0.23825,-1.71025 -0.51814,-2.50976 -0.22821,-0.65192 -0.44665,-1.60192 -0.48541,-2.1111 -0.1683,-2.21111 1.29334,-2.99157 4.0008,-2.13629 1.07155,0.33851 1.15043,0.34477 1.75519,0.13945 0.80922,-0.27474 2.06979,-0.26561 2.78492,0.0202 0.30679,0.12259 0.90885,0.22966 1.33791,0.23791 0.46802,0.009 0.8813,0.0987 1.03309,0.22419 0.76244,0.63034 1.00915,2.58168 0.49221,3.89313 -0.36658,0.93005 -0.61557,3.51662 -0.50145,5.20956 0.19298,2.86331 0.94016,4.71871 2.56122,6.35994 0.87915,0.89011 1.01262,1.08996 0.97614,1.46175 -0.0585,0.59622 -0.52588,0.82079 -1.49485,0.71824 -0.42081,-0.0445 -1.06852,-0.24804 -1.46238,-0.45947 -1.32113,-0.7092 -3.31903,-2.99828 -4.34749,-4.98109 l -0.50645,-0.97641 0.0959,0.62752 c 0.16672,1.0905 1.00303,3.31303 1.66555,4.42629 0.58524,0.98342 0.72462,1.41562 0.64122,1.98837 -0.0523,0.35902 -0.38523,0.4859 -0.83928,0.31982 z"
       id="tooth17" /></g></svg>
