<?xml version="1.0" encoding="UTF-8" standalone="no"?>
<!-- Created with Inkscape (http://www.inkscape.org/) -->

<svg
   width="8.6667433mm"
   height="25.172083mm"
   viewBox="0 0 8.6667433 25.172083"
   version="1.1"
   id="svg5"
   xml:space="preserve"
   xmlns="http://www.w3.org/2000/svg"
   xmlns:svg="http://www.w3.org/2000/svg"><defs
     id="defs2" /><g
     id="layer1"
     transform="translate(-99.587567,-43.487079)"><path
       style="fill:#000000;stroke-width:0.139449"
       d="m 100.97686,68.450939 c -0.30679,-0.11052 -0.57085,-0.2019 -0.58679,-0.20305 -0.0159,-0.001 -0.2042,-0.30017 -0.418346,-0.66448 -0.37884,-0.64449 -0.38919,-0.71703 -0.38319,-2.6844 0.006,-1.90374 0.21733,-3.66009 0.508786,-4.22479 0.4886,-0.94665 0.8572,-5.71783 0.87003,-11.2617 0.0105,-4.52368 0.0334,-4.99157 0.26191,-5.34028 0.62585,-0.95517 1.38816,-0.74486 2.39025,0.65945 1.58594,2.22249 2.42343,5.53118 3.07513,12.149 0.26853,2.72681 0.34084,3.21337 0.87048,5.85686 0.52677,2.62917 0.78296,4.56866 0.65793,4.9807 -0.0531,0.1751 -0.22584,0.45956 -0.38379,0.63213 -0.28118,0.3072 -0.35001,0.31363 -3.29589,0.30764 -2.25595,-0.005 -3.14827,-0.0564 -3.56651,-0.20708 z"
       id="tooth08" /></g></svg>
