<?xml version="1.0" encoding="UTF-8" standalone="no"?>
<!-- Created with Inkscape (http://www.inkscape.org/) -->

<svg
   width="13.848165mm"
   height="18.929724mm"
   viewBox="0 0 13.848165 18.929724"
   version="1.1"
   id="svg5"
   xml:space="preserve"
   xmlns="http://www.w3.org/2000/svg"
   xmlns:svg="http://www.w3.org/2000/svg"><defs
     id="defs2" /><g
     id="layer1"
     transform="translate(-184.75586,-74.030304)"><path
       id="tooth17"
       style="fill:#000000;stroke-width:0.139449"
       d="m 185.75977,74.130859 c -0.59059,0.230359 -1.00327,0.996567 -1.00391,1.794922 0,0.367475 0.18227,1.22325 0.40234,1.91211 l 0.41992,1.3125 1.79883,0.07813 c 1.38879,0.06102 1.84538,0.138861 2.38867,0.386718 0.35584,0.162333 0.84536,0.326133 1.16993,0.408204 -0.50144,-0.103371 -0.91458,-0.03659 -1.58203,-0.283204 -0.59262,-0.218979 -1.1418,-0.291488 -2.18164,-0.294922 l -1.48829,-0.0039 0.10743,1.316406 c 0.46639,5.748043 2.56312,9.720034 6.26757,11.820313 0.34674,0.196586 0.59776,0.3208 0.76758,0.363281 0.33369,0.08347 0.42553,-0.12163 0.37891,-0.458984 -0.0285,-0.206081 -0.21891,-0.650655 -0.41992,-1 -1.00965,-1.754809 -1.51526,-3.076694 -1.90235,-4.97461 -0.23878,-1.170696 -0.19865,-1.289062 0.0859,-1.289062 0.0857,0 0.31229,0.270294 0.61523,0.886719 0.98645,2.007274 2.80789,4.30068 4.16211,5.232422 0.72006,0.495409 1.67869,0.767951 2.32618,0.646484 0.46367,-0.08698 0.65914,-0.300036 0.44531,-0.693359 -0.12005,-0.220807 -0.38079,-0.51623 -0.77344,-0.894532 -2.01801,-1.94431 -2.86915,-4.633314 -2.68945,-8.583984 l 0.0977,-2.167969 -0.65429,0.386719 c -0.3347,0.197471 -0.78204,0.297126 -1.59766,0.345703 -0.59456,0.0354 -1.23002,-0.219548 -1.78711,-0.320312 0.86754,0.167267 2.70838,0.0717 3.22852,-0.197266 0.60016,-0.310359 1.15973,-0.998742 1.34179,-1.654297 0.20591,-0.74144 0.18554,-1.952693 -0.0488,-2.513672 -0.32171,-0.769941 -0.61623,-0.982972 -1.30469,-0.890625 -0.37617,0.05043 -0.72398,-0.01093 -1.23438,-0.230469 -0.61526,-0.264674 -0.94249,-0.310823 -1.79882,-0.255859 -0.56549,0.03625 -1.1277,0.135506 -1.24805,0.255859 -0.19073,0.190732 -0.59965,0.16908 -1.41016,-0.15039 -0.89624,-0.353269 -2.3209,-0.506706 -2.8789,-0.289063 z" /></g></svg>
