<?xml version="1.0" encoding="UTF-8" standalone="no"?>
<!-- Created with Inkscape (http://www.inkscape.org/) -->

<svg
   width="9.9112329mm"
   height="21.762482mm"
   viewBox="0 0 9.9112329 21.762482"
   version="1.1"
   id="svg5"
   xml:space="preserve"
   xmlns="http://www.w3.org/2000/svg"
   xmlns:svg="http://www.w3.org/2000/svg"><defs
     id="defs2" /><g
     id="layer1"
     transform="translate(-170.61811,-47.261071)"><path
       id="tooth15"
       style="fill:#000000;stroke-width:0.139449"
       d="m 177.72656,47.398438 c -0.25072,-0.252161 -0.39436,-0.162352 -0.83203,0.3125 -0.42531,0.461432 -0.50586,0.664331 -0.50586,1.269531 0,0.35993 -0.15484,1.147607 -0.3457,1.748047 -0.19311,0.607518 -0.44352,1.56133 -0.55859,2.117187 -0.21079,1.017998 -0.29539,4.021546 -0.11329,4.496094 0.0187,0.04883 0.0535,0.09942 0.11329,0.119141 0.056,0.01847 0.10542,0.0019 0.14453,-0.02148 0.25247,-0.151153 0.65695,-1.088832 0.94726,-2.162109 0.3209,-1.18634 0.57031,-3.412317 0.57031,-5.09961 0,-1.01282 0.0423,-1.161632 0.27344,-1.376953 0.16141,-0.150375 0.36607,-0.257812 0.43555,-0.257812 0.40067,0 0.21562,-0.797994 -0.12891,-1.144531 z m -1.89062,1.128906 c -0.40699,-0.01013 -1.11315,0.695697 -2.01758,2.041015 -1.40221,2.085786 -1.8086,3.445218 -2.03516,6.794922 -0.0855,1.264292 -0.2464,2.949466 -0.35547,3.746094 -0.10946,0.79949 -0.1992,1.521426 -0.19921,1.587891 0,0.06957 0.0507,0.117628 0.11718,0.11914 0.10052,0.0023 0.2634,-0.119549 0.4336,-0.277344 0.20428,-0.189425 0.5716,-0.441503 0.81836,-0.558593 0.44002,-0.2088 1.65732,-0.38552 3.90039,-0.554688 1.05611,-0.0797 1.24474,-0.05705 2,0.248047 l 0.99023,0.402344 0.0137,-1.345703 c 0.007,-0.653239 0.14498,-2.320046 0.30664,-3.699219 0.40969,-3.495476 0.25034,-5.31164 -0.65234,-7.175781 -0.41263,-0.852131 -0.91889,-1.230805 -1.44141,-0.951172 -0.32236,0.172531 -0.34961,0.360901 -0.34961,1.412109 0,1.634327 -0.2484,3.865835 -0.55078,4.957032 -0.33327,1.202649 -1.15379,2.832032 -1.44726,3.044921 -0.13873,-0.201013 -0.3125,-1.57865 -0.3125,-2.90625 0,-1.663889 0.247,-3.197625 0.76172,-4.710937 0.46363,-1.363138 0.49832,-2.161912 0.0195,-2.173828 z m -1.34571,13.298828 c -1.23786,0.131593 -1.63329,0.232892 -2.15429,0.5625 -1.12729,0.713163 -1.68288,1.902815 -1.7168,3.623047 -0.0289,1.46805 0.55128,2.346938 1.86914,2.816406 0.69762,0.248509 0.85207,0.25469 1.53906,0.04883 0.31028,-0.09295 0.80874,-0.381343 1.10938,-0.638672 0.71289,-0.610216 1.05044,-0.664328 1.73242,-0.316406 1.61021,0.821472 3.67151,-0.689821 3.66016,-2.65625 -0.008,-1.46259 -0.725,-2.705152 -1.92969,-3.328125 -0.55773,-0.288401 -2.14102,-0.32057 -4.10938,-0.111328 z" /></g></svg>
