<?xml version="1.0" encoding="UTF-8" standalone="no"?>
<!-- Created with Inkscape (http://www.inkscape.org/) -->

<svg
   width="12.332982mm"
   height="21.734119mm"
   viewBox="0 0 12.332982 21.734119"
   version="1.1"
   id="svg5"
   xml:space="preserve"
   xmlns="http://www.w3.org/2000/svg"
   xmlns:svg="http://www.w3.org/2000/svg"><defs
     id="defs2" /><g
     id="layer1"
     transform="translate(-169.92854,-72.987838)"><path
       style="fill:#000000;stroke-width:0.139449"
       d="m 175.86103,94.476169 c -1.0696,-0.49629 -2.01501,-1.69413 -2.64105,-3.34619 -0.85848,-2.26546 -1.84176,-6.45885 -2.5212,-10.75212 -0.12744,-0.80532 -0.35156,-1.79602 -0.49803,-2.20155 -0.36031,-0.99763 -0.36356,-2.93967 -0.006,-3.72623 0.3744,-0.82416 1.16179,-1.4632 1.80165,-1.46224 0.79633,0.001 1.44369,0.22833 2.38531,0.83693 0.47379,0.30623 0.96144,0.55678 1.08366,0.55678 0.12222,0 0.61874,-0.19521 1.1034,-0.4338 1.21382,-0.59757 2.41683,-0.6859 3.19127,-0.23433 0.30359,0.17703 0.73742,0.58569 0.96403,0.90814 0.61838,0.87984 0.63872,2.03136 0.10083,5.70694 -0.73978,5.05507 -0.58241,7.12659 0.76826,10.11267 0.53179,1.17568 0.65474,1.59767 0.66734,2.2902 0.0314,1.7305 -0.66395,2.075842 -1.88329,0.93528 -0.82816,-0.77465 -1.80329,-2.21939 -3.18081,-4.71267 -0.55086,-0.99706 -1.1223,-1.96972 -1.26985,-2.16146 l -0.26826,-0.34862 -0.003,0.39153 c -0.006,0.71203 0.57743,3.20909 1.12811,4.83127 0.59146,1.7423 0.65609,2.29192 0.3251,2.76449 -0.26274,0.375112 -0.51598,0.384242 -1.24714,0.045 z"
       id="tooth18" /></g></svg>
