<?xml version="1.0" encoding="UTF-8" standalone="no"?>
<!-- Created with Inkscape (http://www.inkscape.org/) -->

<svg
   width="5.419178mm"
   height="25.208231mm"
   viewBox="0 0 5.419178 25.208231"
   version="1.1"
   id="svg5"
   xml:space="preserve"
   xmlns="http://www.w3.org/2000/svg"
   xmlns:svg="http://www.w3.org/2000/svg"><defs
     id="defs2" /><g
     id="layer1"
     transform="translate(-95.339381,-72.302713)"><path
       style="fill:#000000;stroke-width:0.139449"
       d="m 97.508884,97.319261 c -0.272619,-0.27262 -0.337256,-0.85687 -0.431793,-3.902912 -0.11434,-3.68413 -0.642636,-9.07458 -1.530681,-15.6183 -0.247782,-1.82582 -0.279217,-4.2435 -0.06139,-4.72158 0.309418,-0.6791 0.837774,-0.81553 2.95843,-0.7639 1.73429,0.0422 1.95033,0.0751 2.14067,0.32587 0.3156,0.41576 0.1766,4.46493 -0.20584,5.99631 -0.24025,0.962 -0.28954,1.75874 -0.35801,5.78713 -0.105446,6.20333 -0.491936,9.99763 -1.212535,11.903692 -0.418608,1.10726 -0.852971,1.43957 -1.298851,0.99369 z"
       id="tooth26" /></g></svg>
