<?xml version="1.0" encoding="UTF-8" standalone="no"?>
<!-- Created with Inkscape (http://www.inkscape.org/) -->

<svg
   width="5.4493833mm"
   height="25.235029mm"
   viewBox="0 0 5.4493833 25.235029"
   version="1.1"
   id="svg5"
   xml:space="preserve"
   xmlns="http://www.w3.org/2000/svg"
   xmlns:svg="http://www.w3.org/2000/svg"><defs
     id="defs2" /><g
     id="layer1"
     transform="translate(-117.22187,-72.288888)"><path
       style="fill:#000000;stroke-width:0.139449"
       d="m 119.61203,97.173591 c -0.94235,-1.19801 -1.45423,-5.206812 -1.69057,-13.239782 -0.10267,-3.4898 -0.19625,-4.94371 -0.35452,-5.50824 -0.13253,-0.47273 -0.24766,-1.68195 -0.30008,-3.15203 -0.11135,-3.12231 -0.22234,-2.98373 2.38962,-2.98373 2.05336,0 2.41661,0.0933 2.78395,0.71517 0.30358,0.51393 0.30824,2.54035 0.0108,4.72335 -0.24398,1.79093 -1.09133,9.09746 -1.30994,11.29537 -0.0877,0.88202 -0.19439,2.92146 -0.23701,4.5321 -0.0426,1.610642 -0.14753,3.116692 -0.23313,3.346782 -0.26939,0.72413 -0.63014,0.81644 -1.05918,0.27101 z"
       id="tooth23" /></g></svg>
