<?xml version="1.0" encoding="UTF-8" standalone="no"?>
<!-- Created with Inkscape (http://www.inkscape.org/) -->

<svg
   width="10.560571mm"
   height="22.43457mm"
   viewBox="0 0 10.560571 22.43457"
   version="1.1"
   id="svg5"
   xml:space="preserve"
   xmlns="http://www.w3.org/2000/svg"
   xmlns:svg="http://www.w3.org/2000/svg"><defs
     id="defs2" /><g
     id="layer1"
     transform="translate(-170.29735,-46.920606)"><path
       style="fill:#000000;stroke-width:0.139449"
       d="m 172.25089,69.082089 c -0.81508,-0.31832 -1.26433,-0.71314 -1.6656,-1.46382 -0.36825,-0.68897 -0.38534,-2.21082 -0.0394,-3.51447 0.37623,-1.41795 0.76301,-4.27886 0.91996,-6.80477 0.17185,-2.76588 0.39122,-3.77207 1.15533,-5.29906 1.11336,-2.22494 2.41562,-3.83102 3.11372,-3.84014 0.31126,-0.004 0.49297,-0.1324 0.78464,-0.55416 0.40146,-0.58052 0.97377,-0.83349 1.35027,-0.59684 0.12234,0.0769 0.32971,0.42739 0.46081,0.77887 0.13111,0.35148 0.45314,0.9204 0.71562,1.26428 0.63479,0.83162 1.04431,2.08587 1.23803,3.79171 0.13877,1.22201 0.12018,1.74891 -0.14511,4.11375 -0.38935,3.47092 -0.40345,5.31588 -0.0445,5.82831 0.40189,0.57375 0.7706,1.83136 0.76315,2.60301 -0.0154,1.59726 -1.5642,3.14729 -3.13034,3.13286 -0.18285,-0.002 -0.60599,-0.12718 -0.94033,-0.27889 -0.33435,-0.15171 -0.66361,-0.27584 -0.73171,-0.27584 -0.0681,0 -0.37308,0.22519 -0.67773,0.50043 -0.5344,0.4828 -1.54923,0.90105 -2.15345,0.88754 -0.16038,-0.004 -0.59837,-0.12633 -0.97332,-0.27277 z"
       id="tooth15" /></g></svg>
