<?xml version="1.0" encoding="UTF-8" standalone="no"?>
<!-- Created with Inkscape (http://www.inkscape.org/) -->

<svg
   width="7.0830874mm"
   height="23.816444mm"
   viewBox="0 0 7.0830874 23.816444"
   version="1.1"
   id="svg5"
   xml:space="preserve"
   xmlns="http://www.w3.org/2000/svg"
   xmlns:svg="http://www.w3.org/2000/svg"><defs
     id="defs2" /><g
     id="layer1"
     transform="translate(-146.20753,-73.67379)"><path
       id="tooth20"
       style="fill:#000000;stroke-width:0.139449"
       d="m 149.62695,73.673828 c -0.51728,-0.0076 -2.53615,1.134404 -3.09179,1.726563 -0.3013,0.321091 -0.33618,0.536169 -0.32618,1.607421 0.0347,3.710415 2.40152,6.220226 4.8125,4.990235 1.63869,-0.835996 2.82941,-4.481811 1.9961,-6.115235 -0.35733,-0.700402 -2.64874,-2.198157 -3.39063,-2.208984 z m 3.17774,6.931641 -0.74414,0.826172 c -0.64318,0.713299 -1.39634,1.070322 -2.2461,1.074218 -0.81715,0.0039 -1.39785,-0.236943 -2.13281,-0.898437 l -0.80664,-0.726563 0.13477,0.837891 c 0.0471,0.292995 0.15449,1.772574 0.23437,3.267578 0.25461,4.765735 0.51349,6.582076 1.27539,8.873047 0.65116,1.957971 1.56289,3.630859 2.09375,3.630859 0.17525,0 0.34748,-0.253226 0.43555,-0.505859 0.0942,-0.270231 0.16015,-1.466461 0.16015,-2.794922 0,-2.316471 0.15761,-3.952077 0.67579,-6.960937 0.33678,-1.955574 0.67188,-4.232464 0.79687,-5.429688 z" /></g></svg>
