<?xml version="1.0" encoding="UTF-8" standalone="no"?>
<!-- Created with Inkscape (http://www.inkscape.org/) -->

<svg
   width="8.0984592mm"
   height="24.523529mm"
   viewBox="0 0 8.0984592 24.523529"
   version="1.1"
   id="svg5"
   xml:space="preserve"
   xmlns="http://www.w3.org/2000/svg"
   xmlns:svg="http://www.w3.org/2000/svg"><defs
     id="defs2" /><g
     id="layer1"
     transform="translate(-99.846804,-43.822173)"><path
       id="tooth08"
       style="fill:#000000;stroke-width:0.139449"
       d="m 102.37695,43.902344 c -0.30093,-0.139901 -0.45377,-0.100948 -0.70507,0.15039 -0.15768,0.157664 -0.31096,0.37659 -0.32422,0.511719 -0.009,0.0959 -0.0303,2.412015 -0.0469,5.134766 -0.0213,3.494268 -0.0988,5.538655 -0.25976,6.960937 -0.17418,1.539144 -0.25544,2.138752 -0.17383,2.289063 0.0223,0.04101 0.0666,0.07542 0.125,0.07227 0.1059,-0.0057 0.21188,-0.155778 0.34375,-0.3125 0.46262,-0.549792 1.61129,-1.101166 2.2832,-1.099609 0.66509,0.0019 1.7968,0.619261 2.32813,1.285156 0.19582,0.245417 0.41739,0.464048 0.55468,0.382813 0.0312,-0.01846 0.0493,-0.04445 0.0586,-0.07227 0.0362,-0.108813 -0.0508,-1.143196 -0.17774,-2.308594 -0.6252,-5.73666 -1.38726,-9.268353 -2.38476,-11.023437 -0.47607,-0.837617 -1.25379,-1.799956 -1.6211,-1.970703 z m 1.31836,13.923828 c -1.06385,0 -2.32809,0.942903 -2.96093,2.179687 -0.50105,0.979179 -0.774058,2.466458 -0.855474,4.609375 -0.0675,1.777353 -0.05011,1.954052 0.265624,2.5625 0.56906,1.096614 0.89152,1.167719 4.34961,1.167969 h 3.01563 l 0.25976,-0.396484 c 0.23751,-0.362489 0.22911,-0.540919 0.006,-2.195313 -0.33868,-2.508197 -0.87715,-4.886228 -1.29101,-5.644531 -0.68043,-1.246718 -1.91914,-2.283203 -2.78907,-2.283203 z" /></g></svg>
