<?xml version="1.0" encoding="UTF-8" standalone="no"?>
<!-- Created with Inkscape (http://www.inkscape.org/) -->

<svg
   width="13.249313mm"
   height="23.05319mm"
   viewBox="0 0 13.249313 23.05319"
   version="1.1"
   id="svg5"
   xml:space="preserve"
   xmlns="http://www.w3.org/2000/svg"
   xmlns:svg="http://www.w3.org/2000/svg"><defs
     id="defs2" /><g
     id="layer1"
     transform="translate(-48.565042,-73.321805)"><path
       id="tooth30"
       style="fill:#000000;stroke-width:0.139449"
       d="m 59.865234,73.328125 c -0.709937,-0.05344 -1.542033,0.232284 -2.40625,0.847656 l -0.36914,0.263672 -0.792969,-0.408203 c -1.375317,-0.709307 -2.705629,-0.587206 -3.949219,0.361328 -0.388377,0.296225 -0.466506,0.30651 -0.714844,0.19336 -0.589206,-0.268452 -1.071181,-0.191155 -1.560546,0.246093 -0.453787,0.405457 -0.463527,0.461503 -0.455078,1.851563 0.01276,2.10046 0.447627,3.536159 1.269531,3.966797 0.609235,0.319217 3.208668,0.148685 4.496093,-0.269532 0.944496,-0.306826 1.132344,-0.327693 1.642579,-0.199218 0.79197,0.199425 2.110805,0.183858 2.84375,-0.03516 0.535214,-0.159936 0.665154,-0.311475 1.111328,-1.201172 0.876894,-1.748558 1.075146,-3.317994 0.533203,-4.4375 -0.352685,-0.728552 -0.928442,-1.125488 -1.648438,-1.179687 z m 0.503907,7.042969 c -0.08257,-0.08247 -0.370018,-0.02321 -0.634766,0.05273 -0.60732,0.174181 -2.053074,0.16941 -2.773437,-0.01172 -0.529076,-0.132821 -0.758777,-0.09861 -1.564454,0.205079 -0.769499,0.290032 -1.173874,0.346493 -2.707031,0.378906 -1.431151,0.03027 -1.832217,-0.0096 -1.996094,-0.144532 -0.344739,-0.284147 -0.43084,-0.182294 -0.322265,0.253907 0.04108,0.165024 0.126429,1.273873 0.175781,2.419922 0.146809,3.409129 -0.305891,6.692599 -1.289063,9.367187 -0.650664,1.770056 -0.811451,2.515288 -0.613281,3.033203 0.08326,0.217597 0.230597,0.449219 0.373047,0.449219 0.11192,0 0.4943,-0.247017 0.865234,-0.525391 1.610758,-1.208813 2.303327,-2.183181 4.212891,-5.914062 1.232903,-2.408831 1.513732,-2.763672 1.972656,-2.763672 0.378699,0 0.637459,0.321072 0.878907,1.248047 0.384,1.474274 0.218843,2.727131 -0.603516,4.464844 -0.452094,0.955309 -0.577465,1.920869 -0.283203,2.470703 0.27165,0.507577 0.606143,0.371417 1.457031,-0.40625 2.320297,-2.120621 3.376338,-5.851817 2.839844,-9.951172 -0.186548,-1.425424 -0.197566,-1.924147 -0.0625,-3.085938 0.08062,-0.693423 0.129935,-1.288661 0.111328,-1.453125 -0.0021,-0.01827 -0.0085,-0.0593 -0.03711,-0.08789 z" /></g></svg>
