<?xml version="1.0" encoding="UTF-8" standalone="no"?>
<!-- Created with Inkscape (http://www.inkscape.org/) -->

<svg
   width="11.514989mm"
   height="22.866608mm"
   viewBox="0 0 11.514989 22.866608"
   version="1.1"
   id="svg5"
   xml:space="preserve"
   xmlns="http://www.w3.org/2000/svg"
   xmlns:svg="http://www.w3.org/2000/svg"><defs
     id="defs2" /><g
     id="layer1"
     transform="translate(-155.30196,-46.491729)"><path
       style="fill:#000000;stroke-width:0.139449"
       d="m 157.13845,69.175239 c -0.67181,-0.24365 -1.42985,-0.90029 -1.65138,-1.43048 -0.27928,-0.66842 -0.2383,-2.17987 0.0942,-3.47327 0.50307,-1.95708 0.55086,-2.56841 0.52318,-6.69356 -0.0234,-3.4879 0.007,-4.16867 0.21919,-4.95044 0.53547,-1.97046 1.37493,-3.19273 2.89301,-4.21228 0.78376,-0.52638 1.25712,-0.48248 1.43844,0.13339 0.0734,0.24927 0.1675,0.45197 0.20917,0.45045 0.0417,-0.002 0.264,-0.32524 0.4941,-0.71937 0.58409,-1.00051 1.42415,-1.78795 1.90744,-1.78795 0.52416,0 0.79366,0.44952 1.02075,1.70262 0.10134,0.55915 0.1899,0.91129 0.19683,0.78253 0.0165,-0.30782 0.8916,-1.23011 1.16711,-1.23011 0.43698,0 0.90414,0.79006 1.07854,1.82402 0.22596,1.33961 0.0183,3.2493 -0.64554,5.93714 -0.46116,1.86709 -0.51788,2.30558 -0.57884,4.47325 -0.0561,1.99694 -0.0317,2.45795 0.14442,2.72677 0.11657,0.17793 0.3785,0.85068 0.58203,1.49499 0.60088,1.90212 0.47076,3.5177 -0.34257,4.25377 -0.37732,0.34146 -2.0149,0.90519 -2.61909,0.90161 -0.63844,-0.004 -1.52322,-0.39961 -1.96453,-0.87887 l -0.33235,-0.36093 -0.6074,0.4179 c -1.13403,0.78024 -2.23548,0.9983 -3.22669,0.63882 z"
       id="tooth14" /></g></svg>
