<?xml version="1.0" encoding="UTF-8" standalone="no"?>
<!-- Created with Inkscape (http://www.inkscape.org/) -->

<svg
   width="4.7989297mm"
   height="24.773438mm"
   viewBox="0 0 4.7989297 24.773438"
   version="1.1"
   id="svg5"
   xml:space="preserve"
   xmlns="http://www.w3.org/2000/svg"
   xmlns:svg="http://www.w3.org/2000/svg"><defs
     id="defs2" /><g
     id="layer1"
     transform="translate(-95.65029,-72.609375)"><path
       id="tooth26"
       style="fill:#000000;stroke-width:0.139449"
       d="m 98.169922,72.609375 c -1.830034,0 -1.894852,0.0029 -2.210938,0.404297 -0.273745,0.348016 -0.310953,0.617073 -0.308593,1.839844 0.0037,1.905133 0.332446,4.310059 0.708984,5.08789 0.629932,1.301261 1.820071,1.912809 2.480469,1.166016 1.07531,-1.215981 1.609376,-3.434843 1.609376,-6.589844 0,-0.962447 -0.0536,-1.56916 -0.19727,-1.71289 -0.15015,-0.150169 -0.832473,-0.195313 -2.082028,-0.195313 z m -1.679688,8.125 c -0.139743,0.01602 -0.138359,0.197393 -0.140625,0.414063 -0.0025,0.247618 0.08847,1.157262 0.203125,2.037109 0.368953,2.831395 0.773117,7.795554 0.861328,10.583984 0.04732,1.495898 0.144434,2.89168 0.220704,3.097657 l 0.193359,0.515624 0.365234,-0.484374 c 0.153812,-0.203918 0.371756,-0.749952 0.496094,-1.21875 0.601409,-2.267528 0.903997,-5.567477 1.007813,-10.976563 0.04704,-2.451854 0.06832,-3.440863 0.01563,-3.775391 -0.02646,-0.167972 -0.128299,-0.280505 -0.259766,-0.167968 -0.03966,0.03395 -0.08234,0.09481 -0.125,0.15625 -0.382276,0.550593 -0.70682,0.747378 -1.1875,0.751953 -0.417028,0.0037 -1.102674,-0.364234 -1.439453,-0.789063 -0.059,-0.07443 -0.12449,-0.154439 -0.210938,-0.144531 z" /></g></svg>
