<?xml version="1.0" encoding="UTF-8" standalone="no"?>
<!-- Created with Inkscape (http://www.inkscape.org/) -->

<svg
   width="7.7061901mm"
   height="28.000387mm"
   viewBox="0 0 7.7061901 28.000387"
   version="1.1"
   id="svg5"
   xml:space="preserve"
   xmlns="http://www.w3.org/2000/svg"
   xmlns:svg="http://www.w3.org/2000/svg"><defs
     id="defs2" /><g
     id="layer1"
     transform="translate(-125.66677,-72.737042)"><path
       style="fill:#000000;stroke-width:0.139449"
       d="m 130.80004,100.33984 c -2.38335,-1.726489 -3.47408,-6.145241 -4.10094,-16.613661 -0.13865,-2.31543 -0.19948,-2.70637 -0.59674,-3.83485 -0.37497,-1.06518 -0.44126,-1.44775 -0.43523,-2.51163 0.006,-1.0442 0.0675,-1.38662 0.36693,-2.03829 0.58083,-1.2643 2.6525,-2.79619 3.49538,-2.58464 1.07857,0.2707 3.40741,2.71093 3.74649,3.92569 0.20792,0.74487 0.0695,2.41419 -0.2989,3.60528 -0.30773,0.99487 -0.35356,1.34225 -0.85826,6.50478 -0.39652,4.05598 -0.42848,9.576362 -0.0693,11.976062 0.25605,1.710839 0.20496,1.968849 -0.38991,1.968849 -0.17084,0 -0.55761,-0.17892 -0.85948,-0.39759 z"
       id="tooth22" /></g></svg>
