<?xml version="1.0" encoding="UTF-8" standalone="no"?>
<!-- Created with Inkscape (http://www.inkscape.org/) -->

<svg
   width="8.0725813mm"
   height="24.531626mm"
   viewBox="0 0 8.0725813 24.531626"
   version="1.1"
   id="svg5"
   xml:space="preserve"
   xmlns="http://www.w3.org/2000/svg"
   xmlns:svg="http://www.w3.org/2000/svg"><defs
     id="defs2" /><g
     id="layer1"
     transform="translate(-110.06846,-43.814085)"><path
       id="tooth09"
       style="fill:#000000;stroke-width:0.139449"
       d="m 115.61914,43.90625 c -1.03865,0.555876 -2.25175,2.901561 -2.87305,5.490234 -0.43709,1.821167 -1.01036,5.793816 -1.27929,8.847657 l -0.11914,1.363281 0.89257,-0.894531 c 0.38084,-0.380837 0.92045,-0.78408 1.18946,-0.896485 1.023,-0.427427 2.11597,-0.14426 3.06054,0.8125 0.25981,0.263167 0.50971,0.492998 0.62891,0.435547 0.0514,-0.02477 0.063,-0.07081 0.0625,-0.105469 -9.7e-4,-0.0703 -0.10675,-1.140038 -0.23437,-2.367187 -0.15976,-1.536302 -0.23922,-3.709465 -0.25782,-7.03125 -0.0148,-2.64605 -0.0369,-4.900113 -0.0469,-4.996094 -0.0141,-0.134148 -0.16747,-0.356931 -0.32813,-0.517578 -0.25908,-0.259082 -0.40544,-0.295745 -0.69531,-0.140625 z m -1.05078,13.9375 c -0.34692,-0.03526 -0.69088,0.02996 -1.05078,0.1875 -0.88608,0.387859 -1.81163,1.470197 -2.24219,2.605469 -0.51061,1.34636 -1.37089,6.361944 -1.17969,6.986328 0.22114,0.722146 0.31342,0.722886 3.41407,0.722656 2.52651,-1.4e-4 3.03583,-0.03274 3.47851,-0.253906 0.33564,-0.167681 0.64118,-0.49776 0.85742,-0.914063 0.31991,-0.615892 0.33347,-0.770757 0.25586,-2.630859 -0.15203,-3.644322 -0.74437,-5.179391 -2.49023,-6.304687 -0.35462,-0.228574 -0.69662,-0.363237 -1.04297,-0.398438 z" /></g></svg>
