<?xml version="1.0" encoding="UTF-8" standalone="no"?>
<!-- Created with Inkscape (http://www.inkscape.org/) -->

<svg
   width="10.860016mm"
   height="22.216541mm"
   viewBox="0 0 10.860016 22.216541"
   version="1.1"
   id="svg5"
   xml:space="preserve"
   xmlns="http://www.w3.org/2000/svg"
   xmlns:svg="http://www.w3.org/2000/svg"><defs
     id="defs2" /><g
     id="layer1"
     transform="translate(-155.61133,-46.810547)"><path
       id="tooth14"
       style="fill:#000000;stroke-width:0.139449"
       d="m 163.24805,46.810547 c -0.42158,0 -1.33968,1.096461 -2.11328,2.416015 -0.76477,1.304474 -1.06055,2.595218 -1.06055,4.572266 0,1.649111 0.47961,3.622297 1.01562,3.291016 0.11993,-0.07413 0.58944,-0.974487 1.07813,-1.998047 1.64025,-3.435526 1.95941,-4.597083 1.79687,-6.583985 -0.10332,-1.262906 -0.24637,-1.697265 -0.71679,-1.697265 z m 2.48437,1.255859 c -0.39468,0 -0.87018,0.820279 -1.30273,2.041016 -0.78674,2.22027 -2.13009,5.369658 -2.75977,6.474609 -0.3297,0.578556 -0.60619,1.112198 -0.61328,1.22461 -0.10979,-0.07175 -0.30614,-0.316405 -0.49414,-0.69336 -0.5662,-1.135375 -0.71482,-1.924583 -0.6875,-3.707031 0.0198,-1.290737 0.0975,-1.880481 0.34766,-2.691406 0.45483,-1.474071 0.45287,-2.371094 -0.17578,-2.371094 -0.42075,0 -1.89555,1.281144 -2.41797,2.042969 -0.52631,0.767469 -0.99289,2.137459 -1.16407,3.408203 -0.0647,0.480384 -0.085,2.531556 -0.0488,4.582031 l 0.0703,3.916016 0.73828,-0.527344 c 0.33777,-0.242569 0.83608,-0.446902 1.24609,-0.511719 l 0.01,-0.002 c 0.44674,-0.06926 0.90753,-0.04851 1.33594,0.06055 0.38851,0.09888 1.39147,0.167654 2.23828,0.160156 1.29307,-0.01147 1.61301,0.03348 2.17383,0.285156 0.37411,0.167917 0.70459,0.3125 0.7539,0.3125 0.0966,0 0.10297,-0.0954 0.10547,-0.115234 0.0234,-0.184936 0.0645,-1.090161 0.0996,-2.177734 0.0634,-1.966566 0.13216,-2.436777 0.67188,-4.685547 0.51588,-2.149465 0.60489,-2.749747 0.61132,-4.068359 0.006,-1.171605 -0.052,-1.707302 -0.2539,-2.230469 -0.14162,-0.367034 -0.32995,-0.726563 -0.48438,-0.726563 z m -7.55664,13.501953 c -0.60498,0.184014 -1.17565,0.542798 -1.5625,1.03125 -0.51939,0.655793 -1.00046,2.488895 -1.00195,3.765625 -0.001,1.19991 0.32745,1.779987 1.30859,2.283204 0.87526,0.448913 1.30156,0.485379 2.16797,0.179687 0.33324,-0.117575 0.86829,-0.405886 1.1875,-0.640625 0.31182,-0.229331 0.62249,-0.400391 0.67188,-0.400391 0.0408,0 0.3269,0.192464 0.60742,0.457032 0.9889,0.932656 2.17237,0.986162 3.72851,0.203125 1.18638,-0.596965 1.31842,-2.290957 0.46094,-4.697266 -0.58803,-1.65021 -1.45838,-2.087089 -3.93164,-2.046875 -0.82128,0.01338 -1.64838,-0.04491 -1.84375,-0.121094 -0.53957,-0.210493 -1.18805,-0.197663 -1.79297,-0.01367 z" /></g></svg>
