<?xml version="1.0" encoding="UTF-8" standalone="no"?>
<!-- Created with Inkscape (http://www.inkscape.org/) -->

<svg
   width="6.4193597mm"
   height="23.946377mm"
   viewBox="0 0 6.4193597 23.946377"
   version="1.1"
   id="svg5"
   xml:space="preserve"
   xmlns="http://www.w3.org/2000/svg"
   xmlns:svg="http://www.w3.org/2000/svg"><defs
     id="defs2" /><g
     id="layer1"
     transform="translate(-119.16462,-44.817295)"><path
       id="tooth10"
       style="fill:#000000;stroke-width:0.139449"
       d="m 125,44.839844 c -0.36882,0.11393 -1.06097,0.66317 -1.45703,1.183594 -1.03439,1.359168 -1.6538,3.229376 -2.29102,6.865234 -0.35249,2.011204 -0.92514,6.651082 -0.91797,7.478516 l 0.006,0.761718 0.39844,-0.638672 c 0.11077,-0.178123 0.42747,-0.488083 0.70313,-0.683593 0.99749,-0.707456 1.70076,-0.644559 2.71093,0.263671 0.39267,0.353039 0.66688,0.586718 0.78125,0.425782 0.0371,-0.05225 0.025,-0.116741 0.0117,-0.16211 -0.0393,-0.134105 -0.15033,-1.663128 -0.24219,-3.388672 -0.2084,-3.915058 -0.0949,-7.270455 0.29688,-8.896484 0.34347,-1.425325 0.51348,-2.945506 0.2832,-3.175781 -0.0729,-0.07295 -0.18584,-0.06328 -0.2832,-0.0332 z m -2.30664,14.707031 c -0.43154,-0.01192 -0.84633,0.202822 -1.32813,0.615234 -1.16496,0.997164 -1.84473,2.825023 -2.13867,5.666016 -0.15531,1.501229 -0.0336,2.179972 0.53711,2.628906 0.34905,0.274565 0.62185,0.306642 2.00586,0.306641 1.07837,0 1.81235,-0.0713 2.27735,-0.226563 0.37529,-0.125329 0.87484,-0.401931 1.10546,-0.615234 l 0.43164,-0.400391 -0.0801,-2.068359 c -0.12615,-3.218992 -0.41725,-4.3041 -1.45899,-5.21875 -0.49892,-0.438052 -0.92169,-0.675622 -1.35156,-0.6875 z" /></g></svg>
