<?xml version="1.0" encoding="UTF-8" standalone="no"?>
<!-- Created with Inkscape (http://www.inkscape.org/) -->

<svg
   width="13.92483mm"
   height="23.667101mm"
   viewBox="0 0 13.92483 23.667101"
   version="1.1"
   id="svg5"
   xml:space="preserve"
   xmlns="http://www.w3.org/2000/svg"
   xmlns:svg="http://www.w3.org/2000/svg"><defs
     id="defs2" /><g
     id="layer1"
     transform="translate(-48.198085,-72.981586)"><path
       style="fill:#000000;stroke-width:0.139449"
       d="m 48.657303,96.587371 c -0.223696,-0.147 -0.462555,-0.80382 -0.459183,-1.26267 0.0015,-0.20593 0.195521,-0.907802 0.431127,-1.559732 0.625244,-1.73005 1.077279,-3.38571 1.313511,-4.81099 0.486425,-2.93476 0.377683,-7.62493 -0.216847,-9.35297 -0.554807,-1.61257 -0.650247,-4.02512 -0.188436,-4.76335 0.335168,-0.53579 0.974781,-0.77386 1.80155,-0.67056 0.497267,0.0621 0.766457,0.0394 0.834335,-0.0704 0.05511,-0.0892 0.421967,-0.31196 0.815229,-0.49507 1.044675,-0.48642 2.300415,-0.46572 3.332627,0.0549 0.683194,0.34462 0.80452,0.36744 1.030658,0.19393 0.14097,-0.10817 0.57007,-0.34607 0.953555,-0.52868 1.92344,-0.91589 3.626609,0.0815 3.798636,2.22463 0.08742,1.08908 -0.123721,2.05421 -0.748895,3.42325 -0.259238,0.5677 -0.540905,1.44623 -0.625924,1.95229 -0.205431,1.22278 -0.199712,3.49139 0.01163,4.61552 0.193657,1.03003 0.10867,2.67629 -0.226767,4.39264 -0.427783,2.18888 -1.179258,3.65561 -2.588158,5.051612 -1.43092,1.4178 -2.191503,1.29667 -2.311928,-0.368212 -0.05114,-0.70703 0.0069,-0.9602 0.44042,-1.9203 0.845355,-1.87227 0.987356,-3.37942 0.441495,-4.68585 -0.411066,-0.98382 -0.606006,-0.77936 -2.255895,2.366 -1.549487,2.95395 -2.659024,4.641362 -3.376278,5.134722 -0.223007,0.15339 -0.616554,0.44658 -0.874552,0.65152 -0.521395,0.41419 -1.07971,0.59349 -1.331917,0.42776 z"
       id="tooth30" /></g></svg>
