<?xml version="1.0" encoding="UTF-8" standalone="no"?>
<!-- Created with Inkscape (http://www.inkscape.org/) -->

<svg
   width="11.737428mm"
   height="21.109735mm"
   viewBox="0 0 11.737428 21.109735"
   version="1.1"
   id="svg5"
   xml:space="preserve"
   xmlns="http://www.w3.org/2000/svg"
   xmlns:svg="http://www.w3.org/2000/svg"><defs
     id="defs2" /><g
     id="layer1"
     transform="translate(-35.995459,-73.305226)"><path
       id="tooth31"
       style="fill:#000000;stroke-width:0.139449"
       d="m 45.466797,73.335938 c -0.552998,0.09654 -1.209923,0.423881 -2.025391,0.982421 -0.706623,0.483994 -1.046873,0.484598 -2.154297,-0.06055 -1.265628,-0.623075 -2.442822,-0.66032 -3.226562,-0.0625 -0.748078,0.570594 -1.024278,1.41344 -0.960938,2.806641 0.04343,0.955286 0.107798,1.208147 0.457032,1.666016 0.514413,0.674423 1.270889,1.249308 1.865234,1.40039 0.610661,0.155238 1.852835,0.03941 2.494141,-0.228515 0.569489,-0.237948 1.007184,-0.251097 2.136718,-0.04297 1.696009,0.312504 3.081493,-0.42011 3.521485,-1.888672 0.213211,-0.711625 0.211182,-2.444353 -0.0039,-3.162109 -0.09449,-0.315374 -0.394253,-0.768735 -0.662109,-1.003906 -0.415515,-0.364828 -0.87617,-0.504922 -1.441406,-0.40625 z m -8.064453,5.835937 c -0.03615,0.02717 -0.04492,0.06524 -0.04492,0.09375 0,0.063 0.133058,1.02592 0.294922,2.125 0.236113,1.603243 0.279951,2.39552 0.222656,4.074219 -0.07886,2.310593 -0.177147,2.742113 -1.150391,5.023437 -0.750282,1.758701 -0.929919,2.795237 -0.5,3.326172 l 0.337891,0.416016 0.658203,-0.59375 c 0.903472,-0.816228 1.830744,-2.201034 3.394531,-5.052735 0.622439,-1.135066 1.423969,-2.308625 1.550782,-2.349609 0.03462,-0.0112 0.181588,0.03081 0.318359,0.130859 0.196744,0.143856 0.211572,0.170005 0.03906,1.335938 -0.159243,1.076277 -0.945858,3.979189 -1.38086,5.09375 -0.174202,0.446334 -0.227481,1.315488 -0.03711,1.505859 0.197107,0.197113 0.406098,0.135207 0.970703,-0.15625 0.60447,-0.312039 1.417313,-1.135095 1.847656,-1.863281 0.352402,-0.596298 1.164274,-2.969118 1.564453,-4.556641 0.549452,-2.1797 1.550782,-7.274351 1.550781,-7.917968 0,-0.37341 -0.126218,-0.373056 -0.466796,-0.152344 -0.638597,0.413777 -1.537804,0.533798 -2.734375,0.347656 -1.023857,-0.159275 -1.245182,-0.150389 -1.882813,0.07617 -0.392898,0.139579 -1.080273,0.244446 -1.638672,0.248047 -1.055395,0.0069 -1.698152,-0.227237 -2.376953,-0.861328 -0.206429,-0.192831 -0.426243,-0.376313 -0.537109,-0.292969 z" /></g></svg>
