<?xml version="1.0" encoding="UTF-8" standalone="no"?>
<!-- Created with Inkscape (http://www.inkscape.org/) -->

<svg
   width="9.9063883mm"
   height="21.783587mm"
   viewBox="0 0 9.9063883 21.783587"
   version="1.1"
   id="svg5"
   xml:space="preserve"
   xmlns="http://www.w3.org/2000/svg"
   xmlns:svg="http://www.w3.org/2000/svg"><defs
     id="defs2" /><g
     id="layer1"
     transform="translate(-37.47954,-47.248252)"><path
       id="tooth02"
       style="fill:#000000;stroke-width:0.139449"
       d="m 40.476562,47.251953 c -0.221261,-0.031 -0.366797,0.135423 -0.466796,0.398438 -0.188987,0.49708 -0.201249,0.892578 0.123046,0.892578 0.04669,0 0.246777,0.114684 0.419922,0.277343 0.25764,0.242047 0.291016,0.364954 0.291016,1.376954 0,1.516708 0.240071,3.842935 0.507812,4.896484 0.244706,0.962907 0.681928,2.005767 0.9375,2.28125 0.07951,0.0857 0.211634,0.147763 0.292969,0.01953 0.08197,-0.129253 0.131638,-0.973891 0.132813,-1.878906 0.0023,-1.778576 -0.217632,-3.126297 -0.777344,-4.775391 -0.185979,-0.547957 -0.335417,-1.310281 -0.335938,-1.699218 -8.61e-4,-0.632104 -0.079,-0.85238 -0.458984,-1.285157 -0.260293,-0.296457 -0.47118,-0.476606 -0.666016,-0.503905 z m 1.644532,1.277344 c -0.424149,0.162768 -0.362637,0.835568 0.04687,2.132812 0.188167,0.596068 0.439359,1.541479 0.55664,2.09961 0.250436,1.191801 0.279387,3.933887 0.05469,5.052734 l -0.115235,0.572266 -0.205078,-0.275391 C 41.323722,56.595533 40.625,53.718173 40.625,50.476562 c 0,-1.507834 -0.175145,-1.893791 -0.943359,-1.625 -0.679941,0.23791 -1.343365,1.803787 -1.607422,3.634766 -0.208096,1.442931 -0.203431,1.668895 0.09375,4.433594 0.171255,1.593193 0.310146,3.38464 0.308593,3.972656 l -0.002,1.25 L 39.212891,61.75 c 0.47386,-0.251225 0.768027,-0.301633 1.800781,-0.298828 2.857677,0.008 4.906639,0.471985 5.324219,1.140625 0.09134,0.146256 0.241279,0.344658 0.361328,0.224609 0.02897,-0.029 0.03442,-0.07608 0.03516,-0.09375 0.0069,-0.164771 -0.06623,-0.808957 -0.171875,-1.566406 -0.116845,-0.837748 -0.280282,-2.550047 -0.363281,-3.806641 -0.166094,-2.514618 -0.277481,-3.185052 -0.72461,-4.339843 -0.666963,-1.722565 -2.348961,-4.122755 -3.083984,-4.453125 -0.08981,-0.04037 -0.183935,-0.06019 -0.269531,-0.02734 z m -1.177735,13.142578 c -1.718452,0.0051 -2.635407,0.625989 -3.177734,2.160156 -0.587487,1.661926 -0.273457,2.93456 0.972656,3.828125 0.808848,0.580001 1.58469,0.668896 2.382813,0.261719 0.676513,-0.345125 1.007834,-0.295047 1.71289,0.296875 0.498736,0.418717 1.261459,0.786806 1.703125,0.8125 0.129933,0.0078 0.500316,-0.06292 0.855469,-0.152344 1.500967,-0.377948 2.224844,-1.774922 1.927734,-3.634765 -0.234639,-1.468779 -0.72186,-2.280803 -1.78125,-2.935547 -0.582805,-0.360193 -2.695433,-0.642711 -4.595703,-0.636719 z" /></g></svg>
