<?xml version="1.0" encoding="UTF-8" standalone="no"?>
<!-- Created with Inkscape (http://www.inkscape.org/) -->

<svg
   width="210mm"
   height="297mm"
   viewBox="0 0 210 297"
   version="1.1"
   id="svg13318"
   xml:space="preserve"
   inkscape:version="1.2.2 (732a01da63, 2022-12-09)"
   sodipodi:docname="teethv.svg"
   xmlns:inkscape="http://www.inkscape.org/namespaces/inkscape"
   xmlns:sodipodi="http://sodipodi.sourceforge.net/DTD/sodipodi-0.dtd"
   xmlns="http://www.w3.org/2000/svg"
   xmlns:svg="http://www.w3.org/2000/svg"><sodipodi:namedview
     id="namedview13320"
     pagecolor="#ffffff"
     bordercolor="#000000"
     borderopacity="0.25"
     inkscape:showpageshadow="2"
     inkscape:pageopacity="0.0"
     inkscape:pagecheckerboard="0"
     inkscape:deskcolor="#d1d1d1"
     inkscape:document-units="mm"
     showgrid="false"
     inkscape:zoom="1.4033455"
     inkscape:cx="330.28216"
     inkscape:cy="414.72324"
     inkscape:window-width="1366"
     inkscape:window-height="697"
     inkscape:window-x="-8"
     inkscape:window-y="-8"
     inkscape:window-maximized="1"
     inkscape:current-layer="layer1" /><defs
     id="defs13315" /><g
     inkscape:label="Layer 1"
     inkscape:groupmode="layer"
     id="layer1"><path
       id="tooth26"
       style="fill:#000000;stroke-width:0.264583"
       d="m 80.961983,112.51053 c -1.148962,0.0175 -2.124893,0.5145 -2.476851,1.44022 l -0.246497,0.64802 c 7.83e-4,0.0198 0.0015,0.0392 0.0026,0.0589 0.0014,0.0218 0.0021,0.0428 0.0036,0.0646 0.0015,0.0208 0.0046,0.0409 0.0083,0.0615 0.0033,0.0181 0.0074,0.0374 0.01188,0.0553 0.0041,0.0152 0.0067,0.0309 0.0083,0.0465 0.0011,0.0155 0.0015,0.0306 0.0031,0.046 0.0016,0.0171 0.0046,0.0352 0.0078,0.0522 0.0038,0.0197 0.0078,0.0392 0.01189,0.0589 0.0082,0.0381 0.01329,0.0765 0.01809,0.11524 0.0056,0.0503 0.01086,0.10088 0.0217,0.15038 0.01418,0.0505 0.03424,0.0985 0.04909,0.14883 0.01716,0.0619 0.02207,0.12636 0.02687,0.19016 1.55e-4,0.003 3.46e-4,0.006 5.17e-4,0.009 l 0.824239,1.67018 c 1.59114,3.22665 2.953073,3.30829 4.603854,0.27388 1.358664,-2.49746 1.340707,-3.28668 -0.09508,-4.23695 -0.891355,-0.58989 -1.889659,-0.8663 -2.783293,-0.85266 z m 0.189136,0.22621 c 0.406879,0.008 0.847903,0.0827 1.191142,0.22376 0.357506,0.14694 0.03785,0.20912 -0.985987,0.19172 -0.835611,-0.0142 -1.369662,-0.11827 -1.190625,-0.23203 0.206039,-0.13088 0.578591,-0.19098 0.98547,-0.18345 z m 0.112655,0.80409 c 1.642928,0.027 3.052101,0.41437 3.251997,0.93535 0.20076,0.52317 -0.442581,2.3 -1.357023,3.74861 -0.544408,0.86233 -0.849537,1.0945 -1.440222,1.0945 -0.894891,0 -1.352161,-0.46412 -2.281514,-2.3182 -0.471829,-0.94126 -0.671333,-1.71312 -0.615983,-2.38125 l 0.08165,-0.98857 1.645378,-0.0775 c 0.241424,-0.0115 0.481008,-0.0157 0.715719,-0.0119 z m 0.152445,0.62787 c -0.352444,0 -0.704914,0.0331 -0.992187,0.10077 -0.86056,0.20287 -0.728885,0.23461 0.992187,0.23461 1.721073,0 1.852722,-0.0317 0.992188,-0.23461 -0.287298,-0.0677 -0.639743,-0.10077 -0.992188,-0.10077 z" /><path
       id="tooth18"
       style="fill:#000000;stroke-width:0.264583"
       d="m 143.85272,112.50153 c -0.43223,-0.0101 -1.00826,0.0196 -1.84743,0.076 -1.38245,0.0927 -2.80681,0.30875 -3.16519,0.48008 -0.93021,0.44462 -1.85714,1.94864 -1.88774,3.06234 l -0.0264,0.95343 -0.0165,-0.0522 c -0.001,0.007 -0.002,0.0134 -0.003,0.0202 -0.007,0.0378 -0.0173,0.0747 -0.0279,0.11163 -0.0112,0.0389 -0.0249,0.0769 -0.0393,0.11472 -0.0157,0.0406 -0.0301,0.0819 -0.0429,0.1235 -0.0116,0.0361 -0.0209,0.073 -0.0289,0.11007 -0.007,0.0327 -0.0136,0.0653 -0.0196,0.0982 -0.005,0.0302 -0.0105,0.0607 -0.0165,0.0909 -0.005,0.0292 -0.0101,0.0583 -0.0171,0.0873 -0.007,0.0302 -0.0142,0.0599 -0.0222,0.0899 -0.01,0.0357 -0.0198,0.071 -0.0305,0.10645 -0.0123,0.04 -0.0242,0.0804 -0.0346,0.12093 -0.009,0.0345 -0.0164,0.0692 -0.0232,0.10387 -0.006,0.0278 -0.011,0.0555 -0.014,0.0837 -0.002,0.0253 -0.004,0.0511 -0.005,0.0765 0,0.0299 -0.003,0.0596 -0.006,0.0894 -0.003,0.0331 -0.005,0.066 -0.007,0.0992 -0.002,0.0357 -0.004,0.0714 -0.007,0.10697 -0.003,0.0327 -0.006,0.0658 -0.005,0.0987 10e-4,0.0311 0.003,0.062 0.003,0.093 -2.2e-4,0.009 -0.001,0.0186 -0.002,0.0279 0.0485,0.12468 0.11222,0.36886 0.17931,0.71158 0.27841,1.42195 0.97674,2.43481 1.8495,2.68201 0.35068,0.0993 1.70885,0.11769 3.01842,0.0424 4.18155,-0.24331 5.55495,-1.57793 5.54695,-5.3914 -0.005,-2.25609 -0.37752,-3.08464 -1.79059,-3.9765 -0.47054,-0.29698 -0.79096,-0.42399 -1.51102,-0.4408 z m -0.53227,0.26911 c 0.73132,-0.0204 1.13889,0.0676 1.64745,0.28009 1.32827,0.55509 1.87843,1.70094 1.87843,3.91346 0,2.01 -0.58725,3.47161 -1.73012,4.30671 -0.53093,0.388 -1.31294,0.57029 -2.91042,0.67851 -3.01468,0.20421 -3.73828,0.0939 -4.46639,-0.68161 -0.58256,-0.62051 -0.62318,-0.85116 -0.55708,-3.18172 0.0774,-2.73137 0.49219,-4.11041 1.37821,-4.58473 0.3125,-0.16725 1.66346,-0.42829 3.00189,-0.58033 0.76401,-0.0868 1.31924,-0.13812 1.75803,-0.15038 z m -2.46548,2.44814 -0.10387,1.18649 c -0.0574,0.65245 -0.24515,1.27563 -0.41703,1.38493 -0.53539,0.34049 -1.71063,0.2262 -2.14561,-0.20878 -0.37797,-0.37797 -0.41599,-0.36803 -0.41599,0.11007 0,0.46455 0.17778,0.5249 1.52135,0.5209 2.21811,-0.007 2.25781,0.002 2.07791,0.47077 -0.089,0.2318 -0.22157,0.73782 -0.29507,1.12448 h -5.2e-4 c -0.0996,0.52447 -0.0448,0.47363 0.21549,-0.19998 0.28667,-0.74177 0.56519,-0.966 1.56063,-1.25626 1.03182,-0.30086 1.32142,-0.29675 1.94975,0.0284 0.74658,0.38733 1.17254,0.33329 1.17254,-0.14986 0,-0.1455 -0.11983,-0.19042 -0.26665,-0.0992 -0.14682,0.0907 -0.51791,0.0853 -0.82424,-0.0119 -0.47191,-0.14977 -0.53431,-0.32413 -0.41031,-1.14153 l 0.14625,-0.9648 -0.447,0.91622 c -0.33822,0.69327 -0.67225,0.96378 -1.37305,1.11259 -1.54805,0.32871 -1.84577,0.10111 -1.89807,-1.45107 z" /><path
       id="tooth23"
       style="fill:#000000;stroke-width:0.264583"
       d="m 101.28116,112.47623 c -0.90359,0.0102 -1.860649,0.3406 -2.620515,0.95395 -0.53483,0.4317 -1.012318,1.05345 -1.060918,1.38182 -0.197822,1.33749 2.199205,5.03794 3.263363,5.03794 0.66362,0 1.66525,-1.08159 2.39727,-2.58847 l 0.75345,-1.55133 0.016,0.0341 c 0.002,-0.007 0.004,-0.0148 0.006,-0.0222 0.0165,-0.0597 0.0374,-0.11837 0.0548,-0.17777 0.0206,-0.07 0.0343,-0.14153 0.046,-0.21343 0.0178,-0.10888 0.0352,-0.2175 0.0517,-0.32659 0.0162,-0.1057 0.0312,-0.21161 0.0444,-0.31781 -0.30551,-1.06515 -0.64014,-1.46269 -1.43712,-1.87482 -0.44962,-0.23251 -0.97248,-0.34153 -1.51463,-0.33538 z m 0.15606,0.25551 c 0.47967,-0.0104 0.89336,0.0452 0.97203,0.17312 0.0671,0.10914 -0.55105,0.21297 -1.37356,0.23047 -0.98541,0.021 -1.314953,-0.0403 -0.96635,-0.17983 0.34241,-0.13702 0.88821,-0.21341 1.36788,-0.22376 z m 0.0847,0.76669 c 1.72344,0 1.88853,0.0498 2.16111,0.64802 0.24048,0.5278 0.18238,0.92604 -0.31368,2.14819 -0.33488,0.82509 -0.89721,1.84312 -1.25005,2.26239 -0.80229,0.95345 -1.94639,1.02943 -2.51096,0.16692 -0.807445,-1.23359 -1.788004,-3.37614 -1.788004,-3.90726 0,-0.797 1.463456,-1.31826 3.701584,-1.31826 z m -0.25988,0.59947 c -0.30611,-5e-5 -0.62699,0.0448 -0.971,0.1359 -0.956158,0.25327 -0.907778,0.26949 0.83664,0.26976 1.62786,2.9e-4 1.75109,-0.032 1.01544,-0.26872 -0.28365,-0.0912 -0.57498,-0.1369 -0.88108,-0.13694 z" /><path
       id="tooth24"
       style="fill:#000000;stroke-width:0.264583"
       d="m 94.099166,112.47571 v 5.2e-4 c -0.727996,0.0327 -1.458311,0.23591 -2.042253,0.64492 -1.094559,0.76668 -0.490702,3.95024 1.063501,5.60586 0.695766,0.74114 0.999561,0.74476 1.918746,0.0217 0.805123,-0.63334 2.251795,-3.45157 2.252059,-4.38733 4.22e-4,-1.20406 -1.590458,-1.95771 -3.192053,-1.88567 z m 0.281636,0.26503 c 0.11989,0 0.239779,0.0181 0.33073,0.0548 0.181876,0.0733 0.03307,0.13384 -0.33073,0.13384 -0.363774,0 -0.51263,-0.0604 -0.330729,-0.13384 0.09095,-0.0367 0.210864,-0.0548 0.330729,-0.0548 z m -0.166914,0.49292 c 1.782517,0 2.813013,0.3619 2.812748,0.9865 -3.23e-4,0.7251 -1.457317,3.63543 -2.137337,4.26899 -0.33432,0.31138 -0.710604,0.56586 -0.835608,0.56586 -0.467635,0 -1.502094,-1.40231 -1.903243,-2.57969 -0.881325,-2.58651 -0.464431,-3.24166 2.06344,-3.24166 z m 0.134875,0.82394 c -0.287734,-5.3e-4 -0.585431,0.0135 -0.823206,0.0429 v 5.2e-4 c -0.475524,0.0589 -0.150146,0.10755 0.722954,0.10955 0.87311,10e-4 1.262122,-0.0466 0.864546,-0.10697 -0.198763,-0.0303 -0.47656,-0.0455 -0.764294,-0.046 z" /><path
       id="tooth28"
       style="fill:#000000;stroke-width:0.264583"
       d="m 67.080143,112.46871 c -0.498719,0.009 -0.772502,0.21183 -1.400948,0.84026 -0.51427,0.51429 -1.009595,1.30972 -1.101225,1.76785 l -0.155029,0.77411 c 0.001,0.0162 0.0024,0.0324 0.0026,0.0486 2.36e-4,0.025 0.001,0.0498 0.001,0.0749 8e-4,0.0254 0.002,0.0512 0.0041,0.0765 0.0013,0.0182 0.0026,0.0367 0.0052,0.0548 0.0029,0.0194 0.0058,0.0389 0.0078,0.0584 0.0021,0.0171 0.0048,0.0342 0.0078,0.0512 0.0029,0.0174 0.0051,0.0351 0.0067,0.0527 0.0019,0.0171 0.0032,0.0342 0.0052,0.0512 0.0021,0.0165 0.0042,0.0327 0.0072,0.0491 0.0027,0.0138 0.0052,0.0288 0.0062,0.0429 4.02e-4,0.0119 -4.7e-5,0.0232 0,0.0351 -2.8e-5,0.0106 1.6e-4,0.0214 0,0.032 -1.4e-4,0.01 -0.001,0.0195 -0.001,0.0295 -8e-4,0.01 -0.002,0.0194 -0.0036,0.0294 -0.0012,0.0106 -0.0027,0.0214 -0.0036,0.032 -0.0011,0.0104 -0.0016,0.0207 -0.0026,0.031 -9e-4,0.01 -0.0026,0.0199 -0.0036,0.03 -0.0011,0.0116 -0.0018,0.0234 -0.0021,0.0351 1.1e-5,0.0143 -5.4e-5,0.0286 0,0.0429 6.2e-5,0.0131 1.98e-4,0.0262 5.17e-4,0.0393 4e-4,0.014 0.0013,0.0281 0.0026,0.0418 0.0016,0.0155 0.0039,0.0312 0.0072,0.0465 0.0031,0.0143 0.0063,0.0285 0.0088,0.0429 0.0025,0.0141 0.0054,0.0279 0.01034,0.0414 0.0041,0.0119 0.0081,0.0241 0.01344,0.0357 0.0045,0.01 0.0092,0.0196 0.01344,0.0295 0.0042,0.01 0.0081,0.0206 0.01137,0.031 0.003,0.009 0.0062,0.0194 0.0093,0.0284 0.0032,0.01 0.0063,0.019 0.0088,0.0289 0.0027,0.0108 0.0055,0.0226 0.0072,0.0336 0.0017,0.0132 0.0034,0.0261 0.0047,0.0393 0.0016,0.0157 0.0029,0.0313 0.0041,0.047 0.0016,0.0184 0.0033,0.0369 0.0057,0.0553 0.0023,0.0159 0.0049,0.0321 0.0067,0.0481 0.0018,0.0127 0.0039,0.0252 0.0072,0.0377 0.0043,0.0172 0.0085,0.0347 0.01189,0.0522 0.0016,0.009 0.0033,0.0176 0.0047,0.0264 0.05891,0.0654 0.152865,0.29777 0.307992,0.73484 0.209844,0.59123 0.718701,1.47805 1.130163,1.97094 0.607013,0.72711 0.935533,0.89607 1.743046,0.89607 0.853318,0 1.180361,-0.1944 2.292367,-1.36013 0.757958,-0.79459 1.36757,-1.71001 1.46606,-2.20245 l 0.15813,-0.7922 c -5.76e-4,-0.004 -10e-4,-0.008 -0.0015,-0.0124 -0.0023,-0.0228 -0.0041,-0.0454 -0.0067,-0.0682 l -5.17e-4,-5.2e-4 c -7.73e-4,-0.002 -0.0013,-0.004 -0.0021,-0.005 -0.0033,-0.007 -8.68e-4,-0.0122 0.0031,-0.0129 0.0011,-2e-4 0.0024,5e-5 0.0036,5.2e-4 -0.0078,-0.0121 -0.01422,-0.0251 -0.02015,-0.0382 -0.0043,-0.01 -0.0071,-0.0195 -0.01033,-0.0295 -1.05e-4,-3.2e-4 -4.32e-4,-0.001 -5.17e-4,-0.001 v -5.2e-4 c -0.0041,-0.005 -0.0085,-0.009 -0.0124,-0.014 -0.006,-0.008 -0.01154,-0.0163 -0.01654,-0.0243 -0.0044,-0.008 -0.0079,-0.0163 -0.01137,-0.0243 -0.0037,-0.009 -0.0075,-0.0173 -0.01189,-0.0263 -0.0049,-0.009 -0.0098,-0.0179 -0.01447,-0.0269 -0.0039,-0.008 -0.0084,-0.0147 -0.0124,-0.0227 -0.0041,-0.008 -0.0078,-0.0158 -0.01137,-0.0238 -0.0036,-0.008 -0.0075,-0.0163 -0.01085,-0.0253 -0.0032,-0.008 -0.0057,-0.0158 -0.0083,-0.0238 -0.0026,-0.008 -0.0046,-0.0168 -0.0067,-0.0248 -0.002,-0.008 -0.0037,-0.0163 -0.0062,-0.0243 -0.0025,-0.008 -0.0057,-0.0142 -0.0083,-0.0222 -0.0029,-0.008 -0.0055,-0.0178 -0.0083,-0.0258 -0.0027,-0.008 -0.0051,-0.0168 -0.0078,-0.0248 -0.0029,-0.009 -0.006,-0.0174 -0.0088,-0.0264 -0.0028,-0.009 -0.0061,-0.0189 -0.0098,-0.0279 -0.0036,-0.009 -0.0067,-0.0174 -0.0098,-0.0264 -0.0038,-0.0104 -0.0078,-0.0203 -0.01188,-0.0305 -0.0041,-0.0106 -0.0091,-0.0212 -0.01395,-0.0315 -0.0054,-0.011 -0.01019,-0.0219 -0.01499,-0.0331 -0.0045,-0.0101 -0.0086,-0.0208 -0.01292,-0.031 -0.0046,-0.01 -0.009,-0.0202 -0.01292,-0.0305 -0.0044,-0.0116 -0.0084,-0.0228 -0.0124,-0.0346 -0.004,-0.0124 -0.0096,-0.0247 -0.0155,-0.0362 -0.0062,-0.0126 -0.01315,-0.0246 -0.02015,-0.0367 -0.0071,-0.012 -0.01375,-0.0243 -0.02015,-0.0367 -0.0069,-0.0131 -0.01227,-0.027 -0.01757,-0.0408 -0.0056,-0.0151 -0.01062,-0.0304 -0.01602,-0.0455 -0.0048,-0.0141 -0.01009,-0.0283 -0.01499,-0.0424 -0.0044,-0.0134 -0.0084,-0.0265 -0.01292,-0.0398 -0.0041,-0.0126 -0.0078,-0.0254 -0.01137,-0.0382 -0.0036,-0.0124 -0.0068,-0.0249 -0.01034,-0.0372 -0.0037,-0.0122 -0.0083,-0.0243 -0.01292,-0.0362 -0.005,-0.0132 -0.01077,-0.0258 -0.01757,-0.0382 -0.0076,-0.0133 -0.01534,-0.0264 -0.02274,-0.0398 -0.0075,-0.0128 -0.01362,-0.0262 -0.01964,-0.0398 l -0.0026,-0.005 c -4.1e-4,-0.001 -0.001,-0.002 -0.001,-0.003 l -0.291455,-0.63924 c -0.440268,-0.96625 -2.023165,-2.05376 -3.224092,-2.21485 -0.237657,-0.0319 -0.429066,-0.0508 -0.595313,-0.0481 z m 0.276986,0.28333 c 0.203949,0.0111 0.447866,0.0722 0.791683,0.17518 1.285487,0.38515 2.85741,2.06404 3.089217,3.29954 0.192881,1.02815 -0.462361,2.56957 -1.503784,3.53829 -0.938991,0.87344 -1.881539,1.15597 -2.623613,0.786 -0.915063,-0.45614 -1.756383,-1.84955 -2.132686,-3.53105 -0.297905,-1.33109 -0.280453,-1.56312 0.182935,-2.40916 0.282026,-0.51499 0.835915,-1.1746 1.230932,-1.46554 0.396274,-0.29194 0.6254,-0.41178 0.965316,-0.39326 z m -0.826823,3.26083 -0.163814,0.92605 c -0.141351,0.79999 -0.07384,0.9756 0.497644,1.29087 0.363777,0.2007 1.01867,0.45025 1.455208,0.55449 0.94807,0.22636 1.102821,0.11868 1.318266,-0.91932 l 0.164331,-0.79375 -0.418579,0.7276 c -0.764653,1.32769 -2.752263,0.66409 -2.818433,-0.94103 z" /><path
       id="tooth29"
       style="fill:#000000;stroke-width:0.264583"
       d="m 60.72911,112.45471 c -1.399479,0.0211 -2.782385,1.08731 -3.396692,3.12074 l -0.09715,0.32091 c 6.45e-4,0.009 7.6e-4,0.0181 -5.17e-4,0.0284 -0.0056,0.046 -0.0072,0.0922 -0.0088,0.13849 -0.002,0.0651 -0.0027,0.13024 -0.0031,0.19534 -6e-4,0.0637 0.01105,0.12633 0.02015,0.18913 0.008,0.0548 0.01387,0.11007 0.01757,0.16537 0.006,0.0582 0.01075,0.11626 0.01395,0.17466 0.0011,0.0543 0.0046,0.10878 0.0093,0.16278 0.0012,0.0533 0.01553,0.10458 0.02584,0.15658 0.01725,0.0699 0.02522,0.14079 0.03152,0.21239 0.0062,0.0694 0.01094,0.13916 0.01964,0.20826 0.01519,0.0871 0.0316,0.17398 0.04444,0.26148 0.0076,0.0688 0.02179,0.13697 0.03049,0.20567 0.0085,0.0715 0.01187,0.14308 0.01447,0.21498 0.0024,0.0795 -0.0024,0.15934 -0.0052,0.23874 -0.0024,0.0667 -0.0033,0.13329 -0.0041,0.19999 3.3e-4,0.0485 0.0065,0.0967 0.01292,0.1447 0.0065,0.0487 0.0093,0.0977 0.01137,0.14676 0.0025,0.0434 0.01363,0.0855 0.02377,0.12764 0.0085,0.0364 0.0045,0.0181 0.0124,0.0543 0.0092,0.042 -0.001,0.0719 -0.0186,0.0868 l 0.344165,0.68523 c 0.952789,1.89647 3.659164,2.70966 5.140255,1.54461 0.691691,-0.5441 1.499917,-2.4827 1.536857,-3.68608 0.0075,-0.24557 0.02554,-0.36424 0.0677,-0.35708 -3.2e-4,-0.002 -0.001,-0.003 -0.001,-0.005 -0.0033,-0.017 -0.0072,-0.0323 -0.01137,-0.0491 -0.0035,-0.0132 -0.0058,-0.0268 -0.0078,-0.0403 -0.0018,-0.016 -0.0044,-0.0332 -0.0067,-0.0491 -0.0025,-0.0188 -0.0045,-0.0369 -0.0062,-0.0558 -0.0012,-0.0156 -0.0025,-0.0305 -0.0041,-0.046 -0.0012,-0.013 -0.003,-0.0243 -0.0047,-0.0372 -0.0017,-0.0102 -0.0037,-0.021 -0.0062,-0.031 -0.0024,-0.01 -0.0058,-0.0184 -0.0088,-0.0274 -0.0031,-0.01 -0.0058,-0.0179 -0.0088,-0.0279 -0.0031,-0.01 -0.007,-0.0189 -0.01085,-0.0279 -0.0041,-0.01 -0.0085,-0.0174 -0.01292,-0.0274 -0.0056,-0.0121 -0.01007,-0.0246 -0.01447,-0.0372 -0.0053,-0.0146 -0.0086,-0.0307 -0.01137,-0.046 -0.0025,-0.0141 -0.0058,-0.0294 -0.0088,-0.0434 -0.0035,-0.0161 -0.0061,-0.0327 -0.0078,-0.0491 -0.0014,-0.0145 -0.0017,-0.0288 -0.0021,-0.0434 -3.24e-4,-0.0133 -4.54e-4,-0.0265 -5.17e-4,-0.0398 -5.4e-5,-0.0144 10e-6,-0.029 0,-0.0434 3e-4,-0.0124 1.64e-4,-0.0244 0.0021,-0.0367 9e-4,-0.01 0.0022,-0.0209 0.0031,-0.031 0.001,-0.0104 0.0021,-0.0206 0.0031,-0.031 0.001,-0.0107 0.0019,-0.0203 0.0031,-0.031 0.0015,-0.01 0.0028,-0.0174 0.0036,-0.0274 7.15e-4,-0.009 0.001,-0.0189 0.001,-0.0279 1.57e-4,-0.0105 4.89e-4,-0.0205 5.17e-4,-0.031 -7.8e-5,-0.0116 -9.6e-5,-0.022 -5.17e-4,-0.0336 -0.0011,-0.0129 -0.0033,-0.0245 -0.0057,-0.0372 -0.0031,-0.0168 -0.005,-0.0352 -0.0072,-0.0522 -0.002,-0.0172 -0.0038,-0.035 -0.0057,-0.0522 -0.0016,-0.0172 -0.0034,-0.0357 -0.0062,-0.0527 -0.003,-0.0174 -0.0057,-0.0347 -0.0078,-0.0522 -0.002,-0.0192 -0.0054,-0.0397 -0.0083,-0.0589 -0.0026,-0.0186 -0.0048,-0.0365 -0.0062,-0.0553 -0.0022,-0.0256 -0.0023,-0.0513 -0.0031,-0.077 -7.16e-4,-0.0253 -10e-4,-0.0517 -10e-4,-0.077 -5.8e-5,-0.003 -3.63e-4,-0.007 -5.17e-4,-0.01 l -0.445968,-0.99683 c -0.743758,-1.662 -1.991867,-2.45672 -3.226676,-2.4381 z m 0.04961,0.25173 c 3.10522,0 4.586728,5.77282 2.115633,8.24394 -1.370928,1.37098 -3.770103,0.69204 -4.844149,-1.37046 -0.623733,-1.19775 -0.502573,-4.28618 0.21084,-5.37486 0.536879,-0.81938 1.678022,-1.49862 2.517676,-1.49862 z m -1.635043,3.57102 -0.264067,0.91984 c -0.238236,0.83064 -0.195833,0.97824 0.436149,1.52187 0.427993,0.36808 0.622672,0.73013 0.501778,0.93224 -0.151091,0.25166 -0.108188,0.25941 0.182935,0.0336 0.209836,-0.16293 0.842113,-0.44432 1.405082,-0.6258 0.844562,-0.27221 1.063611,-0.26686 1.252637,0.031 0.144874,0.22869 0.217624,-0.12407 0.197404,-0.96067 -0.01759,-0.72756 -0.08404,-1.02577 -0.147278,-0.66197 -0.1553,0.89334 -0.780747,1.32343 -1.927014,1.32343 -1.194756,0 -1.583495,-0.37938 -1.613855,-1.57458 z" /><path
       id="tooth31"
       style="fill:#000000;stroke-width:0.264583"
       d="m 38.925789,112.45071 c -0.774969,-0.0221 -1.084603,0.0965 -1.640726,0.39791 -1.458182,0.79012 -1.994514,1.93571 -1.979724,4.23023 0.01501,2.32941 0.688322,3.74678 2.176611,4.58318 0.791934,0.44511 1.526938,0.56622 3.796151,0.62632 2.739362,0.0725 2.833226,0.0559 3.521232,-0.62942 0.526618,-0.52459 0.740125,-1.05129 0.837675,-2.06654 l 0.08888,-0.92139 v -5.1e-4 c -0.0118,-0.057 -0.0067,-0.0294 -0.01705,-0.0853 -0.01056,-0.0692 -0.01591,-0.13919 -0.0155,-0.20929 -0.0012,-0.0572 -0.0028,-0.11405 -0.0078,-0.17105 -0.0058,-0.0634 -0.01355,-0.12695 -0.0248,-0.18965 -0.0087,-0.068 -0.01929,-0.13572 -0.02429,-0.20412 -0.007,-0.0656 -0.01049,-0.13129 -0.01809,-0.19689 -0.0081,-0.0612 -0.01707,-0.12229 -0.02067,-0.18397 -0.0039,-0.0692 2.15e-4,-0.13854 -0.0016,-0.20774 5e-4,-0.10323 6e-4,-0.20632 0.0026,-0.30954 0.0021,-0.11118 0.0057,-0.2222 0.01033,-0.33331 0.0049,-0.13096 0.008,-0.26217 0.0067,-0.39326 -0.105108,-0.15107 -0.182934,-0.43582 -0.182934,-0.72192 0,-0.36422 -0.37771,-1.06235 -0.859896,-1.58853 -0.828679,-0.90427 -0.96053,-0.94992 -3.595646,-1.2423 -0.953987,-0.10588 -1.586559,-0.16965 -2.051555,-0.18294 z m -0.439766,0.42483 c 0.339706,-0.006 0.772889,0.004 1.347721,0.0181 4.347959,0.10539 5.22531,0.82086 5.508708,4.49585 0.176649,2.29071 -0.168456,3.88941 -0.922941,4.2783 -1.395488,0.71923 -5.865561,0.44576 -7.101892,-0.4346 -1.302742,-0.92765 -1.742993,-2.16373 -1.632975,-4.58629 0.0883,-1.94425 0.152456,-2.14103 0.960664,-2.94659 0.643114,-0.64101 0.82162,-0.80597 1.840715,-0.82475 z m 3.074748,2.41074 c -0.04015,-0.0222 -0.04938,0.34321 -0.06615,1.17151 -0.03379,1.66969 -0.376982,1.98484 -1.793689,1.64589 -0.96985,-0.23205 -1.4118,-0.59088 -1.4118,-1.1467 0,-0.24541 -0.169475,-0.67768 -0.376721,-0.96015 -0.33259,-0.45327 -0.341292,-0.3798 -0.0739,0.62529 0.252121,0.94733 0.237942,1.18168 -0.08578,1.39268 -0.21405,0.13987 -0.588733,0.20599 -0.832507,0.14779 -0.292722,-0.0699 -0.395824,0.0191 -0.302824,0.26149 0.174672,0.45522 0.20547,0.45441 1.122412,-0.0191 0.592251,-0.30628 0.932909,-0.32571 1.640727,-0.0925 0.491251,0.16186 1.044556,0.33304 1.229382,0.38034 0.184852,0.0473 0.417566,0.47602 0.517281,0.9524 0.106141,0.50689 0.220583,0.67938 0.275953,0.41651 0.05203,-0.24704 -0.03247,-0.68582 -0.187586,-0.97565 -0.392805,-0.73391 0.0398,-0.9393 1.898592,-0.9002 1.356475,0.0285 1.524972,-0.0262 1.524972,-0.49403 0,-0.47812 -0.0375,-0.48804 -0.415479,-0.11007 -0.657224,0.65725 -2.838643,0.40342 -2.424658,-0.28215 0.07573,-0.12541 0.0449,-0.70414 -0.06821,-1.28623 -0.0883,-0.45439 -0.138629,-0.70866 -0.170015,-0.72709 z" /><path
       id="tooth27"
       style="fill:#000000;stroke-width:0.264583"
       d="m 74.66366,112.44871 v 5.2e-4 5.1e-4 c -1.350492,0.006 -2.787783,0.84333 -3.186886,2.06499 l -0.275435,0.84336 c 0.0012,0.003 0.0023,0.006 0.0036,0.009 0.0065,0.015 0.0135,0.0298 0.0217,0.0439 0.0074,0.0134 0.01514,0.027 0.02274,0.0403 0.0071,0.013 0.0134,0.026 0.0186,0.0398 0.0048,0.0124 0.0095,0.0251 0.01344,0.0377 0.0035,0.0123 0.0063,0.0244 0.0098,0.0367 0.0035,0.0125 0.0073,0.0253 0.01137,0.0377 0.0044,0.0133 0.0086,0.0265 0.01292,0.0398 0.0048,0.0141 0.01019,0.0283 0.01499,0.0424 0.0054,0.015 0.01042,0.0301 0.01602,0.045 0.0051,0.0134 0.0099,0.0266 0.01654,0.0393 0.0063,0.0122 0.01315,0.0244 0.02015,0.0362 0.0072,0.0124 0.01385,0.0249 0.02015,0.0377 0.0061,0.0121 0.01234,0.0242 0.01654,0.0372 0.004,0.0117 0.0075,0.0231 0.01189,0.0346 0.0039,0.0101 0.0084,0.02 0.01292,0.03 0.0043,0.0101 0.0089,0.0204 0.01344,0.0305 0.0047,0.011 0.0092,0.0216 0.01447,0.0326 0.0051,0.0106 0.01017,0.0211 0.01447,0.032 0.0042,0.0104 0.0081,0.021 0.01189,0.0315 0.003,0.009 0.0062,0.0178 0.0098,0.0258 0.0039,0.009 0.0069,0.0184 0.0098,0.0284 0.0029,0.009 0.0059,0.0174 0.0088,0.0264 0.0027,0.008 0.0051,0.0168 0.0078,0.0248 0.0028,0.008 0.0054,0.0173 0.0083,0.0253 0.0026,0.008 0.0057,0.0158 0.0083,0.0238 0.0025,0.008 0.0046,0.0163 0.0067,0.0243 0.002,0.008 0.0037,0.0163 0.0062,0.0243 0.0025,0.008 0.0052,0.0157 0.0083,0.0227 0.0032,0.008 0.0063,0.0168 0.0098,0.0248 0.0035,0.008 0.0075,0.0147 0.01137,0.0227 0.004,0.008 0.0084,0.0147 0.0124,0.0227 0.0047,0.009 0.0091,0.0184 0.01395,0.0274 0.0045,0.009 0.0091,0.0179 0.01292,0.0269 0.0033,0.008 0.0062,0.0157 0.01033,0.0227 0.0046,0.008 0.0099,0.0152 0.0155,0.0222 0.0059,0.007 0.0122,0.0147 0.0186,0.0217 0.0057,0.006 0.01067,0.0127 0.01447,0.0207 0.0032,0.006 0.006,0.0121 0.0083,0.0191 0.0022,0.006 0.0045,0.0111 0.0067,0.0171 0.0018,0.004 0.0039,0.008 0.0062,0.0119 0.0031,0.005 0.0061,0.01 0.0078,0.016 0.0022,0.007 0.0036,0.0137 0.0046,0.0217 0.0012,0.009 0.0028,0.0184 0.0041,0.0274 0.0013,0.008 0.0027,0.0168 0.0052,0.0248 0.0014,0.005 0.0025,0.0105 0.0036,0.0155 l 0.557072,0.92191 c 0.914584,1.51544 2.005422,2.52853 2.722831,2.52853 0.881043,0 2.271528,-1.52881 2.884061,-3.17087 l 0.486792,-1.30586 c -0.0045,-0.0582 -0.0098,-0.11675 -0.02532,-0.17312 -0.01496,-0.0508 -0.03556,-0.0994 -0.04961,-0.15038 -0.01092,-0.0502 -0.0161,-0.10144 -0.0217,-0.15244 -0.0047,-0.0381 -0.01,-0.0761 -0.01809,-0.11369 -0.0041,-0.0198 -0.0081,-0.039 -0.01189,-0.0589 -0.0033,-0.0175 -0.0062,-0.035 -0.0078,-0.0527 -0.0016,-0.0154 -0.0025,-0.031 -0.0036,-0.0465 -0.0015,-0.0146 -0.0034,-0.0292 -0.0072,-0.0434 -0.0046,-0.0184 -0.009,-0.0367 -0.0124,-0.0553 -0.0038,-0.0214 -0.0072,-0.043 -0.0088,-0.0646 -0.0015,-0.0219 -0.0017,-0.0437 -0.0031,-0.0656 -3.64e-4,-0.007 -0.001,-0.0134 -0.001,-0.0202 l -0.846977,-0.8015 c -0.467621,-0.44252 -1.110481,-0.93773 -1.428336,-1.10071 -0.389186,-0.19955 -0.829877,-0.29074 -1.280025,-0.28887 z m -0.0062,0.25773 c 1.370519,0 3.2943,1.65877 3.31091,2.8546 0.01035,0.74489 -0.789187,2.35068 -1.722376,3.45974 -0.383693,0.45599 -0.93173,0.82941 -1.218013,0.82941 -1.246972,0 -3.694153,-3.95636 -3.24218,-5.24154 0.320233,-0.91058 1.817794,-1.90221 2.871659,-1.90221 z m 0.144176,1.61057 c -0.654844,-0.009 -1.355486,0.0878 -1.557011,0.21549 -0.225705,0.14293 0.129905,0.18334 0.926042,0.10594 1.79192,-0.1743 2.041701,-0.30153 0.630969,-0.32143 z" /><path
       id="tooth21"
       style="fill:#000000;stroke-width:0.264583"
       d="m 115.16558,112.44271 c -1.15207,0 -2.524,0.79233 -3.35277,1.93631 -0.4049,0.55898 -0.593,0.79754 -0.68213,0.79065 -0.0317,0.0643 -0.0594,0.13039 -0.0847,0.19741 -0.0214,0.0559 -0.0376,0.11345 -0.0512,0.17156 -4.5e-4,0.002 -0.001,0.004 -0.002,0.006 -10e-4,0.006 -0.003,0.0122 -0.004,0.0186 -0.0175,0.0982 -0.0336,0.19699 -0.0491,0.29559 -0.002,0.0156 -0.006,0.0309 -0.009,0.0465 -7.2e-4,0.005 -10e-4,0.01 -0.002,0.015 -0.0102,0.0741 -0.0239,0.14768 -0.0377,0.22118 -0.007,0.034 -0.0131,0.0683 -0.0191,0.10232 -0.004,0.0194 -0.0133,0.0308 -0.0233,0.0336 -0.0176,0.0563 -0.0338,0.11301 -0.0553,0.16795 -0.0217,0.0614 -0.0426,0.1226 -0.061,0.185 l 0.17467,0.7953 c 0.21957,0.99967 1.98803,3.04222 2.99464,3.45922 0.53549,0.22184 0.96031,0.23376 1.46607,0.0424 0.776,-0.29508 2.27973,-2.43861 2.32233,-3.31091 0.008,-0.15357 0.0434,-0.15617 0.0935,-0.0532 0.001,-0.008 0.003,-0.0155 0.005,-0.0233 0.002,-0.009 0.004,-0.0187 0.006,-0.0279 -0.003,-0.007 -0.005,-0.0148 -0.004,-0.0258 0.007,-0.0627 0.0105,-0.12572 0.0155,-0.18862 0.008,-0.13444 0.0183,-0.26813 0.0367,-0.40153 0.02,-0.14357 0.0492,-0.28531 0.0801,-0.42684 0.0186,-0.0849 0.0372,-0.16993 0.0558,-0.25477 l -0.0248,-0.78393 c -0.0365,-1.14667 -1.75611,-2.98741 -2.79053,-2.98741 z m -0.20722,0.37703 c 0.84926,0.0104 1.64232,0.47478 2.20865,1.39113 0.90819,1.46948 0.37156,4.15173 -1.16737,5.83478 -1.18729,1.29847 -3.59466,0.15143 -4.56717,-2.17609 -0.50225,-1.20256 -0.1914,-2.3815 0.98134,-3.71709 0.78993,-0.89968 1.69528,-1.34317 2.54455,-1.33273 z m 1.01131,3.19313 -0.1447,0.92346 c -0.24136,1.53663 -2.37166,2.11709 -2.80138,0.76326 -0.0935,-0.29456 -0.21947,-0.48643 -0.27957,-0.42633 -0.0601,0.0601 0.0172,0.47172 0.17157,0.91467 0.25788,0.73967 0.3495,0.78902 1.12551,0.60617 1.84979,-0.43585 2.20156,-0.74416 2.05931,-1.80609 z" /><path
       id="tooth17"
       style="fill:#000000;stroke-width:0.264583"
       d="m 152.37054,112.44219 c -2.43554,0 -2.71431,0.0534 -3.43079,0.65629 -1.13938,0.95873 -1.46974,1.9768 -1.3131,4.0473 0.18109,2.39358 0.81093,3.87126 1.87327,4.3956 0.64929,0.32052 1.32237,0.37856 2.95692,0.25683 3.64305,-0.27128 4.70483,-1.29103 4.85811,-4.66638 0.17268,-3.80241 -0.76249,-4.68964 -4.94441,-4.68964 z m -0.14469,0.26425 c 4.03498,0 4.99534,0.87565 4.81779,4.39146 -0.10322,2.04397 -0.51783,2.91568 -1.82469,3.83543 -0.8819,0.62066 -4.3238,0.84607 -5.48184,0.35915 -0.92565,-0.38914 -1.25491,-1.01121 -1.69912,-3.20963 -0.40028,-1.98083 -0.0861,-3.60823 0.88315,-4.57749 0.77603,-0.77602 0.86928,-0.79892 3.30471,-0.79892 z m 0.11627,2.51834 c -0.0131,-0.003 -0.0283,6.5e-4 -0.0455,0.0119 -0.12997,0.0803 -0.23668,0.35093 -0.23668,0.601 0,0.25008 -0.18533,0.71942 -0.41186,1.04283 -0.49845,0.71164 -1.88808,0.79958 -2.36317,0.14986 -0.26864,-0.36734 -0.29988,-0.29914 -0.19378,0.42375 0.0695,0.47377 0.20044,0.76002 0.29094,0.63614 0.0905,-0.12388 0.46199,-0.23924 0.82579,-0.25684 0.3638,-0.0176 1.03223,-0.11851 1.48518,-0.22427 l 0.82372,-0.19224 -0.0806,1.4149 c -0.0799,1.40463 -0.0789,1.40569 0.10956,0.22376 0.10441,-0.65484 0.27403,-1.32479 0.37724,-1.48931 0.26528,-0.42287 1.46217,-0.6063 2.33112,-0.35709 0.55895,0.1603 0.77436,0.11228 0.894,-0.19947 0.0867,-0.22594 0.0953,-0.47312 0.0191,-0.54932 -0.0762,-0.0762 -0.13849,0.006 -0.13849,0.1819 0,0.22208 -0.27925,0.26843 -0.90847,0.15038 -0.49984,-0.0938 -1.34161,-0.0277 -1.87017,0.14676 -0.52856,0.17442 -1.00592,0.27204 -1.06092,0.21704 -0.055,-0.055 3e-5,-0.5421 0.12196,-1.08262 0.11289,-0.5005 0.12253,-0.83119 0.031,-0.84904 z" /><path
       id="tooth20"
       style="fill:#000000;stroke-width:0.264583"
       d="m 121.71505,112.44219 c -1.07357,5e-5 -1.34018,0.12363 -2.18953,1.01648 -0.53193,0.55917 -1.09641,1.42238 -1.2547,1.91823 l -0.16692,0.52348 c -0.0178,0.0766 -0.0351,0.15335 -0.0527,0.22996 -0.0259,0.11613 -0.0505,0.23261 -0.076,0.34882 -0.0306,0.14023 -0.0612,0.28046 -0.0811,0.42271 -0.0182,0.13233 -0.0292,0.26556 -0.0372,0.39894 -0.002,0.0297 -0.005,0.0592 -0.008,0.0889 5.1e-4,-6e-5 -0.001,3e-5 0.002,0 0.0157,-9e-4 0.0288,0.0163 0.0196,0.045 -0.002,0.008 -0.005,0.0168 -0.007,0.0248 -0.008,0.0299 -0.0188,0.0594 -0.0248,0.0899 -0.002,0.009 -0.004,0.0186 -0.005,0.0279 0.001,0.004 0.004,0.007 0.004,0.0124 0.002,0.0391 0.001,0.0191 0.002,0.06 -8.1e-4,0.0169 -0.002,0.0337 -0.003,0.0506 0.0366,0.10877 0.0757,0.2438 0.11782,0.43098 0.61441,2.72819 1.62348,3.83646 3.49281,3.83646 1.14679,0 2.58387,-0.95079 3.0949,-2.04742 0.23971,-0.51442 0.42328,-0.78272 0.55345,-0.80822 0.005,-0.0553 0.012,-0.11039 0.0191,-0.16537 0.008,-0.0652 0.007,-0.13077 0.006,-0.19637 -0.004,-0.0916 -0.008,-0.18331 -0.0124,-0.27491 -0.005,-0.09 -0.009,-0.17966 -0.0119,-0.26976 -0.002,-0.10831 0.002,-0.21678 0.005,-0.32504 0.002,-0.0766 0.004,-0.15346 0.007,-0.22996 0.004,-0.065 0.009,-0.1296 0.0165,-0.1943 0.008,-0.0573 0.0131,-0.1149 0.0181,-0.1726 0.004,-0.0434 0.006,-0.0872 0.009,-0.13074 0.001,-0.0323 0.006,-0.064 0.0103,-0.0961 0.005,-0.0361 0.0105,-0.0724 0.0165,-0.10852 0.006,-0.0349 0.008,-0.0703 0.0108,-0.10542 0.005,-0.0431 0.0122,-0.0858 0.0212,-0.12816 0.0103,-0.0435 0.0194,-0.0869 0.0284,-0.13074 0.01,-0.0462 0.0193,-0.0927 0.0253,-0.13953 0.007,-0.053 0.003,-0.10626 -0.003,-0.15916 -0.002,-0.0152 -0.005,-0.0302 -0.007,-0.0455 -0.0366,0.001 -0.10089,-0.26227 -0.22789,-0.82992 -0.15948,-0.71275 -0.59367,-1.4732 -1.17099,-2.05052 -0.78223,-0.78223 -1.09783,-0.91721 -2.13992,-0.91726 z m 0.12247,0.25525 c 0.50253,0.0114 1.01003,0.18849 1.48519,0.56224 1.09555,0.86196 1.48514,1.87716 1.48414,3.86592 -10e-4,2.07925 -0.53474,3.20804 -1.91461,4.04936 -2.33898,1.426 -4.51201,-0.34379 -4.55011,-3.70571 -0.0311,-2.74308 1.70091,-4.81242 3.49539,-4.77181 z m 1.44849,4.04976 c -0.0531,-0.0154 -0.0379,0.12609 0.0336,0.447 0.41319,1.85429 -2.88426,2.28001 -3.48557,0.4501 l -0.27492,-0.83768 0.0444,1.09916 c 0.0247,0.60436 0.12829,1.04755 0.22996,0.98495 0.29037,-0.17891 2.59313,0.46545 2.59313,0.72554 0,0.12824 0.0696,0.23306 0.15451,0.23306 0.0849,0 0.1041,-0.14721 0.045,-0.32763 -0.0601,-0.18042 0.16789,-0.54668 0.50694,-0.81338 0.66405,-0.52234 0.77702,-1.13667 0.32505,-1.7694 -0.0838,-0.11726 -0.14025,-0.1825 -0.17209,-0.19172 z" /><path
       id="tooth22"
       style="fill:#000000;stroke-width:0.264583"
       d="m 107.87404,112.44219 c -0.98013,1.3e-4 -1.7192,0.34679 -2.71147,1.27228 -1.23746,1.15388 -0.8005,1.21685 0.50023,0.0729 1.27582,-1.12301 2.07874,-1.31965 3.37499,-0.82682 0.99115,0.37683 1.74718,1.24497 1.74718,2.00556 0,1.28417 -1.95806,4.44978 -2.94659,4.76353 -1.13797,0.36118 -2.84906,-1.77337 -3.40289,-4.2447 -0.0568,-0.25325 -0.11189,-0.47169 -0.16692,-0.67438 -0.009,0.0672 -0.0192,0.13456 -0.0294,0.20154 -0.0165,0.10927 -0.0338,0.21856 -0.0517,0.32763 -0.012,0.074 -0.0263,0.14762 -0.0475,0.21962 -0.0174,0.0592 -0.0377,0.11734 -0.0543,0.17674 -0.007,0.027 -0.0145,0.0541 -0.0217,0.0811 l 0.67903,1.43557 c 0.87151,1.84281 1.82299,2.86236 2.67116,2.86236 0.67655,0 1.93577,-1.17657 2.78897,-2.60604 l 0.4377,-0.73381 c 0.009,-0.0361 0.0191,-0.072 0.0289,-0.108 0.0218,-0.0811 0.048,-0.16058 0.076,-0.23978 0.0326,-0.0832 0.0608,-0.16805 0.0842,-0.25425 0.0237,-0.092 0.0375,-0.18623 0.0522,-0.28009 0.0112,-0.0836 0.0229,-0.16711 0.0382,-0.25011 0.007,-0.0374 0.0147,-0.0746 0.0233,-0.11162 0.005,-0.0265 0.011,-0.0526 0.016,-0.0791 v -5.1e-4 c -0.006,-0.007 -0.009,-0.02 -0.004,-0.0367 0.0116,-0.0391 0.023,-0.0783 0.0351,-0.11731 0.009,-0.0425 0.0167,-0.0853 0.0264,-0.12764 0.0138,-0.0619 0.0289,-0.12366 0.045,-0.185 -0.005,-0.0626 -0.0129,-0.11272 -0.0129,-0.20826 0,-1.09504 -1.68532,-2.33445 -3.17449,-2.33474 z m -0.13178,1.89602 v 5.2e-4 l -1.32292,0.0372 1.32292,0.18087 c 2.16864,0.29745 2.18006,0.29745 1.71979,0 -0.21828,-0.14106 -0.99219,-0.23919 -1.71979,-0.21859 z" /><path
       id="tooth25"
       style="fill:#000000;stroke-width:0.264583"
       d="m 88.048372,112.44219 c -1.114761,0 -2.653421,0.79518 -2.819466,1.45676 -0.209632,0.83524 0.872125,3.45054 1.860869,4.49895 0.479196,0.50812 1.043113,0.92346 1.253153,0.92346 1.361848,0 3.307574,-4.23138 2.575037,-5.60018 -0.341717,-0.63851 -1.778733,-1.27899 -2.869593,-1.27899 z m -0.01757,0.29855 c 0.11989,0 0.239779,0.0181 0.33073,0.0548 0.181876,0.0733 0.03307,0.13384 -0.33073,0.13384 -0.363774,0 -0.51263,-0.0604 -0.330729,-0.13384 0.09095,-0.0367 0.210864,-0.0548 0.330729,-0.0548 z m 0.346233,0.50292 c 0.673765,2.1e-4 1.314752,0.0527 1.704288,0.1571 0.496217,0.13298 0.594829,0.34159 0.592729,1.25315 -0.0031,1.30685 -1.062437,3.71538 -1.810226,4.11551 -0.698415,0.37378 -0.632049,0.39469 -1.415934,-0.44183 -0.974978,-1.04036 -1.79834,-2.80702 -1.79834,-3.85868 0,-0.80026 0.09448,-0.92271 0.826823,-1.06918 0.520226,-0.10424 1.22687,-0.15628 1.90066,-0.15607 z m -0.115239,0.81394 v 5.1e-4 c -0.239778,-7e-4 -0.489306,0.0135 -0.690397,0.0439 v 5.2e-4 c -0.402182,0.0608 -0.135884,0.1122 0.591695,0.1142 0.727517,0.002 1.056619,-0.0478 0.731222,-0.11059 -0.162711,-0.0316 -0.392742,-0.0479 -0.63252,-0.0486 z" /><path
       id="tooth32"
       style="fill:#000000;stroke-width:0.264583"
       d="m 29.871562,112.44219 c -1.061444,0.0237 -2.182393,-0.0347 -3.165637,0.42909 -0.709658,0.3735 -1.153565,1.11113 -1.415718,1.84466 -0.336884,1.29564 -0.269001,2.67558 0.01405,3.97491 0.261319,1.14861 0.991763,2.27267 2.143249,2.6782 1.131516,0.41098 2.356535,0.45052 3.547879,0.4801 0.879429,-0.0217 1.856619,-0.0667 2.564765,-0.65383 0.681943,-0.74358 0.914326,-1.77058 1.104672,-2.73305 0.212406,-1.33801 0.289386,-2.74985 -0.13188,-4.05608 -0.260612,-0.76015 -0.81817,-1.46527 -1.62241,-1.67916 -0.982084,-0.29007 -2.024395,-0.2713 -3.038974,-0.28484 z m 0.224275,0.29955 c 1.007782,0.0223 2.064754,-0.04 3.011352,0.36218 0.806533,0.38251 1.155795,1.30621 1.332095,2.12271 0.249338,1.4693 0.0962,3.0023 -0.373864,4.41286 -0.229994,0.65668 -0.590876,1.35793 -1.286155,1.61309 -1.122839,0.46417 -2.369852,0.30129 -3.547458,0.21834 -0.844839,-0.0799 -1.784215,-0.15063 -2.408708,-0.80064 -1.04398,-0.94918 -1.41335,-2.41634 -1.499783,-3.777 -0.05528,-1.20117 0.172679,-2.54599 1.085527,-3.40459 0.809343,-0.67838 1.934925,-0.68449 2.935898,-0.73665 0.250295,-0.007 0.500702,-0.01 0.751096,-0.0103 z m -0.0057,2.21245 c 0.09267,0.77013 0.185171,1.54029 0.277502,2.31046 -0.745899,-0.24188 -1.514752,-0.41843 -2.301947,-0.43981 -0.577991,-0.0223 -1.19127,-0.005 -1.718027,-0.27324 -0.277175,0.28959 0.168679,0.88753 0.592305,0.75531 0.772546,0.0203 1.610129,-0.26665 2.330933,0.1286 0.574785,0.40488 0.536946,1.19451 0.55258,1.82144 -0.04158,0.21849 0.109359,1.13199 0.291781,0.51841 0.170664,-0.62401 0.03464,-1.28088 0.17161,-1.90658 0.320242,-0.45858 1.008027,0.002 1.479279,-0.0562 0.516076,0.0234 1.134274,0.15604 1.564649,-0.20584 0.26756,-0.19771 0.28185,-1.2204 -0.108988,-0.6154 -0.42531,0.58453 -1.304623,0.64948 -1.92839,0.37837 -0.520988,-0.26515 -0.684064,-0.89212 -0.890011,-1.39325 -0.106509,-0.3401 -0.208603,-0.68159 -0.313276,-1.02226 z" /><path
       id="tooth30"
       style="fill:#000000;stroke-width:0.264583"
       d="m 51.350871,112.22257 c -0.818519,10e-4 -1.537728,0.28496 -2.738851,0.8971 -1.963023,1.00043 -2.649968,1.70134 -2.649968,2.70423 0,0.20631 -0.04221,0.35941 -0.107487,0.43098 -1.51e-4,0.11148 -0.0031,0.22298 -0.0072,0.33435 -0.0046,0.10962 -0.0078,0.21897 -0.0098,0.32866 -0.0015,0.10208 -0.0022,0.20436 -0.0026,0.30644 0.002,0.0638 -0.0039,0.12812 0.001,0.19172 0.0032,0.0563 0.0112,0.11163 0.0186,0.16743 0.0084,0.0676 0.01192,0.13591 0.01912,0.20361 0.0048,0.0667 0.01527,0.13265 0.02377,0.19895 0.01191,0.0655 0.01974,0.1311 0.02584,0.1974 0.0056,0.0625 0.0075,0.12541 0.0088,0.18811 3e-4,0.059 0.0024,0.11843 0.0124,0.17673 0.0091,0.0486 0.0043,0.0235 0.01499,0.0749 0.01241,0.0596 0.0062,0.10689 -0.01085,0.14056 l 0.277502,0.82011 c 0.471252,1.39179 1.580921,2.79887 2.514058,3.1874 0.291041,0.12118 1.815325,0.22819 3.386874,0.23719 3.937903,0.0231 4.540877,-0.34532 5.088061,-3.10937 l 0.160197,-0.80822 c -0.01161,-0.0482 -0.0233,-0.0966 -0.02584,-0.14624 -0.0019,-0.0457 -0.0042,-0.0911 -0.01033,-0.13643 -0.0071,-0.0535 -0.0138,-0.10713 -0.01395,-0.16123 9e-4,-0.0676 0.0016,-0.13497 0.0041,-0.20257 0.0027,-0.0767 0.0074,-0.15378 0.0052,-0.23048 -0.0024,-0.0684 -0.0054,-0.13664 -0.01344,-0.20464 -0.0086,-0.0679 -0.02319,-0.13498 -0.03049,-0.20308 -0.01294,-0.0884 -0.02945,-0.17607 -0.04444,-0.26407 -0.0087,-0.0706 -0.01395,-0.14159 -0.02015,-0.21239 -0.0059,-0.0674 -0.01358,-0.13471 -0.02997,-0.20051 -0.01111,-0.0561 -0.02589,-0.11148 -0.02739,-0.16898 -0.0047,-0.0553 -0.0087,-0.11038 -0.0098,-0.16588 -0.0031,-0.058 -0.0075,-0.11583 -0.01344,-0.17363 -0.0034,-0.0522 -0.0096,-0.10426 -0.01705,-0.15606 -0.01,-0.0686 -0.02204,-0.13711 -0.02119,-0.20671 4e-4,-0.0662 0.0011,-0.13224 0.0031,-0.19844 5.15e-4,-0.0151 0.0014,-0.0303 0.0021,-0.0455 l -0.01499,-0.48938 c -0.03302,-1.0945 -1.343976,-2.1856 -3.382739,-2.81533 -1.030356,-0.31825 -1.72706,-0.48782 -2.36368,-0.48679 z m -0.10542,0.30486 c 0.197105,-10e-4 0.399599,0.0226 0.633553,0.0615 1.783932,0.29679 3.82435,1.16485 4.370276,1.8588 1.168229,1.4852 0.922147,6.59224 -0.372071,7.71891 -0.616066,0.53637 -0.951311,0.59435 -3.381188,0.58085 -3.535949,-0.0196 -4.318593,-0.30594 -5.329908,-1.94459 -0.65851,-1.06703 -0.81833,-1.64193 -0.89917,-3.24269 -0.125246,-2.48012 0.1826,-2.97038 2.641183,-4.20853 1.202524,-0.60557 1.74601,-0.81937 2.337325,-0.82269 z m 1.684135,3.21414 v 5.2e-4 5.2e-4 5.1e-4 c -0.05773,0.0218 -0.04185,0.259 0.03979,0.75138 0.09218,0.55602 0.232072,1.17951 0.311092,1.38544 0.184656,0.4812 -1.045295,0.96801 -1.90221,0.75293 -0.685185,-0.17198 -1.563797,-0.91249 -2.324406,-1.95905 -0.37054,-0.50992 -0.357674,-0.43496 0.05633,0.32917 l 0.536401,0.99064 -0.770496,0.39843 c -0.704097,0.36409 -0.794375,0.35943 -1.040763,-0.0641 -0.30692,-0.52687 -0.356751,-0.22601 -0.113171,0.68368 0.09096,0.33977 0.238162,0.51547 0.327112,0.39067 0.08895,-0.12481 0.4963,-0.43956 0.904854,-0.6997 0.701883,-0.44696 0.806641,-0.44948 1.902726,-0.031 1.168944,0.44643 1.672998,1.19613 1.750798,2.60501 0.02344,0.42436 0.05861,0.45077 0.148828,0.10852 0.06498,-0.24649 -3.1e-4,-0.87771 -0.145211,-1.4025 -0.238943,-0.86535 -0.208507,-0.9749 0.327629,-1.17874 0.920397,-0.34992 3.077331,-0.0261 3.077331,0.46199 0,0.22359 0.06138,0.34485 0.136426,0.26975 0.07505,-0.075 0.02777,-0.60136 -0.10542,-1.16892 -0.147256,-0.62761 -0.252548,-0.79814 -0.268718,-0.43615 -0.05925,1.3271 -2.403055,0.29821 -2.412255,-1.05885 -0.0022,-0.32742 -0.130041,-0.77339 -0.284221,-0.99167 -0.05202,-0.0737 -0.09295,-0.1195 -0.12299,-0.13436 -0.01127,-0.006 -0.02121,-0.007 -0.02945,-0.004 z" /><path
       id="tooth19"
       style="fill:#000000;stroke-width:0.264583"
       d="m 131.05453,112.22157 c -0.63705,0.003 -1.33811,0.17324 -2.36833,0.49145 -2.08923,0.64529 -3.33567,1.74881 -3.37757,2.99051 -0.006,0.1742 -0.0122,0.29444 -0.0201,0.38499 0.006,0.0639 0.0146,0.12758 0.0243,0.1912 0.006,0.0569 0.0113,0.11457 0.003,0.17157 -0.006,0.048 -0.0152,0.0953 -0.0253,0.14263 -0.009,0.0439 -0.0186,0.0881 -0.0289,0.13177 -0.009,0.0404 -0.0161,0.0813 -0.0202,0.12247 -0.004,0.0361 -0.005,0.0722 -0.0109,0.10801 -0.006,0.0358 -0.0115,0.0717 -0.0165,0.10749 -0.004,0.031 -0.008,0.0617 -0.0103,0.093 -0.003,0.0437 -0.005,0.0877 -0.009,0.13126 -0.005,0.0583 -0.0106,0.11677 -0.0186,0.17467 -0.008,0.0634 -0.0125,0.12698 -0.0165,0.19068 -0.004,0.0763 -0.005,0.15263 -0.007,0.22893 -0.003,0.10729 -0.007,0.2146 -0.005,0.32194 0.003,0.0899 0.007,0.17944 0.0119,0.26924 0.004,0.092 0.01,0.18395 0.0129,0.27595 10e-4,0.068 0.002,0.13652 -0.007,0.20412 -0.007,0.054 -0.0136,0.10766 -0.0186,0.16175 0.12701,0.0461 0.18966,0.38703 0.18966,1.02681 0,0.88715 0.16916,1.25334 0.92707,2.01125 l 0.92656,0.92707 3.2892,-0.0935 c 3.23778,-0.0919 3.30271,-0.10545 4.12482,-0.88677 0.89471,-0.85031 1.82638,-2.45712 1.87378,-3.23081 0.004,-0.0664 0.0147,-0.093 0.0305,-0.0879 -4e-4,-0.009 -9.8e-4,-0.0186 -0.001,-0.0279 0,-0.0346 0.002,-0.0689 0.005,-0.10335 0.003,-0.035 0.006,-0.0699 0.007,-0.1049 0.002,-0.034 0.004,-0.0679 0.007,-0.1018 0.002,-0.029 0.006,-0.0581 0.006,-0.0873 0.002,-0.0266 0.003,-0.0531 0.006,-0.0796 0.004,-0.0298 0.009,-0.0596 0.015,-0.0889 0.007,-0.0355 0.0148,-0.0707 0.0238,-0.10594 0.0106,-0.0412 0.0226,-0.0819 0.0351,-0.12247 0.0104,-0.0347 0.021,-0.0699 0.03,-0.1049 0.008,-0.0295 0.0147,-0.0587 0.0217,-0.0884 0.006,-0.0283 0.0121,-0.0573 0.0171,-0.0858 0.006,-0.0302 0.0105,-0.0602 0.0165,-0.0904 0.006,-0.0334 0.0126,-0.067 0.0196,-0.10025 0.009,-0.0384 0.018,-0.0762 0.03,-0.11369 0.0131,-0.0426 0.0278,-0.0849 0.0439,-0.12661 0.0139,-0.0364 0.0274,-0.0731 0.0382,-0.11058 0.006,-0.0218 0.0111,-0.0441 0.0165,-0.0661 v -5.2e-4 c -0.001,-0.007 -5.9e-4,-0.0144 0.002,-0.0238 0.002,-0.006 0.004,-0.0131 0.005,-0.0191 h -5.2e-4 c 10e-4,-0.006 0.003,-0.0108 0.006,-0.015 v -5.2e-4 c 0.004,-0.0272 0.008,-0.0546 0.006,-0.0822 -0.002,-0.0262 -0.008,-0.0517 -0.016,-0.0765 -0.005,-0.0134 -0.009,-0.027 -0.0103,-0.0413 l -5.2e-4,5.2e-4 c -7.4e-4,-0.008 -1.6e-4,-0.0149 0.002,-0.0207 l -0.2744,-0.87333 c -0.48742,-1.55176 -0.72132,-1.78901 -2.80448,-2.83807 -1.17219,-0.59037 -1.88619,-0.86308 -2.70526,-0.85938 z m 0.20929,0.30286 c 0.67959,0.009 1.20342,0.23639 2.5399,0.94154 1.8211,0.96081 2.01292,1.1411 2.32699,2.19418 0.62477,2.09492 -0.40505,5.46421 -1.98644,6.50038 -0.55234,0.3619 -1.37428,0.48335 -3.63596,0.53795 -3.42913,0.0828 -4.15552,-0.18461 -4.6638,-1.7203 -0.51314,-1.55121 -0.43187,-5.42956 0.1323,-6.29058 0.57488,-0.87738 2.76359,-1.89932 4.51962,-2.10995 0.29699,-0.0356 0.54086,-0.0564 0.76739,-0.0532 z m -1.77715,3.11894 c -0.0582,0.007 -0.16148,0.29666 -0.32504,0.894 -0.39019,1.42285 -0.92869,1.98903 -1.89085,1.98903 -0.45017,0 -0.61081,-0.15066 -0.61081,-0.5731 0,-0.84284 -0.16689,-0.50418 -0.34778,0.70539 -0.11686,0.78143 -0.0886,0.93719 0.108,0.59531 0.14644,-0.25466 0.56559,-0.46302 0.93173,-0.46302 0.36613,0 0.8703,-0.1092 1.11982,-0.24288 0.31645,-0.16936 0.6294,-0.1092 1.03147,0.19844 0.49918,0.38193 0.54632,0.5753 0.35036,1.43195 -0.13198,0.57794 -0.1324,0.92959 0.01,0.84439 0.12997,-0.0803 0.2383,-0.40722 0.2403,-0.72605 0.006,-0.80877 0.23152,-1.05993 1.51412,-1.68413 0.93761,-0.45638 1.16984,-0.48621 1.4211,-0.18346 0.16523,0.19909 0.46831,0.36174 0.67334,0.36174 0.20503,0 0.44123,0.17859 0.52503,0.39687 0.26821,0.69894 0.6257,0.425 0.6041,-0.46302 -0.0115,-0.47297 -0.0811,-0.71106 -0.15451,-0.52916 -0.18158,0.44999 -1.01043,0.41819 -1.4025,-0.0548 -0.25347,-0.30542 -0.23191,-0.51008 0.0997,-0.98495 0.68348,-0.9758 0.47764,-1.1919 -0.22635,-0.23772 -0.88763,1.20305 -1.60843,1.65694 -2.67839,1.68724 -1.2015,0.0341 -1.5358,-0.31704 -1.18339,-1.24385 0.15095,-0.39697 0.26415,-1.04125 0.25115,-1.43196 -0.006,-0.19314 -0.0255,-0.29055 -0.0605,-0.28628 z" /><path
       id="tooth10"
       style="fill:#000000;stroke-width:0.264583"
       d="m 104.49595,92.172638 c -1.63936,-0.09277 -3.03923,2.199452 -3.07992,5.188314 l -0.0238,1.719792 1.43661,0.727604 c 1.82793,0.925992 3.17845,0.941602 4.6917,0.05478 1.43457,-0.840695 1.49528,-1.566249 0.33435,-3.999239 -0.96841,-2.02908 -2.11889,-3.411848 -3.02824,-3.640088 -0.11109,-0.02788 -0.22144,-0.04497 -0.33073,-0.05116 z m -0.0191,0.425842 c 1.02073,0 1.86774,0.933039 3.01893,3.326929 1.04212,2.16662 1.12475,2.888146 0.37724,3.288171 -0.71332,0.38175 -3.62751,0.55988 -4.69325,0.286805 -1.48843,-0.38142 -1.73559,-0.752964 -1.55029,-2.329574 0.3407,-2.898715 1.38294,-4.572331 2.84737,-4.572331 z m 0.98495,7.44193 c 0.14387,0.002 0.27785,0.0211 0.36742,0.0574 v -5.2e-4 c 0.17913,0.0725 -0.0316,0.12696 -0.46819,0.12196 -0.43656,-0.005 -0.583,-0.0647 -0.32556,-0.13178 0.12871,-0.0335 0.28246,-0.0488 0.42633,-0.047 z m -0.36382,-1.48877 c -0.91792,0 -1.61409,0.0893 -1.54719,0.198438 0.15635,0.25501 2.50769,0.250765 2.91041,-0.0041 0.16835,-0.10689 -0.4453,-0.194304 -1.36322,-0.194304 z" /><path
       id="tooth07"
       style="fill:#000000;stroke-width:0.264583"
       d="m 78.038647,92.069286 c -1.27203,0 -3.673819,3.437121 -4.18269,5.985681 -0.143454,0.718455 -0.0497,0.91311 0.720886,1.493965 0.487439,0.36744 1.124376,0.726148 1.415418,0.796848 1.165091,0.28305 2.179017,0.1557 3.439583,-0.432012 1.836835,-0.856365 2.085619,-1.222726 1.858285,-2.738851 -0.456017,-3.040865 -1.771113,-5.105631 -3.251482,-5.105631 z m 0.08268,0.454264 c 0.718267,-0.01071 1.431377,0.444407 1.786971,1.217497 0.766322,1.666125 1.104423,3.242847 1.007173,4.701522 -0.01542,0.2313 -0.307484,0.548203 -0.649056,0.703833 -1.564839,0.712985 -5.079223,0.565385 -5.892146,-0.24753 -0.3458,-0.3458 -0.326203,-0.56699 0.167948,-1.88774 0.705272,-1.88503 2.053403,-3.910906 2.872176,-4.316016 0.227513,-0.112565 0.467503,-0.167994 0.706934,-0.171566 z m -0.532265,6.02289 c -0.921711,0.0027 -1.539373,0.09256 -1.372009,0.199471 0.397928,0.253985 2.332765,0.2512 2.734717,-0.0052 0.172289,-0.10959 -0.440973,-0.197303 -1.362708,-0.194303 z" /><path
       id="tooth01"
       style="fill:#000000;stroke-width:0.264583"
       d="m 26.731185,91.080732 c -0.462967,-0.0059 -1.018509,0.03541 -1.696021,0.113172 -1.572151,0.18045 -2.535068,0.425775 -2.873726,0.732255 -0.687903,0.622545 -1.307126,2.53471 -1.502751,4.63951 -0.149941,1.61326 -0.111412,1.795032 0.54622,2.576587 0.644529,0.765955 0.865609,0.849156 2.479952,0.933284 0.974756,0.0508 2.202657,0.11516 2.728516,0.14366 1.464305,0.0794 2.407928,-1.040704 2.964677,-3.519689 0.02163,-0.0963 0.04103,-0.15526 0.05839,-0.183968 1.85e-4,-0.01636 6.21e-4,-0.03272 0.001,-0.04909 8.38e-4,-0.03054 0.0024,-0.06091 0.0021,-0.09147 8.1e-5,-0.03052 1.66e-4,-0.06095 5.16e-4,-0.09147 4e-4,-0.0313 6.84e-4,-0.0628 0.0026,-0.09405 0.0022,-0.03537 0.0054,-0.07062 0.0083,-0.105937 0.003,-0.03612 0.0057,-0.07225 0.0062,-0.108521 0.0017,-0.04028 0.0039,-0.08063 0.0052,-0.120923 7e-4,-0.03954 0.0018,-0.0788 0.0026,-0.118339 2e-6,-0.03162 -10e-6,-0.06346 0,-0.09508 1.3e-5,-0.03142 -6.4e-5,-0.06264 0,-0.09405 7.2e-5,-0.02904 6.3e-4,-0.0583 0.001,-0.08733 5e-4,-0.03108 0.0011,-0.06198 0.0026,-0.09302 0.0018,-0.03407 0.004,-0.06834 0.0072,-0.102319 0.0044,-0.03954 0.01079,-0.07872 0.01809,-0.117823 0.0071,-0.04051 0.0146,-0.08094 0.0217,-0.121439 0.0072,-0.04343 0.01397,-0.08671 0.02067,-0.130225 0.0059,-0.04061 0.01137,-0.08153 0.01447,-0.122473 0.002,-0.03169 0.0024,-0.06336 10e-4,-0.09508 -9e-4,-0.02657 -0.0019,-0.05323 -0.0057,-0.07958 -0.004,-0.02522 -0.0096,-0.05034 -0.01654,-0.07493 -0.0071,-0.02623 -0.01379,-0.0524 -0.02119,-0.07855 -0.007,-0.02622 -0.01414,-0.05249 -0.01964,-0.07906 -0.0051,-0.02562 -0.01,-0.05118 -0.01395,-0.077 -0.0026,-0.02205 -0.0031,-0.04396 -0.0026,-0.06615 5.5e-5,-0.02657 2.92e-4,-0.05353 5.17e-4,-0.0801 3e-4,-0.02742 3.5e-4,-0.05477 0.0016,-0.08217 0.0014,-0.02805 0.0037,-0.05579 0.0067,-0.08372 0.002,-0.02074 0.003,-0.04169 0.0026,-0.06253 10e-7,-0.01818 -6e-6,-0.0366 0,-0.05478 8e-6,-0.02214 -4.1e-5,-0.04401 0,-0.06615 4.3e-5,-0.01849 2.74e-4,-0.03681 5.16e-4,-0.05529 3e-4,-0.01995 3.43e-4,-0.04 0.001,-0.05994 8.49e-4,-0.0243 0.002,-0.04855 0.0015,-0.07286 -1.32e-4,-0.02132 -3.39e-4,-0.04277 -0.001,-0.06408 -8e-4,-0.02251 -0.0018,-0.04483 -0.0047,-0.06718 -0.0031,-0.02146 -0.0076,-0.0426 -0.01499,-0.06305 -0.0067,-0.02263 -0.0127,-0.04574 -0.0155,-0.06925 -0.0034,-0.02709 -0.0059,-0.05404 -0.0093,-0.08113 -2.24e-4,-0.0015 -2.93e-4,-0.0031 -5.17e-4,-0.0047 -0.05478,-0.08415 -0.13854,-0.271239 -0.268717,-0.570508 -0.498069,-1.145018 -1.051779,-1.585919 -2.440678,-1.60352 z m -0.150895,0.239241 c 0.765478,-0.02823 1.008411,0.107677 1.540474,0.56534 0.712447,0.61284 0.776812,0.821847 0.867647,2.822567 0.110173,2.426 -0.38844,4.219247 -1.363224,4.902027 -0.311292,0.218015 -0.867265,0.374682 -1.235067,0.347782 -0.367779,-0.02692 -1.323562,-0.08768 -2.123901,-0.134876 -2.199679,-0.129655 -2.599292,-0.281767 -3.054594,-1.162202 -0.505673,-0.977885 -0.319823,-3.091027 0.455786,-5.186247 0.579449,-1.565265 0.992949,-1.783163 3.942912,-2.077393 0.401289,-0.04002 0.714799,-0.06759 0.969967,-0.077 z m -2.498039,1.992678 c -0.02372,-7.4e-5 -0.05514,0.03069 -0.09457,0.09302 -0.13331,0.21072 -0.244296,0.723907 -0.246496,1.139982 -0.0038,0.70099 -0.06854,0.74859 -0.885735,0.65319 -0.571343,-0.0667 -0.882116,0.01017 -0.882116,0.218075 0,0.22759 0.367601,0.277666 1.263489,0.171566 l 1.262972,-0.149862 -0.107487,1.556494 -0.108004,1.556494 0.261999,-1.44849 c 0.144028,-0.796555 0.384065,-1.570492 0.533301,-1.719792 0.149236,-0.1493 0.904847,-0.271301 1.678967,-0.271301 0.955767,0 1.369988,-0.09822 1.290878,-0.305925 -0.130575,-0.342805 -2.002478,-0.213102 -2.757972,0.191203 -0.25356,0.13571 -0.663038,0.247014 -0.910021,0.247014 -0.374757,0 -0.424532,-0.184219 -0.300241,-1.111044 0.07271,-0.541925 0.07292,-0.820401 0.001,-0.820621 z" /><path
       id="tooth16"
       style="fill:#000000;stroke-width:0.264583"
       d="m 155.60652,91.044562 c -0.60403,0.01466 -0.84899,0.179509 -1.37511,0.622184 -0.42247,0.35549 -0.77921,0.861711 -0.85111,1.188041 0.0143,0.0057 0.0266,0.02307 0.0274,0.05219 9e-4,0.03406 -0.008,0.0675 -0.016,0.100252 -0.0144,0.04944 -0.0298,0.09868 -0.0388,0.149345 -0.008,0.03869 -0.005,0.07771 0.001,0.116272 0.007,0.0374 0.0157,0.07423 0.0227,0.111621 0.0133,0.06472 0.0161,0.13058 0.0181,0.19637 0.001,0.07756 -0.003,0.155127 -0.0134,0.232027 -0.0101,0.06454 -0.0254,0.128227 -0.0383,0.192237 -0.0111,0.056 -0.0159,0.113085 -0.0202,0.170015 -0.002,0.05289 -4e-4,0.105717 -0.001,0.158647 -0.001,0.0646 -0.007,0.12912 -0.014,0.19327 -0.008,0.06764 -0.0173,0.134585 -0.0264,0.202055 -0.0111,0.07591 -0.0172,0.152436 -0.0232,0.228926 -0.005,0.07869 -0.007,0.157828 -0.009,0.236678 -0.002,0.07541 -0.002,0.150416 -0.003,0.225826 -0.002,0.07429 -0.004,0.148942 -0.005,0.223242 -0.001,0.08556 -0.002,0.170746 -0.002,0.256316 4e-4,0.09653 -0.005,0.193048 -0.0103,0.289388 -0.005,0.09044 -0.009,0.180931 -0.015,0.271301 -0.006,0.0815 -0.0206,0.161962 -0.0346,0.242362 -0.008,0.04621 -0.013,0.09277 -0.0171,0.139527 0.12471,0.04976 0.22066,0.304395 0.22066,0.611332 0,0.807155 1.02621,2.320788 1.86035,2.744544 0.35943,0.18228 0.83178,0.25653 1.05006,0.16433 0.21828,-0.0922 1.18522,-0.19728 2.14767,-0.23358 1.8925,-0.0713 2.71471,-0.377498 3.13831,-1.169443 0.60171,-1.124285 0.11175,-5.087684 -0.81183,-6.566524 -0.45331,-0.725845 -1.40631,-1.04148 -3.82406,-1.26659 -0.44032,-0.04099 -0.78002,-0.06982 -1.0542,-0.07958 -0.10281,-0.0037 -0.19638,-0.0047 -0.28267,-0.0026 z m 0.54674,0.359131 c 0.46404,0.0096 1.00431,0.07127 1.63194,0.176734 1.19824,0.201315 2.26158,0.537644 2.52181,0.797884 0.61521,0.615175 1.02956,2.113913 1.19476,4.321183 0.12729,1.70071 0.0878,1.897924 -0.48421,2.413289 -0.50662,0.45646 -1.09754,0.592758 -3.16415,0.730188 -2.49145,0.165699 -2.55414,0.155213 -3.23442,-0.525032 -0.82461,-0.824585 -1.11096,-1.986886 -1.08366,-4.402316 0.0296,-2.614688 0.60709,-3.553459 2.61793,-3.51193 z m 2.16266,1.511562 c -0.0629,0.0029 -0.0547,0.396206 0.0336,1.179256 0.13525,1.199905 0.12242,1.22661 -0.49558,1.04128 -0.34889,-0.10463 -1.17037,-0.259148 -1.82521,-0.343648 -0.65485,-0.0845 -1.27801,-0.285098 -1.38493,-0.445968 -0.11571,-0.17415 -0.1954,-0.07838 -0.1974,0.236678 -0.003,0.45983 0.17289,0.529751 1.34203,0.531751 1.60093,0.0031 2.07699,0.473033 2.12339,2.098063 v 5.17e-4 c 0.0169,0.590605 0.0878,0.851439 0.15761,0.579809 0.0698,-0.271615 0.0781,-0.910693 0.0186,-1.420068 l -0.108,-0.926042 1.27331,0.150895 c 0.93666,0.11093 1.27331,0.06095 1.27331,-0.188102 0,-0.2216 -0.26031,-0.300176 -0.75603,-0.227376 -0.70497,0.10347 -0.77669,0.02854 -1.06195,-1.104325 -0.19591,-0.77814 -0.32987,-1.165611 -0.39274,-1.16272 z" /><path
       id="tooth08"
       style="fill:#000000;stroke-width:0.264583"
       d="m 86.53787,91.021312 c -0.637719,0.0354 -1.300318,0.362566 -1.986959,0.981852 -1.26327,1.139375 -2.870109,4.238112 -2.870109,5.535062 0,0.89203 0.954423,1.865886 2.389519,2.438611 1.711301,0.682993 5.377225,0.134043 6.699849,-1.003039 0.683502,-0.58764 0.469223,-2.114659 -0.630969,-4.501534 -1.017283,-2.207025 -2.128348,-3.356958 -3.329513,-3.448369 -0.09009,-0.0069 -0.180712,-0.0076 -0.271818,-0.0026 z m 0.0124,0.254241 c 1.421241,0 2.869335,1.778564 3.859196,4.740279 0.731717,2.18937 0.583624,2.811103 -0.720887,3.026688 -1.424014,0.23537 -4.749116,0.152798 -6.223909,-0.154512 -1.597101,-0.33279 -1.810512,-0.957742 -1.026294,-3.007052 1.025802,-2.680565 2.74447,-4.605403 4.111894,-4.605403 z m -2.764173,8.04965 c 0.04569,0.0041 0.121583,0.01958 0.227377,0.04599 0.336832,0.08408 1.587039,0.158365 2.778125,0.165365 1.349045,0.0079 1.96572,0.09186 1.636075,0.222725 -0.869605,0.345247 -3.3825,0.251177 -4.233333,-0.158646 C 83.783021,99.40255 83.649039,99.31294 83.7861,99.325203 Z m 2.795698,-1.30278 c -1.50711,0 -2.713346,0.02653 -2.680456,0.05943 0.03289,0.03289 0.529328,0.174373 1.102775,0.314193 0.573422,0.13978 1.564253,0.192706 2.201933,0.117306 2.325967,-0.2749 2.051103,-0.490926 -0.624252,-0.490926 z" /><path
       id="tooth09"
       style="fill:#000000;stroke-width:0.264583"
       d="m 95.763147,91.002192 c -1.116205,0.08342 -2.169352,1.112608 -3.13986,3.076298 -0.800983,1.620705 -1.012259,2.351071 -1.015959,3.516581 -0.0043,1.373305 0.04808,1.496996 0.789099,1.861386 0.436562,0.214665 1.329556,0.541851 1.984375,0.727083 1.903805,0.53845 4.11404,0.0539 5.913848,-1.296558 1.37259,-1.029785 -0.536289,-5.788779 -2.972425,-7.411434 -0.531395,-0.353914 -1.051725,-0.51127 -1.559078,-0.473351 z m 0.207222,0.307981 c 0.246698,8e-4 0.494585,0.104075 0.927592,0.310575 1.558904,0.743375 3.520489,4.016104 3.553789,5.929354 0.0108,0.618605 -0.14787,0.939159 -0.580843,1.175639 v -5.17e-4 c -0.73841,0.40329 -6.711179,0.585907 -7.540625,0.230477 -0.789032,-0.33809 -0.795035,-1.686284 -0.0155,-3.530534 0.926207,-2.19153 1.751881,-3.34119 2.736267,-3.81062 0.427287,-0.2037 0.67265,-0.305174 0.919323,-0.304374 z m 3.305225,7.92463 -0.79375,0.374137 c -0.821695,0.38726 -3.618893,0.49906 -4.431771,0.17725 -0.25469,-0.10085 0.45971,-0.186719 1.5875,-0.191719 1.127793,-0.0046 2.407736,-0.08737 2.844271,-0.183968 z m -3.13831,-1.21238 c -1.547435,0 -2.813516,0.02619 -2.813781,0.05839 -3.44e-4,0.03222 0.38592,0.170408 0.858862,0.306958 1.167579,0.33719 2.506387,0.31709 3.74034,-0.05529 0.935785,-0.28249 0.775073,-0.310058 -1.785421,-0.310058 z" /><path
       id="tooth11"
       style="fill:#000000;stroke-width:0.264583"
       d="m 112.62775,90.56967 c -0.90439,-0.01809 -1.84851,0.699708 -2.88716,2.152323 -0.84929,1.187825 -0.94,1.482844 -0.94,3.063379 0,1.51735 0.10074,1.88049 0.75861,2.742985 0.41704,0.546735 1.13142,1.22832 1.5875,1.514633 1.59428,1.00077 4.03333,0.0217 5.29012,-2.123382 0.43084,-0.735355 0.45342,-0.996306 0.18294,-2.088761 -0.17014,-0.686555 -0.77428,-2.035847 -1.34256,-2.998267 -0.8804,-1.490985 -1.74505,-2.244817 -2.64945,-2.26291 z m -0.008,0.275943 c 0.46795,-0.02986 0.91762,0.182521 1.41749,0.633036 0.75648,0.681775 2.31391,4.072539 2.35231,5.121134 0.046,1.255075 -0.78833,2.412007 -2.24999,3.119707 -1.64277,0.79525 -2.15245,0.6933 -3.7083,-0.740524 -2.19059,-2.01839 -1.92393,-4.978385 0.65939,-7.312215 0.57454,-0.519035 1.06116,-0.791282 1.5291,-0.821138 z m -2.87399,6.116427 c -0.0124,9.55e-4 -0.0191,0.0057 -0.0191,0.01447 0,0.07 0.38695,0.363304 0.85989,0.651639 0.90859,0.55396 0.99219,0.58939 0.99219,0.42013 0,-0.05839 -0.41672,-0.352164 -0.92604,-0.652674 -0.44567,-0.262913 -0.8202,-0.440248 -0.90692,-0.433565 z m 5.45961,0.414445 c -0.0993,0.0013 -0.40171,0.12768 -0.88418,0.379305 -0.41677,0.21739 -0.5795,0.392607 -0.36122,0.388607 0.21828,-0.0037 0.62807,-0.181675 0.91054,-0.395325 0.3302,-0.249615 0.43416,-0.373841 0.33486,-0.372587 z" /><path
       id="tooth06"
       style="fill:#000000;stroke-width:0.264583"
       d="m 70.045337,90.52109 c -1.127278,-0.05051 -2.213348,1.009 -3.302124,3.185335 -1.047453,2.09374 -1.183776,3.407461 -0.466638,4.494816 0.54544,0.827045 1.599941,1.699362 2.480468,2.052069 1.29983,0.52076 2.433553,0.1483 3.699516,-1.215428 1.879611,-2.024655 1.975874,-3.974007 0.315226,-6.388757 -0.947677,-1.378019 -1.849682,-2.088751 -2.726448,-2.128035 z m -0.0067,0.247013 c 0.223927,-0.0063 0.423217,0.0803 0.735872,0.255798 0.977398,0.54862 2.371443,2.454735 2.707329,3.7021 0.394415,1.464815 -0.04106,2.86695 -1.290878,4.154785 -0.560424,0.5775 -1.324329,1.108349 -1.69757,1.179774 -1.793752,0.3429 -4.422986,-1.662912 -4.422986,-3.374472 0,-0.468195 0.48764,-1.825058 1.083138,-3.014803 0.862974,-1.72417 1.269058,-2.251902 2.001945,-2.601392 0.410835,-0.195895 0.659223,-0.29547 0.88315,-0.30179 z m 2.778624,5.981547 -0.79375,0.489893 c -0.436562,0.269505 -0.843181,0.526507 -0.903821,0.570507 -0.06063,0.0441 0.06992,0.0801 0.289905,0.0801 0.21998,0 0.626606,-0.256938 0.903821,-0.570508 z m -5.36298,0.630435 c -0.02756,0.0032 0.07857,0.12063 0.286804,0.311608 0.277643,0.25466 0.699907,0.454968 0.938444,0.445968 0.274199,-0.01061 0.195749,-0.11204 -0.213424,-0.275435 -0.355962,-0.14216 -0.778226,-0.342698 -0.938444,-0.445968 -0.04005,-0.02582 -0.06419,-0.03724 -0.07338,-0.03617 z" /><path
       id="tooth15"
       style="fill:#000000;stroke-width:0.264583"
       d="m 149.53351,89.875638 c -0.4252,-0.0062 -0.89945,0.02621 -1.43144,0.09302 -2.83191,0.355565 -3.77335,0.891645 -4.15633,2.36523 l -0.27957,1.075386 c -4.8e-4,0.01566 -8.3e-4,0.0313 -5.2e-4,0.04703 0.001,0.02472 0.002,0.04968 0.002,0.07441 5.6e-4,0.03066 0.001,0.06132 0.001,0.09198 10e-5,0.02942 -2e-5,0.05894 0,0.08837 2e-5,0.02436 -1e-5,0.0485 0,0.07286 v 0.07131 c 10e-4,0.02695 -0.003,0.05409 -0.007,0.08061 -0.005,0.02847 -0.0126,0.05633 -0.0176,0.08475 -0.005,0.02896 -0.008,0.05813 -0.0119,0.08733 -0.004,0.03127 -0.006,0.06259 -0.007,0.09405 -0.001,0.0309 -0.002,0.0621 -0.002,0.09302 0,0.03327 -0.001,0.06653 -0.003,0.09974 -0.003,0.03735 -0.007,0.0743 -0.01,0.111621 -0.002,0.03653 -0.007,0.07321 -0.0124,0.109554 -0.004,0.03378 -0.009,0.06752 -0.0134,0.101286 -0.004,0.03854 -0.009,0.0768 -0.0145,0.115238 -0.007,0.04773 -0.012,0.09566 -0.0171,0.143661 -0.005,0.05006 -0.0105,0.100298 -0.0155,0.150378 -0.005,0.04961 -0.009,0.09952 -0.0119,0.149345 -0.002,0.05537 -0.007,0.110245 -0.0124,0.165365 -0.006,0.05396 -0.0126,0.108344 -0.0186,0.162264 -0.007,0.05987 -0.0137,0.119597 -0.0217,0.179317 -0.008,0.06051 -0.0164,0.120794 -0.0243,0.181384 -0.008,0.06088 -0.0125,0.122132 -0.0155,0.183452 -0.002,0.0597 -0.002,0.119607 -0.003,0.179317 -0.002,0.06135 -0.007,0.122291 -0.0119,0.183451 -10e-4,0.01981 -0.002,0.03961 -0.004,0.05943 l 0.1788,0.75861 c 0.46517,1.9702 2.16611,3.137313 3.82612,2.62568 0.44199,-0.13622 1.55925,-0.348416 2.48253,-0.471806 1.86964,-0.24985 2.95125,-0.99611 2.95125,-2.035535 0,-0.315054 0.10347,-0.573617 0.23512,-0.608231 0.004,-0.0495 0.009,-0.09879 0.0181,-0.147795 0.0135,-0.07786 0.0276,-0.155691 0.0336,-0.234611 0.006,-0.09008 0.01,-0.180645 0.015,-0.270785 0.005,-0.09506 0.0105,-0.190009 0.0103,-0.285253 0.001,-0.08586 7.7e-4,-0.171489 0.002,-0.257349 10e-4,-0.07431 0.003,-0.148942 0.005,-0.223242 l 0.003,-0.226343 c 0.002,-0.08015 0.004,-0.160321 0.0103,-0.240295 0.006,-0.07793 0.013,-0.155711 0.0243,-0.233061 0.009,-0.06699 0.0178,-0.134378 0.0258,-0.201538 0.007,-0.06175 0.0124,-0.123339 0.0134,-0.185519 0.001,-0.05419 -6.8e-4,-0.10863 0.002,-0.16278 0.004,-0.06018 0.01,-0.120128 0.0217,-0.179318 0.0126,-0.06229 0.0272,-0.124298 0.0372,-0.187068 0.01,-0.07301 0.0139,-0.146492 0.0129,-0.220142 -0.002,-0.06196 -0.005,-0.124042 -0.017,-0.185002 -0.007,-0.03821 -0.0163,-0.07646 -0.0233,-0.114721 -0.007,-0.04437 -0.009,-0.08889 -0.002,-0.133325 -0.0649,-0.04637 -0.1677,-0.262472 -0.31574,-0.666626 -0.66979,-1.828636 -1.58764,-2.581196 -3.43028,-2.60811 z m -0.0186,0.37106 c 0.82585,0.0075 1.52638,0.108997 1.84744,0.31936 1.06485,0.697695 1.59033,2.502944 1.42058,4.880839 -0.0803,1.125485 -0.21887,2.227551 -0.30747,2.448946 -0.26643,0.66564 -1.22402,1.109816 -2.91507,1.351856 -0.88062,0.12605 -2.09007,0.302207 -2.68769,0.391707 -0.94773,0.14201 -1.19684,0.06449 -1.94975,-0.608231 -0.78842,-0.70445 -0.8725,-0.930997 -0.971,-2.610177 -0.0593,-1.011165 0.0442,-2.552526 0.22996,-3.425631 0.30741,-1.44462 0.4278,-1.631739 1.3379,-2.076359 0.8946,-0.437025 2.61893,-0.684829 3.9951,-0.67231 z m 0.2191,1.542501 c -0.0245,8.31e-4 -0.0388,0.03264 -0.0408,0.0987 -0.008,0.26423 0.1166,0.725581 0.27698,1.025261 0.24137,0.450965 0.18219,0.65497 -0.34468,1.18184 -0.61531,0.615285 -0.66964,0.622629 -1.62057,0.225309 -0.54106,-0.22607 -1.45685,-0.378697 -2.03554,-0.338997 -0.89299,0.06122 -1.05237,0.162284 -1.05264,0.667659 l -5.2e-4,0.595313 0.52917,-0.529167 c 0.61485,-0.614815 0.78402,-0.633075 2.13992,-0.22686 1.01458,0.30397 1.56424,1.141816 1.56424,2.382801 h 5.2e-4 c 0,0.269305 0.0745,0.489892 0.16588,0.489892 0.0913,0 0.10223,-0.565551 0.008,-1.256771 -0.14036,-1.11493 -0.0873,-1.308825 0.4718,-1.71514 0.61819,-0.44924 0.64635,-0.440073 1.44746,0.472322 0.44922,0.51163 0.81649,0.806064 0.81649,0.654224 0,-0.15184 -0.32743,-0.636644 -0.72761,-1.077454 -0.39993,-0.440785 -0.9294,-1.303212 -1.17615,-1.916162 -0.18506,-0.45968 -0.34868,-0.735263 -0.4222,-0.732772 z" /><path
       id="tooth02"
       style="fill:#000000;stroke-width:0.264583"
       d="m 32.675008,89.765567 c -0.499306,0.01493 -0.869857,0.114871 -1.257287,0.315226 -0.956073,0.49441 -1.852787,1.829135 -1.869137,2.78226 -0.0039,0.229016 -0.0098,0.370849 -0.03204,0.421679 0.0018,0.01548 0.0037,0.03094 0.0057,0.04651 0.0023,0.0196 0.0073,0.03903 0.01292,0.05788 0.0085,0.02379 0.01335,0.04795 0.01705,0.07286 0.0033,0.02492 0.0048,0.05034 0.0057,0.07545 6.91e-4,0.02204 8.96e-4,0.04411 0.001,0.06615 5e-4,0.02527 -7.06e-4,0.05021 -0.0015,0.07545 -7.06e-4,0.01949 -7.55e-4,0.03942 -0.001,0.05891 -2.38e-4,0.01819 -4.74e-4,0.03607 -5.16e-4,0.05426 -4.1e-5,0.0221 8e-6,0.04406 0,0.06615 -6e-6,0.01817 1e-6,0.03661 0,0.05478 5e-4,0.02309 -10e-4,0.04627 -0.0031,0.06925 -0.0028,0.02688 -0.0049,0.05361 -0.0062,0.08061 -0.0012,0.02643 -0.0013,0.05312 -0.0016,0.07958 -2.23e-4,0.02638 -4.63e-4,0.05268 -5.17e-4,0.07906 -3e-4,0.01923 -3.33e-4,0.03827 0.0021,0.05736 0.0039,0.02398 0.0081,0.04802 0.01292,0.07183 0.0053,0.02505 0.012,0.04969 0.0186,0.07441 0.0074,0.02613 0.01409,0.05234 0.02119,0.07855 0.0076,0.02704 0.01369,0.05445 0.01809,0.08217 0.0043,0.02929 0.0057,0.05881 0.0067,0.08837 0.0015,0.03407 0.0011,0.0683 -0.001,0.102319 -0.0032,0.04288 -0.0088,0.08561 -0.01499,0.128157 -0.0067,0.044 -0.01337,0.08786 -0.02067,0.131775 -0.0071,0.0407 -0.01512,0.08125 -0.02222,0.121957 -0.007,0.03766 -0.01337,0.07561 -0.01757,0.113688 -0.003,0.03258 -0.0055,0.065 -0.0072,0.09767 -0.0015,0.03015 -0.0021,0.06026 -0.0026,0.09043 -3.99e-4,0.02872 -4.47e-4,0.05758 -5.17e-4,0.0863 -6.4e-5,0.03137 1.3e-5,0.06268 0,0.09405 -1.1e-5,0.03162 2e-6,0.06347 0,0.09508 -7e-4,0.03997 -0.0019,0.07992 -0.0026,0.11989 -0.0013,0.04087 -0.0035,0.08162 -0.0052,0.122473 -5e-4,0.03729 -0.0031,0.07448 -0.0062,0.111621 -0.0028,0.03481 -0.0061,0.06954 -0.0083,0.104386 -0.0018,0.03008 -0.0022,0.0603 -0.0026,0.09043 -3.46e-4,0.03026 -4.36e-4,0.06017 -5.16e-4,0.09043 4e-4,0.03117 -0.0012,0.06238 -0.0021,0.09353 -6.14e-4,0.02925 -0.0019,0.05861 -5.17e-4,0.08785 0.0013,0.02342 0.0052,0.04652 0.0083,0.06976 0.0035,0.02483 0.0052,0.04992 0.0067,0.07493 8.24e-4,0.01453 0.0011,0.02887 0.0016,0.04341 l 5.17e-4,0.0036 c 5.58e-4,0.01875 -0.0043,0.03272 -0.01137,0.04186 0.0044,0.06007 0.0094,0.110067 0.0124,0.189652 0.0553,1.458235 1.020697,2.205328 3.266984,2.528528 4.406547,0.634042 4.06502,0.658742 5.091679,-0.367936 0.724753,-0.724755 0.938644,-1.159687 0.960664,-1.951302 l 0.0186,-0.665076 c -0.0157,-0.0058 -0.03126,-0.02135 -0.04082,-0.04909 -0.009,-0.0261 -0.01666,-0.05228 -0.02325,-0.07906 -0.0131,-0.05702 -0.0101,-0.115773 -0.0062,-0.173633 0.0069,-0.0851 0.01657,-0.170212 0.02377,-0.255282 0.0076,-0.09026 0.01011,-0.180771 0.01085,-0.271301 3.4e-4,-0.0944 -2.98e-4,-0.188787 -5.17e-4,-0.283187 -3e-4,-0.08376 -0.0016,-0.16742 -0.0036,-0.251147 -0.0014,-0.06689 -0.0071,-0.133588 -0.01499,-0.199988 -0.0067,-0.05697 -0.01763,-0.113112 -0.03049,-0.168982 -0.01642,-0.06747 -0.03377,-0.134695 -0.05064,-0.202055 -0.01983,-0.07625 -0.03634,-0.153534 -0.05064,-0.230994 -0.01388,-0.07678 -0.02031,-0.154217 -0.02481,-0.232027 -0.0038,-0.07693 -0.0044,-0.154024 -0.0072,-0.230994 -0.0026,-0.0811 -0.01282,-0.161832 -0.02222,-0.242362 -0.01013,-0.08437 -0.015,-0.168871 -0.0186,-0.253731 -0.003,-0.08181 -0.0043,-0.16411 -0.0041,-0.24598 4.78e-4,-0.06678 0.0037,-0.133483 0.0083,-0.199988 -0.02469,-0.05012 -0.03207,-0.224263 -0.03824,-0.507979 -0.03249,-1.493695 -1.376078,-2.222502 -4.827612,-2.618962 -0.42355,-0.04865 -0.769601,-0.07045 -1.069186,-0.06149 z m 0.580326,0.396381 c 1.920493,0.0385 4.377875,0.64608 4.789889,1.415935 0.163732,0.305905 0.36201,1.726129 0.4408,3.155879 0.163271,2.962935 -0.08554,3.878587 -1.240751,4.560962 -0.815966,0.48202 -1.685342,0.545055 -2.528011,0.182935 -0.291042,-0.12506 -0.886354,-0.23653 -1.322917,-0.24753 -1.38138,-0.03493 -2.768757,-0.551531 -3.183785,-1.184941 -0.281408,-0.429455 -0.404895,-1.329602 -0.412895,-3.017387 -0.01246,-2.628915 0.377715,-3.878287 1.413868,-4.527372 0.408585,-0.255975 1.170865,-0.355979 2.043802,-0.338481 z m -0.632002,2.211742 c -0.08,0.005 -0.31048,0.329073 -0.740007,1.018542 -0.498572,0.800335 -1.047144,1.425463 -1.219047,1.389063 -0.171903,-0.03638 -0.312642,0.191666 -0.312642,0.506946 0,0.498825 0.114111,0.441017 0.879533,-0.444418 l 0.880049,-1.017509 0.658875,0.497128 c 0.580746,0.438045 0.651756,0.672006 0.596346,1.965771 -0.03459,0.807615 -0.0096,1.111454 0.05529,0.674894 0.248942,-1.67377 0.400727,-1.987079 1.153934,-2.376599 0.999662,-0.516915 1.978726,-0.511515 2.50424,0.01395 0.377974,0.377915 0.415479,0.37045 0.415479,-0.08061 0,-0.64806 -1.698188,-0.781507 -3.003435,-0.236162 -0.864984,0.36143 -0.949443,0.349004 -1.484147,-0.220141 -0.428656,-0.45631 -0.524153,-0.789513 -0.392224,-1.365808 0.0496,-0.216656 0.05455,-0.328061 0.0078,-0.325045 z" /><path
       id="tooth12"
       style="fill:#000000;stroke-width:0.264583"
       d="m 120.64225,89.707687 c -0.50119,-0.0042 -0.95357,0.126901 -1.33532,0.394291 -1.14322,0.800715 -2.59987,4.58366 -2.32647,6.040975 0.18604,0.991655 1.72106,2.903151 2.91661,3.632336 0.44547,0.271651 1.0936,0.494511 1.44023,0.495061 0.79264,0.001 2.23187,-0.874995 2.759,-1.679485 1.37674,-2.10112 0.21441,-7.491477 -1.82521,-8.464082 -0.57742,-0.275345 -1.12765,-0.414935 -1.62884,-0.419096 z m -0.0506,0.277011 c 0.26254,-0.0083 0.5683,0.05942 1.03404,0.198955 0.98432,0.294885 1.19052,0.503775 1.80919,1.83658 0.51219,1.103395 0.72514,2.051022 0.79944,3.557922 0.11436,2.32071 -0.18049,3.031238 -1.62316,3.910873 -0.46504,0.283525 -1.02454,0.513562 -1.24282,0.510563 -1.18113,-0.01499 -2.99759,-1.570342 -3.94653,-3.379122 -0.67094,-1.278895 0.93906,-5.566327 2.39572,-6.379972 0.29261,-0.16344 0.51157,-0.247524 0.77412,-0.255799 z m -1.14416,2.637552 c -0.0726,-0.01672 -0.11896,0.443348 -0.20361,1.563729 -0.17121,2.2663 -0.12337,2.546425 0.21911,1.28571 0.15272,-0.56218 0.37698,-0.852399 0.6103,-0.789099 0.20291,0.05507 0.77258,0.129464 1.26556,0.165364 0.73483,0.05346 0.96208,0.221588 1.2609,0.932243 0.50234,1.194715 0.68078,0.873507 0.22996,-0.413928 -0.20185,-0.576485 -0.31808,-1.345681 -0.25838,-1.709456 0.10412,-0.63428 0.0956,-0.63136 -0.20154,0.06614 -0.24243,0.56923 -0.48602,0.72647 -1.11879,0.72347 -1.08837,-0.0055 -1.36332,-0.227877 -1.63039,-1.318782 -0.0768,-0.313714 -0.12958,-0.495361 -0.17312,-0.505396 z" /><path
       id="tooth05"
       style="fill:#000000;stroke-width:0.264583"
       d="m 61.876843,89.704087 c -0.562402,0.0061 -1.160917,0.139834 -1.662947,0.399459 -1.851889,0.957655 -3.046358,6.328653 -1.83503,8.251693 0.298716,0.474255 0.931326,1.098859 1.405599,1.388029 0.474249,0.289162 1.089618,0.526552 1.367875,0.527102 0.925527,0.002 2.733472,-1.294397 3.588411,-2.572972 0.730038,-1.091865 0.829603,-1.441187 0.737423,-2.585372 -0.125971,-1.563595 -1.381254,-4.49981 -2.155424,-5.04207 -0.357403,-0.25031 -0.883481,-0.371946 -1.445907,-0.365869 z m -0.03566,0.267691 c 0.956462,-0.04863 1.544335,0.562537 2.342492,2.151807 0.490093,0.975815 0.952151,2.316324 1.026811,2.978629 0.114927,1.019615 0.02023,1.370775 -0.617017,2.2903 -0.413918,0.597295 -1.114153,1.354736 -1.555977,1.683101 -1.561768,1.160735 -2.614971,1.059515 -3.978569,-0.382405 -0.743366,-0.78607 -0.79268,-0.96822 -0.78083,-2.87166 0.0099,-1.58337 0.164117,-2.383179 0.698665,-3.619934 0.602051,-1.39296 0.817985,-1.634916 1.7632,-1.973006 0.422154,-0.151005 0.782396,-0.240621 1.101225,-0.256832 z m 1.119832,2.905237 c -0.01567,0.0019 -0.02629,0.05823 -0.03101,0.175183 -0.03783,0.937325 -0.613609,1.398365 -1.74563,1.398365 -0.465525,0 -0.764518,-0.192123 -0.926558,-0.595313 -0.229056,-0.569835 -0.239739,-0.564045 -0.255799,0.14056 -0.0092,0.40485 -0.195615,1.163702 -0.413928,1.686202 -0.326061,0.780345 -0.330526,0.894731 -0.02584,0.641821 0.204034,-0.16933 0.44344,-0.595349 0.53175,-0.947229 0.124933,-0.497745 0.32145,-0.630363 0.885734,-0.596863 0.398904,0.0237 0.978951,-0.04459 1.289327,-0.151411 0.4919,-0.16929 0.587509,-0.0708 0.744658,0.766878 0.305177,1.62681 0.418696,0.845384 0.178283,-1.228866 -0.09394,-0.810477 -0.183994,-1.295008 -0.230993,-1.289327 z" /><path
       id="tooth13"
       style="fill:#000000;stroke-width:0.264583"
       d="m 128.72858,89.688067 c -1.27753,0 -1.88137,0.537609 -2.73214,2.432409 -1.43213,3.190135 -1.15233,5.024059 1.08004,7.081739 1.39272,1.283755 2.41055,1.396975 3.7021,0.411861 1.24586,-0.950235 1.81754,-2.632791 1.61851,-4.764051 -0.30964,-3.31574 -1.62205,-5.161958 -3.66851,-5.161958 z m 0.0537,0.264571 c 1.32174,0 2.2459,0.78354 2.7342,2.318205 1.03662,3.25787 0.86508,5.144918 -0.60823,6.693648 -0.6236,0.655515 -1.22757,1.040659 -1.62781,1.037659 -0.91769,-0.0064 -2.17624,-0.898143 -3.05149,-2.162138 -1.03983,-1.501735 -1.03418,-3.444044 0.0155,-5.506124 1.04362,-2.05016 1.39643,-2.38125 2.53783,-2.38125 z m -0.99421,2.513552 -0.0346,1.000455 c -0.0192,0.55038 -0.2096,1.418033 -0.42271,1.928048 -0.21314,0.51004 -0.28781,0.866166 -0.1664,0.791166 0.12139,-0.07503 0.36168,-0.476882 0.53382,-0.892452 0.29678,-0.716475 0.35973,-0.740899 1.22111,-0.471289 0.63871,0.19991 0.98822,0.514247 1.17771,1.057817 0.14823,0.425165 0.3383,0.704017 0.4222,0.620117 0.0839,-0.08389 0.0111,-0.41659 -0.16175,-0.73949 -0.18179,-0.33959 -0.25093,-1.046358 -0.16433,-1.676383 0.13501,-0.982355 0.11919,-1.023944 -0.16278,-0.427364 -0.41636,0.880915 -0.70162,1.049162 -1.36219,0.806152 -0.35412,-0.13023 -0.61144,-0.525646 -0.71624,-1.100191 z" /><path
       id="tooth04"
       style="fill:#000000;stroke-width:0.264583"
       d="m 53.755892,89.58213 c -1.779571,0 -3.171266,1.756979 -3.484025,4.397664 l -0.131258,1.104326 c 0.01008,1.68e-4 0.01988,0.01 0.01964,0.02997 -2e-4,0.02144 -0.0017,0.04282 -0.0047,0.06408 -0.0046,0.03418 -0.01037,0.06858 -0.01757,0.102319 -0.0065,0.03373 -0.01275,0.06719 -0.01705,0.101286 -0.0044,0.03841 -0.0078,0.07721 -0.01085,0.115755 -0.003,0.0381 -0.0057,0.07597 -0.0062,0.114205 -3.46e-4,0.04056 -7.4e-5,0.0814 0,0.121956 1.53e-4,0.03888 4.87e-4,0.07739 10e-4,0.116272 5.6e-4,0.03746 0.0011,0.0752 -5.17e-4,0.112655 -0.0022,0.04589 -0.0058,0.09152 -0.0067,0.137459 -0.0012,0.04983 -0.0012,0.100092 -0.0041,0.149862 -0.0026,0.05024 -0.0055,0.100174 -0.0078,0.150378 0.06589,0.03342 0.109554,0.169178 0.109554,0.428915 0,1.41568 1.858024,3.442168 3.155879,3.442168 1.965762,0 4.489026,-3.373 4.12688,-5.51646 -0.229858,-1.360635 -1.495215,-4.001775 -2.231388,-4.65708 -0.336409,-0.29945 -0.962025,-0.515731 -1.490865,-0.515731 z m 0.03462,0.373108 c 0.357065,-0.0101 0.714007,0.0428 1.042831,0.168982 0.246265,0.09451 0.851427,1.014141 1.34462,2.043286 1.203451,2.511145 1.23033,4.124332 0.09509,5.691642 -0.440966,0.608705 -1.185106,1.340602 -1.653646,1.626257 -0.468518,0.28568 -1.030738,0.516085 -1.249019,0.51108 -0.749393,-0.01584 -1.662419,-0.711027 -2.284615,-1.738912 -0.950189,-1.56972 -0.872896,-3.878029 0.227893,-6.796484 0.331626,-0.87926 1.405682,-1.475563 2.476851,-1.505851 z m 0.840262,2.775533 -0.167948,0.79375 c -0.13975,0.659105 -0.314254,0.807632 -1.027328,0.876432 -0.710522,0.0686 -0.858862,-0.0087 -0.858862,-0.447518 0,-0.291645 -0.111387,-0.599062 -0.24753,-0.683162 -0.150279,-0.09288 -0.162693,0.142868 -0.03152,0.599963 0.135829,0.47361 0.0923,1.11378 -0.117822,1.72496 -0.426556,1.2407 -0.227638,1.26515 0.286287,0.03514 0.21526,-0.51519 0.496897,-0.871383 0.625802,-0.791683 0.128905,0.07967 0.541786,0.02772 0.917773,-0.115239 0.515173,-0.19589 0.683679,-0.17639 0.683679,0.07958 0,0.18687 0.178241,0.571225 0.395842,0.853695 0.351126,0.455785 0.351126,0.402739 0,-0.470256 C 54.871546,94.645428 54.67952,93.871501 54.6623,93.466641 Z" /><path
       id="tooth03"
       style="fill:#000000;stroke-width:0.264583"
       d="m 44.730086,88.908786 c -1.847146,-0.02831 -3.985026,0.516272 -4.822444,1.407666 -0.329642,0.35088 -0.760814,1.156603 -0.958598,1.790588 -0.109272,0.350274 -0.183301,0.577907 -0.237195,0.713652 -0.0013,0.02566 -0.0031,0.05139 -0.0057,0.077 -0.0069,0.08541 -0.01228,0.171122 -0.01292,0.256832 -1e-4,0.08052 0.0012,0.160859 0.0041,0.241329 0.0035,0.08262 0.0087,0.16539 0.0186,0.24753 0.0096,0.08295 0.02004,0.16554 0.02274,0.24908 0.0027,0.07633 0.003,0.153146 0.0067,0.229443 0.0042,0.07398 0.01009,0.147649 0.02325,0.220659 0.01393,0.07557 0.03025,0.150919 0.04961,0.225309 0.01701,0.06794 0.03463,0.135545 0.05116,0.203605 0.01354,0.05908 0.02504,0.118561 0.03204,0.178801 0.0082,0.06926 0.01462,0.139005 0.01602,0.208772 0.002,0.0844 0.0034,0.168795 0.0036,0.253215 2.2e-4,0.09472 3.45e-4,0.1895 0,0.28422 -7.7e-4,0.09287 -0.0031,0.18543 -0.01085,0.27802 -0.007,0.08282 -0.01639,0.165721 -0.02325,0.248563 l 0.236678,1.054716 c 0.166418,0.741795 0.553483,1.375624 1.171505,1.918229 0.863064,0.7578 1.072486,0.814275 3.228743,0.868675 4.32154,0.10899 4.31897,0.10966 5.133537,-0.866091 0.407357,-0.487925 0.814589,-1.280901 0.904854,-1.762166 0.118545,-0.631884 0.337028,-1.034782 0.483692,-1.044381 0.0022,-0.0481 0.0048,-0.09608 0.0072,-0.144177 0.0028,-0.04941 0.0029,-0.09938 0.0041,-0.148828 9e-4,-0.04626 0.0045,-0.09229 0.0067,-0.138493 0.0016,-0.03661 5.47e-4,-0.07293 0,-0.109554 -5.84e-4,-0.03902 -3.35e-4,-0.07829 -5.17e-4,-0.117306 -8e-5,-0.04074 -8.6e-4,-0.08122 -5.17e-4,-0.121956 5e-4,-0.03916 0.0032,-0.07828 0.0062,-0.117305 0.0032,-0.03907 0.0069,-0.07838 0.01137,-0.117306 0.0044,-0.03511 0.01087,-0.06966 0.01757,-0.104386 0.0012,-0.0055 0.0025,-0.01101 0.0036,-0.01654 L 49.54943,93.341589 C 48.879601,91.019244 48.15289,89.908962 46.919617,89.323747 46.34942,89.053169 45.569696,88.921654 44.730086,88.908785 Z m 0.494027,0.280086 c 0.84729,-0.01155 1.172677,0.122235 1.78232,0.538985 1.155821,0.79015 1.735193,1.786363 2.283582,3.926893 0.578955,2.259895 0.193861,4.205899 -1.084689,5.484419 -0.546766,0.54679 -1.096897,0.850439 -1.488798,0.821139 -0.341949,-0.02553 -1.699604,-0.114838 -3.01687,-0.198438 -2.900227,-0.18408 -3.668998,-0.595572 -4.113444,-2.201932 -0.171219,-0.61885 -0.314543,-2.171581 -0.318843,-3.450436 -0.0064,-1.90807 0.08609,-2.453963 0.516247,-3.042708 0.776741,-1.063145 2.229753,-1.666695 4.389396,-1.823145 0.428335,-0.03103 0.768661,-0.05092 1.051099,-0.05478 z m -2.399337,1.557531 c -0.295742,0 -0.56689,0.64561 -0.56689,1.350305 0,0.28239 -0.48526,1.040033 -1.078487,1.683618 -0.781282,0.847565 -1.046621,1.338558 -0.962216,1.780253 0.106028,0.55468 0.120193,0.54561 0.152963,-0.0987 0.02314,-0.454905 0.337448,-0.944552 0.879016,-1.368392 l 0.843359,-0.660424 0.999422,0.575158 0.999939,0.574642 -0.109554,1.984375 c -0.107011,1.944 -0.0099,1.782369 0.280087,-0.466121 0.127459,-0.988395 0.2748,-1.193922 1.191141,-1.661397 1.101533,-0.56197 1.5957,-0.473018 2.691309,0.482657 0.417126,0.36387 0.463021,0.36049 0.463021,-0.03411 0,-0.24083 -0.0893,-0.412789 -0.198438,-0.381889 -0.25703,0.07267 -1.389062,-0.656736 -1.389062,-0.895036 0,-0.1004 0.267915,-0.234039 0.595312,-0.297139 0.536093,-0.10329 0.526338,-0.118495 -0.09663,-0.150895 -0.380533,-0.01982 -0.975895,0.181789 -1.322916,0.448034 -1.053532,0.80835 -1.530211,0.863557 -2.630331,0.302307 -0.869478,-0.443565 -1.043347,-0.666217 -1.043347,-1.337902 0,-0.44318 0.123245,-1.036304 0.273885,-1.317749 0.157591,-0.29446 0.169771,-0.511597 0.02842,-0.511597 z" /><path
       id="tooth14"
       style="fill:#000000;stroke-width:0.264583"
       d="m 137.62829,88.897416 c -2.23999,0.04399 -3.52123,1.137255 -4.35787,3.517615 -0.70089,1.99408 -0.69525,4.42994 0.0171,5.898865 0.87901,1.815794 1.28531,1.958874 5.01262,1.771464 3.17566,-0.159582 3.24159,-0.175429 4.12791,-1.011304 0.65872,-0.621235 0.90831,-1.090221 0.92811,-1.744596 l 0.0145,-0.473356 c -0.0166,-9.36e-4 -0.0339,-0.0164 -0.0388,-0.04858 -0.002,-0.01802 -0.004,-0.03599 -0.004,-0.05426 0.001,-0.03474 0.004,-0.06979 0.007,-0.104386 0.005,-0.04801 0.008,-0.09603 0.0108,-0.144177 0.005,-0.05989 0.01,-0.119764 0.0119,-0.179834 0.001,-0.06045 0.001,-0.120959 0.003,-0.181384 0.004,-0.06302 0.008,-0.125533 0.0165,-0.188103 0.008,-0.06079 0.0158,-0.121698 0.0238,-0.182418 0.008,-0.05929 0.0152,-0.118843 0.0222,-0.178283 0.006,-0.05362 0.0121,-0.107054 0.0181,-0.160714 0.005,-0.05393 0.0104,-0.108084 0.0124,-0.162264 0.002,-0.05106 0.007,-0.102112 0.0119,-0.152962 0.005,-0.04999 0.0105,-0.09989 0.0155,-0.149862 0.005,-0.04886 0.01,-0.09765 0.0165,-0.146244 0.005,-0.03828 0.011,-0.07685 0.015,-0.115239 0.004,-0.03363 0.009,-0.06712 0.0129,-0.100769 0.004,-0.03525 0.009,-0.0705 0.0124,-0.105936 0.002,-0.0367 0.006,-0.07335 0.009,-0.110071 0.002,-0.03209 0.003,-0.06397 0.003,-0.09612 0,-0.03173 0.001,-0.06389 0.002,-0.0956 0.001,-0.03339 0.003,-0.06656 0.007,-0.09974 0.004,-0.03063 0.007,-0.06111 0.0129,-0.09147 0.005,-0.02803 0.0115,-0.05567 0.0165,-0.08372 0.004,-0.02256 0.007,-0.04527 0.006,-0.06821 0,-0.02381 1e-5,-0.04802 0,-0.07183 0,-0.02434 2e-5,-0.04852 0,-0.07286 -3e-5,-0.02936 1e-4,-0.0585 0,-0.08785 -1.1e-4,-0.03023 -6e-4,-0.06073 -10e-4,-0.09095 0,-0.02481 -0.001,-0.04961 -0.002,-0.07441 -0.001,-0.02366 1.2e-4,-0.04717 0.001,-0.0708 0.001,-0.02232 0.003,-0.04482 0.008,-0.06666 0.005,-0.02325 0.0127,-0.04611 0.0217,-0.06821 0.003,-0.0062 0.005,-0.01246 0.008,-0.0186 l -0.015,-0.732772 c -0.0307,-1.473685 -1.4986,-2.897233 -3.40806,-3.306258 -0.97866,-0.209623 -1.83199,-0.311804 -2.57866,-0.29714 z m 0.0961,0.307476 c 0.25465,-0.0022 0.52125,0.01152 0.79995,0.04082 2.28353,0.24006 3.5309,0.766873 4.23799,1.789038 0.58809,0.85051 0.61612,1.066264 0.48059,3.766179 -0.15084,3.004875 -0.4261,3.793557 -1.57148,4.509802 -0.36892,0.23065 -1.70752,0.423864 -3.55638,0.513664 -2.66221,0.12927 -3.03172,0.09169 -3.61735,-0.36897 -1.66379,-1.308905 -1.93929,-4.989979 -0.58136,-7.765934 0.81904,-1.674016 2.02549,-2.469075 3.80804,-2.484603 z m 1.99111,1.588531 c -0.0939,-0.01313 -0.0858,0.10669 0.0191,0.372588 0.10987,0.278505 0.26305,0.883405 0.34055,1.34462 0.12996,0.77328 0.0525,0.883952 -0.99735,1.419552 l -1.13895,0.580843 -1.36633,-0.691947 c -1.36066,-0.68897 -2.65867,-0.978682 -1.49758,-0.334347 l 0.60978,0.338481 -0.74207,0.359668 c -0.40816,0.197885 -0.83136,0.339076 -0.94051,0.313676 -0.10913,-0.02539 -0.19844,0.132593 -0.19844,0.350883 0,0.218255 0.11906,0.396875 0.26458,0.396875 0.14552,0 0.26459,-0.105696 0.26459,-0.234611 0,-0.12894 0.39528,-0.421848 0.8785,-0.651123 0.80724,-0.38318 0.95612,-0.380685 1.83192,0.03566 0.99508,0.47281 1.24871,0.948073 1.25471,2.349728 0.002,0.461015 0.076,1.026605 0.16433,1.25677 0.31807,0.82897 0.43348,0.391762 0.2558,-0.970483 -0.0996,-0.763965 -0.24723,-1.656955 -0.32763,-1.984375 -0.0905,-0.36868 -0.0247,-0.595312 0.1726,-0.595312 0.17521,0 0.67076,-0.251069 1.10122,-0.557589 l 0.78238,-0.557072 1.04439,1.097607 c 0.57402,0.60368 1.04386,0.964835 1.04386,0.802535 0,-0.162265 -0.46198,-0.70992 -1.02681,-1.21698 -0.7399,-0.664205 -1.07271,-1.209176 -1.19114,-1.949751 -0.0904,-0.56535 -0.30349,-1.114082 -0.47336,-1.219047 -0.054,-0.03341 -0.0969,-0.05249 -0.12816,-0.05684 z" /></g></svg>
