<?xml version="1.0" encoding="UTF-8" standalone="no"?>
<!-- Created with Inkscape (http://www.inkscape.org/) -->

<svg
   width="210mm"
   height="297mm"
   viewBox="0 0 210 297"
   version="1.1"
   id="svg5"
   xml:space="preserve"
   inkscape:version="1.2.2 (732a01da63, 2022-12-09)"
   sodipodi:docname="teethFrontFill.svg"
   xmlns:inkscape="http://www.inkscape.org/namespaces/inkscape"
   xmlns:sodipodi="http://sodipodi.sourceforge.net/DTD/sodipodi-0.dtd"
   xmlns="http://www.w3.org/2000/svg"
   xmlns:svg="http://www.w3.org/2000/svg"><sodipodi:namedview
     id="namedview7"
     pagecolor="#ffffff"
     bordercolor="#000000"
     borderopacity="0.25"
     inkscape:showpageshadow="2"
     inkscape:pageopacity="0.0"
     inkscape:pagecheckerboard="0"
     inkscape:deskcolor="#d1d1d1"
     inkscape:document-units="mm"
     showgrid="false"
     inkscape:zoom="2.0949356"
     inkscape:cx="461.82804"
     inkscape:cy="247.26297"
     inkscape:window-width="2560"
     inkscape:window-height="1377"
     inkscape:window-x="1358"
     inkscape:window-y="-8"
     inkscape:window-maximized="1"
     inkscape:current-layer="layer1" /><defs
     id="defs2"><inkscape:path-effect
       effect="offset"
       id="path-effect23109"
       is_visible="true"
       lpeversion="1.2"
       linejoin_type="miter"
       unit="mm"
       offset="0.1"
       miter_limit="4"
       attempt_force_join="false"
       update_on_knot_move="true" /><inkscape:path-effect
       effect="offset"
       id="path-effect23103"
       is_visible="true"
       lpeversion="1.2"
       linejoin_type="miter"
       unit="mm"
       offset="0.1"
       miter_limit="4"
       attempt_force_join="false"
       update_on_knot_move="true" /><inkscape:path-effect
       effect="offset"
       id="path-effect23097"
       is_visible="true"
       lpeversion="1.2"
       linejoin_type="miter"
       unit="mm"
       offset="0.1"
       miter_limit="4"
       attempt_force_join="false"
       update_on_knot_move="true" /><inkscape:path-effect
       effect="offset"
       id="path-effect23091"
       is_visible="true"
       lpeversion="1.2"
       linejoin_type="miter"
       unit="mm"
       offset="0.1"
       miter_limit="4"
       attempt_force_join="false"
       update_on_knot_move="true" /><inkscape:path-effect
       effect="offset"
       id="path-effect23085"
       is_visible="true"
       lpeversion="1.2"
       linejoin_type="miter"
       unit="mm"
       offset="0.1"
       miter_limit="4"
       attempt_force_join="false"
       update_on_knot_move="true" /><inkscape:path-effect
       effect="offset"
       id="path-effect23079"
       is_visible="true"
       lpeversion="1.2"
       linejoin_type="miter"
       unit="mm"
       offset="0.1"
       miter_limit="4"
       attempt_force_join="false"
       update_on_knot_move="true" /><inkscape:path-effect
       effect="offset"
       id="path-effect23073"
       is_visible="true"
       lpeversion="1.2"
       linejoin_type="miter"
       unit="mm"
       offset="0.1"
       miter_limit="4"
       attempt_force_join="false"
       update_on_knot_move="true" /><inkscape:path-effect
       effect="offset"
       id="path-effect23067"
       is_visible="true"
       lpeversion="1.2"
       linejoin_type="miter"
       unit="mm"
       offset="0.1"
       miter_limit="4"
       attempt_force_join="false"
       update_on_knot_move="true" /><inkscape:path-effect
       effect="offset"
       id="path-effect23061"
       is_visible="true"
       lpeversion="1.2"
       linejoin_type="miter"
       unit="mm"
       offset="0.1"
       miter_limit="4"
       attempt_force_join="false"
       update_on_knot_move="true" /><inkscape:path-effect
       effect="offset"
       id="path-effect23055"
       is_visible="true"
       lpeversion="1.2"
       linejoin_type="miter"
       unit="mm"
       offset="0.1"
       miter_limit="4"
       attempt_force_join="false"
       update_on_knot_move="true" /><inkscape:path-effect
       effect="offset"
       id="path-effect23049"
       is_visible="true"
       lpeversion="1.2"
       linejoin_type="miter"
       unit="mm"
       offset="0.1"
       miter_limit="4"
       attempt_force_join="false"
       update_on_knot_move="true" /><inkscape:path-effect
       effect="offset"
       id="path-effect23043"
       is_visible="true"
       lpeversion="1.2"
       linejoin_type="miter"
       unit="mm"
       offset="0.1"
       miter_limit="4"
       attempt_force_join="false"
       update_on_knot_move="true" /><inkscape:path-effect
       effect="offset"
       id="path-effect23037"
       is_visible="true"
       lpeversion="1.2"
       linejoin_type="miter"
       unit="mm"
       offset="0.1"
       miter_limit="4"
       attempt_force_join="false"
       update_on_knot_move="true" /><inkscape:path-effect
       effect="offset"
       id="path-effect23031"
       is_visible="true"
       lpeversion="1.2"
       linejoin_type="miter"
       unit="mm"
       offset="0.1"
       miter_limit="4"
       attempt_force_join="false"
       update_on_knot_move="true" /><inkscape:path-effect
       effect="offset"
       id="path-effect23025"
       is_visible="true"
       lpeversion="1.2"
       linejoin_type="miter"
       unit="mm"
       offset="0.1"
       miter_limit="4"
       attempt_force_join="false"
       update_on_knot_move="true" /><inkscape:path-effect
       effect="offset"
       id="path-effect23019"
       is_visible="true"
       lpeversion="1.2"
       linejoin_type="miter"
       unit="mm"
       offset="0.1"
       miter_limit="4"
       attempt_force_join="false"
       update_on_knot_move="true" /><inkscape:path-effect
       effect="offset"
       id="path-effect23013"
       is_visible="true"
       lpeversion="1.2"
       linejoin_type="miter"
       unit="mm"
       offset="0.1"
       miter_limit="4"
       attempt_force_join="false"
       update_on_knot_move="true" /><inkscape:path-effect
       effect="offset"
       id="path-effect23007"
       is_visible="true"
       lpeversion="1.2"
       linejoin_type="miter"
       unit="mm"
       offset="0.1"
       miter_limit="4"
       attempt_force_join="false"
       update_on_knot_move="true" /><inkscape:path-effect
       effect="offset"
       id="path-effect23001"
       is_visible="true"
       lpeversion="1.2"
       linejoin_type="miter"
       unit="mm"
       offset="0.1"
       miter_limit="4"
       attempt_force_join="false"
       update_on_knot_move="true" /><inkscape:path-effect
       effect="offset"
       id="path-effect22995"
       is_visible="true"
       lpeversion="1.2"
       linejoin_type="miter"
       unit="mm"
       offset="0.1"
       miter_limit="4"
       attempt_force_join="false"
       update_on_knot_move="true" /><inkscape:path-effect
       effect="offset"
       id="path-effect22989"
       is_visible="true"
       lpeversion="1.2"
       linejoin_type="miter"
       unit="mm"
       offset="0.1"
       miter_limit="4"
       attempt_force_join="false"
       update_on_knot_move="true" /><inkscape:path-effect
       effect="offset"
       id="path-effect22983"
       is_visible="true"
       lpeversion="1.2"
       linejoin_type="miter"
       unit="mm"
       offset="0.1"
       miter_limit="4"
       attempt_force_join="false"
       update_on_knot_move="true" /><inkscape:path-effect
       effect="offset"
       id="path-effect22977"
       is_visible="true"
       lpeversion="1.2"
       linejoin_type="miter"
       unit="mm"
       offset="0.1"
       miter_limit="4"
       attempt_force_join="false"
       update_on_knot_move="true" /><inkscape:path-effect
       effect="offset"
       id="path-effect22971"
       is_visible="true"
       lpeversion="1.2"
       linejoin_type="miter"
       unit="mm"
       offset="0.1"
       miter_limit="4"
       attempt_force_join="false"
       update_on_knot_move="true" /><inkscape:path-effect
       effect="offset"
       id="path-effect22965"
       is_visible="true"
       lpeversion="1.2"
       linejoin_type="miter"
       unit="mm"
       offset="0.1"
       miter_limit="4"
       attempt_force_join="false"
       update_on_knot_move="true" /><inkscape:path-effect
       effect="offset"
       id="path-effect22959"
       is_visible="true"
       lpeversion="1.2"
       linejoin_type="miter"
       unit="mm"
       offset="0.1"
       miter_limit="4"
       attempt_force_join="false"
       update_on_knot_move="true" /><inkscape:path-effect
       effect="offset"
       id="path-effect22953"
       is_visible="true"
       lpeversion="1.2"
       linejoin_type="miter"
       unit="mm"
       offset="0.1"
       miter_limit="4"
       attempt_force_join="false"
       update_on_knot_move="true" /><inkscape:path-effect
       effect="offset"
       id="path-effect22947"
       is_visible="true"
       lpeversion="1.2"
       linejoin_type="miter"
       unit="mm"
       offset="0.1"
       miter_limit="4"
       attempt_force_join="false"
       update_on_knot_move="true" /><inkscape:path-effect
       effect="offset"
       id="path-effect22941"
       is_visible="true"
       lpeversion="1.2"
       linejoin_type="miter"
       unit="mm"
       offset="0.1"
       miter_limit="4"
       attempt_force_join="false"
       update_on_knot_move="true" /><inkscape:path-effect
       effect="offset"
       id="path-effect22935"
       is_visible="true"
       lpeversion="1.2"
       linejoin_type="miter"
       unit="mm"
       offset="0.1"
       miter_limit="4"
       attempt_force_join="false"
       update_on_knot_move="true" /><inkscape:path-effect
       effect="offset"
       id="path-effect22929"
       is_visible="true"
       lpeversion="1.2"
       linejoin_type="miter"
       unit="mm"
       offset="0.1"
       miter_limit="4"
       attempt_force_join="false"
       update_on_knot_move="true" /><inkscape:path-effect
       effect="offset"
       id="path-effect22923"
       is_visible="true"
       lpeversion="1.2"
       linejoin_type="miter"
       unit="mm"
       offset="0.1"
       miter_limit="4"
       attempt_force_join="false"
       update_on_knot_move="true" /><inkscape:path-effect
       effect="offset"
       id="path-effect22917"
       is_visible="true"
       lpeversion="1.2"
       linejoin_type="miter"
       unit="mm"
       offset="0.1"
       miter_limit="4"
       attempt_force_join="false"
       update_on_knot_move="true" /><inkscape:path-effect
       effect="offset"
       id="path-effect22911"
       is_visible="true"
       lpeversion="1.2"
       linejoin_type="miter"
       unit="mm"
       offset="0.1"
       miter_limit="4"
       attempt_force_join="false"
       update_on_knot_move="true" /><inkscape:path-effect
       effect="offset"
       id="path-effect22905"
       is_visible="true"
       lpeversion="1.2"
       linejoin_type="miter"
       unit="mm"
       offset="0.1"
       miter_limit="4"
       attempt_force_join="false"
       update_on_knot_move="true" /><inkscape:path-effect
       effect="offset"
       id="path-effect22899"
       is_visible="true"
       lpeversion="1.2"
       linejoin_type="miter"
       unit="mm"
       offset="0.1"
       miter_limit="4"
       attempt_force_join="false"
       update_on_knot_move="true" /><inkscape:path-effect
       effect="offset"
       id="path-effect22893"
       is_visible="true"
       lpeversion="1.2"
       linejoin_type="miter"
       unit="mm"
       offset="0.1"
       miter_limit="4"
       attempt_force_join="false"
       update_on_knot_move="true" /><inkscape:path-effect
       effect="offset"
       id="path-effect22887"
       is_visible="true"
       lpeversion="1.2"
       linejoin_type="miter"
       unit="mm"
       offset="0.1"
       miter_limit="4"
       attempt_force_join="false"
       update_on_knot_move="true" /><inkscape:path-effect
       effect="offset"
       id="path-effect22881"
       is_visible="true"
       lpeversion="1.2"
       linejoin_type="miter"
       unit="mm"
       offset="0.1"
       miter_limit="4"
       attempt_force_join="false"
       update_on_knot_move="true" /><inkscape:path-effect
       effect="offset"
       id="path-effect22875"
       is_visible="true"
       lpeversion="1.2"
       linejoin_type="miter"
       unit="mm"
       offset="0.1"
       miter_limit="4"
       attempt_force_join="false"
       update_on_knot_move="true" /><inkscape:path-effect
       effect="offset"
       id="path-effect22869"
       is_visible="true"
       lpeversion="1.2"
       linejoin_type="miter"
       unit="mm"
       offset="0.1"
       miter_limit="4"
       attempt_force_join="false"
       update_on_knot_move="true" /><inkscape:path-effect
       effect="offset"
       id="path-effect22863"
       is_visible="true"
       lpeversion="1.2"
       linejoin_type="miter"
       unit="mm"
       offset="0.1"
       miter_limit="4"
       attempt_force_join="false"
       update_on_knot_move="true" /><inkscape:path-effect
       effect="offset"
       id="path-effect22857"
       is_visible="true"
       lpeversion="1.2"
       linejoin_type="miter"
       unit="mm"
       offset="0.1"
       miter_limit="4"
       attempt_force_join="false"
       update_on_knot_move="true" /><inkscape:path-effect
       effect="offset"
       id="path-effect22851"
       is_visible="true"
       lpeversion="1.2"
       linejoin_type="miter"
       unit="mm"
       offset="0.1"
       miter_limit="4"
       attempt_force_join="false"
       update_on_knot_move="true" /><inkscape:path-effect
       effect="offset"
       id="path-effect22845"
       is_visible="true"
       lpeversion="1.2"
       linejoin_type="miter"
       unit="mm"
       offset="0.1"
       miter_limit="4"
       attempt_force_join="false"
       update_on_knot_move="true" /><inkscape:path-effect
       effect="offset"
       id="path-effect22839"
       is_visible="true"
       lpeversion="1.2"
       linejoin_type="miter"
       unit="mm"
       offset="0.1"
       miter_limit="4"
       attempt_force_join="false"
       update_on_knot_move="true" /><inkscape:path-effect
       effect="offset"
       id="path-effect22833"
       is_visible="true"
       lpeversion="1.2"
       linejoin_type="miter"
       unit="mm"
       offset="0.1"
       miter_limit="4"
       attempt_force_join="false"
       update_on_knot_move="true" /><inkscape:path-effect
       effect="offset"
       id="path-effect22827"
       is_visible="true"
       lpeversion="1.2"
       linejoin_type="miter"
       unit="mm"
       offset="0.1"
       miter_limit="4"
       attempt_force_join="false"
       update_on_knot_move="true" /><inkscape:path-effect
       effect="offset"
       id="path-effect22821"
       is_visible="true"
       lpeversion="1.2"
       linejoin_type="miter"
       unit="mm"
       offset="0.1"
       miter_limit="4"
       attempt_force_join="false"
       update_on_knot_move="true" /><inkscape:path-effect
       effect="offset"
       id="path-effect22815"
       is_visible="true"
       lpeversion="1.2"
       linejoin_type="miter"
       unit="mm"
       offset="0.1"
       miter_limit="4"
       attempt_force_join="false"
       update_on_knot_move="true" /><inkscape:path-effect
       effect="offset"
       id="path-effect22809"
       is_visible="true"
       lpeversion="1.2"
       linejoin_type="miter"
       unit="mm"
       offset="0.1"
       miter_limit="4"
       attempt_force_join="false"
       update_on_knot_move="true" /><inkscape:path-effect
       effect="offset"
       id="path-effect22803"
       is_visible="true"
       lpeversion="1.2"
       linejoin_type="miter"
       unit="mm"
       offset="0.1"
       miter_limit="4"
       attempt_force_join="false"
       update_on_knot_move="true" /><inkscape:path-effect
       effect="offset"
       id="path-effect22797"
       is_visible="true"
       lpeversion="1.2"
       linejoin_type="miter"
       unit="mm"
       offset="0.1"
       miter_limit="4"
       attempt_force_join="false"
       update_on_knot_move="true" /><inkscape:path-effect
       effect="offset"
       id="path-effect22791"
       is_visible="true"
       lpeversion="1.2"
       linejoin_type="miter"
       unit="mm"
       offset="0.1"
       miter_limit="4"
       attempt_force_join="false"
       update_on_knot_move="true" /><inkscape:path-effect
       effect="offset"
       id="path-effect22785"
       is_visible="true"
       lpeversion="1.2"
       linejoin_type="miter"
       unit="mm"
       offset="0.1"
       miter_limit="4"
       attempt_force_join="false"
       update_on_knot_move="true" /><inkscape:path-effect
       effect="offset"
       id="path-effect22779"
       is_visible="true"
       lpeversion="1.2"
       linejoin_type="miter"
       unit="mm"
       offset="0.1"
       miter_limit="4"
       attempt_force_join="false"
       update_on_knot_move="true" /><inkscape:path-effect
       effect="offset"
       id="path-effect22773"
       is_visible="true"
       lpeversion="1.2"
       linejoin_type="miter"
       unit="mm"
       offset="0.1"
       miter_limit="4"
       attempt_force_join="false"
       update_on_knot_move="true" /><inkscape:path-effect
       effect="offset"
       id="path-effect22767"
       is_visible="true"
       lpeversion="1.2"
       linejoin_type="miter"
       unit="mm"
       offset="0.1"
       miter_limit="4"
       attempt_force_join="false"
       update_on_knot_move="true" /><inkscape:path-effect
       effect="offset"
       id="path-effect22761"
       is_visible="true"
       lpeversion="1.2"
       linejoin_type="miter"
       unit="mm"
       offset="0.1"
       miter_limit="4"
       attempt_force_join="false"
       update_on_knot_move="true" /><inkscape:path-effect
       effect="offset"
       id="path-effect22755"
       is_visible="true"
       lpeversion="1.2"
       linejoin_type="miter"
       unit="mm"
       offset="0.1"
       miter_limit="4"
       attempt_force_join="false"
       update_on_knot_move="true" /><inkscape:path-effect
       effect="offset"
       id="path-effect22749"
       is_visible="true"
       lpeversion="1.2"
       linejoin_type="miter"
       unit="mm"
       offset="0.1"
       miter_limit="4"
       attempt_force_join="false"
       update_on_knot_move="true" /><inkscape:path-effect
       effect="offset"
       id="path-effect22743"
       is_visible="true"
       lpeversion="1.2"
       linejoin_type="miter"
       unit="mm"
       offset="0.1"
       miter_limit="4"
       attempt_force_join="false"
       update_on_knot_move="true" /><inkscape:path-effect
       effect="offset"
       id="path-effect22737"
       is_visible="true"
       lpeversion="1.2"
       linejoin_type="miter"
       unit="mm"
       offset="0.1"
       miter_limit="4"
       attempt_force_join="false"
       update_on_knot_move="true" /><inkscape:path-effect
       effect="offset"
       id="path-effect22731"
       is_visible="true"
       lpeversion="1.2"
       linejoin_type="miter"
       unit="mm"
       offset="0.1"
       miter_limit="4"
       attempt_force_join="false"
       update_on_knot_move="true" /><inkscape:path-effect
       effect="offset"
       id="path-effect22725"
       is_visible="true"
       lpeversion="1.2"
       linejoin_type="miter"
       unit="mm"
       offset="0.1"
       miter_limit="4"
       attempt_force_join="false"
       update_on_knot_move="true" /><inkscape:path-effect
       effect="offset"
       id="path-effect22719"
       is_visible="true"
       lpeversion="1.2"
       linejoin_type="miter"
       unit="mm"
       offset="0.1"
       miter_limit="4"
       attempt_force_join="false"
       update_on_knot_move="true" /><inkscape:path-effect
       effect="offset"
       id="path-effect22713"
       is_visible="true"
       lpeversion="1.2"
       linejoin_type="miter"
       unit="mm"
       offset="0.1"
       miter_limit="4"
       attempt_force_join="false"
       update_on_knot_move="true" /><inkscape:path-effect
       effect="offset"
       id="path-effect22707"
       is_visible="true"
       lpeversion="1.2"
       linejoin_type="miter"
       unit="mm"
       offset="0.1"
       miter_limit="4"
       attempt_force_join="false"
       update_on_knot_move="true" /><inkscape:path-effect
       effect="offset"
       id="path-effect22701"
       is_visible="true"
       lpeversion="1.2"
       linejoin_type="miter"
       unit="mm"
       offset="0.1"
       miter_limit="4"
       attempt_force_join="false"
       update_on_knot_move="true" /><inkscape:path-effect
       effect="offset"
       id="path-effect22693"
       is_visible="true"
       lpeversion="1.2"
       linejoin_type="miter"
       unit="mm"
       offset="0.1"
       miter_limit="4"
       attempt_force_join="false"
       update_on_knot_move="true" /></defs><g
     inkscape:label="Layer 1"
     inkscape:groupmode="layer"
     id="layer1"><path
       id="tooth32"
       style="fill:#000000;stroke-width:0.139449"
       d="m 31,74.042969 c -0.532857,0.04322 -1.136477,0.179354 -1.708984,0.398437 -0.771671,0.295302 -0.7872,0.295323 -1.482422,0.07617 -1.012689,-0.319219 -2.055495,-0.299773 -2.96875,0.06055 -0.495782,0.195611 -0.869683,0.255346 -1.197266,0.203125 -0.39735,-0.06339 -0.629174,-0.01926 -0.835937,0.1875 -0.884479,0.884486 -0.86421,3.16189 0.02344,4.216797 0.692943,0.823514 1.365076,1.021748 3.056641,0.955078 0.922573,-0.03634 1.416222,-0.137073 2.126953,-0.441406 0.772344,-0.330726 1.109114,-0.390267 2.566406,-0.44336 l 1.761719,-0.0625 0.242187,-0.642578 C 33.501028,76.13811 33.453662,74.797079 32.316406,74.208984 32.008963,74.049998 31.531544,73.999859 31,74.042969 Z m -0.228516,5.398437 c -1.288333,0 -1.563988,0.04978 -2.533203,0.451172 -0.975175,0.403869 -1.16468,0.435754 -2.632812,0.445313 -1.420498,0.009 -1.632216,-0.0221 -2.083985,-0.289063 -0.292098,-0.172619 -0.559649,-0.328125 -0.617187,-0.328125 -0.09601,0 -0.102402,0.09241 -0.103516,0.105469 -0.0097,0.113818 0.03038,0.550159 0.0918,1.085937 0.252708,2.20465 -0.12685,5.383747 -0.820312,6.902344 -0.406509,0.890198 -1.214143,2.009236 -1.960938,2.71875 -0.319046,0.303118 -0.539933,0.558622 -0.644531,0.757813 -0.182083,0.346748 -0.04772,0.581442 0.335937,0.677734 1.062049,0.266551 2.256584,-0.336909 3.712891,-1.8125 1.20304,-1.218959 2.10729,-2.491967 2.931641,-4.128906 0.463128,-0.919657 0.481987,-0.9059 0.660156,-0.810547 0.190169,0.101778 0.220818,0.155921 0.15039,0.558594 -0.358952,2.05232 -1.076776,4.100663 -1.894531,5.429687 -0.450857,0.732736 -0.756029,1.515449 -0.554687,1.716797 0.17567,0.175657 0.493596,0.02277 1.396484,-0.507813 1.141006,-0.670567 2.878594,-2.385283 3.617188,-3.570312 1.291957,-2.072863 2.116386,-4.890218 2.376953,-8.101562 l 0.107422,-1.300782 z"
       inkscape:label="tooth32" /><path
       id="tooth31"
       style="fill:#000000;stroke-width:0.139449"
       d="m 45.466797,73.335938 c -0.552998,0.09654 -1.209923,0.423881 -2.025391,0.982421 -0.706623,0.483994 -1.046873,0.484598 -2.154297,-0.06055 -1.265628,-0.623075 -2.442822,-0.66032 -3.226562,-0.0625 -0.748078,0.570594 -1.024278,1.41344 -0.960938,2.806641 0.04343,0.955286 0.107798,1.208147 0.457032,1.666016 0.514413,0.674423 1.270889,1.249308 1.865234,1.40039 0.610661,0.155238 1.852835,0.03941 2.494141,-0.228515 0.569489,-0.237948 1.007184,-0.251097 2.136718,-0.04297 1.696009,0.312504 3.081493,-0.42011 3.521485,-1.888672 0.213211,-0.711625 0.211182,-2.444353 -0.0039,-3.162109 -0.09449,-0.315374 -0.394253,-0.768735 -0.662109,-1.003906 -0.415515,-0.364828 -0.87617,-0.504922 -1.441406,-0.40625 z m -8.064453,5.835937 c -0.03615,0.02717 -0.04492,0.06524 -0.04492,0.09375 0,0.063 0.133058,1.02592 0.294922,2.125 0.236113,1.603243 0.279951,2.39552 0.222656,4.074219 -0.07886,2.310593 -0.177147,2.742113 -1.150391,5.023437 -0.750282,1.758701 -0.929919,2.795237 -0.5,3.326172 l 0.337891,0.416016 0.658203,-0.59375 c 0.903472,-0.816228 1.830744,-2.201034 3.394531,-5.052735 0.622439,-1.135066 1.423969,-2.308625 1.550782,-2.349609 0.03462,-0.0112 0.181588,0.03081 0.318359,0.130859 0.196744,0.143856 0.211572,0.170005 0.03906,1.335938 -0.159243,1.076277 -0.945858,3.979189 -1.38086,5.09375 -0.174202,0.446334 -0.227481,1.315488 -0.03711,1.505859 0.197107,0.197113 0.406098,0.135207 0.970703,-0.15625 0.60447,-0.312039 1.417313,-1.135095 1.847656,-1.863281 0.352402,-0.596298 1.164274,-2.969118 1.564453,-4.556641 0.549452,-2.1797 1.550782,-7.274351 1.550781,-7.917968 0,-0.37341 -0.126218,-0.373056 -0.466796,-0.152344 -0.638597,0.413777 -1.537804,0.533798 -2.734375,0.347656 -1.023857,-0.159275 -1.245182,-0.150389 -1.882813,0.07617 -0.392898,0.139579 -1.080273,0.244446 -1.638672,0.248047 -1.055395,0.0069 -1.698152,-0.227237 -2.376953,-0.861328 -0.206429,-0.192831 -0.426243,-0.376313 -0.537109,-0.292969 z"
       inkscape:label="tooth31" /><path
       id="tooth30"
       style="fill:#000000;stroke-width:0.139449"
       d="m 59.865234,73.328125 c -0.709937,-0.05344 -1.542033,0.232284 -2.40625,0.847656 l -0.36914,0.263672 -0.792969,-0.408203 c -1.375317,-0.709307 -2.705629,-0.587206 -3.949219,0.361328 -0.388377,0.296225 -0.466506,0.30651 -0.714844,0.19336 -0.589206,-0.268452 -1.071181,-0.191155 -1.560546,0.246093 -0.453787,0.405457 -0.463527,0.461503 -0.455078,1.851563 0.01276,2.10046 0.447627,3.536159 1.269531,3.966797 0.609235,0.319217 3.208668,0.148685 4.496093,-0.269532 0.944496,-0.306826 1.132344,-0.327693 1.642579,-0.199218 0.79197,0.199425 2.110805,0.183858 2.84375,-0.03516 0.535214,-0.159936 0.665154,-0.311475 1.111328,-1.201172 0.876894,-1.748558 1.075146,-3.317994 0.533203,-4.4375 -0.352685,-0.728552 -0.928442,-1.125488 -1.648438,-1.179687 z m 0.503907,7.042969 c -0.08257,-0.08247 -0.370018,-0.02321 -0.634766,0.05273 -0.60732,0.174181 -2.053074,0.16941 -2.773437,-0.01172 -0.529076,-0.132821 -0.758777,-0.09861 -1.564454,0.205079 -0.769499,0.290032 -1.173874,0.346493 -2.707031,0.378906 -1.431151,0.03027 -1.832217,-0.0096 -1.996094,-0.144532 -0.344739,-0.284147 -0.43084,-0.182294 -0.322265,0.253907 0.04108,0.165024 0.126429,1.273873 0.175781,2.419922 0.146809,3.409129 -0.305891,6.692599 -1.289063,9.367187 -0.650664,1.770056 -0.811451,2.515288 -0.613281,3.033203 0.08326,0.217597 0.230597,0.449219 0.373047,0.449219 0.11192,0 0.4943,-0.247017 0.865234,-0.525391 1.610758,-1.208813 2.303327,-2.183181 4.212891,-5.914062 1.232903,-2.408831 1.513732,-2.763672 1.972656,-2.763672 0.378699,0 0.637459,0.321072 0.878907,1.248047 0.384,1.474274 0.218843,2.727131 -0.603516,4.464844 -0.452094,0.955309 -0.577465,1.920869 -0.283203,2.470703 0.27165,0.507577 0.606143,0.371417 1.457031,-0.40625 2.320297,-2.120621 3.376338,-5.851817 2.839844,-9.951172 -0.186548,-1.425424 -0.197566,-1.924147 -0.0625,-3.085938 0.08062,-0.693423 0.129935,-1.288661 0.111328,-1.453125 -0.0021,-0.01827 -0.0085,-0.0593 -0.03711,-0.08789 z"
       inkscape:label="tooth30" /><path
       id="tooth28"
       style="fill:#000000;stroke-width:0.139449"
       d="m 78.158203,73.585938 c -0.431609,6.02e-4 -0.945263,0.315506 -2.0625,1.228515 -1.524082,1.245486 -1.708939,1.764905 -1.283203,3.636719 0.308918,1.358203 1.046705,2.458521 1.984375,2.925781 0.787222,0.39228 1.072589,0.423239 1.865234,0.203125 0.766496,-0.212855 1.424706,-0.843291 1.958985,-1.845703 0.476756,-0.894484 0.927686,-2.637262 0.77539,-3.107422 -0.04591,-0.141749 -0.149028,-0.431902 -0.228515,-0.644531 -0.200486,-0.536273 -2.517394,-2.397267 -3.009766,-2.396484 z m 2.605469,6.660156 -0.767578,0.75 c -0.583752,0.572299 -1.459126,0.957977 -2.150391,0.953125 -0.511975,-0.0037 -1.357607,-0.379126 -1.958984,-0.886719 -0.157109,-0.132608 -0.267734,-0.22194 -0.339844,-0.263672 -0.09049,-0.05237 -0.22651,-0.05896 -0.236328,0.08789 -0.0027,0.04001 0.0103,0.0983 0.02734,0.154297 0.04549,0.14946 0.184178,1.225262 0.3125,2.414062 0.291741,2.702743 0.312076,7.720264 0.04102,9.667969 -0.355857,2.556999 -0.165654,4.146218 0.605469,4 0.185725,-0.03522 0.39035,-0.184533 0.603516,-0.425781 1.2792,-1.447706 2.840222,-7.625407 3.591797,-14.113282 z"
       inkscape:label="tooth28" /><path
       id="tooth29"
       style="fill:#000000;stroke-width:0.139449"
       d="m 68.355469,73.669922 c -0.638304,0.0021 -3.084643,1.558069 -3.369141,2.140625 -0.665847,1.36343 -0.05091,4.233237 1.175781,5.587891 0.78346,0.865188 2.108853,1.120791 3.208985,0.621093 1.212004,-0.550511 2.051333,-2.004205 2.365234,-4.027343 0.203677,-1.31273 0.111045,-2.174973 -0.330078,-2.644532 -0.530938,-0.565155 -2.534242,-1.679614 -3.050781,-1.677734 z m -3.164063,6.941406 0.123047,1.125 c 0.161571,1.461941 0.505655,3.853664 0.777344,5.421875 0.521133,3.008046 0.569949,3.512377 0.666015,6.679688 0.05351,1.764207 0.14406,3.306521 0.228516,3.439453 0.276345,0.434937 0.726378,0.125456 1.25,-0.669922 0.667994,-1.014684 1.20206,-2.386322 1.669922,-4.283203 0.433368,-1.757035 0.626582,-3.454462 0.84375,-7.337891 0.08361,-1.49514 0.187862,-2.97319 0.228516,-3.269531 l 0.115234,-0.84375 -0.744141,0.714844 c -0.66638,0.639182 -1.34695,0.921875 -2.214843,0.921875 -0.845479,0 -1.530462,-0.332732 -2.210938,-1.085938 z"
       inkscape:label="tooth29" /><path
       id="tooth27"
       style="fill:#000000;stroke-width:0.139449"
       d="m 88.763672,73.027344 c -0.385319,0 -1.562519,0.879886 -2.388672,1.740234 -1.239773,1.291096 -1.396117,1.645447 -1.384766,3.169922 0.01063,1.428363 0.293871,2.57471 0.916016,3.677734 0.904076,1.602871 2.055166,2.133204 3.40625,1.519532 1.047119,-0.475606 1.749956,-1.639675 2.423828,-3.931641 0.520539,-1.770451 0.361709,-3.312553 -0.478516,-4.443359 -0.358248,-0.48214 -2.125147,-1.732422 -2.49414,-1.732422 z m 2.345703,8.74414 -0.628906,0.716797 c -0.711268,0.810089 -1.920369,1.262357 -2.8125,1.066407 -0.2217,-0.04872 -0.712483,-0.363057 -1.078125,-0.705079 -0.33541,-0.313732 -0.66293,-0.572894 -0.794922,-0.46289 -0.0367,0.03059 -0.04533,0.06974 -0.04492,0.101562 0.0016,0.122946 0.06286,0.764425 0.136719,1.455078 0.07381,0.69018 0.239483,2.259176 0.36914,3.486329 0.156647,1.482583 0.238835,3.478782 0.244141,5.986328 0.0073,3.445284 -0.03541,4.084375 -0.414062,6.433593 -0.03864,0.239741 -0.03498,0.436271 0.0957,0.523441 0.17735,0.11829 0.485858,-0.0504 0.939453,-0.378909 0.313494,-0.227093 0.711688,-0.607334 0.882812,-0.847657 1.410727,-1.981177 2.318746,-6.132434 2.746094,-12.488281 0.116023,-1.72559 0.237728,-3.463141 0.271484,-3.859375 z"
       inkscape:label="tooth27" /><path
       id="tooth26"
       style="fill:#000000;stroke-width:0.139449"
       d="m 98.169922,72.609375 c -1.830034,0 -1.894852,0.0029 -2.210938,0.404297 -0.273745,0.348016 -0.310953,0.617073 -0.308593,1.839844 0.0037,1.905133 0.332446,4.310059 0.708984,5.08789 0.629932,1.301261 1.820071,1.912809 2.480469,1.166016 1.07531,-1.215981 1.609376,-3.434843 1.609376,-6.589844 0,-0.962447 -0.0536,-1.56916 -0.19727,-1.71289 -0.15015,-0.150169 -0.832473,-0.195313 -2.082028,-0.195313 z m -1.679688,8.125 c -0.139743,0.01602 -0.138359,0.197393 -0.140625,0.414063 -0.0025,0.247618 0.08847,1.157262 0.203125,2.037109 0.368953,2.831395 0.773117,7.795554 0.861328,10.583984 0.04732,1.495898 0.144434,2.89168 0.220704,3.097657 l 0.193359,0.515624 0.365234,-0.484374 c 0.153812,-0.203918 0.371756,-0.749952 0.496094,-1.21875 0.601409,-2.267528 0.903997,-5.567477 1.007813,-10.976563 0.04704,-2.451854 0.06832,-3.440863 0.01563,-3.775391 -0.02646,-0.167972 -0.128299,-0.280505 -0.259766,-0.167968 -0.03966,0.03395 -0.08234,0.09481 -0.125,0.15625 -0.382276,0.550593 -0.70682,0.747378 -1.1875,0.751953 -0.417028,0.0037 -1.102674,-0.364234 -1.439453,-0.789063 -0.059,-0.07443 -0.12449,-0.154439 -0.210938,-0.144531 z"
       inkscape:label="tooth26" /><path
       id="tooth25"
       style="fill:#000000;stroke-width:0.139449"
       d="m 105.55078,72.46875 c -1.71285,0 -1.91774,0.02121 -2.22461,0.328125 -0.31496,0.314967 -0.32259,0.464295 -0.24414,1.994141 0.0899,1.752755 0.55623,4.458427 0.88477,5.09375 0.50459,0.975783 1.64814,1.171031 2.49023,0.43164 0.81895,-0.71903 1.37536,-3.216531 1.38086,-6.011718 0.002,-0.909058 -0.0501,-1.493466 -0.19531,-1.638672 -0.15022,-0.150221 -0.83435,-0.197266 -2.0918,-0.197266 z m 1.71875,7.589844 -0.76953,0.544922 c -0.73559,0.518499 -1.48492,0.551356 -2.08008,0.111328 l -0.60937,-0.451172 0.11718,1.253906 c 0.34443,3.668015 0.64079,7.822914 0.72461,10.160156 0.0537,1.49588 0.15546,2.886484 0.23047,3.087891 0.0626,0.168145 0.1097,0.305386 0.22266,0.324219 0.11296,0.01883 0.20466,-0.08749 0.33984,-0.222656 0.16728,-0.167282 0.41443,-0.646857 0.5625,-1.072266 0.52789,-1.51646 0.92765,-4.720356 1.0625,-8.462891 0.0442,-1.227069 0.10635,-2.869726 0.13672,-3.65039 z"
       inkscape:label="tooth25" /><path
       id="tooth24"
       style="fill:#000000;stroke-width:0.139449"
       d="m 112.43945,72.46875 c -1.25745,0 -1.94157,0.04708 -2.09179,0.197266 -0.25523,0.255225 -0.25251,2.553008 -0.0488,4.054687 0.20051,1.478331 0.65506,3.001699 1.04101,3.427735 0.64739,0.714619 1.3746,0.845175 2.13282,0.367187 0.18496,-0.116604 0.43055,-0.398117 0.54687,-0.623047 0.33658,-0.650881 0.80714,-3.355378 0.89258,-5.101562 0.0748,-1.527594 0.0641,-1.680052 -0.25,-1.994141 -0.306,-0.305994 -0.51099,-0.328125 -2.22266,-0.328125 z m -1.72851,7.583984 0.0742,2.392578 c 0.17501,5.591387 0.59441,9.638882 1.17578,11.292969 0.26335,0.749275 0.55358,1.245517 0.83008,1.292969 0.0905,0.01554 0.16858,-0.01428 0.23437,-0.08008 0.12243,-0.122429 0.22255,-1.38288 0.28516,-2.962891 0.091,-2.297606 0.35593,-5.954465 0.76757,-10.611328 l 0.0977,-1.109375 -0.60742,0.447266 c -0.59163,0.437409 -1.34394,0.405024 -2.08203,-0.115235 z"
       inkscape:label="tooth24" /><path
       id="tooth23"
       style="fill:#000000;stroke-width:0.139449"
       d="m 119.80859,72.609375 c -1.49954,0 -1.92994,0.03182 -2.10937,0.248047 -0.04,0.04822 -0.0686,0.143282 -0.0859,0.246094 -0.15422,0.912055 0.0106,4.380423 0.28906,5.410156 0.26197,0.968712 0.81142,2.130367 1.23828,2.595703 0.45057,0.491164 1.07612,0.433049 1.68946,-0.105469 0.27426,-0.240802 0.63508,-0.720221 0.80078,-1.0625 0.37654,-0.77783 0.7053,-3.182727 0.70898,-5.08789 0.002,-1.222727 -0.0348,-1.491758 -0.30859,-1.839844 -0.31681,-0.402755 -0.38152,-0.404297 -2.22266,-0.404297 z m -1.46875,7.949219 c -0.13001,-0.0038 -0.12476,0.17858 -0.13086,0.333984 -0.0551,1.40397 0.18599,8.465207 0.37305,10.371094 0.27629,2.815079 0.69791,4.866596 1.16797,5.583984 0.0827,0.126148 0.17197,0.230907 0.25195,0.267578 0.042,0.01927 0.0884,0.02682 0.13867,0.01172 0.27877,-0.08368 0.33894,-0.929147 0.40626,-2.841797 0.0491,-1.395717 0.13374,-3.039771 0.18554,-3.65039 0.30269,-3.568367 0.53624,-6.058319 0.71289,-7.595704 0.16497,-1.435785 0.2498,-2.014017 0.12696,-2.158203 -0.13532,-0.158827 -0.32622,0.06204 -0.53516,0.261719 -0.8071,0.771311 -1.72482,0.730696 -2.24219,-0.06836 -0.16765,-0.258939 -0.3509,-0.512854 -0.45508,-0.515625 z"
       inkscape:label="tooth23" /><path
       id="tooth22"
       style="fill:#000000;stroke-width:0.139449"
       d="m 129.25781,73.027344 c -0.39545,0 -2.05338,1.15875 -2.46289,1.6875 -0.61466,0.793652 -0.7962,1.393573 -0.80664,2.648437 -0.007,0.903727 0.076,1.403316 0.39453,2.347657 0.68907,2.042572 1.406,3.070555 2.51953,3.539062 0.58099,0.244442 1.54482,0.09442 2.08594,-0.318359 1.09756,-0.83715 1.90956,-2.714168 2.04883,-4.6875 0.0685,-0.970169 0.0345,-1.286416 -0.20508,-1.828125 -0.49169,-1.111549 -2.85393,-3.388672 -3.57422,-3.388672 z m -2.38672,8.626953 0.0898,1.115234 c 0.0338,0.413004 0.16088,2.227025 0.28125,4.029297 0.24354,3.64702 0.45677,5.308328 0.98828,7.685547 0.6723,3.006923 1.44763,4.645376 2.63281,5.503906 0.2938,0.212829 0.52662,0.351539 0.6875,0.400389 0.32162,0.0977 0.42898,-0.11529 0.35547,-0.472654 -0.65914,-3.204272 -0.52764,-11.012613 0.28906,-16.94336 l 0.13281,-0.966797 -0.93164,0.835938 c -0.75418,0.678074 -1.46468,0.899436 -2.26953,0.722656 -0.55692,-0.122315 -1.38547,-0.686152 -1.73828,-1.183594 z"
       inkscape:label="tooth22" /><path
       id="tooth21"
       style="fill:#000000;stroke-width:0.139449"
       d="m 140.10938,73.554688 c -0.3307,-0.119419 -0.87955,0.216419 -2.0879,1.166015 -1.41649,1.113181 -1.63364,1.636354 -1.30664,3.199219 0.34826,1.664512 1.18036,2.97934 2.25196,3.509766 0.74835,0.370429 1.31456,0.380269 2.07422,0.03516 1.13096,-0.513786 1.91323,-1.746054 2.22656,-3.451172 0.26449,-1.439345 0.12455,-1.86676 -0.91992,-2.767578 -1.09797,-0.946971 -1.93323,-1.581277 -2.23828,-1.691406 z m 2.5371,7.042968 c -0.11484,-0.0816 -0.21451,0.08667 -0.32812,0.242188 -0.32274,0.441711 -1.29349,0.963861 -1.97266,1.052734 -0.78226,0.102351 -1.66022,-0.218787 -2.31054,-0.853516 -0.2037,-0.198811 -0.33318,-0.323387 -0.41797,-0.380859 -0.11638,-0.07888 -0.23354,-0.0608 -0.26367,0.08398 -0.0101,0.04844 -0.01,0.118962 -0.01,0.199218 0.002,0.585609 0.2627,2.760194 0.56836,4.751953 0.61958,4.037283 1.96603,9.169777 2.7207,10.345703 0.39366,0.613404 0.89409,1.171876 1.13477,1.171876 0.12866,0 0.30002,-0.180611 0.41211,-0.359376 0.36673,-0.584871 0.39634,-1.349621 0.15625,-3.189453 -0.41467,-3.177428 -0.25855,-9.567312 0.31054,-12.638671 0.0387,-0.208646 0.084,-0.366134 0,-0.425782 z"
       inkscape:label="tooth21" /><path
       id="tooth20"
       style="fill:#000000;stroke-width:0.139449"
       d="m 149.62695,73.673828 c -0.51728,-0.0076 -2.53615,1.134404 -3.09179,1.726563 -0.3013,0.321091 -0.33618,0.536169 -0.32618,1.607421 0.0347,3.710415 2.40152,6.220226 4.8125,4.990235 1.63869,-0.835996 2.82941,-4.481811 1.9961,-6.115235 -0.35733,-0.700402 -2.64874,-2.198157 -3.39063,-2.208984 z m 3.17774,6.931641 -0.74414,0.826172 c -0.64318,0.713299 -1.39634,1.070322 -2.2461,1.074218 -0.81715,0.0039 -1.39785,-0.236943 -2.13281,-0.898437 l -0.80664,-0.726563 0.13477,0.837891 c 0.0471,0.292995 0.15449,1.772574 0.23437,3.267578 0.25461,4.765735 0.51349,6.582076 1.27539,8.873047 0.65116,1.957971 1.56289,3.630859 2.09375,3.630859 0.17525,0 0.34748,-0.253226 0.43555,-0.505859 0.0942,-0.270231 0.16015,-1.466461 0.16015,-2.794922 0,-2.316471 0.15761,-3.952077 0.67579,-6.960937 0.33678,-1.955574 0.67188,-4.232464 0.79687,-5.429688 z"
       inkscape:label="tooth20" /><path
       id="tooth19"
       style="fill:#000000;stroke-width:0.139449"
       d="m 158.11328,73.333984 c -0.72314,0.06434 -1.30089,0.480249 -1.66406,1.230469 -0.2614,0.539967 -0.3048,0.834826 -0.2461,1.613281 0.0785,1.03973 0.46756,2.265959 1.01563,3.201172 0.32051,0.546913 0.48426,0.666213 1.13477,0.822266 0.49915,0.119742 1.09243,0.139374 1.81445,0.06641 1.54994,-0.156629 1.9784,-0.125956 2.48047,0.144531 0.36742,0.197945 0.95067,0.290913 2.12109,0.351563 0.88201,0.0457 1.63782,0.09201 1.69922,0.105469 0.1023,0.02236 0.3529,-0.0751 0.57031,-0.1875 0.74366,-0.384564 1.09528,-1.205457 1.31055,-2.919922 0.185,-1.473229 0.0597,-2.496878 -0.40625,-2.962891 -0.41032,-0.410332 -0.9935,-0.482816 -1.58594,-0.21289 -0.24833,0.113148 -0.32646,0.102863 -0.71484,-0.19336 -1.24358,-0.948535 -2.57394,-1.070609 -3.94922,-0.361328 l -0.79297,0.408203 -0.36914,-0.263672 c -0.87146,-0.620526 -1.7052,-0.905216 -2.41797,-0.841797 z m -0.48437,7.03125 c -0.0315,0.03151 -0.0334,0.07013 -0.0352,0.08789 -0.0155,0.159863 0.0306,0.758316 0.10742,1.457031 0.12594,1.144546 0.11428,1.694204 -0.0625,3.052735 -0.54293,4.173342 0.48783,7.808243 2.86133,10.02539 0.82442,0.770121 1.20775,0.887246 1.44336,0.267578 0.25396,-0.668011 0.1504,-1.426001 -0.29688,-2.371093 -0.85847,-1.814028 -1.0098,-3.184869 -0.53906,-4.708985 0.27295,-0.883705 0.40655,-1.003906 0.9375,-1.003906 0.37884,0 0.49878,0.150937 1.8711,2.804687 1.40813,2.723049 2.37574,4.287917 3.04882,4.923829 0.66432,0.62764 1.61765,1.326749 1.93555,1.423828 0.0397,0.01211 0.0889,0.0231 0.13477,0.0078 0.13742,-0.04587 0.2583,-0.287171 0.31836,-0.511719 0.15285,-0.5716 0.0398,-1.062794 -0.59375,-2.814453 -1.09202,-3.019207 -1.57799,-7.104723 -1.27735,-10.763671 0.0791,-0.962814 0.11774,-1.360201 -0.0742,-1.402344 -0.0652,-0.01431 -0.12768,0.02678 -0.16601,0.05859 -0.0919,0.07623 -0.72664,0.125289 -1.94141,0.09961 -1.51394,-0.03203 -1.94209,-0.09294 -2.67578,-0.369141 -0.78238,-0.294491 -1.02425,-0.325301 -1.6582,-0.205078 -0.90653,0.17192 -2.11924,0.169595 -2.71094,0 -0.2644,-0.07585 -0.54743,-0.138004 -0.62695,-0.05859 z"
       inkscape:label="tooth19" /><path
       id="tooth18"
       style="fill:#000000;stroke-width:0.139449"
       d="m 172.0918,73.322266 c -0.67264,0.02707 -1.17847,0.424659 -1.55469,1.162109 -0.22188,0.434917 -0.2832,0.856055 -0.2832,1.755859 0,2.874484 1.22828,3.950268 4.02929,3.521485 0.96789,-0.148163 1.17069,-0.142079 1.72657,0.05078 1.19881,0.415953 1.74583,0.455639 2.68164,0.177734 0.70251,-0.208626 1.41916,-0.813798 1.97461,-1.646484 0.35764,-0.536161 0.32732,-2.464723 -0.0293,-3.25 -0.63374,-1.395438 -2.17273,-1.702811 -3.9336,-0.835938 -1.11901,0.550887 -1.44337,0.548497 -2.18945,0.03516 -0.96584,-0.664514 -1.76781,-0.99703 -2.42187,-0.970703 z m 8.58203,5.689453 -0.8711,0.638672 c -0.97362,0.714703 -1.74469,0.860187 -3.01953,0.5625 -1.07299,-0.250554 -1.50781,-0.274378 -3.43554,-0.191407 -0.91622,0.03944 -1.18569,-7.59e-4 -1.66016,-0.238281 -0.28216,-0.141048 -0.50461,-0.284973 -0.64062,-0.15625 -0.0396,0.03746 -0.059,0.09006 -0.0684,0.142578 -0.0423,0.236502 0.0631,0.770546 0.25195,1.88086 0.77783,4.572738 1.83802,8.592774 2.74609,10.384765 0.46756,0.922696 1.53079,2.061157 2.1211,2.232422 0.30256,0.08778 0.46889,0.138043 0.57812,0.126953 0.1539,-0.01563 0.19325,-0.135372 0.24024,-0.257812 0.16751,-0.43654 0.0927,-0.796833 -0.39649,-2.21875 -0.54925,-1.596419 -1.18555,-4.320916 -1.18555,-5.033203 0,-0.3474 0.0666,-0.478274 0.24219,-0.572266 0.34317,-0.183654 0.61349,0.112517 2.08399,2.759766 1.79714,3.23532 3.1559,5.034361 3.85156,4.90039 0.20079,-0.0386 0.34898,-0.337646 0.42773,-0.710937 0.14203,-0.673275 0.0188,-1.100894 -0.96484,-3.47461 -0.80247,-1.936529 -0.93847,-2.832902 -0.85156,-5.570312 0.0414,-1.302552 0.13737,-2.623459 0.20507,-2.908203 0.0738,-0.310681 0.17583,-0.905991 0.22657,-1.320313 z"
       inkscape:label="tooth18" /><path
       id="tooth17"
       style="fill:#000000;stroke-width:0.139449"
       d="m 185.75977,74.130859 c -0.59059,0.230359 -1.00327,0.996567 -1.00391,1.794922 0,0.367475 0.18227,1.22325 0.40234,1.91211 l 0.41992,1.3125 1.79883,0.07813 c 1.38879,0.06102 1.84538,0.138861 2.38867,0.386718 0.35584,0.162333 0.84536,0.326133 1.16993,0.408204 -0.50144,-0.103371 -0.91458,-0.03659 -1.58203,-0.283204 -0.59262,-0.218979 -1.1418,-0.291488 -2.18164,-0.294922 l -1.48829,-0.0039 0.10743,1.316406 c 0.46639,5.748043 2.56312,9.720034 6.26757,11.820313 0.34674,0.196586 0.59776,0.3208 0.76758,0.363281 0.33369,0.08347 0.42553,-0.12163 0.37891,-0.458984 -0.0285,-0.206081 -0.21891,-0.650655 -0.41992,-1 -1.00965,-1.754809 -1.51526,-3.076694 -1.90235,-4.97461 -0.23878,-1.170696 -0.19865,-1.289062 0.0859,-1.289062 0.0857,0 0.31229,0.270294 0.61523,0.886719 0.98645,2.007274 2.80789,4.30068 4.16211,5.232422 0.72006,0.495409 1.67869,0.767951 2.32618,0.646484 0.46367,-0.08698 0.65914,-0.300036 0.44531,-0.693359 -0.12005,-0.220807 -0.38079,-0.51623 -0.77344,-0.894532 -2.01801,-1.94431 -2.86915,-4.633314 -2.68945,-8.583984 l 0.0977,-2.167969 -0.65429,0.386719 c -0.3347,0.197471 -0.78204,0.297126 -1.59766,0.345703 -0.59456,0.0354 -1.23002,-0.219548 -1.78711,-0.320312 0.86754,0.167267 2.70838,0.0717 3.22852,-0.197266 0.60016,-0.310359 1.15973,-0.998742 1.34179,-1.654297 0.20591,-0.74144 0.18554,-1.952693 -0.0488,-2.513672 -0.32171,-0.769941 -0.61623,-0.982972 -1.30469,-0.890625 -0.37617,0.05043 -0.72398,-0.01093 -1.23438,-0.230469 -0.61526,-0.264674 -0.94249,-0.310823 -1.79882,-0.255859 -0.56549,0.03625 -1.1277,0.135506 -1.24805,0.255859 -0.19073,0.190732 -0.59965,0.16908 -1.41016,-0.15039 -0.89624,-0.353269 -2.3209,-0.506706 -2.8789,-0.289063 z"
       inkscape:label="tooth17" /><path
       id="tooth16"
       style="fill:#000000;stroke-width:0.139449"
       d="m 192.21875,50.158203 c -0.14577,0 -0.60841,0.408105 -1.06055,0.873047 -1.31854,1.355868 -2.03593,3.149068 -2.15234,5.355469 l -0.0703,1.324219 0.19531,0.0332 0.34961,-1.253907 c 0.19047,-0.684644 0.63915,-1.829255 0.99609,-2.542968 0.39687,-0.793559 0.90407,-1.555412 1.3086,-1.970704 0.5458,-0.56037 0.69922,-0.821962 0.69922,-1.240234 0,-0.2913 -0.0704,-0.578125 -0.26563,-0.578125 z m 1.12891,1.003906 c -0.2067,-0.03916 -0.66723,0.298569 -1.1836,0.791016 -1.40541,1.340272 -2.4883,3.877596 -2.74804,6.416016 -0.0507,0.495162 -0.12052,0.771006 -0.1836,0.845703 -0.0198,-0.0022 -0.0461,-0.011 -0.082,-0.05664 -0.42982,-0.546444 -0.50203,-3.5129 -0.0176,-5.035156 0.2915,-0.915996 0.45085,-1.7657 0.39258,-2.095703 -0.0161,-0.09149 -0.0651,-0.197266 -0.17773,-0.197266 -0.0613,0 -0.12184,0.03232 -0.17969,0.07031 -0.4905,0.322103 -1.82245,1.943181 -2.22656,2.746093 -0.82578,1.640683 -1.36743,3.984269 -1.55274,6.691407 -0.0471,0.68938 -0.12002,1.465655 -0.16015,1.720703 l -0.11914,0.753906 0.89453,-0.804688 c 0.37124,-0.333782 1.02373,-0.781776 1.45117,-0.998046 1.47771,-0.747652 3.11443,-0.621617 4.7832,0.384765 0.48885,0.294809 0.7773,0.458125 0.87695,0.292969 0.0299,-0.04953 0.021,-0.1143 0.008,-0.158203 -0.0305,-0.10164 -0.14272,-0.911098 -0.23243,-1.753906 -0.27369,-2.571044 -0.0152,-5.784474 0.63868,-7.955079 0.27347,-0.907863 0.25754,-1.574919 -0.18164,-1.658203 z m -3.89063,10.638672 c -0.89484,0 -1.20653,0.06812 -1.91797,0.427735 -1.69166,0.855186 -2.72678,2.25702 -2.88476,3.929687 -0.0858,0.908774 0.10049,1.619485 0.58008,2.158203 0.60791,0.682828 1.29356,0.860201 2.17578,0.5625 0.27106,-0.0915 0.77783,-0.361603 1.12695,-0.597656 0.8262,-0.558614 1.38911,-0.549172 2.02344,0.0078 0.62402,0.54788 0.95022,0.584392 1.71289,0.195313 1.04202,-0.531597 1.60547,-1.624019 1.60547,-3.054687 0,-1.490249 -0.66978,-2.352621 -2.42579,-3.1875 -0.77054,-0.366349 -1.10789,-0.441407 -1.99609,-0.441407 z"
       inkscape:label="tooth16" /><path
       id="tooth15"
       style="fill:#000000;stroke-width:0.139449"
       d="m 177.72656,47.398438 c -0.25072,-0.252161 -0.39436,-0.162352 -0.83203,0.3125 -0.42531,0.461432 -0.50586,0.664331 -0.50586,1.269531 0,0.35993 -0.15484,1.147607 -0.3457,1.748047 -0.19311,0.607518 -0.44352,1.56133 -0.55859,2.117187 -0.21079,1.017998 -0.29539,4.021546 -0.11329,4.496094 0.0187,0.04883 0.0535,0.09942 0.11329,0.119141 0.056,0.01847 0.10542,0.0019 0.14453,-0.02148 0.25247,-0.151153 0.65695,-1.088832 0.94726,-2.162109 0.3209,-1.18634 0.57031,-3.412317 0.57031,-5.09961 0,-1.01282 0.0423,-1.161632 0.27344,-1.376953 0.16141,-0.150375 0.36607,-0.257812 0.43555,-0.257812 0.40067,0 0.21562,-0.797994 -0.12891,-1.144531 z m -1.89062,1.128906 c -0.40699,-0.01013 -1.11315,0.695697 -2.01758,2.041015 -1.40221,2.085786 -1.8086,3.445218 -2.03516,6.794922 -0.0855,1.264292 -0.2464,2.949466 -0.35547,3.746094 -0.10946,0.79949 -0.1992,1.521426 -0.19921,1.587891 0,0.06957 0.0507,0.117628 0.11718,0.11914 0.10052,0.0023 0.2634,-0.119549 0.4336,-0.277344 0.20428,-0.189425 0.5716,-0.441503 0.81836,-0.558593 0.44002,-0.2088 1.65732,-0.38552 3.90039,-0.554688 1.05611,-0.0797 1.24474,-0.05705 2,0.248047 l 0.99023,0.402344 0.0137,-1.345703 c 0.007,-0.653239 0.14498,-2.320046 0.30664,-3.699219 0.40969,-3.495476 0.25034,-5.31164 -0.65234,-7.175781 -0.41263,-0.852131 -0.91889,-1.230805 -1.44141,-0.951172 -0.32236,0.172531 -0.34961,0.360901 -0.34961,1.412109 0,1.634327 -0.2484,3.865835 -0.55078,4.957032 -0.33327,1.202649 -1.15379,2.832032 -1.44726,3.044921 -0.13873,-0.201013 -0.3125,-1.57865 -0.3125,-2.90625 0,-1.663889 0.247,-3.197625 0.76172,-4.710937 0.46363,-1.363138 0.49832,-2.161912 0.0195,-2.173828 z m -1.34571,13.298828 c -1.23786,0.131593 -1.63329,0.232892 -2.15429,0.5625 -1.12729,0.713163 -1.68288,1.902815 -1.7168,3.623047 -0.0289,1.46805 0.55128,2.346938 1.86914,2.816406 0.69762,0.248509 0.85207,0.25469 1.53906,0.04883 0.31028,-0.09295 0.80874,-0.381343 1.10938,-0.638672 0.71289,-0.610216 1.05044,-0.664328 1.73242,-0.316406 1.61021,0.821472 3.67151,-0.689821 3.66016,-2.65625 -0.008,-1.46259 -0.725,-2.705152 -1.92969,-3.328125 -0.55773,-0.288401 -2.14102,-0.32057 -4.10938,-0.111328 z"
       inkscape:label="tooth15" /><path
       id="tooth14"
       style="fill:#000000;stroke-width:0.139449"
       d="m 163.24805,46.810547 c -0.42158,0 -1.33968,1.096461 -2.11328,2.416015 -0.76477,1.304474 -1.06055,2.595218 -1.06055,4.572266 0,1.649111 0.47961,3.622297 1.01562,3.291016 0.11993,-0.07413 0.58944,-0.974487 1.07813,-1.998047 1.64025,-3.435526 1.95941,-4.597083 1.79687,-6.583985 -0.10332,-1.262906 -0.24637,-1.697265 -0.71679,-1.697265 z m 2.48437,1.255859 c -0.39468,0 -0.87018,0.820279 -1.30273,2.041016 -0.78674,2.22027 -2.13009,5.369658 -2.75977,6.474609 -0.3297,0.578556 -0.60619,1.112198 -0.61328,1.22461 -0.10979,-0.07175 -0.30614,-0.316405 -0.49414,-0.69336 -0.5662,-1.135375 -0.71482,-1.924583 -0.6875,-3.707031 0.0198,-1.290737 0.0975,-1.880481 0.34766,-2.691406 0.45483,-1.474071 0.45287,-2.371094 -0.17578,-2.371094 -0.42075,0 -1.89555,1.281144 -2.41797,2.042969 -0.52631,0.767469 -0.99289,2.137459 -1.16407,3.408203 -0.0647,0.480384 -0.085,2.531556 -0.0488,4.582031 l 0.0703,3.916016 0.73828,-0.527344 c 0.33777,-0.242569 0.83608,-0.446902 1.24609,-0.511719 l 0.01,-0.002 c 0.44674,-0.06926 0.90753,-0.04851 1.33594,0.06055 0.38851,0.09888 1.39147,0.167654 2.23828,0.160156 1.29307,-0.01147 1.61301,0.03348 2.17383,0.285156 0.37411,0.167917 0.70459,0.3125 0.7539,0.3125 0.0966,0 0.10297,-0.0954 0.10547,-0.115234 0.0234,-0.184936 0.0645,-1.090161 0.0996,-2.177734 0.0634,-1.966566 0.13216,-2.436777 0.67188,-4.685547 0.51588,-2.149465 0.60489,-2.749747 0.61132,-4.068359 0.006,-1.171605 -0.052,-1.707302 -0.2539,-2.230469 -0.14162,-0.367034 -0.32995,-0.726563 -0.48438,-0.726563 z m -7.55664,13.501953 c -0.60498,0.184014 -1.17565,0.542798 -1.5625,1.03125 -0.51939,0.655793 -1.00046,2.488895 -1.00195,3.765625 -0.001,1.19991 0.32745,1.779987 1.30859,2.283204 0.87526,0.448913 1.30156,0.485379 2.16797,0.179687 0.33324,-0.117575 0.86829,-0.405886 1.1875,-0.640625 0.31182,-0.229331 0.62249,-0.400391 0.67188,-0.400391 0.0408,0 0.3269,0.192464 0.60742,0.457032 0.9889,0.932656 2.17237,0.986162 3.72851,0.203125 1.18638,-0.596965 1.31842,-2.290957 0.46094,-4.697266 -0.58803,-1.65021 -1.45838,-2.087089 -3.93164,-2.046875 -0.82128,0.01338 -1.64838,-0.04491 -1.84375,-0.121094 -0.53957,-0.210493 -1.18805,-0.197663 -1.79297,-0.01367 z"
       inkscape:label="tooth14" /><path
       id="tooth13"
       style="fill:#000000;stroke-width:0.139449"
       d="m 150.66016,45.082031 c -0.1436,0.07698 -0.28752,0.242849 -0.42188,0.466797 -1.03858,1.731128 -2.38879,7.856325 -2.91992,13.832031 -0.0476,0.535689 -0.12216,1.160559 -0.16602,1.382813 l -0.14062,0.710937 0.80664,-0.728515 c 0.31735,-0.286699 0.729,-0.574725 0.90234,-0.640625 0.17631,-0.06706 0.6249,-0.126953 0.99219,-0.126953 0.5434,0 0.73872,0.07272 1.27539,0.482422 l 0.86914,0.664062 -0.14258,-0.708984 c -0.27376,-1.368835 -0.52397,-6.917089 -0.48242,-10.810547 0.0337,-3.154005 0.0152,-4.284713 -0.15234,-4.453125 -0.13366,-0.134715 -0.27633,-0.14729 -0.41992,-0.07031 z m -1.29688,15.128907 c -0.77382,0.08848 -1.52884,0.615551 -2.11328,1.537109 -0.56031,0.883516 -1.40039,3.506317 -1.40039,4.382812 0,0.948901 0.42091,1.52684 1.57227,2.21875 1.06549,0.640327 1.46162,0.675119 2.83007,0.259766 2.07234,-0.628991 2.59881,-1.380179 2.44922,-3.5 -0.0958,-1.357084 -0.634,-3.121846 -1.18164,-3.839844 -0.60574,-0.794174 -1.37819,-1.147563 -2.15625,-1.058593 z"
       inkscape:label="tooth13" /><path
       id="tooth12"
       style="fill:#000000;stroke-width:0.139449"
       d="m 142.2793,45.833984 c -0.6032,0 -1.32774,0.61978 -1.73047,1.425782 -0.61774,1.236282 -1.44494,5.066967 -1.79688,8.285156 -0.08,0.7317 -0.18762,2.349033 -0.24023,3.595703 l -0.10742,2.511719 0.7832,-0.744141 c 0.32741,-0.311453 0.79532,-0.646697 1.0332,-0.746094 0.5155,-0.215384 1.49795,-0.241131 1.98828,-0.05469 0.17434,0.0663 0.62002,0.387841 0.97461,0.71289 l 0.91016,0.833985 -0.21289,-0.757813 c -0.0562,-0.203018 -0.11947,-3.434598 -0.13086,-7.154296 -0.0146,-4.758374 -0.0637,-6.867131 -0.19141,-7.103516 -0.22701,-0.420166 -0.83279,-0.804688 -1.27929,-0.804688 z m -1.33985,14.386719 c -0.50587,0.08672 -1.01493,0.355129 -1.5039,0.8125 -0.83853,0.784355 -1.44495,1.919239 -1.82227,3.394531 -0.51063,1.996565 0.10565,3.216263 2.07813,4.134766 0.99115,0.461536 1.67372,0.435402 2.67382,-0.09766 0.44692,-0.238205 1.0846,-0.707267 1.41407,-1.042969 0.5151,-0.524845 0.6317,-0.766931 0.76562,-1.548828 0.13042,-0.761353 0.11574,-1.102577 -0.0937,-1.992188 -0.59726,-2.536149 -1.99086,-3.920865 -3.51172,-3.660156 z"
       inkscape:label="tooth12" /><path
       id="tooth11"
       style="fill:#000000;stroke-width:0.139449"
       d="m 133.88477,40.535156 c -0.15321,0 -0.48128,0.215702 -0.75391,0.455078 -1.73537,1.523675 -2.87924,5.442328 -3.73438,12.671875 -0.1633,1.380558 -0.35525,3.009587 -0.42773,3.621094 -0.0727,0.612806 -0.13281,1.320885 -0.13281,1.580078 v 0.69336 l 0.76367,-0.742188 c 0.3211,-0.313275 0.82563,-0.679227 1.12109,-0.814453 0.30245,-0.138422 0.66246,-0.248619 0.78125,-0.25 0.57218,-0.0066 1.3568,0.351792 2.00391,0.933594 0.39083,0.351392 0.66464,0.585881 0.77539,0.416015 0.0342,-0.0525 0.0209,-0.114815 0.008,-0.160156 -0.14101,-0.488085 -0.41396,-11.008222 -0.33594,-13.164062 0.0425,-1.174554 0.1537,-2.580232 0.2461,-3.121094 0.19063,-1.115861 0.11801,-2.119141 -0.31445,-2.119141 z m -2.41602,17.50586 c -0.62794,0.06332 -1.25661,0.454352 -1.89453,1.152343 -0.82119,0.898508 -1.43436,2.340614 -1.86328,4.345703 -0.33279,1.555701 -0.20702,2.462766 0.50976,3.574219 0.78929,1.223882 1.46654,1.649047 2.66992,1.650391 0.65864,7.11e-4 0.96393,-0.09812 1.72852,-0.544922 1.74678,-1.020757 2.51823,-1.662673 2.63281,-2.273438 0.22179,-1.182198 -0.36641,-4.58774 -1.00586,-5.849609 -0.19632,-0.387431 -0.61851,-0.959962 -0.9375,-1.269531 -0.59786,-0.580209 -1.20669,-0.849003 -1.83984,-0.785156 z"
       inkscape:label="tooth11" /><path
       id="tooth10"
       style="fill:#000000;stroke-width:0.139449"
       d="m 125,44.839844 c -0.36882,0.11393 -1.06097,0.66317 -1.45703,1.183594 -1.03439,1.359168 -1.6538,3.229376 -2.29102,6.865234 -0.35249,2.011204 -0.92514,6.651082 -0.91797,7.478516 l 0.006,0.761718 0.39844,-0.638672 c 0.11077,-0.178123 0.42747,-0.488083 0.70313,-0.683593 0.99749,-0.707456 1.70076,-0.644559 2.71093,0.263671 0.39267,0.353039 0.66688,0.586718 0.78125,0.425782 0.0371,-0.05225 0.025,-0.116741 0.0117,-0.16211 -0.0393,-0.134105 -0.15033,-1.663128 -0.24219,-3.388672 -0.2084,-3.915058 -0.0949,-7.270455 0.29688,-8.896484 0.34347,-1.425325 0.51348,-2.945506 0.2832,-3.175781 -0.0729,-0.07295 -0.18584,-0.06328 -0.2832,-0.0332 z m -2.30664,14.707031 c -0.43154,-0.01192 -0.84633,0.202822 -1.32813,0.615234 -1.16496,0.997164 -1.84473,2.825023 -2.13867,5.666016 -0.15531,1.501229 -0.0336,2.179972 0.53711,2.628906 0.34905,0.274565 0.62185,0.306642 2.00586,0.306641 1.07837,0 1.81235,-0.0713 2.27735,-0.226563 0.37529,-0.125329 0.87484,-0.401931 1.10546,-0.615234 l 0.43164,-0.400391 -0.0801,-2.068359 c -0.12615,-3.218992 -0.41725,-4.3041 -1.45899,-5.21875 -0.49892,-0.438052 -0.92169,-0.675622 -1.35156,-0.6875 z"
       inkscape:label="tooth10" /><path
       id="tooth09"
       style="fill:#000000;stroke-width:0.139449"
       d="m 115.61914,43.90625 c -1.03865,0.555876 -2.25175,2.901561 -2.87305,5.490234 -0.43709,1.821167 -1.01036,5.793816 -1.27929,8.847657 l -0.11914,1.363281 0.89257,-0.894531 c 0.38084,-0.380837 0.92045,-0.78408 1.18946,-0.896485 1.023,-0.427427 2.11597,-0.14426 3.06054,0.8125 0.25981,0.263167 0.50971,0.492998 0.62891,0.435547 0.0514,-0.02477 0.063,-0.07081 0.0625,-0.105469 -9.7e-4,-0.0703 -0.10675,-1.140038 -0.23437,-2.367187 -0.15976,-1.536302 -0.23922,-3.709465 -0.25782,-7.03125 -0.0148,-2.64605 -0.0369,-4.900113 -0.0469,-4.996094 -0.0141,-0.134148 -0.16747,-0.356931 -0.32813,-0.517578 -0.25908,-0.259082 -0.40544,-0.295745 -0.69531,-0.140625 z m -1.05078,13.9375 c -0.34692,-0.03526 -0.69088,0.02996 -1.05078,0.1875 -0.88608,0.387859 -1.81163,1.470197 -2.24219,2.605469 -0.51061,1.34636 -1.37089,6.361944 -1.17969,6.986328 0.22114,0.722146 0.31342,0.722886 3.41407,0.722656 2.52651,-1.4e-4 3.03583,-0.03274 3.47851,-0.253906 0.33564,-0.167681 0.64118,-0.49776 0.85742,-0.914063 0.31991,-0.615892 0.33347,-0.770757 0.25586,-2.630859 -0.15203,-3.644322 -0.74437,-5.179391 -2.49023,-6.304687 -0.35462,-0.228574 -0.69662,-0.363237 -1.04297,-0.398438 z"
       inkscape:label="tooth09" /><path
       id="tooth08"
       style="fill:#000000;stroke-width:0.139449"
       d="m 102.37695,43.902344 c -0.30093,-0.139901 -0.45377,-0.100948 -0.70507,0.15039 -0.15768,0.157664 -0.31096,0.37659 -0.32422,0.511719 -0.009,0.0959 -0.0303,2.412015 -0.0469,5.134766 -0.0213,3.494268 -0.0988,5.538655 -0.25976,6.960937 -0.17418,1.539144 -0.25544,2.138752 -0.17383,2.289063 0.0223,0.04101 0.0666,0.07542 0.125,0.07227 0.1059,-0.0057 0.21188,-0.155778 0.34375,-0.3125 0.46262,-0.549792 1.61129,-1.101166 2.2832,-1.099609 0.66509,0.0019 1.7968,0.619261 2.32813,1.285156 0.19582,0.245417 0.41739,0.464048 0.55468,0.382813 0.0312,-0.01846 0.0493,-0.04445 0.0586,-0.07227 0.0362,-0.108813 -0.0508,-1.143196 -0.17774,-2.308594 -0.6252,-5.73666 -1.38726,-9.268353 -2.38476,-11.023437 -0.47607,-0.837617 -1.25379,-1.799956 -1.6211,-1.970703 z m 1.31836,13.923828 c -1.06385,0 -2.32809,0.942903 -2.96093,2.179687 -0.50105,0.979179 -0.774058,2.466458 -0.855474,4.609375 -0.0675,1.777353 -0.05011,1.954052 0.265624,2.5625 0.56906,1.096614 0.89152,1.167719 4.34961,1.167969 h 3.01563 l 0.25976,-0.396484 c 0.23751,-0.362489 0.22911,-0.540919 0.006,-2.195313 -0.33868,-2.508197 -0.87715,-4.886228 -1.29101,-5.644531 -0.68043,-1.246718 -1.91914,-2.283203 -2.78907,-2.283203 z"
       inkscape:label="tooth08" /><path
       id="tooth07"
       style="fill:#000000;stroke-width:0.139449"
       d="m 92.796875,44.71875 c -0.07301,0 -0.116848,0.04761 -0.142578,0.09375 -0.162339,0.291108 -0.0478,1.61822 0.212891,2.623047 0.486723,1.876093 0.629057,4.694415 0.435546,8.847656 -0.09383,2.01389 -0.211406,3.796541 -0.261718,3.988281 -0.02991,0.113992 -0.06238,0.258292 0.05078,0.306641 0.07041,0.03008 0.150065,-0.01208 0.214844,-0.05664 0.106601,-0.07334 0.275206,-0.221171 0.53125,-0.451172 0.478836,-0.430125 0.874277,-0.661237 1.203125,-0.716796 0.645263,-0.109012 1.067709,0.05641 1.822265,0.751953 0.302313,0.278663 0.543452,0.559958 0.705078,0.384765 0.162826,-0.176492 0.04251,-0.977409 -0.193359,-3.0625 -0.660304,-5.83698 -1.533118,-9.393933 -2.75,-11.158203 -0.349821,-0.507177 -1.537769,-1.550781 -1.828125,-1.550781 z m 2.263672,14.859375 c -0.306011,0.061 -0.613476,0.234389 -0.957031,0.517578 -1.161678,0.957553 -1.47947,2.057625 -1.613282,5.357422 l -0.08398,2.066406 0.431641,0.404297 c 0.676125,0.625248 1.525996,0.826517 3.34375,0.833984 1.429854,0.006 1.694745,-0.02537 2.044921,-0.300781 0.572668,-0.450449 0.694548,-1.133575 0.53711,-2.636719 -0.342238,-3.267552 -1.283687,-5.388573 -2.765625,-6.091796 -0.326941,-0.155147 -0.62691,-0.212307 -0.9375,-0.150391 z"
       inkscape:label="tooth07" /><path
       id="tooth06"
       style="fill:#000000;stroke-width:0.139449"
       d="m 84.134766,40.535156 c -0.40954,0 -0.53577,0.631809 -0.435547,1.478516 0.04262,0.360057 0.150714,1.281879 0.240234,2.048828 0.165387,1.416872 0.09469,8.405715 -0.134765,12.882812 -0.05485,1.070256 -0.0921,1.975508 -0.08789,2.169922 4.56e-4,0.02104 -0.0036,0.05657 0.02539,0.09375 0.0535,0.06852 0.123331,0.03027 0.136718,0.02344 0.08215,-0.04192 0.3628,-0.292236 0.683594,-0.59961 0.687834,-0.659063 1.491869,-0.960222 2.152344,-0.828124 0.536597,0.107313 1.635298,0.829013 1.929687,1.265624 0.09829,0.145776 0.16347,0.241634 0.216797,0.28711 0.01899,0.0162 0.04872,0.03603 0.08789,0.03906 0.139324,0.01077 0.15476,-0.154593 0.175781,-0.296875 0.02743,-0.185646 -0.117574,-1.792802 -0.316406,-3.580078 -0.955101,-8.583591 -1.933795,-12.353205 -3.734375,-14.27539 -0.351152,-0.374869 -0.761271,-0.708985 -0.939453,-0.708985 z m 1.636718,17.566406 c -0.655254,0.21625 -1.609136,1.166481 -2.03125,2.00586 -0.712231,1.416266 -1.269281,4.941667 -0.927734,5.976562 0.192313,0.582713 0.908819,1.164467 2.5625,2.134766 1.036339,0.608079 1.984858,0.722235 2.914062,0.333984 0.900908,-0.37642 1.786968,-1.632113 2.123047,-2.966796 0.132817,-0.527469 0.116817,-0.885454 -0.07227,-1.8125 C 89.8418,61.331587 89.174972,59.856464 88.099609,58.865234 87.299566,58.127772 86.51257,57.856981 85.771484,58.101562 Z"
       inkscape:label="tooth06" /><path
       id="tooth05"
       style="fill:#000000;stroke-width:0.139449"
       d="m 75.710938,45.833984 c -0.447003,0 -1.052217,0.384788 -1.277344,0.804688 -0.126265,0.235506 -0.175292,2.381794 -0.191406,7.103516 -0.01269,3.719695 -0.0781,6.952133 -0.132813,7.15625 l -0.205078,0.773437 0.78125,-0.771484 c 0.282478,-0.278143 0.713553,-0.598283 0.955078,-0.712891 0.563518,-0.267413 1.581368,-0.267283 2.144531,0 0.243299,0.115447 0.698617,0.427023 1.009766,0.693359 l 0.736328,0.63086 V 60.34375 c -0.0025,-1.97095 -0.440984,-6.673083 -0.765625,-8.208984 -0.441521,-2.088863 -1.122005,-4.60313 -1.378906,-5.060547 -0.365872,-0.651554 -1.13937,-1.240235 -1.675781,-1.240235 z m 0.978515,14.363282 c -1.309062,0 -2.370596,1.074268 -2.972656,2.927734 -0.346349,1.066244 -0.431437,2.056434 -0.246094,2.949219 0.145617,0.701446 0.281681,0.917567 0.912109,1.484375 1.441637,1.296159 2.566291,1.620369 3.826172,1.048828 0.828862,-0.376012 1.805428,-1.18294 2.097657,-1.748047 0.68611,-1.326787 -0.246375,-4.432452 -1.701172,-5.773437 -0.737066,-0.679398 -1.18049,-0.888672 -1.916016,-0.888672 z"
       inkscape:label="tooth05" /><path
       id="tooth04"
       style="fill:#000000;stroke-width:0.139449"
       d="m 67.052734,45.021484 c -0.09305,0.03372 -0.149073,0.126498 -0.185546,0.244141 -0.138972,0.448242 -0.140521,1.66889 -0.113282,4.408203 0.03911,3.932924 -0.182311,8.843226 -0.478515,10.677734 l -0.134766,0.837891 0.613281,-0.556641 c 0.573891,-0.522451 0.898023,-0.654296 1.587891,-0.654296 0.776967,0 1.368907,0.250909 1.875,0.789062 0.203258,0.216137 0.376694,0.394924 0.4375,0.441406 0.0068,0.0052 0.02404,0.02539 0.07031,0.02539 0.104254,0 0.09972,-0.08208 0.101563,-0.09375 0.01096,-0.06956 -0.004,-0.351268 -0.0332,-0.679687 -0.631758,-7.096682 -2.156706,-14.205412 -3.306641,-15.246094 -0.145385,-0.131572 -0.29306,-0.244293 -0.433594,-0.19336 z m 1.34961,15.175782 c -0.84502,-9.89e-4 -1.646905,0.525876 -2.205078,1.552734 -0.847073,1.558049 -1.197596,4.07864 -0.714844,5.285156 0.287147,0.717645 0.920418,1.152353 2.21875,1.574219 1.319375,0.428708 2.016994,0.336214 3.113281,-0.412109 1.119928,-0.764458 1.39123,-1.23895 1.283203,-2.322266 -0.108043,-1.083487 -0.840409,-3.314132 -1.355468,-4.125 -0.649974,-1.023263 -1.498672,-1.55175 -2.339844,-1.552734 z"
       inkscape:label="tooth04" /><path
       id="tooth03"
       style="fill:#000000;stroke-width:0.139449"
       d="m 54.71875,46.810547 c -0.519928,0 -0.671969,0.751553 -0.669922,2.470703 0.0019,1.603788 0.0098,1.643674 0.707031,3.382812 0.915005,2.28224 1.910422,4.286963 2.248047,4.501954 0.06339,0.04036 0.158061,0.05178 0.212891,-0.0332 0.07826,-0.121291 0.264453,-0.636846 0.417969,-1.144531 0.534102,-1.766287 0.300216,-4.622739 -0.511719,-6.230469 -0.779103,-1.542717 -1.880164,-2.947265 -2.404297,-2.947265 z m -2.289062,1.285156 c -0.390676,-0.123892 -0.646665,0.412693 -0.847657,1.380859 -0.250651,1.207392 -0.08022,2.832231 0.583985,5.683594 0.498712,2.140941 0.574387,2.69224 0.636718,4.625 0.05059,1.568837 0.07107,2.07292 0.238282,2.189453 0.06872,0.04789 0.142703,0.03112 0.197265,0.0078 1.014379,-0.433271 1.444592,-0.512623 2.976563,-0.544922 0.922375,-0.01944 1.950949,-0.09523 2.296875,-0.173828 0.827514,-0.187917 2.157488,0.195082 2.605469,0.736328 0.02064,0.02493 0.06223,0.06164 0.111328,0.06445 0.06043,0.0035 0.101135,-0.03462 0.123046,-0.06836 0.113202,-0.17431 0.150355,-1.057927 0.208985,-3.523438 0.04819,-2.026428 0.03754,-4.091771 -0.0293,-4.609375 -0.171021,-1.3244 -0.63067,-2.69022 -1.169922,-3.476562 -0.524916,-0.765448 -1.998582,-2.042969 -2.421875,-2.042969 -0.532392,0 -0.542344,0.818121 -0.199219,2.097656 0.419161,1.563077 0.453804,4.646087 0.07422,5.78125 -0.369086,1.103774 -0.733032,1.576263 -0.84375,1.484375 -0.445109,-0.369403 -2.450021,-4.805133 -3.455078,-7.693359 -0.400648,-1.151336 -0.748762,-1.811041 -1.085937,-1.917969 z m 7.365234,13.425781 c -0.471574,-0.14035 -0.970372,-0.134211 -1.515625,0.0078 -0.463428,0.120706 -1.265736,0.186383 -2.099609,0.166015 -2.477181,-0.0605 -3.435061,0.469408 -4.019532,2.28711 -0.893171,2.777771 -0.542755,4.143769 1.320313,4.787109 1.104155,0.381278 1.680115,0.349892 2.484375,-0.160156 0.365448,-0.231764 0.719932,-0.521082 0.779297,-0.675781 0.06824,-0.177833 0.325855,-0.200324 0.578125,0.02148 0.49728,0.437229 1.780327,0.991893 2.417968,1.042969 0.797934,0.06391 1.780485,-0.379537 2.259766,-1.021485 0.261726,-0.35055 0.310547,-0.645913 0.310547,-1.728515 0,-1.849449 -0.356327,-3.047735 -1.177735,-3.869141 -0.430335,-0.430334 -0.866719,-0.717192 -1.33789,-0.857422 z"
       inkscape:label="tooth03" /><path
       id="path22901"
       style="fill:#000000;stroke-width:0.139449"
       d="m 40.476562,47.251953 c -0.221261,-0.031 -0.366797,0.135423 -0.466796,0.398438 -0.188987,0.49708 -0.201249,0.892578 0.123046,0.892578 0.04669,0 0.246777,0.114684 0.419922,0.277343 0.25764,0.242047 0.291016,0.364954 0.291016,1.376954 0,1.516708 0.240071,3.842935 0.507812,4.896484 0.244706,0.962907 0.681928,2.005767 0.9375,2.28125 0.07951,0.0857 0.211634,0.147763 0.292969,0.01953 0.08197,-0.129253 0.131638,-0.973891 0.132813,-1.878906 0.0023,-1.778576 -0.217632,-3.126297 -0.777344,-4.775391 -0.185979,-0.547957 -0.335417,-1.310281 -0.335938,-1.699218 -8.61e-4,-0.632104 -0.079,-0.85238 -0.458984,-1.285157 -0.260293,-0.296457 -0.47118,-0.476606 -0.666016,-0.503906 z m 1.644532,1.277344 c -0.424149,0.162768 -0.362637,0.835568 0.04687,2.132812 0.188167,0.596068 0.439359,1.541479 0.55664,2.09961 0.250436,1.191801 0.279387,3.933887 0.05469,5.052734 l -0.115235,0.572266 -0.205078,-0.275391 C 41.323722,56.595533 40.625,53.718173 40.625,50.476562 c 0,-1.507834 -0.175145,-1.893791 -0.943359,-1.625 -0.679941,0.23791 -1.343365,1.803787 -1.607422,3.634766 -0.208096,1.442931 -0.203431,1.668895 0.09375,4.433594 0.171255,1.593193 0.310146,3.38464 0.308593,3.972656 l -0.002,1.25 L 39.212891,61.75 c 0.47386,-0.251225 0.768027,-0.301633 1.800781,-0.298828 2.857677,0.008 4.906639,0.471985 5.324219,1.140625 0.09134,0.146256 0.241279,0.344658 0.361328,0.224609 0.02897,-0.029 0.03442,-0.07608 0.03516,-0.09375 0.0069,-0.164771 -0.06623,-0.808957 -0.171875,-1.566406 -0.116845,-0.837748 -0.280282,-2.550047 -0.363281,-3.806641 -0.166094,-2.514618 -0.277481,-3.185052 -0.72461,-4.339843 -0.666963,-1.722565 -2.348961,-4.122755 -3.083984,-4.453125 -0.08981,-0.04037 -0.183935,-0.06019 -0.269531,-0.02734 z m -1.177735,13.142578 c -1.718452,0.0051 -2.635407,0.625989 -3.177734,2.160156 -0.587487,1.661926 -0.273457,2.93456 0.972656,3.828125 0.808848,0.580001 1.58469,0.668896 2.382813,0.261719 0.676513,-0.345125 1.007834,-0.295047 1.71289,0.296875 0.498736,0.418717 1.261459,0.786806 1.703125,0.8125 0.129933,0.0078 0.500316,-0.06292 0.855469,-0.152344 1.500967,-0.377948 2.224844,-1.774922 1.927734,-3.634765 -0.234639,-1.468779 -0.72186,-2.280803 -1.78125,-2.935547 -0.582805,-0.360193 -2.695433,-0.642711 -4.595703,-0.636719 z"
       inkscape:label="tooth02" /><path
       id="path22883"
       style="fill:#000000;stroke-width:0.139449"
       d="m 25.103516,50.167969 c -0.186846,0 -0.244141,0.340956 -0.244141,0.652343 0,0.424193 0.07538,0.652897 0.326172,0.78711 0.363554,0.194569 1.433864,1.736318 1.902344,2.769531 0.363427,0.801522 0.679213,1.778117 0.90039,2.78125 0.06221,0.282159 0.125765,0.515872 0.279297,0.462891 0.09312,-0.03214 0.107624,-0.161118 0.117188,-0.28711 0.01597,-0.210321 0.0087,-0.574043 -0.02539,-1.054687 -0.101696,-1.432714 -0.558213,-2.921652 -1.248047,-4.064453 -0.465999,-0.771979 -1.66941,-2.046875 -2.007812,-2.046875 z m -1.123047,1.070312 c -0.200211,0.02631 -0.3208,0.18817 -0.34961,0.4375 -0.02629,0.227539 0.05915,0.743128 0.183594,1.15625 0.655478,2.175966 0.918449,5.426355 0.636719,7.882813 -0.09227,0.804568 -0.204272,1.608501 -0.242188,1.765625 -0.02611,0.108205 -0.05734,0.238912 0.03711,0.300781 0.06677,0.04374 0.149178,0.01808 0.222656,-0.01367 0.119072,-0.05145 0.312361,-0.165277 0.615234,-0.347656 2.212427,-1.332257 4.358302,-1.133336 6.210938,0.572266 0.350717,0.322885 0.620316,0.565008 0.621094,0.566406 0.218721,0.385979 0.188278,-0.06067 0.1875,-0.07422 -0.007,-0.121066 -0.05093,-0.766385 -0.103516,-1.542969 -0.231038,-3.411808 -0.909803,-6.287994 -1.835938,-7.75 -0.440569,-0.695478 -1.624895,-2.024546 -2.021484,-2.289062 -0.04554,-0.03038 -0.106972,-0.06055 -0.152344,-0.06055 -0.114814,0 -0.159217,0.10935 -0.173828,0.201172 -0.05292,0.332583 0.10919,1.189016 0.396485,2.091797 0.48013,1.508717 0.409976,4.486552 -0.01367,5.035156 -0.03172,0.04107 -0.05203,0.04656 -0.07031,0.05078 -0.07287,-0.115412 -0.16278,-0.503717 -0.242187,-1.132812 -0.208002,-1.647899 -0.887707,-3.632889 -1.642578,-4.785157 -0.849327,-1.296452 -1.762674,-2.130278 -2.263672,-2.064453 z m 4.140625,10.550781 c -1.124537,-0.07121 -2.271078,0.28902 -3.320313,1.082032 -1.052205,0.795264 -1.357968,1.437164 -1.304687,2.740234 0.05137,1.256349 0.3682,2.007774 1.130859,2.615234 0.282541,0.225053 0.750424,0.451519 1.037109,0.498047 0.442149,0.07169 0.636684,-0.0021 1.054688,-0.36914 0.729846,-0.640818 1.033574,-0.65959 1.921875,-0.111328 1.414339,0.872928 2.383036,0.995259 3.208984,0.34375 1.371551,-1.081874 1.063058,-3.705907 -0.572265,-5.306641 -0.938819,-0.918963 -2.031681,-1.420975 -3.15625,-1.492188 z"
       inkscape:label="tooth01" /></g></svg>
