<?xml version="1.0" encoding="UTF-8" standalone="no"?>
<!-- Created with Inkscape (http://www.inkscape.org/) -->

<svg
   width="210mm"
   height="297mm"
   viewBox="0 0 210 297"
   version="1.1"
   id="svg5"
   xml:space="preserve"
   inkscape:version="1.2.2 (732a01da63, 2022-12-09)"
   sodipodi:docname="teethw.svg"
   xmlns:inkscape="http://www.inkscape.org/namespaces/inkscape"
   xmlns:sodipodi="http://sodipodi.sourceforge.net/DTD/sodipodi-0.dtd"
   xmlns="http://www.w3.org/2000/svg"
   xmlns:svg="http://www.w3.org/2000/svg"><sodipodi:namedview
     id="namedview7"
     pagecolor="#ffffff"
     bordercolor="#000000"
     borderopacity="0.25"
     inkscape:showpageshadow="2"
     inkscape:pageopacity="0.0"
     inkscape:pagecheckerboard="0"
     inkscape:deskcolor="#d1d1d1"
     inkscape:document-units="mm"
     showgrid="false"
     inkscape:zoom="2.0949356"
     inkscape:cx="431.27817"
     inkscape:cy="232.46538"
     inkscape:window-width="2560"
     inkscape:window-height="1377"
     inkscape:window-x="1358"
     inkscape:window-y="-8"
     inkscape:window-maximized="1"
     inkscape:current-layer="layer1" /><defs
     id="defs2" /><g
     inkscape:label="Layer 1"
     inkscape:groupmode="layer"
     id="layer1"><path
       style="color:#000000;fill:#000000;-inkscape-stroke:none"
       d="m 162.17773,43.71875 c -2.88052,-10e-7 -5.21875,2.340176 -5.21875,5.220703 0,2.880527 2.33823,5.220704 5.21875,5.220703 2.88053,10e-7 5.22071,-2.340176 5.22071,-5.220703 0,-2.880527 -2.34018,-5.220704 -5.22071,-5.220703 z m 0,0.400391 c 2.66436,-10e-7 4.82032,2.155961 4.82032,4.820312 0,2.664351 -2.15596,4.820313 -4.82032,4.820313 -2.66435,0 -4.82031,-2.155962 -4.82031,-4.820313 0,-2.664351 2.15596,-4.820313 4.82031,-4.820312 z"
       id="tooth" /><path
       style="color:#000000;fill:#000000;-inkscape-stroke:none"
       d="m 26.755859,47.150391 c -2.409891,0 -4.367187,1.957295 -4.367187,4.367187 0,2.409892 1.957295,4.367187 4.367187,4.367188 2.409893,0 4.369141,-1.957295 4.369141,-4.367188 0,-2.409892 -1.959248,-4.367188 -4.369141,-4.367187 z m 0,0.40039 c 2.193717,0 3.96875,1.773081 3.96875,3.966797 10e-7,2.193717 -1.775033,3.96875 -3.96875,3.96875 -2.193716,0 -3.966797,-1.775034 -3.966797,-3.96875 10e-7,-2.193716 1.773081,-3.966796 3.966797,-3.966797 z"
       id="tooth01" /><path
       style="color:#000000;fill:#000000;-inkscape-stroke:none"
       d="m 39.65625,45.646484 c -2.409892,10e-7 -4.367188,1.957296 -4.367188,4.367188 10e-7,2.409892 1.957296,4.367187 4.367188,4.367187 2.409892,10e-7 4.36914,-1.957295 4.369141,-4.367187 0,-2.409893 -1.959248,-4.367188 -4.369141,-4.367188 z m 0,0.398438 c 2.193717,0 3.96875,1.775033 3.96875,3.96875 0,2.193716 -1.775034,3.966797 -3.96875,3.966797 -2.193716,-10e-7 -3.966797,-1.773081 -3.966797,-3.966797 0,-2.193716 1.773081,-3.96875 3.966797,-3.96875 z"
       id="tooth" /><path
       style="color:#000000;fill:#000000;-inkscape-stroke:none"
       d="m 190.93359,46.537109 c -2.40989,0 -4.36718,1.957295 -4.36718,4.367188 0,2.409892 1.95729,4.367188 4.36718,4.367187 2.4099,10e-7 4.36914,-1.957295 4.36914,-4.367187 0,-2.409893 -1.95924,-4.367188 -4.36914,-4.367188 z m 0,0.398438 c 2.19372,0 3.96875,1.775033 3.96875,3.96875 0,2.193716 -1.77503,3.966797 -3.96875,3.966797 -2.19371,0 -3.96679,-1.773081 -3.96679,-3.966797 0,-2.193717 1.77308,-3.96875 3.96679,-3.96875 z"
       id="tooth" /><path
       style="color:#000000;fill:#000000;-inkscape-stroke:none"
       d="m 23.535156,87.003906 c -2.835515,0 -5.169922,1.928248 -5.169922,4.34961 0,2.421362 2.334407,4.349609 5.169922,4.349609 2.835515,0 5.171875,-1.928247 5.171875,-4.349609 0,-2.421362 -2.33636,-4.34961 -5.171875,-4.34961 z m 0,0.400391 c 2.655041,0 4.771485,1.786797 4.771485,3.949219 0,2.162422 -2.116444,3.949218 -4.771485,3.949218 -2.655041,0 -4.769531,-1.786796 -4.769531,-3.949218 0,-2.162422 2.11449,-3.949219 4.769531,-3.949219 z"
       id="tooth" /><path
       style="color:#000000;fill:#000000;-inkscape-stroke:none"
       d="m 194.37109,86.710937 c -2.83551,10e-7 -5.17187,1.928248 -5.17187,4.34961 0,2.421362 2.33636,4.349609 5.17187,4.349609 2.83552,0 5.16993,-1.928247 5.16993,-4.349609 0,-2.421362 -2.33441,-4.349609 -5.16993,-4.34961 z m 0,0.398438 c 2.65504,0 4.76954,1.78875 4.76953,3.951172 10e-6,2.162422 -2.11449,3.949218 -4.76953,3.949219 -2.65504,-10e-7 -4.77148,-1.786797 -4.77148,-3.949219 0,-2.162422 2.11644,-3.951172 4.77148,-3.951172 z"
       id="tooth" /><path
       style="color:#000000;fill:#000000;-inkscape-stroke:none"
       d="m 39.53125,88.724609 c -2.67098,10e-7 -4.861328,1.938645 -4.861328,4.355469 0,2.416825 2.190347,4.357422 4.861328,4.357422 2.670981,0 4.861328,-1.940597 4.861328,-4.357422 0,-2.416824 -2.190347,-4.355469 -4.861328,-4.355469 z m 0,0.400391 c 2.478231,0 4.460937,1.780704 4.460937,3.955078 10e-7,2.174375 -1.982705,3.957032 -4.460937,3.957031 -2.478231,0 -4.462891,-1.782656 -4.462891,-3.957031 10e-7,-2.174374 1.98466,-3.955078 4.462891,-3.955078 z"
       id="tooth" /><path
       style="color:#000000;fill:#000000;-inkscape-stroke:none"
       d="m 178.58398,88.724609 c -2.67098,10e-7 -4.86132,1.938646 -4.86132,4.355469 0,2.416824 2.19034,4.357421 4.86132,4.357422 2.67098,-10e-7 4.86133,-1.940598 4.86133,-4.357422 0,-2.416823 -2.19035,-4.355468 -4.86133,-4.355469 z m 0,0.400391 c 2.47824,10e-7 4.46094,1.780704 4.46094,3.955078 0,2.174374 -1.9827,3.957031 -4.46094,3.957031 -2.47823,0 -4.46289,-1.782657 -4.46289,-3.957031 0,-2.174374 1.98466,-3.955077 4.46289,-3.955078 z"
       id="tooth" /><path
       style="color:#000000;fill:#000000;-inkscape-stroke:none"
       d="m 176.82422,45.017578 c -2.40989,0 -4.36719,1.959249 -4.36719,4.369141 0,2.409892 1.9573,4.367188 4.36719,4.367187 2.40989,10e-7 4.36719,-1.957295 4.36719,-4.367187 0,-2.409892 -1.9573,-4.369141 -4.36719,-4.369141 z m 0,0.400391 c 2.19372,-10e-7 3.96875,1.775033 3.96875,3.96875 0,2.193716 -1.77503,3.966797 -3.96875,3.966797 -2.19372,0 -3.9668,-1.773081 -3.9668,-3.966797 0,-2.193717 1.77308,-3.968751 3.9668,-3.96875 z"
       id="tooth" /><path
       style="color:#000000;fill:#000000;-inkscape-stroke:none"
       d="m 67.158203,42.8125 c -1.703941,0 -3.089844,1.385903 -3.089844,3.089844 0,1.70394 1.385903,3.089843 3.089844,3.089843 1.703941,0 3.089844,-1.385903 3.089844,-3.089843 0,-1.703941 -1.385903,-3.089844 -3.089844,-3.089844 z m 0,0.400391 c 1.487765,0 2.689454,1.201688 2.689453,2.689453 0,1.487765 -1.201688,2.689453 -2.689453,2.689453 -1.487765,0 -2.689453,-1.201688 -2.689453,-2.689453 0,-1.487765 1.201688,-2.689453 2.689453,-2.689453 z"
       id="tooth" /><path
       style="color:#000000;fill:#000000;-inkscape-stroke:none"
       d="m 67.316406,93.779297 c -1.703941,-10e-7 -3.089843,1.385903 -3.089844,3.089844 10e-7,1.703941 1.385903,3.089844 3.089844,3.089843 1.703941,0 3.089844,-1.385903 3.089844,-3.089843 0,-1.703941 -1.385903,-3.089844 -3.089844,-3.089844 z m 0,0.40039 c 1.487765,10e-7 2.689453,1.201689 2.689453,2.689454 0,1.487764 -1.201688,2.689453 -2.689453,2.689453 -1.487765,0 -2.689453,-1.201688 -2.689453,-2.689453 0,-1.487766 1.201688,-2.689454 2.689453,-2.689454 z"
       id="tooth" /><path
       style="color:#000000;fill:#000000;-inkscape-stroke:none"
       d="m 75.904297,93.527344 c -1.703941,-10e-7 -3.089844,1.385902 -3.089844,3.089843 0,1.703942 1.385903,3.089845 3.089844,3.089844 1.703941,0 3.089844,-1.385903 3.089844,-3.089844 0,-1.70394 -1.385903,-3.089843 -3.089844,-3.089843 z m 0,0.40039 c 1.487765,0 2.689453,1.201689 2.689453,2.689453 0,1.487765 -1.201688,2.689454 -2.689453,2.689454 -1.487765,0 -2.689453,-1.201688 -2.689453,-2.689454 0,-1.487765 1.201688,-2.689453 2.689453,-2.689453 z"
       id="tooth" /><path
       style="color:#000000;fill:#000000;-inkscape-stroke:none"
       d="m 86.259766,96.810547 c -1.703941,0 -3.087891,1.385903 -3.087891,3.089844 0,1.703939 1.38395,3.089839 3.087891,3.089839 1.70394,0 3.089843,-1.3859 3.089843,-3.089839 0,-1.703941 -1.385903,-3.089844 -3.089843,-3.089844 z m 0,0.40039 c 1.487764,10e-7 2.689453,1.201689 2.689453,2.689454 0,1.487769 -1.201689,2.689449 -2.689453,2.689449 -1.487765,0 -2.689453,-1.20168 -2.689454,-2.689449 10e-7,-1.487765 1.201689,-2.689453 2.689454,-2.689454 z"
       id="tooth" /><path
       style="color:#000000;fill:#000000;-inkscape-stroke:none"
       d="m 97.880859,93.400391 c -1.70394,0 -3.089843,1.385903 -3.089843,3.089843 0,1.703941 1.385903,3.089844 3.089843,3.089844 1.703942,10e-7 3.087891,-1.385902 3.087891,-3.089844 0,-1.703941 -1.383949,-3.089844 -3.087891,-3.089843 z m 0,0.40039 c 1.487766,-10e-7 2.689451,1.201688 2.689451,2.689453 0,1.487766 -1.201685,2.689454 -2.689451,2.689453 -1.487764,0 -2.691406,-1.201688 -2.691406,-2.689453 0,-1.487764 1.203642,-2.689453 2.691406,-2.689453 z"
       id="tooth" /><path
       style="color:#000000;fill:#000000;-inkscape-stroke:none"
       d="m 105.33203,91.759766 c -1.70394,0 -3.08984,1.385903 -3.08984,3.089843 0,1.703941 1.3859,3.087891 3.08984,3.087891 1.70394,0 3.08984,-1.38395 3.08985,-3.087891 -1e-5,-1.70394 -1.38591,-3.089843 -3.08985,-3.089843 z m 0,0.40039 c 1.48777,0 2.68945,1.201689 2.68945,2.689453 0,1.487765 -1.20168,2.689453 -2.68945,2.689453 -1.48776,0 -2.68945,-1.201688 -2.68945,-2.689453 0,-1.487764 1.20169,-2.689453 2.68945,-2.689453 z"
       id="tooth" /><path
       style="color:#000000;fill:#000000;-inkscape-stroke:none"
       d="m 112.65625,91.253906 c -1.70394,0 -3.08984,1.385903 -3.08984,3.089844 0,1.703941 1.3859,3.089844 3.08984,3.089844 1.70394,0 3.08984,-1.385903 3.08984,-3.089844 0,-1.703941 -1.3859,-3.089844 -3.08984,-3.089844 z m 0,0.400391 c 1.48776,0 2.68945,1.201688 2.68945,2.689453 0,1.487765 -1.20169,2.689453 -2.68945,2.689453 -1.48776,0 -2.68945,-1.201688 -2.68945,-2.689453 0,-1.487765 1.20169,-2.689453 2.68945,-2.689453 z"
       id="tooth" /><path
       style="color:#000000;fill:#000000;-inkscape-stroke:none"
       d="m 120.10742,93.400391 c -1.70394,0 -3.08789,1.385903 -3.08789,3.089843 0,1.703941 1.38395,3.089844 3.08789,3.089844 1.70394,0 3.08985,-1.385903 3.08985,-3.089844 0,-1.70394 -1.38591,-3.089843 -3.08985,-3.089843 z m 0,0.40039 c 1.48777,0 2.68945,1.201689 2.68946,2.689453 -1e-5,1.487765 -1.20169,2.689453 -2.68946,2.689453 -1.48776,0 -2.68945,-1.201688 -2.68945,-2.689453 0,-1.487764 1.20169,-2.689453 2.68945,-2.689453 z"
       id="tooth" /><path
       style="color:#000000;fill:#000000;-inkscape-stroke:none"
       d="m 131.47461,96.558594 c -1.70394,0 -3.08984,1.385903 -3.08984,3.089843 -1e-5,1.703943 1.3859,3.089843 3.08984,3.089843 1.70394,0 3.08984,-1.3859 3.08984,-3.089843 0,-1.70394 -1.3859,-3.089843 -3.08984,-3.089843 z m 0,0.40039 c 1.48776,0 2.68945,1.201689 2.68945,2.689453 0,1.487763 -1.20169,2.689453 -2.68945,2.689453 -1.48777,0 -2.68945,-1.20169 -2.68945,-2.689453 0,-1.487764 1.20168,-2.689453 2.68945,-2.689453 z"
       id="tooth" /><path
       style="color:#000000;fill:#000000;-inkscape-stroke:none"
       d="m 141.83203,93.90625 c -1.70394,0 -3.08984,1.385903 -3.08984,3.089844 0,1.70394 1.3859,3.089846 3.08984,3.089846 1.70394,0 3.08789,-1.385906 3.08789,-3.089846 0,-1.703941 -1.38395,-3.089844 -3.08789,-3.089844 z m 0,0.400391 c 1.48777,0 2.68945,1.201688 2.68945,2.689453 0,1.487765 -1.20168,2.689453 -2.68945,2.689453 -1.48776,0 -2.6914,-1.201688 -2.69141,-2.689453 10e-6,-1.487765 1.20365,-2.689453 2.69141,-2.689453 z"
       id="tooth" /><path
       style="color:#000000;fill:#000000;-inkscape-stroke:none"
       d="m 150.67187,93.90625 c -1.70394,0 -3.08984,1.385903 -3.08984,3.089844 0,1.70394 1.3859,3.089846 3.08984,3.089846 1.70395,0 3.08985,-1.385906 3.08985,-3.089846 0,-1.703941 -1.3859,-3.089844 -3.08985,-3.089844 z m 0,0.400391 c 1.48777,0 2.68946,1.201688 2.68946,2.689453 0,1.487765 -1.20169,2.689453 -2.68946,2.689453 -1.48776,0 -2.68945,-1.201688 -2.68945,-2.689453 0,-1.487765 1.20169,-2.689453 2.68945,-2.689453 z"
       id="tooth" /><path
       style="color:#000000;fill:#000000;-inkscape-stroke:none"
       d="m 150.83594,42.099609 c -1.70394,0 -3.08985,1.38395 -3.08985,3.087891 0,1.703941 1.38591,3.089844 3.08985,3.089844 1.70394,0 3.08984,-1.385903 3.08984,-3.089844 0,-1.703941 -1.3859,-3.087891 -3.08984,-3.087891 z m 0,0.398438 c 1.48776,0 2.68945,1.201688 2.68945,2.689453 0,1.487765 -1.20169,2.691406 -2.68945,2.691406 -1.48777,0 -2.68946,-1.203641 -2.68946,-2.691406 0,-1.487765 1.20169,-2.689453 2.68946,-2.689453 z"
       id="tooth" /><path
       style="color:#000000;fill:#000000;-inkscape-stroke:none"
       d="m 84.125,37.8125 c -1.703941,0 -3.089844,1.385903 -3.089844,3.089844 0,1.70394 1.385903,3.089843 3.089844,3.089843 1.703941,0 3.089844,-1.385903 3.089844,-3.089843 0,-1.703941 -1.385903,-3.089844 -3.089844,-3.089844 z m 0,0.400391 c 1.487765,0 2.689453,1.201688 2.689453,2.689453 0,1.487765 -1.201688,2.689453 -2.689453,2.689453 -1.487765,0 -2.689453,-1.201688 -2.689453,-2.689453 0,-1.487765 1.201688,-2.689453 2.689453,-2.689453 z"
       id="tooth" /><path
       style="color:#000000;fill:#000000;-inkscape-stroke:none"
       d="m 92.876953,42.277344 c -1.703941,-10e-7 -3.089844,1.385902 -3.089844,3.089843 0,1.703942 1.385903,3.089845 3.089844,3.089844 1.703941,0 3.089844,-1.385903 3.089844,-3.089844 0,-1.70394 -1.385903,-3.089843 -3.089844,-3.089843 z m 0,0.40039 c 1.487765,0 2.689453,1.201689 2.689453,2.689453 0,1.487765 -1.201688,2.689454 -2.689453,2.689454 -1.487765,0 -2.689453,-1.201688 -2.689453,-2.689454 0,-1.487765 1.201688,-2.689453 2.689453,-2.689453 z"
       id="tooth" /><path
       style="color:#000000;fill:#000000;-inkscape-stroke:none"
       d="m 102.07617,40.759766 c -1.70394,-10e-7 -3.089842,1.385902 -3.089842,3.089843 0,1.703941 1.385902,3.087891 3.089842,3.087891 1.70394,0 3.08985,-1.38395 3.08985,-3.087891 0,-1.70394 -1.38591,-3.089843 -3.08985,-3.089843 z m 0,0.40039 c 1.48777,0 2.68945,1.201689 2.68946,2.689453 -1e-5,1.487765 -1.20169,2.689453 -2.68946,2.689453 -1.48776,10e-7 -2.689451,-1.201687 -2.689451,-2.689453 0,-1.487765 1.201691,-2.689453 2.689451,-2.689453 z"
       id="tooth" /><path
       style="color:#000000;fill:#000000;-inkscape-stroke:none"
       d="m 115.91797,41.117187 c -1.70394,10e-7 -3.08985,1.385903 -3.08984,3.089844 0,1.703941 1.3859,3.087891 3.08984,3.087891 1.70394,0 3.08984,-1.38395 3.08984,-3.087891 0,-1.703941 -1.3859,-3.089843 -3.08984,-3.089844 z m 0,0.398438 c 1.48776,0 2.68945,1.203641 2.68945,2.691406 0,1.487765 -1.20169,2.689453 -2.68945,2.689453 -1.48777,0 -2.68945,-1.201688 -2.68945,-2.689453 0,-1.487765 1.20168,-2.691406 2.68945,-2.691406 z"
       id="tooth" /><path
       style="color:#000000;fill:#000000;-inkscape-stroke:none"
       d="m 125.20508,41.384766 c -1.70394,0 -3.08789,1.385903 -3.08789,3.089843 0,1.703941 1.38395,3.089844 3.08789,3.089844 1.70394,0 3.08984,-1.385903 3.08984,-3.089844 0,-1.70394 -1.3859,-3.089843 -3.08984,-3.089843 z m 0,0.40039 c 1.48776,0 2.68945,1.201689 2.68945,2.689453 0,1.487765 -1.20169,2.689453 -2.68945,2.689453 -1.48777,0 -2.68945,-1.201688 -2.68945,-2.689453 0,-1.487764 1.20168,-2.689453 2.68945,-2.689453 z"
       id="tooth" /><path
       style="color:#000000;fill:#000000;-inkscape-stroke:none"
       d="m 133.95703,37.902344 c -1.70394,0 -3.08789,1.38395 -3.08789,3.08789 0,1.703941 1.38395,3.089844 3.08789,3.089844 1.70394,0 3.08984,-1.385903 3.08984,-3.089844 0,-1.70394 -1.3859,-3.08789 -3.08984,-3.08789 z m 0,0.398437 c 1.48777,0 2.68945,1.201689 2.68945,2.689453 0,1.487765 -1.20168,2.689453 -2.68945,2.689453 -1.48776,0 -2.68945,-1.201688 -2.68945,-2.689453 0,-1.487764 1.20169,-2.689453 2.68945,-2.689453 z"
       id="tooth" /><path
       style="color:#000000;fill:#000000;-inkscape-stroke:none"
       d="m 75.730469,42.925781 c -1.888457,10e-7 -3.423828,1.535372 -3.423828,3.423828 -10e-7,1.888457 1.535371,3.423828 3.423828,3.423828 1.888457,10e-7 3.423828,-1.53537 3.423828,-3.423828 0,-1.888457 -1.535371,-3.423828 -3.423828,-3.423828 z m 0,0.400391 c 1.672281,0 3.023437,1.351156 3.023437,3.023437 0,1.672282 -1.351156,3.023438 -3.023437,3.023438 -1.672281,0 -3.023438,-1.351157 -3.023438,-3.023438 10e-7,-1.67228 1.351157,-3.023437 3.023438,-3.023437 z"
       id="tooth" /><path
       style="color:#000000;fill:#000000;-inkscape-stroke:none"
       d="m 142.35156,42.568359 c -1.88846,-2e-6 -3.42187,1.53537 -3.42187,3.423828 0,1.888459 1.53341,3.423831 3.42187,3.423829 1.88846,2e-6 3.42383,-1.53537 3.42383,-3.423829 0,-1.888458 -1.53537,-3.42383 -3.42383,-3.423828 z m 0,0.400391 c 1.67229,-2e-6 3.02539,1.351155 3.02539,3.023437 0,1.672283 -1.35311,3.02344 -3.02539,3.023438 -1.67228,2e-6 -3.02343,-1.351155 -3.02344,-3.023438 0,-1.672282 1.35116,-3.023439 3.02344,-3.023437 z"
       id="tooth" /><path
       style="color:#000000;fill:#000000;-inkscape-stroke:none"
       d="m 55.369141,43.71875 c -2.880527,0 -5.220703,2.340177 -5.220704,5.220703 0,2.880527 2.340177,5.220703 5.220704,5.220703 2.880526,0 5.220703,-2.340176 5.220703,-5.220703 0,-2.880526 -2.340177,-5.220703 -5.220703,-5.220703 z m 0,0.400391 c 2.66435,0 4.820312,2.155962 4.820312,4.820312 0,2.664351 -2.155962,4.820313 -4.820312,4.820313 -2.664351,0 -4.820313,-2.155962 -4.820313,-4.820313 0,-2.66435 2.155962,-4.820312 4.820313,-4.820312 z"
       id="tooth" /><path
       style="color:#000000;fill:#000000;-inkscape-stroke:none"
       d="m 53.486328,89.154297 c -1.888965,0 -3.602934,0.567917 -4.853516,1.5 -1.250581,0.932083 -2.041015,2.239081 -2.041015,3.689453 0,1.450372 0.790434,2.755417 2.041015,3.6875 1.250582,0.932083 2.964551,1.501953 4.853516,1.501953 1.888965,0 3.602934,-0.56987 4.853516,-1.501953 1.250581,-0.932083 2.041015,-2.237128 2.041015,-3.6875 0,-1.450372 -0.790434,-2.75737 -2.041015,-3.689453 -1.250582,-0.932083 -2.964551,-1.5 -4.853516,-1.5 z m 0,0.40039 c 1.808405,0 3.442818,0.548051 4.615234,1.421875 1.172417,0.873825 1.878907,2.061838 1.878907,3.367188 0,1.30535 -0.70649,2.493363 -1.878907,3.367187 -1.172416,0.873825 -2.806829,1.421876 -4.615234,1.421875 -1.808405,0 -3.440865,-0.54805 -4.613281,-1.421875 -1.172416,-0.873824 -1.88086,-2.061837 -1.88086,-3.367187 0,-1.30535 0.708444,-2.493363 1.88086,-3.367188 1.172416,-0.873824 2.804876,-1.421874 4.613281,-1.421875 z"
       id="tooth" /><path
       style="color:#000000;fill:#000000;-inkscape-stroke:none"
       d="m 164.56445,89.40625 c -1.88896,-10e-7 -3.60293,0.56987 -4.85351,1.501953 -1.25058,0.932083 -2.04102,2.237127 -2.04102,3.6875 0,1.450373 0.79044,2.75737 2.04102,3.689453 1.25058,0.932083 2.96455,1.500001 4.85351,1.5 1.88897,10e-7 3.60294,-0.567917 4.85352,-1.5 1.25058,-0.932083 2.04101,-2.23908 2.04101,-3.689453 0,-1.450373 -0.79043,-2.755417 -2.04101,-3.6875 -1.25058,-0.932083 -2.96455,-1.501954 -4.85352,-1.501953 z m 0,0.400391 c 1.80841,-10e-7 3.44282,0.54805 4.61524,1.421875 1.17241,0.873824 1.8789,2.061837 1.8789,3.367187 0,1.305351 -0.70649,2.495316 -1.8789,3.369141 -1.17242,0.873824 -2.80683,1.421875 -4.61524,1.421875 -1.8084,0 -3.44281,-0.548051 -4.61523,-1.421875 -1.17242,-0.873825 -1.87891,-2.06379 -1.87891,-3.369141 0,-1.30535 0.70649,-2.493363 1.87891,-3.367187 1.17242,-0.873825 2.80683,-1.421876 4.61523,-1.421875 z"
       id="tooth" /></g></svg>
