<?xml version="1.0" encoding="UTF-8" standalone="no"?>
<!-- Created with Inkscape (http://www.inkscape.org/) -->

<svg
   width="7.4345889mm"
   height="9.5255604mm"
   viewBox="0 0 7.4345889 9.5255604"
   version="1.1"
   id="svg13318"
   xml:space="preserve"
   xmlns="http://www.w3.org/2000/svg"
   xmlns:svg="http://www.w3.org/2000/svg"><defs
     id="defs13315" /><g
     id="layer1"
     transform="translate(-117.8337,-112.44219)"><path
       style="fill:#000000;stroke-width:0.264583"
       d="m 121.71505,112.44219 c -1.07357,5e-5 -1.34018,0.12363 -2.18953,1.01648 -0.53193,0.55917 -1.09641,1.42238 -1.2547,1.91823 l -0.16692,0.52348 c -0.0178,0.0766 -0.0351,0.15335 -0.0527,0.22996 -0.0259,0.11613 -0.0505,0.23261 -0.076,0.34882 -0.0306,0.14023 -0.0612,0.28046 -0.0811,0.42271 -0.0182,0.13233 -0.0292,0.26556 -0.0372,0.39894 -0.002,0.0297 -0.005,0.0592 -0.008,0.0889 5.1e-4,-6e-5 -0.001,3e-5 0.002,0 0.0157,-9e-4 0.0288,0.0163 0.0196,0.045 -0.002,0.008 -0.005,0.0168 -0.007,0.0248 -0.008,0.0299 -0.0188,0.0594 -0.0248,0.0899 -0.002,0.009 -0.004,0.0186 -0.005,0.0279 0.001,0.004 0.004,0.007 0.004,0.0124 0.002,0.0391 0.001,0.0191 0.002,0.06 -8.1e-4,0.0169 -0.002,0.0337 -0.003,0.0506 0.0366,0.10877 0.0757,0.2438 0.11782,0.43098 0.61441,2.72819 1.62348,3.83646 3.49281,3.83646 1.14679,0 2.58387,-0.95079 3.0949,-2.04742 0.23971,-0.51442 0.42328,-0.78272 0.55345,-0.80822 0.005,-0.0553 0.012,-0.11039 0.0191,-0.16537 0.008,-0.0652 0.007,-0.13077 0.006,-0.19637 -0.004,-0.0916 -0.008,-0.18331 -0.0124,-0.27491 -0.005,-0.09 -0.009,-0.17966 -0.0119,-0.26976 -0.002,-0.10831 0.002,-0.21678 0.005,-0.32504 0.002,-0.0766 0.004,-0.15346 0.007,-0.22996 0.004,-0.065 0.009,-0.1296 0.0165,-0.1943 0.008,-0.0573 0.0131,-0.1149 0.0181,-0.1726 0.004,-0.0434 0.006,-0.0872 0.009,-0.13074 0.001,-0.0323 0.006,-0.064 0.0103,-0.0961 0.005,-0.0361 0.0105,-0.0724 0.0165,-0.10852 0.006,-0.0349 0.008,-0.0703 0.0108,-0.10542 0.005,-0.0431 0.0122,-0.0858 0.0212,-0.12816 0.0103,-0.0435 0.0194,-0.0869 0.0284,-0.13074 0.01,-0.0462 0.0193,-0.0927 0.0253,-0.13953 0.007,-0.053 0.003,-0.10626 -0.003,-0.15916 -0.002,-0.0152 -0.005,-0.0302 -0.007,-0.0455 -0.0366,0.001 -0.10089,-0.26227 -0.22789,-0.82992 -0.15948,-0.71275 -0.59367,-1.4732 -1.17099,-2.05052 -0.78223,-0.78223 -1.09783,-0.91721 -2.13992,-0.91726 z"
       id="tooth20" /></g></svg>
