<?xml version="1.0" encoding="UTF-8" standalone="no"?>
<!-- Created with Inkscape (http://www.inkscape.org/) -->

<svg
   width="11.718002mm"
   height="10.85876mm"
   viewBox="0 0 11.718002 10.85876"
   version="1.1"
   id="svg13318"
   xml:space="preserve"
   xmlns="http://www.w3.org/2000/svg"
   xmlns:svg="http://www.w3.org/2000/svg"><defs
     id="defs13315" /><g
     id="layer1"
     transform="translate(-125.14683,-112.22157)"><path
       style="fill:#000000;stroke-width:0.264583"
       d="m 131.05453,112.22157 c -0.63705,0.003 -1.33811,0.17324 -2.36833,0.49145 -2.08923,0.64529 -3.33567,1.74881 -3.37757,2.99051 -0.006,0.1742 -0.0122,0.29444 -0.0201,0.38499 0.006,0.0639 0.0146,0.12758 0.0243,0.1912 0.006,0.0569 0.0113,0.11457 0.003,0.17157 -0.006,0.048 -0.0152,0.0953 -0.0253,0.14263 -0.009,0.0439 -0.0186,0.0881 -0.0289,0.13177 -0.009,0.0404 -0.0161,0.0813 -0.0202,0.12247 -0.004,0.0361 -0.005,0.0722 -0.0109,0.10801 -0.006,0.0358 -0.0115,0.0717 -0.0165,0.10749 -0.004,0.031 -0.008,0.0617 -0.0103,0.093 -0.003,0.0437 -0.005,0.0877 -0.009,0.13126 -0.005,0.0583 -0.0106,0.11677 -0.0186,0.17467 -0.008,0.0634 -0.0125,0.12698 -0.0165,0.19068 -0.004,0.0763 -0.005,0.15263 -0.007,0.22893 -0.003,0.10729 -0.007,0.2146 -0.005,0.32194 0.003,0.0899 0.007,0.17944 0.0119,0.26924 0.004,0.092 0.01,0.18395 0.0129,0.27595 10e-4,0.068 0.002,0.13652 -0.007,0.20412 -0.007,0.054 -0.0136,0.10766 -0.0186,0.16175 0.12701,0.0461 0.18966,0.38703 0.18966,1.02681 0,0.88715 0.16916,1.25334 0.92707,2.01125 l 0.92656,0.92707 3.2892,-0.0935 c 3.23778,-0.0919 3.30271,-0.10545 4.12482,-0.88677 0.89471,-0.85031 1.82638,-2.45712 1.87378,-3.23081 0.004,-0.0664 0.0147,-0.093 0.0305,-0.0879 -4e-4,-0.009 -9.8e-4,-0.0186 -0.001,-0.0279 0,-0.0346 0.002,-0.0689 0.005,-0.10335 0.003,-0.035 0.006,-0.0699 0.007,-0.1049 0.002,-0.034 0.004,-0.0679 0.007,-0.1018 0.002,-0.029 0.006,-0.0581 0.006,-0.0873 0.002,-0.0266 0.003,-0.0531 0.006,-0.0796 0.004,-0.0298 0.009,-0.0596 0.015,-0.0889 0.007,-0.0355 0.0148,-0.0707 0.0238,-0.10594 0.0106,-0.0412 0.0226,-0.0819 0.0351,-0.12247 0.0104,-0.0347 0.021,-0.0699 0.03,-0.1049 0.008,-0.0295 0.0147,-0.0587 0.0217,-0.0884 0.006,-0.0283 0.0121,-0.0573 0.0171,-0.0858 0.006,-0.0302 0.0105,-0.0602 0.0165,-0.0904 0.006,-0.0334 0.0126,-0.067 0.0196,-0.10025 0.009,-0.0384 0.018,-0.0762 0.03,-0.11369 0.0131,-0.0426 0.0278,-0.0849 0.0439,-0.12661 0.0139,-0.0364 0.0274,-0.0731 0.0382,-0.11058 0.006,-0.0218 0.0111,-0.0441 0.0165,-0.0661 v -5.2e-4 c -0.001,-0.007 -5.9e-4,-0.0144 0.002,-0.0238 0.002,-0.006 0.004,-0.0131 0.005,-0.0191 h -5.2e-4 c 10e-4,-0.006 0.003,-0.0108 0.006,-0.015 v -5.2e-4 c 0.004,-0.0272 0.008,-0.0546 0.006,-0.0822 -0.002,-0.0262 -0.008,-0.0517 -0.016,-0.0765 -0.005,-0.0134 -0.009,-0.027 -0.0103,-0.0413 l -5.2e-4,5.2e-4 c -7.4e-4,-0.008 -1.6e-4,-0.0149 0.002,-0.0207 l -0.2744,-0.87333 c -0.48742,-1.55176 -0.72132,-1.78901 -2.80448,-2.83807 -1.17219,-0.59037 -1.88619,-0.86308 -2.70526,-0.85938 z"
       id="tooth19" /></g></svg>
