<?xml version="1.0" encoding="UTF-8" standalone="no"?>
<!-- Created with Inkscape (http://www.inkscape.org/) -->

<svg
   width="6.6026378mm"
   height="7.3029408mm"
   viewBox="0 0 6.6026378 7.3029408"
   version="1.1"
   id="svg13318"
   xml:space="preserve"
   xmlns="http://www.w3.org/2000/svg"
   xmlns:svg="http://www.w3.org/2000/svg"><defs
     id="defs13315" /><g
     id="layer1"
     transform="translate(-78.238635,-112.51025)"><path
       style="fill:#000000;stroke-width:0.264583"
       d="m 80.961983,112.51053 c -1.148962,0.0175 -2.124893,0.5145 -2.476851,1.44022 l -0.246497,0.64802 c 7.83e-4,0.0198 0.0015,0.0392 0.0026,0.0589 0.0014,0.0218 0.0021,0.0428 0.0036,0.0646 0.0015,0.0208 0.0046,0.0409 0.0083,0.0615 0.0033,0.0181 0.0074,0.0374 0.01188,0.0553 0.0041,0.0152 0.0067,0.0309 0.0083,0.0465 0.0011,0.0155 0.0015,0.0306 0.0031,0.046 0.0016,0.0171 0.0046,0.0352 0.0078,0.0522 0.0038,0.0197 0.0078,0.0392 0.01189,0.0589 0.0082,0.0381 0.01329,0.0765 0.01809,0.11524 0.0056,0.0503 0.01086,0.10088 0.0217,0.15038 0.01418,0.0505 0.03424,0.0985 0.04909,0.14883 0.01716,0.0619 0.02207,0.12636 0.02687,0.19016 1.55e-4,0.003 3.46e-4,0.006 5.17e-4,0.009 l 0.824239,1.67018 c 1.59114,3.22665 2.953073,3.30829 4.603854,0.27388 1.358664,-2.49746 1.340707,-3.28668 -0.09508,-4.23695 -0.891355,-0.58989 -1.889659,-0.8663 -2.783293,-0.85266 z"
       id="tooth26" /></g></svg>
