<?xml version="1.0" encoding="UTF-8" standalone="no"?>
<!-- Created with Inkscape (http://www.inkscape.org/) -->

<svg
   width="10.595411mm"
   height="9.8568773mm"
   viewBox="0 0 10.595411 9.8568773"
   version="1.1"
   id="svg13318"
   xml:space="preserve"
   xmlns="http://www.w3.org/2000/svg"
   xmlns:svg="http://www.w3.org/2000/svg"><defs
     id="defs13315" /><g
     id="layer1"
     transform="translate(-136.55956,-112.49958)"><path
       style="fill:#000000;stroke-width:0.264583"
       d="m 143.85272,112.50153 c -0.43223,-0.0101 -1.00826,0.0196 -1.84743,0.076 -1.38245,0.0927 -2.80681,0.30875 -3.16519,0.48008 -0.93021,0.44462 -1.85714,1.94864 -1.88774,3.06234 l -0.0264,0.95343 -0.0165,-0.0522 c -0.001,0.007 -0.002,0.0134 -0.003,0.0202 -0.007,0.0378 -0.0173,0.0747 -0.0279,0.11163 -0.0112,0.0389 -0.0249,0.0769 -0.0393,0.11472 -0.0157,0.0406 -0.0301,0.0819 -0.0429,0.1235 -0.0116,0.0361 -0.0209,0.073 -0.0289,0.11007 -0.007,0.0327 -0.0136,0.0653 -0.0196,0.0982 -0.005,0.0302 -0.0105,0.0607 -0.0165,0.0909 -0.005,0.0292 -0.0101,0.0583 -0.0171,0.0873 -0.007,0.0302 -0.0142,0.0599 -0.0222,0.0899 -0.01,0.0357 -0.0198,0.071 -0.0305,0.10645 -0.0123,0.04 -0.0242,0.0804 -0.0346,0.12093 -0.009,0.0345 -0.0164,0.0692 -0.0232,0.10387 -0.006,0.0278 -0.011,0.0555 -0.014,0.0837 -0.002,0.0253 -0.004,0.0511 -0.005,0.0765 0,0.0299 -0.003,0.0596 -0.006,0.0894 -0.003,0.0331 -0.005,0.066 -0.007,0.0992 -0.002,0.0357 -0.004,0.0714 -0.007,0.10697 -0.003,0.0327 -0.006,0.0658 -0.005,0.0987 10e-4,0.0311 0.003,0.062 0.003,0.093 -2.2e-4,0.009 -0.001,0.0186 -0.002,0.0279 0.0485,0.12468 0.11222,0.36886 0.17931,0.71158 0.27841,1.42195 0.97674,2.43481 1.8495,2.68201 0.35068,0.0993 1.70885,0.11769 3.01842,0.0424 4.18155,-0.24331 5.55495,-1.57793 5.54695,-5.3914 -0.005,-2.25609 -0.37752,-3.08464 -1.79059,-3.9765 -0.47054,-0.29698 -0.79096,-0.42399 -1.51102,-0.4408 z"
       id="tooth18" /></g></svg>
