<?xml version="1.0" encoding="UTF-8" standalone="no"?>
<!-- Created with Inkscape (http://www.inkscape.org/) -->

<svg
   width="7.4273052mm"
   height="10.689271mm"
   viewBox="0 0 7.4273052 10.689271"
   version="1.1"
   id="svg13318"
   xml:space="preserve"
   xmlns="http://www.w3.org/2000/svg"
   xmlns:svg="http://www.w3.org/2000/svg"><defs
     id="defs13315" /><g
     id="layer1"
     transform="translate(-50.085762,-89.582129)"><path
       style="fill:#000000;stroke-width:0.264583"
       d="m 53.755892,89.58213 c -1.779571,0 -3.171266,1.756979 -3.484025,4.397664 l -0.131258,1.104326 c 0.01008,1.68e-4 0.01988,0.01 0.01964,0.02997 -2e-4,0.02144 -0.0017,0.04282 -0.0047,0.06408 -0.0046,0.03418 -0.01037,0.06858 -0.01757,0.102319 -0.0065,0.03373 -0.01275,0.06719 -0.01705,0.101286 -0.0044,0.03841 -0.0078,0.07721 -0.01085,0.115755 -0.003,0.0381 -0.0057,0.07597 -0.0062,0.114205 -3.46e-4,0.04056 -7.4e-5,0.0814 0,0.121956 1.53e-4,0.03888 4.87e-4,0.07739 10e-4,0.116272 5.6e-4,0.03746 0.0011,0.0752 -5.17e-4,0.112655 -0.0022,0.04589 -0.0058,0.09152 -0.0067,0.137459 -0.0012,0.04983 -0.0012,0.100092 -0.0041,0.149862 -0.0026,0.05024 -0.0055,0.100174 -0.0078,0.150378 0.06589,0.03342 0.109554,0.169178 0.109554,0.428915 0,1.41568 1.858024,3.442168 3.155879,3.442168 1.965762,0 4.489026,-3.373 4.12688,-5.51646 -0.229858,-1.360635 -1.495215,-4.001775 -2.231388,-4.65708 -0.336409,-0.29945 -0.962025,-0.515731 -1.490865,-0.515731 z"
       id="tooth04" /></g></svg>
