<?xml version="1.0" encoding="UTF-8" standalone="no"?>
<!-- Created with Inkscape (http://www.inkscape.org/) -->

<svg
   width="9.9085722mm"
   height="10.199446mm"
   viewBox="0 0 9.9085722 10.199446"
   version="1.1"
   id="svg13318"
   xml:space="preserve"
   xmlns="http://www.w3.org/2000/svg"
   xmlns:svg="http://www.w3.org/2000/svg"><defs
     id="defs13315" /><g
     id="layer1"
     transform="translate(-143.41395,-89.874889)"><path
       style="fill:#000000;stroke-width:0.264583"
       d="m 149.53351,89.875638 c -0.4252,-0.0062 -0.89945,0.02621 -1.43144,0.09302 -2.83191,0.355565 -3.77335,0.891645 -4.15633,2.36523 l -0.27957,1.075386 c -4.8e-4,0.01566 -8.3e-4,0.0313 -5.2e-4,0.04703 0.001,0.02472 0.002,0.04968 0.002,0.07441 5.6e-4,0.03066 0.001,0.06132 0.001,0.09198 10e-5,0.02942 -2e-5,0.05894 0,0.08837 2e-5,0.02436 -1e-5,0.0485 0,0.07286 v 0.07131 c 10e-4,0.02695 -0.003,0.05409 -0.007,0.08061 -0.005,0.02847 -0.0126,0.05633 -0.0176,0.08475 -0.005,0.02896 -0.008,0.05813 -0.0119,0.08733 -0.004,0.03127 -0.006,0.06259 -0.007,0.09405 -0.001,0.0309 -0.002,0.0621 -0.002,0.09302 0,0.03327 -0.001,0.06653 -0.003,0.09974 -0.003,0.03735 -0.007,0.0743 -0.01,0.111621 -0.002,0.03653 -0.007,0.07321 -0.0124,0.109554 -0.004,0.03378 -0.009,0.06752 -0.0134,0.101286 -0.004,0.03854 -0.009,0.0768 -0.0145,0.115238 -0.007,0.04773 -0.012,0.09566 -0.0171,0.143661 -0.005,0.05006 -0.0105,0.100298 -0.0155,0.150378 -0.005,0.04961 -0.009,0.09952 -0.0119,0.149345 -0.002,0.05537 -0.007,0.110245 -0.0124,0.165365 -0.006,0.05396 -0.0126,0.108344 -0.0186,0.162264 -0.007,0.05987 -0.0137,0.119597 -0.0217,0.179317 -0.008,0.06051 -0.0164,0.120794 -0.0243,0.181384 -0.008,0.06088 -0.0125,0.122132 -0.0155,0.183452 -0.002,0.0597 -0.002,0.119607 -0.003,0.179317 -0.002,0.06135 -0.007,0.122291 -0.0119,0.183451 -10e-4,0.01981 -0.002,0.03961 -0.004,0.05943 l 0.1788,0.75861 c 0.46517,1.9702 2.16611,3.137313 3.82612,2.62568 0.44199,-0.13622 1.55925,-0.348416 2.48253,-0.471806 1.86964,-0.24985 2.95125,-0.99611 2.95125,-2.035535 0,-0.315054 0.10347,-0.573617 0.23512,-0.608231 0.004,-0.0495 0.009,-0.09879 0.0181,-0.147795 0.0135,-0.07786 0.0276,-0.155691 0.0336,-0.234611 0.006,-0.09008 0.01,-0.180645 0.015,-0.270785 0.005,-0.09506 0.0105,-0.190009 0.0103,-0.285253 0.001,-0.08586 7.7e-4,-0.171489 0.002,-0.257349 10e-4,-0.07431 0.003,-0.148942 0.005,-0.223242 l 0.003,-0.226343 c 0.002,-0.08015 0.004,-0.160321 0.0103,-0.240295 0.006,-0.07793 0.013,-0.155711 0.0243,-0.233061 0.009,-0.06699 0.0178,-0.134378 0.0258,-0.201538 0.007,-0.06175 0.0124,-0.123339 0.0134,-0.185519 0.001,-0.05419 -6.8e-4,-0.10863 0.002,-0.16278 0.004,-0.06018 0.01,-0.120128 0.0217,-0.179318 0.0126,-0.06229 0.0272,-0.124298 0.0372,-0.187068 0.01,-0.07301 0.0139,-0.146492 0.0129,-0.220142 -0.002,-0.06196 -0.005,-0.124042 -0.017,-0.185002 -0.007,-0.03821 -0.0163,-0.07646 -0.0233,-0.114721 -0.007,-0.04437 -0.009,-0.08889 -0.002,-0.133325 -0.0649,-0.04637 -0.1677,-0.262472 -0.31574,-0.666626 -0.66979,-1.828636 -1.58764,-2.581196 -3.43028,-2.60811 z"
       id="tooth15" /></g></svg>
