<?xml version="1.0" encoding="UTF-8" standalone="no"?>
<!-- Created with Inkscape (http://www.inkscape.org/) -->

<svg
   width="9.7732105mm"
   height="9.4069595mm"
   viewBox="0 0 9.7732105 9.4069595"
   version="1.1"
   id="svg13318"
   xml:space="preserve"
   xmlns="http://www.w3.org/2000/svg"
   xmlns:svg="http://www.w3.org/2000/svg"><defs
     id="defs13315" /><g
     id="layer1"
     transform="translate(-25.063748,-112.44219)"><path
       style="fill:#000000;stroke-width:0.264583"
       d="m 29.871562,112.44219 c -1.061444,0.0237 -2.182393,-0.0347 -3.165637,0.42909 -0.709658,0.3735 -1.153565,1.11113 -1.415718,1.84466 -0.336884,1.29564 -0.269001,2.67558 0.01405,3.97491 0.261319,1.14861 0.991763,2.27267 2.143249,2.6782 1.131516,0.41098 2.356535,0.45052 3.547879,0.4801 0.879429,-0.0217 1.856619,-0.0667 2.564765,-0.65383 0.681943,-0.74358 0.914326,-1.77058 1.104672,-2.73305 0.212406,-1.33801 0.289386,-2.74985 -0.13188,-4.05608 -0.260612,-0.76015 -0.81817,-1.46527 -1.62241,-1.67916 -0.982084,-0.29007 -2.024395,-0.2713 -3.038974,-0.28484 z"
       id="tooth32" /></g></svg>
