<?xml version="1.0" encoding="UTF-8" standalone="no"?>
<!-- Created with Inkscape (http://www.inkscape.org/) -->

<svg
   width="7.2730551mm"
   height="8.5463696mm"
   viewBox="0 0 7.2730551 8.5463696"
   version="1.1"
   id="svg13318"
   xml:space="preserve"
   xmlns="http://www.w3.org/2000/svg"
   xmlns:svg="http://www.w3.org/2000/svg"><defs
     id="defs13315" /><g
     id="layer1"
     transform="translate(-64.422941,-112.46871)"><path
       style="fill:#000000;stroke-width:0.264583"
       d="m 67.080143,112.46871 c -0.498719,0.009 -0.772502,0.21183 -1.400948,0.84026 -0.51427,0.51429 -1.009595,1.30972 -1.101225,1.76785 l -0.155029,0.77411 c 0.001,0.0162 0.0024,0.0324 0.0026,0.0486 2.36e-4,0.025 0.001,0.0498 0.001,0.0749 8e-4,0.0254 0.002,0.0512 0.0041,0.0765 0.0013,0.0182 0.0026,0.0367 0.0052,0.0548 0.0029,0.0194 0.0058,0.0389 0.0078,0.0584 0.0021,0.0171 0.0048,0.0342 0.0078,0.0512 0.0029,0.0174 0.0051,0.0351 0.0067,0.0527 0.0019,0.0171 0.0032,0.0342 0.0052,0.0512 0.0021,0.0165 0.0042,0.0327 0.0072,0.0491 0.0027,0.0138 0.0052,0.0288 0.0062,0.0429 4.02e-4,0.0119 -4.7e-5,0.0232 0,0.0351 -2.8e-5,0.0106 1.6e-4,0.0214 0,0.032 -1.4e-4,0.01 -0.001,0.0195 -0.001,0.0295 -8e-4,0.01 -0.002,0.0194 -0.0036,0.0294 -0.0012,0.0106 -0.0027,0.0214 -0.0036,0.032 -0.0011,0.0104 -0.0016,0.0207 -0.0026,0.031 -9e-4,0.01 -0.0026,0.0199 -0.0036,0.03 -0.0011,0.0116 -0.0018,0.0234 -0.0021,0.0351 1.1e-5,0.0143 -5.4e-5,0.0286 0,0.0429 6.2e-5,0.0131 1.98e-4,0.0262 5.17e-4,0.0393 4e-4,0.014 0.0013,0.0281 0.0026,0.0418 0.0016,0.0155 0.0039,0.0312 0.0072,0.0465 0.0031,0.0143 0.0063,0.0285 0.0088,0.0429 0.0025,0.0141 0.0054,0.0279 0.01034,0.0414 0.0041,0.0119 0.0081,0.0241 0.01344,0.0357 0.0045,0.01 0.0092,0.0196 0.01344,0.0295 0.0042,0.01 0.0081,0.0206 0.01137,0.031 0.003,0.009 0.0062,0.0194 0.0093,0.0284 0.0032,0.01 0.0063,0.019 0.0088,0.0289 0.0027,0.0108 0.0055,0.0226 0.0072,0.0336 0.0017,0.0132 0.0034,0.0261 0.0047,0.0393 0.0016,0.0157 0.0029,0.0313 0.0041,0.047 0.0016,0.0184 0.0033,0.0369 0.0057,0.0553 0.0023,0.0159 0.0049,0.0321 0.0067,0.0481 0.0018,0.0127 0.0039,0.0252 0.0072,0.0377 0.0043,0.0172 0.0085,0.0347 0.01189,0.0522 0.0016,0.009 0.0033,0.0176 0.0047,0.0264 0.05891,0.0654 0.152865,0.29777 0.307992,0.73484 0.209844,0.59123 0.718701,1.47805 1.130163,1.97094 0.607013,0.72711 0.935533,0.89607 1.743046,0.89607 0.853318,0 1.180361,-0.1944 2.292367,-1.36013 0.757958,-0.79459 1.36757,-1.71001 1.46606,-2.20245 l 0.15813,-0.7922 c -5.76e-4,-0.004 -10e-4,-0.008 -0.0015,-0.0124 -0.0023,-0.0228 -0.0041,-0.0454 -0.0067,-0.0682 l -5.17e-4,-5.2e-4 c -7.73e-4,-0.002 -0.0013,-0.004 -0.0021,-0.005 -0.0033,-0.007 -8.68e-4,-0.0122 0.0031,-0.0129 0.0011,-2e-4 0.0024,5e-5 0.0036,5.2e-4 -0.0078,-0.0121 -0.01422,-0.0251 -0.02015,-0.0382 -0.0043,-0.01 -0.0071,-0.0195 -0.01033,-0.0295 -1.05e-4,-3.2e-4 -4.32e-4,-0.001 -5.17e-4,-0.001 v -5.2e-4 c -0.0041,-0.005 -0.0085,-0.009 -0.0124,-0.014 -0.006,-0.008 -0.01154,-0.0163 -0.01654,-0.0243 -0.0044,-0.008 -0.0079,-0.0163 -0.01137,-0.0243 -0.0037,-0.009 -0.0075,-0.0173 -0.01189,-0.0263 -0.0049,-0.009 -0.0098,-0.0179 -0.01447,-0.0269 -0.0039,-0.008 -0.0084,-0.0147 -0.0124,-0.0227 -0.0041,-0.008 -0.0078,-0.0158 -0.01137,-0.0238 -0.0036,-0.008 -0.0075,-0.0163 -0.01085,-0.0253 -0.0032,-0.008 -0.0057,-0.0158 -0.0083,-0.0238 -0.0026,-0.008 -0.0046,-0.0168 -0.0067,-0.0248 -0.002,-0.008 -0.0037,-0.0163 -0.0062,-0.0243 -0.0025,-0.008 -0.0057,-0.0142 -0.0083,-0.0222 -0.0029,-0.008 -0.0055,-0.0178 -0.0083,-0.0258 -0.0027,-0.008 -0.0051,-0.0168 -0.0078,-0.0248 -0.0029,-0.009 -0.006,-0.0174 -0.0088,-0.0264 -0.0028,-0.009 -0.0061,-0.0189 -0.0098,-0.0279 -0.0036,-0.009 -0.0067,-0.0174 -0.0098,-0.0264 -0.0038,-0.0104 -0.0078,-0.0203 -0.01188,-0.0305 -0.0041,-0.0106 -0.0091,-0.0212 -0.01395,-0.0315 -0.0054,-0.011 -0.01019,-0.0219 -0.01499,-0.0331 -0.0045,-0.0101 -0.0086,-0.0208 -0.01292,-0.031 -0.0046,-0.01 -0.009,-0.0202 -0.01292,-0.0305 -0.0044,-0.0116 -0.0084,-0.0228 -0.0124,-0.0346 -0.004,-0.0124 -0.0096,-0.0247 -0.0155,-0.0362 -0.0062,-0.0126 -0.01315,-0.0246 -0.02015,-0.0367 -0.0071,-0.012 -0.01375,-0.0243 -0.02015,-0.0367 -0.0069,-0.0131 -0.01227,-0.027 -0.01757,-0.0408 -0.0056,-0.0151 -0.01062,-0.0304 -0.01602,-0.0455 -0.0048,-0.0141 -0.01009,-0.0283 -0.01499,-0.0424 -0.0044,-0.0134 -0.0084,-0.0265 -0.01292,-0.0398 -0.0041,-0.0126 -0.0078,-0.0254 -0.01137,-0.0382 -0.0036,-0.0124 -0.0068,-0.0249 -0.01034,-0.0372 -0.0037,-0.0122 -0.0083,-0.0243 -0.01292,-0.0362 -0.005,-0.0132 -0.01077,-0.0258 -0.01757,-0.0382 -0.0076,-0.0133 -0.01534,-0.0264 -0.02274,-0.0398 -0.0075,-0.0128 -0.01362,-0.0262 -0.01964,-0.0398 l -0.0026,-0.005 c -4.1e-4,-0.001 -0.001,-0.002 -0.001,-0.003 l -0.291455,-0.63924 c -0.440268,-0.96625 -2.023165,-2.05376 -3.224092,-2.21485 -0.237657,-0.0319 -0.429066,-0.0508 -0.595313,-0.0481 z"
       id="tooth28" /></g></svg>
