<?xml version="1.0" encoding="UTF-8" standalone="no"?>
<!-- Created with Inkscape (http://www.inkscape.org/) -->

<svg
   width="10.420846mm"
   height="9.8690586mm"
   viewBox="0 0 10.420846 9.8690586"
   version="1.1"
   id="svg13318"
   xml:space="preserve"
   xmlns="http://www.w3.org/2000/svg"
   xmlns:svg="http://www.w3.org/2000/svg"><defs
     id="defs13315" /><g
     id="layer1"
     transform="translate(-35.305042,-112.44813)"><path
       style="fill:#000000;stroke-width:0.264583"
       d="m 38.925789,112.45071 c -0.774969,-0.0221 -1.084603,0.0965 -1.640726,0.39791 -1.458182,0.79012 -1.994514,1.93571 -1.979724,4.23023 0.01501,2.32941 0.688322,3.74678 2.176611,4.58318 0.791934,0.44511 1.526938,0.56622 3.796151,0.62632 2.739362,0.0725 2.833226,0.0559 3.521232,-0.62942 0.526618,-0.52459 0.740125,-1.05129 0.837675,-2.06654 l 0.08888,-0.92139 v -5.1e-4 c -0.0118,-0.057 -0.0067,-0.0294 -0.01705,-0.0853 -0.01056,-0.0692 -0.01591,-0.13919 -0.0155,-0.20929 -0.0012,-0.0572 -0.0028,-0.11405 -0.0078,-0.17105 -0.0058,-0.0634 -0.01355,-0.12695 -0.0248,-0.18965 -0.0087,-0.068 -0.01929,-0.13572 -0.02429,-0.20412 -0.007,-0.0656 -0.01049,-0.13129 -0.01809,-0.19689 -0.0081,-0.0612 -0.01707,-0.12229 -0.02067,-0.18397 -0.0039,-0.0692 2.15e-4,-0.13854 -0.0016,-0.20774 5e-4,-0.10323 6e-4,-0.20632 0.0026,-0.30954 0.0021,-0.11118 0.0057,-0.2222 0.01033,-0.33331 0.0049,-0.13096 0.008,-0.26217 0.0067,-0.39326 -0.105108,-0.15107 -0.182934,-0.43582 -0.182934,-0.72192 0,-0.36422 -0.37771,-1.06235 -0.859896,-1.58853 -0.828679,-0.90427 -0.96053,-0.94992 -3.595646,-1.2423 -0.953987,-0.10588 -1.586559,-0.16965 -2.051555,-0.18294 z"
       id="tooth31" /></g></svg>
