<?xml version="1.0" encoding="UTF-8" standalone="no"?>
<!-- Created with Inkscape (http://www.inkscape.org/) -->

<svg
   width="8.6816349mm"
   height="9.359045mm"
   viewBox="0 0 8.6816349 9.359045"
   version="1.1"
   id="svg13318"
   xml:space="preserve"
   xmlns="http://www.w3.org/2000/svg"
   xmlns:svg="http://www.w3.org/2000/svg"><defs
     id="defs13315" /><g
     id="layer1"
     transform="translate(-153.1622,-91.04346)"><path
       style="fill:#000000;stroke-width:0.264583"
       d="m 155.60652,91.044562 c -0.60403,0.01466 -0.84899,0.179509 -1.37511,0.622184 -0.42247,0.35549 -0.77921,0.861711 -0.85111,1.188041 0.0143,0.0057 0.0266,0.02307 0.0274,0.05219 9e-4,0.03406 -0.008,0.0675 -0.016,0.100252 -0.0144,0.04944 -0.0298,0.09868 -0.0388,0.149345 -0.008,0.03869 -0.005,0.07771 0.001,0.116272 0.007,0.0374 0.0157,0.07423 0.0227,0.111621 0.0133,0.06472 0.0161,0.13058 0.0181,0.19637 0.001,0.07756 -0.003,0.155127 -0.0134,0.232027 -0.0101,0.06454 -0.0254,0.128227 -0.0383,0.192237 -0.0111,0.056 -0.0159,0.113085 -0.0202,0.170015 -0.002,0.05289 -4e-4,0.105717 -0.001,0.158647 -0.001,0.0646 -0.007,0.12912 -0.014,0.19327 -0.008,0.06764 -0.0173,0.134585 -0.0264,0.202055 -0.0111,0.07591 -0.0172,0.152436 -0.0232,0.228926 -0.005,0.07869 -0.007,0.157828 -0.009,0.236678 -0.002,0.07541 -0.002,0.150416 -0.003,0.225826 -0.002,0.07429 -0.004,0.148942 -0.005,0.223242 -0.001,0.08556 -0.002,0.170746 -0.002,0.256316 4e-4,0.09653 -0.005,0.193048 -0.0103,0.289388 -0.005,0.09044 -0.009,0.180931 -0.015,0.271301 -0.006,0.0815 -0.0206,0.161962 -0.0346,0.242362 -0.008,0.04621 -0.013,0.09277 -0.0171,0.139527 0.12471,0.04976 0.22066,0.304395 0.22066,0.611332 0,0.807155 1.02621,2.320788 1.86035,2.744544 0.35943,0.18228 0.83178,0.25653 1.05006,0.16433 0.21828,-0.0922 1.18522,-0.19728 2.14767,-0.23358 1.8925,-0.0713 2.71471,-0.377498 3.13831,-1.169443 0.60171,-1.124285 0.11175,-5.087684 -0.81183,-6.566524 -0.45331,-0.725845 -1.40631,-1.04148 -3.82406,-1.26659 -0.44032,-0.04099 -0.78002,-0.06982 -1.0542,-0.07958 -0.10281,-0.0037 -0.19638,-0.0047 -0.28267,-0.0026 z"
       id="tooth16" /></g></svg>
