<?xml version="1.0" encoding="UTF-8" standalone="no"?>
<!-- Created with Inkscape (http://www.inkscape.org/) -->

<svg
   width="10.880889mm"
   height="11.251377mm"
   viewBox="0 0 10.880889 11.251377"
   version="1.1"
   id="svg13318"
   xml:space="preserve"
   xmlns="http://www.w3.org/2000/svg"
   xmlns:svg="http://www.w3.org/2000/svg"><defs
     id="defs13315" /><g
     id="layer1"
     transform="translate(-132.74897,-88.896035)"><path
       style="fill:#000000;stroke-width:0.264583"
       d="m 137.62829,88.897416 c -2.23999,0.04399 -3.52123,1.137255 -4.35787,3.517615 -0.70089,1.99408 -0.69525,4.42994 0.0171,5.898865 0.87901,1.815794 1.28531,1.958874 5.01262,1.771464 3.17566,-0.159582 3.24159,-0.175429 4.12791,-1.011304 0.65872,-0.621235 0.90831,-1.090221 0.92811,-1.744596 l 0.0145,-0.473356 c -0.0166,-9.36e-4 -0.0339,-0.0164 -0.0388,-0.04858 -0.002,-0.01802 -0.004,-0.03599 -0.004,-0.05426 0.001,-0.03474 0.004,-0.06979 0.007,-0.104386 0.005,-0.04801 0.008,-0.09603 0.0108,-0.144177 0.005,-0.05989 0.01,-0.119764 0.0119,-0.179834 0.001,-0.06045 0.001,-0.120959 0.003,-0.181384 0.004,-0.06302 0.008,-0.125533 0.0165,-0.188103 0.008,-0.06079 0.0158,-0.121698 0.0238,-0.182418 0.008,-0.05929 0.0152,-0.118843 0.0222,-0.178283 0.006,-0.05362 0.0121,-0.107054 0.0181,-0.160714 0.005,-0.05393 0.0104,-0.108084 0.0124,-0.162264 0.002,-0.05106 0.007,-0.102112 0.0119,-0.152962 0.005,-0.04999 0.0105,-0.09989 0.0155,-0.149862 0.005,-0.04886 0.01,-0.09765 0.0165,-0.146244 0.005,-0.03828 0.011,-0.07685 0.015,-0.115239 0.004,-0.03363 0.009,-0.06712 0.0129,-0.100769 0.004,-0.03525 0.009,-0.0705 0.0124,-0.105936 0.002,-0.0367 0.006,-0.07335 0.009,-0.110071 0.002,-0.03209 0.003,-0.06397 0.003,-0.09612 0,-0.03173 0.001,-0.06389 0.002,-0.0956 0.001,-0.03339 0.003,-0.06656 0.007,-0.09974 0.004,-0.03063 0.007,-0.06111 0.0129,-0.09147 0.005,-0.02803 0.0115,-0.05567 0.0165,-0.08372 0.004,-0.02256 0.007,-0.04527 0.006,-0.06821 0,-0.02381 1e-5,-0.04802 0,-0.07183 0,-0.02434 2e-5,-0.04852 0,-0.07286 -3e-5,-0.02936 1e-4,-0.0585 0,-0.08785 -1.1e-4,-0.03023 -6e-4,-0.06073 -10e-4,-0.09095 0,-0.02481 -0.001,-0.04961 -0.002,-0.07441 -0.001,-0.02366 1.2e-4,-0.04717 0.001,-0.0708 0.001,-0.02232 0.003,-0.04482 0.008,-0.06666 0.005,-0.02325 0.0127,-0.04611 0.0217,-0.06821 0.003,-0.0062 0.005,-0.01246 0.008,-0.0186 l -0.015,-0.732772 c -0.0307,-1.473685 -1.4986,-2.897233 -3.40806,-3.306258 -0.97866,-0.209623 -1.83199,-0.311804 -2.57866,-0.29714 z"
       id="tooth14" /></g></svg>
