<?xml version="1.0" encoding="UTF-8" standalone="no"?>
<!-- Created with Inkscape (http://www.inkscape.org/) -->

<svg
   width="10.420846mm"
   height="9.8690586mm"
   viewBox="0 0 10.420846 9.8690586"
   version="1.1"
   id="svg13318"
   xml:space="preserve"
   xmlns="http://www.w3.org/2000/svg"
   xmlns:svg="http://www.w3.org/2000/svg"><defs
     id="defs13315" /><g
     id="layer1"
     transform="translate(-35.305042,-112.44813)"><path
       id="tooth31"
       style="fill:#000000;stroke-width:0.264583"
       d="m 38.925789,112.45071 c -0.774969,-0.0221 -1.084603,0.0965 -1.640726,0.39791 -1.458182,0.79012 -1.994514,1.93571 -1.979724,4.23023 0.01501,2.32941 0.688322,3.74678 2.176611,4.58318 0.791934,0.44511 1.526938,0.56622 3.796151,0.62632 2.739362,0.0725 2.833226,0.0559 3.521232,-0.62942 0.526618,-0.52459 0.740125,-1.05129 0.837675,-2.06654 l 0.08888,-0.92139 v -5.1e-4 c -0.0118,-0.057 -0.0067,-0.0294 -0.01705,-0.0853 -0.01056,-0.0692 -0.01591,-0.13919 -0.0155,-0.20929 -0.0012,-0.0572 -0.0028,-0.11405 -0.0078,-0.17105 -0.0058,-0.0634 -0.01355,-0.12695 -0.0248,-0.18965 -0.0087,-0.068 -0.01929,-0.13572 -0.02429,-0.20412 -0.007,-0.0656 -0.01049,-0.13129 -0.01809,-0.19689 -0.0081,-0.0612 -0.01707,-0.12229 -0.02067,-0.18397 -0.0039,-0.0692 2.15e-4,-0.13854 -0.0016,-0.20774 5e-4,-0.10323 6e-4,-0.20632 0.0026,-0.30954 0.0021,-0.11118 0.0057,-0.2222 0.01033,-0.33331 0.0049,-0.13096 0.008,-0.26217 0.0067,-0.39326 -0.105108,-0.15107 -0.182934,-0.43582 -0.182934,-0.72192 0,-0.36422 -0.37771,-1.06235 -0.859896,-1.58853 -0.828679,-0.90427 -0.96053,-0.94992 -3.595646,-1.2423 -0.953987,-0.10588 -1.586559,-0.16965 -2.051555,-0.18294 z m -0.439766,0.42483 c 0.339706,-0.006 0.772889,0.004 1.347721,0.0181 4.347959,0.10539 5.22531,0.82086 5.508708,4.49585 0.176649,2.29071 -0.168456,3.88941 -0.922941,4.2783 -1.395488,0.71923 -5.865561,0.44576 -7.101892,-0.4346 -1.302742,-0.92765 -1.742993,-2.16373 -1.632975,-4.58629 0.0883,-1.94425 0.152456,-2.14103 0.960664,-2.94659 0.643114,-0.64101 0.82162,-0.80597 1.840715,-0.82475 z m 3.074748,2.41074 c -0.04015,-0.0222 -0.04938,0.34321 -0.06615,1.17151 -0.03379,1.66969 -0.376982,1.98484 -1.793689,1.64589 -0.96985,-0.23205 -1.4118,-0.59088 -1.4118,-1.1467 0,-0.24541 -0.169475,-0.67768 -0.376721,-0.96015 -0.33259,-0.45327 -0.341292,-0.3798 -0.0739,0.62529 0.252121,0.94733 0.237942,1.18168 -0.08578,1.39268 -0.21405,0.13987 -0.588733,0.20599 -0.832507,0.14779 -0.292722,-0.0699 -0.395824,0.0191 -0.302824,0.26149 0.174672,0.45522 0.20547,0.45441 1.122412,-0.0191 0.592251,-0.30628 0.932909,-0.32571 1.640727,-0.0925 0.491251,0.16186 1.044556,0.33304 1.229382,0.38034 0.184852,0.0473 0.417566,0.47602 0.517281,0.9524 0.106141,0.50689 0.220583,0.67938 0.275953,0.41651 0.05203,-0.24704 -0.03247,-0.68582 -0.187586,-0.97565 -0.392805,-0.73391 0.0398,-0.9393 1.898592,-0.9002 1.356475,0.0285 1.524972,-0.0262 1.524972,-0.49403 0,-0.47812 -0.0375,-0.48804 -0.415479,-0.11007 -0.657224,0.65725 -2.838643,0.40342 -2.424658,-0.28215 0.07573,-0.12541 0.0449,-0.70414 -0.06821,-1.28623 -0.0883,-0.45439 -0.138629,-0.70866 -0.170015,-0.72709 z" /></g></svg>
