<?xml version="1.0" encoding="UTF-8" standalone="no"?>
<!-- Created with Inkscape (http://www.inkscape.org/) -->

<svg
   width="7.3210778mm"
   height="10.582311mm"
   viewBox="0 0 7.3210778 10.582311"
   version="1.1"
   id="svg13318"
   xml:space="preserve"
   xmlns="http://www.w3.org/2000/svg"
   xmlns:svg="http://www.w3.org/2000/svg"><defs
     id="defs13315" /><g
     id="layer1"
     transform="translate(-125.11477,-89.688067)"><path
       id="tooth13"
       style="fill:#000000;stroke-width:0.264583"
       d="m 128.72858,89.688067 c -1.27753,0 -1.88137,0.537609 -2.73214,2.432409 -1.43213,3.190135 -1.15233,5.024059 1.08004,7.081739 1.39272,1.283755 2.41055,1.396975 3.7021,0.411861 1.24586,-0.950235 1.81754,-2.632791 1.61851,-4.764051 -0.30964,-3.31574 -1.62205,-5.161958 -3.66851,-5.161958 z m 0.0537,0.264571 c 1.32174,0 2.2459,0.78354 2.7342,2.318205 1.03662,3.25787 0.86508,5.144918 -0.60823,6.693648 -0.6236,0.655515 -1.22757,1.040659 -1.62781,1.037659 -0.91769,-0.0064 -2.17624,-0.898143 -3.05149,-2.162138 -1.03983,-1.501735 -1.03418,-3.444044 0.0155,-5.506124 1.04362,-2.05016 1.39643,-2.38125 2.53783,-2.38125 z m -0.99421,2.513552 -0.0346,1.000455 c -0.0192,0.55038 -0.2096,1.418033 -0.42271,1.928048 -0.21314,0.51004 -0.28781,0.866166 -0.1664,0.791166 0.12139,-0.07503 0.36168,-0.476882 0.53382,-0.892452 0.29678,-0.716475 0.35973,-0.740899 1.22111,-0.471289 0.63871,0.19991 0.98822,0.514247 1.17771,1.057817 0.14823,0.425165 0.3383,0.704017 0.4222,0.620117 0.0839,-0.08389 0.0111,-0.41659 -0.16175,-0.73949 -0.18179,-0.33959 -0.25093,-1.046358 -0.16433,-1.676383 0.13501,-0.982355 0.11919,-1.023944 -0.16278,-0.427364 -0.41636,0.880915 -0.70162,1.049162 -1.36219,0.806152 -0.35412,-0.13023 -0.61144,-0.525646 -0.71624,-1.100191 z" /></g></svg>
