<?xml version="1.0" encoding="UTF-8" standalone="no"?>
<!-- Created with Inkscape (http://www.inkscape.org/) -->

<svg
   width="7.9963875mm"
   height="9.8673391mm"
   viewBox="0 0 7.9963875 9.8673391"
   version="1.1"
   id="svg13318"
   xml:space="preserve"
   xmlns="http://www.w3.org/2000/svg"
   xmlns:svg="http://www.w3.org/2000/svg"><defs
     id="defs13315" /><g
     id="layer1"
     transform="translate(-108.80059,-90.569336)"><path
       id="tooth11"
       style="fill:#000000;stroke-width:0.264583"
       d="m 112.62775,90.56967 c -0.90439,-0.01809 -1.84851,0.699708 -2.88716,2.152323 -0.84929,1.187825 -0.94,1.482844 -0.94,3.063379 0,1.51735 0.10074,1.88049 0.75861,2.742985 0.41704,0.546735 1.13142,1.22832 1.5875,1.514633 1.59428,1.00077 4.03333,0.0217 5.29012,-2.123382 0.43084,-0.735355 0.45342,-0.996306 0.18294,-2.088761 -0.17014,-0.686555 -0.77428,-2.035847 -1.34256,-2.998267 -0.8804,-1.490985 -1.74505,-2.244817 -2.64945,-2.26291 z m -0.008,0.275943 c 0.46795,-0.02986 0.91762,0.182521 1.41749,0.633036 0.75648,0.681775 2.31391,4.072539 2.35231,5.121134 0.046,1.255075 -0.78833,2.412007 -2.24999,3.119707 -1.64277,0.79525 -2.15245,0.6933 -3.7083,-0.740524 -2.19059,-2.01839 -1.92393,-4.978385 0.65939,-7.312215 0.57454,-0.519035 1.06116,-0.791282 1.5291,-0.821138 z m -2.87399,6.116427 c -0.0124,9.55e-4 -0.0191,0.0057 -0.0191,0.01447 0,0.07 0.38695,0.363304 0.85989,0.651639 0.90859,0.55396 0.99219,0.58939 0.99219,0.42013 0,-0.05839 -0.41672,-0.352164 -0.92604,-0.652674 -0.44567,-0.262913 -0.8202,-0.440248 -0.90692,-0.433565 z m 5.45961,0.414445 c -0.0993,0.0013 -0.40171,0.12768 -0.88418,0.379305 -0.41677,0.21739 -0.5795,0.392607 -0.36122,0.388607 0.21828,-0.0037 0.62807,-0.181675 0.91054,-0.395325 0.3302,-0.249615 0.43416,-0.373841 0.33486,-0.372587 z" /></g></svg>
