<?xml version="1.0" encoding="UTF-8" standalone="no"?>
<!-- Created with Inkscape (http://www.inkscape.org/) -->

<svg
   width="8.1174326mm"
   height="9.9592791mm"
   viewBox="0 0 8.1174326 9.9592791"
   version="1.1"
   id="svg13318"
   xml:space="preserve"
   xmlns="http://www.w3.org/2000/svg"
   xmlns:svg="http://www.w3.org/2000/svg"><defs
     id="defs13315" /><g
     id="layer1"
     transform="translate(-65.828821,-90.519366)"><path
       id="tooth06"
       style="fill:#000000;stroke-width:0.264583"
       d="m 70.045337,90.52109 c -1.127278,-0.05051 -2.213348,1.009 -3.302124,3.185335 -1.047453,2.09374 -1.183776,3.407461 -0.466638,4.494816 0.54544,0.827045 1.599941,1.699362 2.480468,2.052069 1.29983,0.52076 2.433553,0.1483 3.699516,-1.215428 1.879611,-2.024655 1.975874,-3.974007 0.315226,-6.388757 -0.947677,-1.378019 -1.849682,-2.088751 -2.726448,-2.128035 z m -0.0067,0.247013 c 0.223927,-0.0063 0.423217,0.0803 0.735872,0.255798 0.977398,0.54862 2.371443,2.454735 2.707329,3.7021 0.394415,1.464815 -0.04106,2.86695 -1.290878,4.154785 -0.560424,0.5775 -1.324329,1.108349 -1.69757,1.179774 -1.793752,0.3429 -4.422986,-1.662912 -4.422986,-3.374472 0,-0.468195 0.48764,-1.825058 1.083138,-3.014803 0.862974,-1.72417 1.269058,-2.251902 2.001945,-2.601392 0.410835,-0.195895 0.659223,-0.29547 0.88315,-0.30179 z m 2.778624,5.981547 -0.79375,0.489893 c -0.436562,0.269505 -0.843181,0.526507 -0.903821,0.570507 -0.06063,0.0441 0.06992,0.0801 0.289905,0.0801 0.21998,0 0.626606,-0.256938 0.903821,-0.570508 z m -5.36298,0.630435 c -0.02756,0.0032 0.07857,0.12063 0.286804,0.311608 0.277643,0.25466 0.699907,0.454968 0.938444,0.445968 0.274199,-0.01061 0.195749,-0.11204 -0.213424,-0.275435 -0.355962,-0.14216 -0.778226,-0.342698 -0.938444,-0.445968 -0.04005,-0.02582 -0.06419,-0.03724 -0.07338,-0.03617 z" /></g></svg>
