<?xml version="1.0" encoding="UTF-8" standalone="no"?>
<!-- Created with Inkscape (http://www.inkscape.org/) -->

<svg
   width="7.2744431mm"
   height="8.3458805mm"
   viewBox="0 0 7.2744431 8.3458805"
   version="1.1"
   id="svg13318"
   xml:space="preserve"
   xmlns="http://www.w3.org/2000/svg"
   xmlns:svg="http://www.w3.org/2000/svg"><defs
     id="defs13315" /><g
     id="layer1"
     transform="translate(-101.39223,-92.169919)"><path
       id="tooth10"
       style="fill:#000000;stroke-width:0.264583"
       d="m 104.49595,92.172638 c -1.63936,-0.09277 -3.03923,2.199452 -3.07992,5.188314 l -0.0238,1.719792 1.43661,0.727604 c 1.82793,0.925992 3.17845,0.941602 4.6917,0.05478 1.43457,-0.840695 1.49528,-1.566249 0.33435,-3.999239 -0.96841,-2.02908 -2.11889,-3.411848 -3.02824,-3.640088 -0.11109,-0.02788 -0.22144,-0.04497 -0.33073,-0.05116 z m -0.0191,0.425842 c 1.02073,0 1.86774,0.933039 3.01893,3.326929 1.04212,2.16662 1.12475,2.888146 0.37724,3.288171 -0.71332,0.38175 -3.62751,0.55988 -4.69325,0.286805 -1.48843,-0.38142 -1.73559,-0.752964 -1.55029,-2.329574 0.3407,-2.898715 1.38294,-4.572331 2.84737,-4.572331 z m 0.98495,7.44193 c 0.14387,0.002 0.27785,0.0211 0.36742,0.0574 v -5.2e-4 c 0.17913,0.0725 -0.0316,0.12696 -0.46819,0.12196 -0.43656,-0.005 -0.583,-0.0647 -0.32556,-0.13178 0.12871,-0.0335 0.28246,-0.0488 0.42633,-0.047 z m -0.36382,-1.48877 c -0.91792,0 -1.61409,0.0893 -1.54719,0.198438 0.15635,0.25501 2.50769,0.250765 2.91041,-0.0041 0.16835,-0.10689 -0.4453,-0.194304 -1.36322,-0.194304 z" /></g></svg>
