<?xml version="1.0" encoding="UTF-8" standalone="no"?>
<!-- Created with Inkscape (http://www.inkscape.org/) -->

<svg
   width="9.1473904mm"
   height="9.4023752mm"
   viewBox="0 0 9.1473904 9.4023752"
   version="1.1"
   id="svg13318"
   xml:space="preserve"
   xmlns="http://www.w3.org/2000/svg"
   xmlns:svg="http://www.w3.org/2000/svg"><defs
     id="defs13315" /><g
     id="layer1"
     transform="translate(-91.60711,-90.996676)"><path
       id="tooth09"
       style="fill:#000000;stroke-width:0.264583"
       d="m 95.763147,91.002192 c -1.116205,0.08342 -2.169352,1.112608 -3.13986,3.076298 -0.800983,1.620705 -1.012259,2.351071 -1.015959,3.516581 -0.0043,1.373305 0.04808,1.496996 0.789099,1.861386 0.436562,0.214665 1.329556,0.541851 1.984375,0.727083 1.903805,0.53845 4.11404,0.0539 5.913848,-1.296558 1.37259,-1.029785 -0.536289,-5.788779 -2.972425,-7.411434 -0.531395,-0.353914 -1.051725,-0.51127 -1.559078,-0.473351 z m 0.207222,0.307981 c 0.246698,8e-4 0.494585,0.104075 0.927592,0.310575 1.558904,0.743375 3.520489,4.016104 3.553789,5.929354 0.0108,0.618605 -0.14787,0.939159 -0.580843,1.175639 v -5.17e-4 c -0.73841,0.40329 -6.711179,0.585907 -7.540625,0.230477 -0.789032,-0.33809 -0.795035,-1.686284 -0.0155,-3.530534 0.926207,-2.19153 1.751881,-3.34119 2.736267,-3.81062 0.427287,-0.2037 0.67265,-0.305174 0.919323,-0.304374 z m 3.305225,7.92463 -0.79375,0.374137 c -0.821695,0.38726 -3.618893,0.49906 -4.431771,0.17725 -0.25469,-0.10085 0.45971,-0.186719 1.5875,-0.191719 1.127793,-0.0046 2.407736,-0.08737 2.844271,-0.183968 z m -3.13831,-1.21238 c -1.547435,0 -2.813516,0.02619 -2.813781,0.05839 -3.44e-4,0.03222 0.38592,0.170408 0.858862,0.306958 1.167579,0.33719 2.506387,0.31709 3.74034,-0.05529 0.935785,-0.28249 0.775073,-0.310058 -1.785421,-0.310058 z" /></g></svg>
