<?xml version="1.0" encoding="UTF-8" standalone="no"?>
<!-- Created with Inkscape (http://www.inkscape.org/) -->

<svg
   width="10.595411mm"
   height="9.8568773mm"
   viewBox="0 0 10.595411 9.8568773"
   version="1.1"
   id="svg13318"
   xml:space="preserve"
   xmlns="http://www.w3.org/2000/svg"
   xmlns:svg="http://www.w3.org/2000/svg"><defs
     id="defs13315" /><g
     id="layer1"
     transform="translate(-136.55956,-112.49958)"><path
       id="tooth18"
       style="fill:#000000;stroke-width:0.264583"
       d="m 143.85272,112.50153 c -0.43223,-0.0101 -1.00826,0.0196 -1.84743,0.076 -1.38245,0.0927 -2.80681,0.30875 -3.16519,0.48008 -0.93021,0.44462 -1.85714,1.94864 -1.88774,3.06234 l -0.0264,0.95343 -0.0165,-0.0522 c -0.001,0.007 -0.002,0.0134 -0.003,0.0202 -0.007,0.0378 -0.0173,0.0747 -0.0279,0.11163 -0.0112,0.0389 -0.0249,0.0769 -0.0393,0.11472 -0.0157,0.0406 -0.0301,0.0819 -0.0429,0.1235 -0.0116,0.0361 -0.0209,0.073 -0.0289,0.11007 -0.007,0.0327 -0.0136,0.0653 -0.0196,0.0982 -0.005,0.0302 -0.0105,0.0607 -0.0165,0.0909 -0.005,0.0292 -0.0101,0.0583 -0.0171,0.0873 -0.007,0.0302 -0.0142,0.0599 -0.0222,0.0899 -0.01,0.0357 -0.0198,0.071 -0.0305,0.10645 -0.0123,0.04 -0.0242,0.0804 -0.0346,0.12093 -0.009,0.0345 -0.0164,0.0692 -0.0232,0.10387 -0.006,0.0278 -0.011,0.0555 -0.014,0.0837 -0.002,0.0253 -0.004,0.0511 -0.005,0.0765 0,0.0299 -0.003,0.0596 -0.006,0.0894 -0.003,0.0331 -0.005,0.066 -0.007,0.0992 -0.002,0.0357 -0.004,0.0714 -0.007,0.10697 -0.003,0.0327 -0.006,0.0658 -0.005,0.0987 10e-4,0.0311 0.003,0.062 0.003,0.093 -2.2e-4,0.009 -0.001,0.0186 -0.002,0.0279 0.0485,0.12468 0.11222,0.36886 0.17931,0.71158 0.27841,1.42195 0.97674,2.43481 1.8495,2.68201 0.35068,0.0993 1.70885,0.11769 3.01842,0.0424 4.18155,-0.24331 5.55495,-1.57793 5.54695,-5.3914 -0.005,-2.25609 -0.37752,-3.08464 -1.79059,-3.9765 -0.47054,-0.29698 -0.79096,-0.42399 -1.51102,-0.4408 z m -0.53227,0.26911 c 0.73132,-0.0204 1.13889,0.0676 1.64745,0.28009 1.32827,0.55509 1.87843,1.70094 1.87843,3.91346 0,2.01 -0.58725,3.47161 -1.73012,4.30671 -0.53093,0.388 -1.31294,0.57029 -2.91042,0.67851 -3.01468,0.20421 -3.73828,0.0939 -4.46639,-0.68161 -0.58256,-0.62051 -0.62318,-0.85116 -0.55708,-3.18172 0.0774,-2.73137 0.49219,-4.11041 1.37821,-4.58473 0.3125,-0.16725 1.66346,-0.42829 3.00189,-0.58033 0.76401,-0.0868 1.31924,-0.13812 1.75803,-0.15038 z m -2.46548,2.44814 -0.10387,1.18649 c -0.0574,0.65245 -0.24515,1.27563 -0.41703,1.38493 -0.53539,0.34049 -1.71063,0.2262 -2.14561,-0.20878 -0.37797,-0.37797 -0.41599,-0.36803 -0.41599,0.11007 0,0.46455 0.17778,0.5249 1.52135,0.5209 2.21811,-0.007 2.25781,0.002 2.07791,0.47077 -0.089,0.2318 -0.22157,0.73782 -0.29507,1.12448 h -5.2e-4 c -0.0996,0.52447 -0.0448,0.47363 0.21549,-0.19998 0.28667,-0.74177 0.56519,-0.966 1.56063,-1.25626 1.03182,-0.30086 1.32142,-0.29675 1.94975,0.0284 0.74658,0.38733 1.17254,0.33329 1.17254,-0.14986 0,-0.1455 -0.11983,-0.19042 -0.26665,-0.0992 -0.14682,0.0907 -0.51791,0.0853 -0.82424,-0.0119 -0.47191,-0.14977 -0.53431,-0.32413 -0.41031,-1.14153 l 0.14625,-0.9648 -0.447,0.91622 c -0.33822,0.69327 -0.67225,0.96378 -1.37305,1.11259 -1.54805,0.32871 -1.84577,0.10111 -1.89807,-1.45107 z" /></g></svg>
