<?xml version="1.0" encoding="UTF-8" standalone="no"?>
<!-- Created with Inkscape (http://www.inkscape.org/) -->

<svg
   width="7.2463102mm"
   height="8.61901mm"
   viewBox="0 0 7.2463102 8.61901"
   version="1.1"
   id="svg13318"
   xml:space="preserve"
   xmlns="http://www.w3.org/2000/svg"
   xmlns:svg="http://www.w3.org/2000/svg"><defs
     id="defs13315" /><g
     id="layer1"
     transform="translate(-110.73228,-112.44271)"><path
       id="tooth21"
       style="fill:#000000;stroke-width:0.264583"
       d="m 115.16558,112.44271 c -1.15207,0 -2.524,0.79233 -3.35277,1.93631 -0.4049,0.55898 -0.593,0.79754 -0.68213,0.79065 -0.0317,0.0643 -0.0594,0.13039 -0.0847,0.19741 -0.0214,0.0559 -0.0376,0.11345 -0.0512,0.17156 -4.5e-4,0.002 -0.001,0.004 -0.002,0.006 -10e-4,0.006 -0.003,0.0122 -0.004,0.0186 -0.0175,0.0982 -0.0336,0.19699 -0.0491,0.29559 -0.002,0.0156 -0.006,0.0309 -0.009,0.0465 -7.2e-4,0.005 -10e-4,0.01 -0.002,0.015 -0.0102,0.0741 -0.0239,0.14768 -0.0377,0.22118 -0.007,0.034 -0.0131,0.0683 -0.0191,0.10232 -0.004,0.0194 -0.0133,0.0308 -0.0233,0.0336 -0.0176,0.0563 -0.0338,0.11301 -0.0553,0.16795 -0.0217,0.0614 -0.0426,0.1226 -0.061,0.185 l 0.17467,0.7953 c 0.21957,0.99967 1.98803,3.04222 2.99464,3.45922 0.53549,0.22184 0.96031,0.23376 1.46607,0.0424 0.776,-0.29508 2.27973,-2.43861 2.32233,-3.31091 0.008,-0.15357 0.0434,-0.15617 0.0935,-0.0532 0.001,-0.008 0.003,-0.0155 0.005,-0.0233 0.002,-0.009 0.004,-0.0187 0.006,-0.0279 -0.003,-0.007 -0.005,-0.0148 -0.004,-0.0258 0.007,-0.0627 0.0105,-0.12572 0.0155,-0.18862 0.008,-0.13444 0.0183,-0.26813 0.0367,-0.40153 0.02,-0.14357 0.0492,-0.28531 0.0801,-0.42684 0.0186,-0.0849 0.0372,-0.16993 0.0558,-0.25477 l -0.0248,-0.78393 c -0.0365,-1.14667 -1.75611,-2.98741 -2.79053,-2.98741 z m -0.20722,0.37703 c 0.84926,0.0104 1.64232,0.47478 2.20865,1.39113 0.90819,1.46948 0.37156,4.15173 -1.16737,5.83478 -1.18729,1.29847 -3.59466,0.15143 -4.56717,-2.17609 -0.50225,-1.20256 -0.1914,-2.3815 0.98134,-3.71709 0.78993,-0.89968 1.69528,-1.34317 2.54455,-1.33273 z m 1.01131,3.19313 -0.1447,0.92346 c -0.24136,1.53663 -2.37166,2.11709 -2.80138,0.76326 -0.0935,-0.29456 -0.21947,-0.48643 -0.27957,-0.42633 -0.0601,0.0601 0.0172,0.47172 0.17157,0.91467 0.25788,0.73967 0.3495,0.78902 1.12551,0.60617 1.84979,-0.43585 2.20156,-0.74416 2.05931,-1.80609 z" /></g></svg>
