<?xml version="1.0" encoding="UTF-8" standalone="no"?>
<!-- Created with Inkscape (http://www.inkscape.org/) -->

<svg
   width="11.541363mm"
   height="10.78691mm"
   viewBox="0 0 11.541363 10.78691"
   version="1.1"
   id="svg13318"
   xml:space="preserve"
   xmlns="http://www.w3.org/2000/svg"
   xmlns:svg="http://www.w3.org/2000/svg"><defs
     id="defs13315" /><g
     id="layer1"
     transform="translate(-45.833965,-112.22251)"><path
       id="tooth30"
       style="fill:#000000;stroke-width:0.264583"
       d="m 51.350871,112.22257 c -0.818519,10e-4 -1.537728,0.28496 -2.738851,0.8971 -1.963023,1.00043 -2.649968,1.70134 -2.649968,2.70423 0,0.20631 -0.04221,0.35941 -0.107487,0.43098 -1.51e-4,0.11148 -0.0031,0.22298 -0.0072,0.33435 -0.0046,0.10962 -0.0078,0.21897 -0.0098,0.32866 -0.0015,0.10208 -0.0022,0.20436 -0.0026,0.30644 0.002,0.0638 -0.0039,0.12812 0.001,0.19172 0.0032,0.0563 0.0112,0.11163 0.0186,0.16743 0.0084,0.0676 0.01192,0.13591 0.01912,0.20361 0.0048,0.0667 0.01527,0.13265 0.02377,0.19895 0.01191,0.0655 0.01974,0.1311 0.02584,0.1974 0.0056,0.0625 0.0075,0.12541 0.0088,0.18811 3e-4,0.059 0.0024,0.11843 0.0124,0.17673 0.0091,0.0486 0.0043,0.0235 0.01499,0.0749 0.01241,0.0596 0.0062,0.10689 -0.01085,0.14056 l 0.277502,0.82011 c 0.471252,1.39179 1.580921,2.79887 2.514058,3.1874 0.291041,0.12118 1.815325,0.22819 3.386874,0.23719 3.937903,0.0231 4.540877,-0.34532 5.088061,-3.10937 l 0.160197,-0.80822 c -0.01161,-0.0482 -0.0233,-0.0966 -0.02584,-0.14624 -0.0019,-0.0457 -0.0042,-0.0911 -0.01033,-0.13643 -0.0071,-0.0535 -0.0138,-0.10713 -0.01395,-0.16123 9e-4,-0.0676 0.0016,-0.13497 0.0041,-0.20257 0.0027,-0.0767 0.0074,-0.15378 0.0052,-0.23048 -0.0024,-0.0684 -0.0054,-0.13664 -0.01344,-0.20464 -0.0086,-0.0679 -0.02319,-0.13498 -0.03049,-0.20308 -0.01294,-0.0884 -0.02945,-0.17607 -0.04444,-0.26407 -0.0087,-0.0706 -0.01395,-0.14159 -0.02015,-0.21239 -0.0059,-0.0674 -0.01358,-0.13471 -0.02997,-0.20051 -0.01111,-0.0561 -0.02589,-0.11148 -0.02739,-0.16898 -0.0047,-0.0553 -0.0087,-0.11038 -0.0098,-0.16588 -0.0031,-0.058 -0.0075,-0.11583 -0.01344,-0.17363 -0.0034,-0.0522 -0.0096,-0.10426 -0.01705,-0.15606 -0.01,-0.0686 -0.02204,-0.13711 -0.02119,-0.20671 4e-4,-0.0662 0.0011,-0.13224 0.0031,-0.19844 5.15e-4,-0.0151 0.0014,-0.0303 0.0021,-0.0455 l -0.01499,-0.48938 c -0.03302,-1.0945 -1.343976,-2.1856 -3.382739,-2.81533 -1.030356,-0.31825 -1.72706,-0.48782 -2.36368,-0.48679 z m -0.10542,0.30486 c 0.197105,-10e-4 0.399599,0.0226 0.633553,0.0615 1.783932,0.29679 3.82435,1.16485 4.370276,1.8588 1.168229,1.4852 0.922147,6.59224 -0.372071,7.71891 -0.616066,0.53637 -0.951311,0.59435 -3.381188,0.58085 -3.535949,-0.0196 -4.318593,-0.30594 -5.329908,-1.94459 -0.65851,-1.06703 -0.81833,-1.64193 -0.89917,-3.24269 -0.125246,-2.48012 0.1826,-2.97038 2.641183,-4.20853 1.202524,-0.60557 1.74601,-0.81937 2.337325,-0.82269 z m 1.684135,3.21414 v 5.2e-4 5.2e-4 5.1e-4 c -0.05773,0.0218 -0.04185,0.259 0.03979,0.75138 0.09218,0.55602 0.232072,1.17951 0.311092,1.38544 0.184656,0.4812 -1.045295,0.96801 -1.90221,0.75293 -0.685185,-0.17198 -1.563797,-0.91249 -2.324406,-1.95905 -0.37054,-0.50992 -0.357674,-0.43496 0.05633,0.32917 l 0.536401,0.99064 -0.770496,0.39843 c -0.704097,0.36409 -0.794375,0.35943 -1.040763,-0.0641 -0.30692,-0.52687 -0.356751,-0.22601 -0.113171,0.68368 0.09096,0.33977 0.238162,0.51547 0.327112,0.39067 0.08895,-0.12481 0.4963,-0.43956 0.904854,-0.6997 0.701883,-0.44696 0.806641,-0.44948 1.902726,-0.031 1.168944,0.44643 1.672998,1.19613 1.750798,2.60501 0.02344,0.42436 0.05861,0.45077 0.148828,0.10852 0.06498,-0.24649 -3.1e-4,-0.87771 -0.145211,-1.4025 -0.238943,-0.86535 -0.208507,-0.9749 0.327629,-1.17874 0.920397,-0.34992 3.077331,-0.0261 3.077331,0.46199 0,0.22359 0.06138,0.34485 0.136426,0.26975 0.07505,-0.075 0.02777,-0.60136 -0.10542,-1.16892 -0.147256,-0.62761 -0.252548,-0.79814 -0.268718,-0.43615 -0.05925,1.3271 -2.403055,0.29821 -2.412255,-1.05885 -0.0022,-0.32742 -0.130041,-0.77339 -0.284221,-0.99167 -0.05202,-0.0737 -0.09295,-0.1195 -0.12299,-0.13436 -0.01127,-0.006 -0.02121,-0.007 -0.02945,-0.004 z" /></g></svg>
