<?xml version="1.0" encoding="UTF-8" standalone="no"?>
<!-- Created with Inkscape (http://www.inkscape.org/) -->

<svg
   width="5.8752451mm"
   height="6.8791699mm"
   viewBox="0 0 5.8752451 6.8791699"
   version="1.1"
   id="svg13318"
   xml:space="preserve"
   xmlns="http://www.w3.org/2000/svg"
   xmlns:svg="http://www.w3.org/2000/svg"><defs
     id="defs13315" /><g
     id="layer1"
     transform="translate(-85.20259,-112.44219)"><path
       id="tooth25"
       style="fill:#000000;stroke-width:0.264583"
       d="m 88.048372,112.44219 c -1.114761,0 -2.653421,0.79518 -2.819466,1.45676 -0.209632,0.83524 0.872125,3.45054 1.860869,4.49895 0.479196,0.50812 1.043113,0.92346 1.253153,0.92346 1.361848,0 3.307574,-4.23138 2.575037,-5.60018 -0.341717,-0.63851 -1.778733,-1.27899 -2.869593,-1.27899 z m -0.01757,0.29855 c 0.11989,0 0.239779,0.0181 0.33073,0.0548 0.181876,0.0733 0.03307,0.13384 -0.33073,0.13384 -0.363774,0 -0.51263,-0.0604 -0.330729,-0.13384 0.09095,-0.0367 0.210864,-0.0548 0.330729,-0.0548 z m 0.346233,0.50292 c 0.673765,2.1e-4 1.314752,0.0527 1.704288,0.1571 0.496217,0.13298 0.594829,0.34159 0.592729,1.25315 -0.0031,1.30685 -1.062437,3.71538 -1.810226,4.11551 -0.698415,0.37378 -0.632049,0.39469 -1.415934,-0.44183 -0.974978,-1.04036 -1.79834,-2.80702 -1.79834,-3.85868 0,-0.80026 0.09448,-0.92271 0.826823,-1.06918 0.520226,-0.10424 1.22687,-0.15628 1.90066,-0.15607 z m -0.115239,0.81394 v 5.1e-4 c -0.239778,-7e-4 -0.489306,0.0135 -0.690397,0.0439 v 5.2e-4 c -0.402182,0.0608 -0.135884,0.1122 0.591695,0.1142 0.727517,0.002 1.056619,-0.0478 0.731222,-0.11059 -0.162711,-0.0316 -0.392742,-0.0479 -0.63252,-0.0486 z" /></g></svg>
