<?xml version="1.0" encoding="UTF-8" standalone="no"?>
<!-- Created with Inkscape (http://www.inkscape.org/) -->

<svg
   width="9.7441177mm"
   height="9.414957mm"
   viewBox="0 0 9.7441177 9.414957"
   version="1.1"
   id="svg13318"
   xml:space="preserve"
   xmlns="http://www.w3.org/2000/svg"
   xmlns:svg="http://www.w3.org/2000/svg"><defs
     id="defs13315" /><g
     id="layer1"
     transform="translate(-147.59011,-112.44219)"><path
       id="tooth17"
       style="fill:#000000;stroke-width:0.264583"
       d="m 152.37054,112.44219 c -2.43554,0 -2.71431,0.0534 -3.43079,0.65629 -1.13938,0.95873 -1.46974,1.9768 -1.3131,4.0473 0.18109,2.39358 0.81093,3.87126 1.87327,4.3956 0.64929,0.32052 1.32237,0.37856 2.95692,0.25683 3.64305,-0.27128 4.70483,-1.29103 4.85811,-4.66638 0.17268,-3.80241 -0.76249,-4.68964 -4.94441,-4.68964 z m -0.14469,0.26425 c 4.03498,0 4.99534,0.87565 4.81779,4.39146 -0.10322,2.04397 -0.51783,2.91568 -1.82469,3.83543 -0.8819,0.62066 -4.3238,0.84607 -5.48184,0.35915 -0.92565,-0.38914 -1.25491,-1.01121 -1.69912,-3.20963 -0.40028,-1.98083 -0.0861,-3.60823 0.88315,-4.57749 0.77603,-0.77602 0.86928,-0.79892 3.30471,-0.79892 z m 0.11627,2.51834 c -0.0131,-0.003 -0.0283,6.5e-4 -0.0455,0.0119 -0.12997,0.0803 -0.23668,0.35093 -0.23668,0.601 0,0.25008 -0.18533,0.71942 -0.41186,1.04283 -0.49845,0.71164 -1.88808,0.79958 -2.36317,0.14986 -0.26864,-0.36734 -0.29988,-0.29914 -0.19378,0.42375 0.0695,0.47377 0.20044,0.76002 0.29094,0.63614 0.0905,-0.12388 0.46199,-0.23924 0.82579,-0.25684 0.3638,-0.0176 1.03223,-0.11851 1.48518,-0.22427 l 0.82372,-0.19224 -0.0806,1.4149 c -0.0799,1.40463 -0.0789,1.40569 0.10956,0.22376 0.10441,-0.65484 0.27403,-1.32479 0.37724,-1.48931 0.26528,-0.42287 1.46217,-0.6063 2.33112,-0.35709 0.55895,0.1603 0.77436,0.11228 0.894,-0.19947 0.0867,-0.22594 0.0953,-0.47312 0.0191,-0.54932 -0.0762,-0.0762 -0.13849,0.006 -0.13849,0.1819 0,0.22208 -0.27925,0.26843 -0.90847,0.15038 -0.49984,-0.0938 -1.34161,-0.0277 -1.87017,0.14676 -0.52856,0.17442 -1.00592,0.27204 -1.06092,0.21704 -0.055,-0.055 3e-5,-0.5421 0.12196,-1.08262 0.11289,-0.5005 0.12253,-0.83119 0.031,-0.84904 z" /></g></svg>
